<?xml version="1.0" encoding="UTF-8" standalone="no"?>
<!DOCTYPE svg PUBLIC "-//W3C//DTD SVG 1.1//EN"
 "http://www.w3.org/Graphics/SVG/1.1/DTD/svg11.dtd">
<!-- Generated by graphviz version 9.0.0 (20230911.1827)
 -->
<!-- Title: domain ontology Pages: 1 -->
<svg width="357pt" height="368pt"
 viewBox="0.00 0.00 356.75 368.00" xmlns="http://www.w3.org/2000/svg" xmlns:xlink="http://www.w3.org/1999/xlink">
<g id="graph0" class="graph" transform="scale(1 1) rotate(0) translate(4 364)">
<title>domain ontology</title>
<polygon fill="white" stroke="none" points="-4,4 -4,-364 352.75,-364 352.75,4 -4,4"/>
<!-- Activity -->
<g id="node1" class="node">
<title>Activity</title>
<polygon fill="white" stroke="black" points="222.75,-317.25 222.75,-359.5 276.75,-359.5 276.75,-317.25 222.75,-317.25"/>
<text text-anchor="start" x="237.38" y="-349.85" font-family="Helvetica,Arial,sans-serif" font-weight="bold" font-size="7.00">Activity</text>
<polyline fill="none" stroke="black" points="222.75,-343.25 276,-343.25"/>
<text text-anchor="start" x="233.25" y="-332.6" font-family="Helvetica,Arial,sans-serif" font-size="7.00">+ property</text>
<text text-anchor="start" x="233.25" y="-323.6" font-family="Helvetica,Arial,sans-serif" font-size="7.00"> ...</text>
</g>
<!-- hasParticipant -->
<g id="node8" class="node">
<title>hasParticipant</title>
<polygon fill="green" stroke="none" points="82.62,-280.75 26.88,-280.75 26.88,-262.25 82.62,-262.25 82.62,-280.75"/>
<text text-anchor="middle" x="54.75" y="-272" font-family="Helvetica,Arial,sans-serif" font-size="5.00">hasParticipant / </text>
<text text-anchor="middle" x="54.75" y="-266.75" font-family="Helvetica,Arial,sans-serif" font-size="5.00">participatesIn</text>
</g>
<!-- Activity&#45;&gt;hasParticipant -->
<g id="edge3" class="edge">
<title>Activity&#45;&gt;hasParticipant</title>
<path fill="none" stroke="black" stroke-width="0.3" d="M222.64,-345C169.06,-345 54.75,-345 54.75,-345 54.75,-345 54.75,-300.14 54.75,-280.51"/>
</g>
<!-- refersToConceptualObject -->
<g id="node10" class="node">
<title>refersToConceptualObject</title>
<polygon fill="green" stroke="none" points="240.62,-278.12 160.88,-278.12 160.88,-264.88 240.62,-264.88 240.62,-278.12"/>
<text text-anchor="middle" x="200.75" y="-269.38" font-family="Helvetica,Arial,sans-serif" font-size="5.00">refersToConceptualObject</text>
</g>
<!-- Activity&#45;&gt;refersToConceptualObject -->
<g id="edge9" class="edge">
<title>Activity&#45;&gt;refersToConceptualObject</title>
<path fill="none" stroke="black" stroke-width="0.3" d="M231.69,-316.85C231.69,-303.41 231.69,-287.01 231.69,-278.08"/>
</g>
<!-- refersToPhysicalObject -->
<g id="node11" class="node">
<title>refersToPhysicalObject</title>
<polygon fill="green" stroke="none" points="328.25,-144.38 255.25,-144.38 255.25,-131.12 328.25,-131.12 328.25,-144.38"/>
<text text-anchor="middle" x="291.75" y="-135.62" font-family="Helvetica,Arial,sans-serif" font-size="5.00">refersToPhysicalObject</text>
</g>
<!-- Activity&#45;&gt;refersToPhysicalObject -->
<g id="edge11" class="edge">
<title>Activity&#45;&gt;refersToPhysicalObject</title>
<path fill="none" stroke="black" stroke-width="0.3" d="M266,-316.9C266,-272.02 266,-170.26 266,-144.02"/>
</g>
<!-- takesPlaceAt -->
<g id="node13" class="node">
<title>takesPlaceAt</title>
<polygon fill="green" stroke="none" points="133.12,-213.88 80.38,-213.88 80.38,-195.38 133.12,-195.38 133.12,-213.88"/>
<text text-anchor="middle" x="106.75" y="-205.12" font-family="Helvetica,Arial,sans-serif" font-size="5.00">takesPlaceAt / </text>
<text text-anchor="middle" x="106.75" y="-199.88" font-family="Helvetica,Arial,sans-serif" font-size="5.00">hosts</text>
</g>
<!-- Activity&#45;&gt;takesPlaceAt -->
<g id="edge15" class="edge">
<title>Activity&#45;&gt;takesPlaceAt</title>
<path fill="none" stroke="black" stroke-width="0.3" d="M222.4,-331C181.17,-331 107.88,-331 107.88,-331 107.88,-331 107.88,-242.69 107.88,-213.71"/>
</g>
<!-- Actor -->
<g id="node2" class="node">
<title>Actor</title>
<polygon fill="white" stroke="black" points="2.75,-183.5 2.75,-225.75 56.75,-225.75 56.75,-183.5 2.75,-183.5"/>
<text text-anchor="start" x="20.75" y="-216.1" font-family="Helvetica,Arial,sans-serif" font-weight="bold" font-size="7.00">Actor</text>
<polyline fill="none" stroke="black" points="2.75,-209.5 56,-209.5"/>
<text text-anchor="start" x="13.25" y="-198.85" font-family="Helvetica,Arial,sans-serif" font-size="7.00">+ property</text>
<text text-anchor="start" x="13.25" y="-189.85" font-family="Helvetica,Arial,sans-serif" font-size="7.00"> ...</text>
</g>
<!-- relatedToPlace -->
<g id="node12" class="node">
<title>relatedToPlace</title>
<polygon fill="green" stroke="none" points="53.5,-144.38 0,-144.38 0,-131.12 53.5,-131.12 53.5,-144.38"/>
<text text-anchor="middle" x="26.75" y="-135.62" font-family="Helvetica,Arial,sans-serif" font-size="5.00">relatedToPlace</text>
</g>
<!-- Actor&#45;&gt;relatedToPlace -->
<g id="edge13" class="edge">
<title>Actor&#45;&gt;relatedToPlace</title>
<path fill="none" stroke="black" stroke-width="0.3" d="M28.12,-183.1C28.12,-169.66 28.12,-153.26 28.12,-144.33"/>
</g>
<!-- Address -->
<g id="node3" class="node">
<title>Address</title>
<polygon fill="white" stroke="black" points="294.75,-317.25 294.75,-359.5 348.75,-359.5 348.75,-317.25 294.75,-317.25"/>
<text text-anchor="start" x="307.88" y="-349.85" font-family="Helvetica,Arial,sans-serif" font-weight="bold" font-size="7.00">Address</text>
<polyline fill="none" stroke="black" points="294.75,-343.25 348,-343.25"/>
<text text-anchor="start" x="305.25" y="-332.6" font-family="Helvetica,Arial,sans-serif" font-size="7.00">+ property</text>
<text text-anchor="start" x="305.25" y="-323.6" font-family="Helvetica,Arial,sans-serif" font-size="7.00"> ...</text>
</g>
<!-- ConceptualObject -->
<g id="node4" class="node">
<title>ConceptualObject</title>
<polygon fill="white" stroke="black" points="154.38,-183.5 154.38,-225.75 231.12,-225.75 231.12,-183.5 154.38,-183.5"/>
<text text-anchor="start" x="162.38" y="-216.1" font-family="Helvetica,Arial,sans-serif" font-weight="bold" font-size="7.00">ConceptualObject</text>
<polyline fill="none" stroke="black" points="154.38,-209.5 231.12,-209.5"/>
<text text-anchor="start" x="176.62" y="-198.85" font-family="Helvetica,Arial,sans-serif" font-size="7.00">+ property</text>
<text text-anchor="start" x="176.62" y="-189.85" font-family="Helvetica,Arial,sans-serif" font-size="7.00"> ...</text>
</g>
<!-- describesPhysicalObject -->
<g id="node7" class="node">
<title>describesPhysicalObject</title>
<polygon fill="green" stroke="none" points="237.5,-147 148,-147 148,-128.5 237.5,-128.5 237.5,-147"/>
<text text-anchor="middle" x="192.75" y="-138.25" font-family="Helvetica,Arial,sans-serif" font-size="5.00">describesPhysicalObject / </text>
<text text-anchor="middle" x="192.75" y="-133" font-family="Helvetica,Arial,sans-serif" font-size="5.00">describedByConceptualObject</text>
</g>
<!-- ConceptualObject&#45;&gt;describesPhysicalObject -->
<g id="edge1" class="edge">
<title>ConceptualObject&#45;&gt;describesPhysicalObject</title>
<path fill="none" stroke="black" stroke-width="0.3" d="M192.75,-183.1C192.75,-170.88 192.75,-156.22 192.75,-146.94"/>
</g>
<!-- involvedIn -->
<g id="node9" class="node">
<title>involvedIn</title>
<polygon fill="green" stroke="none" points="348.75,-13.25 308.75,-13.25 308.75,0 348.75,0 348.75,-13.25"/>
<text text-anchor="middle" x="328.75" y="-4.5" font-family="Helvetica,Arial,sans-serif" font-size="5.00">involvedIn</text>
</g>
<!-- ConceptualObject&#45;&gt;involvedIn -->
<g id="edge5" class="edge">
<title>ConceptualObject&#45;&gt;involvedIn</title>
<path fill="none" stroke="black" stroke-width="0.3" d="M231.43,-204C274.6,-204 338.5,-204 338.5,-204 338.5,-204 338.5,-47.44 338.5,-13.19"/>
</g>
<!-- PhysicalObject -->
<g id="node5" class="node">
<title>PhysicalObject</title>
<polygon fill="white" stroke="black" points="258.62,-49.75 258.62,-92 324.88,-92 324.88,-49.75 258.62,-49.75"/>
<text text-anchor="start" x="266.62" y="-82.35" font-family="Helvetica,Arial,sans-serif" font-weight="bold" font-size="7.00">PhysicalObject</text>
<polyline fill="none" stroke="black" points="258.62,-75.75 324.88,-75.75"/>
<text text-anchor="start" x="275.62" y="-65.1" font-family="Helvetica,Arial,sans-serif" font-size="7.00">+ property</text>
<text text-anchor="start" x="275.62" y="-56.1" font-family="Helvetica,Arial,sans-serif" font-size="7.00"> ...</text>
</g>
<!-- PhysicalObject&#45;&gt;involvedIn -->
<g id="edge7" class="edge">
<title>PhysicalObject&#45;&gt;involvedIn</title>
<path fill="none" stroke="black" stroke-width="0.3" d="M316.81,-49.48C316.81,-36.78 316.81,-21.54 316.81,-13.09"/>
</g>
<!-- Place -->
<g id="node6" class="node">
<title>Place</title>
<polygon fill="white" stroke="black" points="18.75,-49.75 18.75,-92 72.75,-92 72.75,-49.75 18.75,-49.75"/>
<text text-anchor="start" x="36.38" y="-82.35" font-family="Helvetica,Arial,sans-serif" font-weight="bold" font-size="7.00">Place</text>
<polyline fill="none" stroke="black" points="18.75,-75.75 72,-75.75"/>
<text text-anchor="start" x="29.25" y="-65.1" font-family="Helvetica,Arial,sans-serif" font-size="7.00">+ property</text>
<text text-anchor="start" x="29.25" y="-56.1" font-family="Helvetica,Arial,sans-serif" font-size="7.00"> ...</text>
</g>
<!-- describesPhysicalObject&#45;&gt;PhysicalObject -->
<g id="edge2" class="edge">
<title>describesPhysicalObject&#45;&gt;PhysicalObject</title>
<path fill="none" stroke="black" stroke-width="0.3" d="M192.75,-128.61C192.75,-110.12 192.75,-70 192.75,-70 192.75,-70 254.78,-70 254.78,-70"/>
<polygon fill="black" stroke="black" stroke-width="0.3" points="254.78,-71.05 257.78,-70 254.78,-68.95 254.78,-71.05"/>
</g>
<!-- hasParticipant&#45;&gt;Actor -->
<g id="edge4" class="edge">
<title>hasParticipant&#45;&gt;Actor</title>
<path fill="none" stroke="black" stroke-width="0.3" d="M41.81,-262.48C41.81,-262.48 41.81,-229.59 41.81,-229.59"/>
<polygon fill="black" stroke="black" stroke-width="0.3" points="42.86,-229.59 41.81,-226.59 40.76,-229.59 42.86,-229.59"/>
</g>
<!-- involvedIn&#45;&gt;Activity -->
<g id="edge6" class="edge">
<title>involvedIn&#45;&gt;Activity</title>
<path fill="none" stroke="black" stroke-width="0.3" d="M309.02,-4C284.4,-4 245.5,-4 245.5,-4 245.5,-4 245.5,-313.5 245.5,-313.5"/>
<polygon fill="black" stroke="black" stroke-width="0.3" points="244.45,-313.5 245.5,-316.5 246.55,-313.5 244.45,-313.5"/>
</g>
<!-- involvedIn&#45;&gt;Activity -->
<g id="edge8" class="edge">
<title>involvedIn&#45;&gt;Activity</title>
<path fill="none" stroke="black" stroke-width="0.3" d="M308.97,-8C285.75,-8 250.38,-8 250.38,-8 250.38,-8 250.38,-313.5 250.38,-313.5"/>
<polygon fill="black" stroke="black" stroke-width="0.3" points="249.33,-313.5 250.38,-316.5 251.43,-313.5 249.33,-313.5"/>
</g>
<!-- refersToConceptualObject&#45;&gt;ConceptualObject -->
<g id="edge10" class="edge">
<title>refersToConceptualObject&#45;&gt;ConceptualObject</title>
<path fill="none" stroke="black" stroke-width="0.3" d="M196,-265.09C196,-265.09 196,-229.62 196,-229.62"/>
<polygon fill="black" stroke="black" stroke-width="0.3" points="197.05,-229.62 196,-226.62 194.95,-229.62 197.05,-229.62"/>
</g>
<!-- refersToPhysicalObject&#45;&gt;PhysicalObject -->
<g id="edge12" class="edge">
<title>refersToPhysicalObject&#45;&gt;PhysicalObject</title>
<path fill="none" stroke="black" stroke-width="0.3" d="M291.75,-131.34C291.75,-131.34 291.75,-95.87 291.75,-95.87"/>
<polygon fill="black" stroke="black" stroke-width="0.3" points="292.8,-95.87 291.75,-92.87 290.7,-95.87 292.8,-95.87"/>
</g>
<!-- relatedToPlace&#45;&gt;Place -->
<g id="edge14" class="edge">
<title>relatedToPlace&#45;&gt;Place</title>
<path fill="none" stroke="black" stroke-width="0.3" d="M36.12,-131.34C36.12,-131.34 36.12,-95.87 36.12,-95.87"/>
<polygon fill="black" stroke="black" stroke-width="0.3" points="37.18,-95.87 36.13,-92.87 35.08,-95.87 37.18,-95.87"/>
</g>
<!-- takesPlaceAt&#45;&gt;Place -->
<g id="edge16" class="edge">
<title>takesPlaceAt&#45;&gt;Place</title>
<path fill="none" stroke="black" stroke-width="0.3" d="M80.39,-204C71.95,-204 64.75,-204 64.75,-204 64.75,-204 64.75,-95.72 64.75,-95.72"/>
<polygon fill="black" stroke="black" stroke-width="0.3" points="65.8,-95.72 64.75,-92.72 63.7,-95.72 65.8,-95.72"/>
</g>
</g>
</svg>
