<?xml version="1.0" encoding="UTF-8" standalone="no"?>
<!DOCTYPE svg PUBLIC "-//W3C//DTD SVG 1.1//EN"
 "http://www.w3.org/Graphics/SVG/1.1/DTD/svg11.dtd">
<!-- Generated by graphviz version 9.0.0 (20230911.1827)
 -->
<!-- Title: domain ontology Pages: 1 -->
<svg width="325pt" height="457pt"
 viewBox="0.00 0.00 324.88 457.25" xmlns="http://www.w3.org/2000/svg" xmlns:xlink="http://www.w3.org/1999/xlink">
<g id="graph0" class="graph" transform="scale(1 1) rotate(0) translate(4 453.25)">
<title>domain ontology</title>
<polygon fill="white" stroke="none" points="-4,4 -4,-453.25 320.88,-453.25 320.88,4 -4,4"/>
<!-- Activity -->
<g id="node1" class="node">
<title>Activity</title>
<polygon fill="#f2f2f2" stroke="black" points="97.75,-401.25 97.75,-448.75 174.5,-448.75 174.5,-401.25 97.75,-401.25"/>
<text text-anchor="start" x="126" y="-440.05" font-family="Helvetica,Arial,sans-serif" font-weight="bold" font-size="6.00">Activity</text>
<polyline fill="none" stroke="black" points="97.75,-433.25 174.5,-433.25"/>
<text text-anchor="start" x="105.75" y="-424.55" font-family="Helvetica,Arial,sans-serif" font-weight="bold" font-size="6.00"> domain:core</text>
<text text-anchor="start" x="142.5" y="-424.55" font-family="Helvetica,Arial,sans-serif" font-size="6.00"> </text>
<text text-anchor="start" x="105.75" y="-418.55" font-family="Helvetica,Arial,sans-serif" font-size="6.00">endDateTime:dateTime</text>
<text text-anchor="start" x="105.75" y="-412.55" font-family="Helvetica,Arial,sans-serif" font-size="6.00">name:string</text>
<text text-anchor="start" x="105.75" y="-406.55" font-family="Helvetica,Arial,sans-serif" font-size="6.00">startDateTime:dateTime</text>
</g>
<!-- hasParticipant -->
<g id="node9" class="node">
<title>hasParticipant</title>
<polygon fill="greenyellow" stroke="none" points="65.37,-364.75 8.88,-364.75 8.88,-346.25 65.37,-346.25 65.37,-364.75"/>
<text text-anchor="middle" x="37.12" y="-356" font-family="Helvetica,Arial,sans-serif" font-size="5.00">hasParticipant / </text>
<text text-anchor="middle" x="37.12" y="-350.75" font-family="Helvetica,Arial,sans-serif" font-size="5.00">participatesIn ➝</text>
</g>
<!-- Activity&#45;&gt;hasParticipant -->
<g id="edge5" class="edge">
<title>Activity&#45;&gt;hasParticipant</title>
<path fill="none" stroke="black" stroke-width="0.3" d="M107,-400.91C107,-380.66 107,-355 107,-355 107,-355 84.58,-355 65.14,-355"/>
</g>
<!-- refersToConceptualObject -->
<g id="node10" class="node">
<title>refersToConceptualObject</title>
<polygon fill="greenyellow" stroke="none" points="215.25,-364.75 131,-364.75 131,-346.25 215.25,-346.25 215.25,-364.75"/>
<text text-anchor="middle" x="173.12" y="-356" font-family="Helvetica,Arial,sans-serif" font-size="5.00">refersToConceptualObject / </text>
<text text-anchor="middle" x="173.12" y="-350.75" font-family="Helvetica,Arial,sans-serif" font-size="5.00">involvedIn ➝</text>
</g>
<!-- Activity&#45;&gt;refersToConceptualObject -->
<g id="edge7" class="edge">
<title>Activity&#45;&gt;refersToConceptualObject</title>
<path fill="none" stroke="black" stroke-width="0.3" d="M152.75,-401.08C152.75,-388.52 152.75,-373.85 152.75,-364.62"/>
</g>
<!-- refersToPhysicalObject -->
<g id="node11" class="node">
<title>refersToPhysicalObject</title>
<polygon fill="greenyellow" stroke="none" points="316.88,-237.25 239.38,-237.25 239.38,-218.75 316.88,-218.75 316.88,-237.25"/>
<text text-anchor="middle" x="278.12" y="-228.5" font-family="Helvetica,Arial,sans-serif" font-size="5.00">refersToPhysicalObject / </text>
<text text-anchor="middle" x="278.12" y="-223.25" font-family="Helvetica,Arial,sans-serif" font-size="5.00">involvedIn ➝</text>
</g>
<!-- Activity&#45;&gt;refersToPhysicalObject -->
<g id="edge9" class="edge">
<title>Activity&#45;&gt;refersToPhysicalObject</title>
<path fill="none" stroke="black" stroke-width="0.3" d="M174.93,-425C216.97,-425 278.12,-425 278.12,-425 278.12,-425 278.12,-276.19 278.12,-237.24"/>
</g>
<!-- takesPlaceAt -->
<g id="node13" class="node">
<title>takesPlaceAt</title>
<polygon fill="greenyellow" stroke="none" points="125.5,-301 72.75,-301 72.75,-282.5 125.5,-282.5 125.5,-301"/>
<text text-anchor="middle" x="99.12" y="-292.25" font-family="Helvetica,Arial,sans-serif" font-size="5.00">takesPlaceAt / </text>
<text text-anchor="middle" x="99.12" y="-287" font-family="Helvetica,Arial,sans-serif" font-size="5.00">hosts ➝</text>
</g>
<!-- Activity&#45;&gt;takesPlaceAt -->
<g id="edge13" class="edge">
<title>Activity&#45;&gt;takesPlaceAt</title>
<path fill="none" stroke="black" stroke-width="0.3" d="M116.25,-400.87C116.25,-370.87 116.25,-321.14 116.25,-300.82"/>
</g>
<!-- Actor -->
<g id="node2" class="node">
<title>Actor</title>
<polygon fill="#f2f2f2" stroke="black" points="0,-273.75 0,-309.75 54.25,-309.75 54.25,-273.75 0,-273.75"/>
<text text-anchor="start" x="19.62" y="-301.05" font-family="Helvetica,Arial,sans-serif" font-weight="bold" font-size="6.00">Actor</text>
<polyline fill="none" stroke="black" points="0,-294.25 54.25,-294.25"/>
<text text-anchor="start" x="8" y="-285.55" font-family="Helvetica,Arial,sans-serif" font-weight="bold" font-size="6.00"> domain:core</text>
<text text-anchor="start" x="44.75" y="-285.55" font-family="Helvetica,Arial,sans-serif" font-size="6.00"> </text>
<text text-anchor="start" x="8" y="-279.55" font-family="Helvetica,Arial,sans-serif" font-size="6.00">name:string</text>
</g>
<!-- relatedToPlace -->
<g id="node12" class="node">
<title>relatedToPlace</title>
<polygon fill="greenyellow" stroke="none" points="61.88,-234.62 8.38,-234.62 8.38,-221.38 61.88,-221.38 61.88,-234.62"/>
<text text-anchor="middle" x="35.12" y="-225.88" font-family="Helvetica,Arial,sans-serif" font-size="5.00">relatedToPlace</text>
</g>
<!-- Actor&#45;&gt;relatedToPlace -->
<g id="edge11" class="edge">
<title>Actor&#45;&gt;relatedToPlace</title>
<path fill="none" stroke="black" stroke-width="0.3" d="M31.31,-273.31C31.31,-260.22 31.31,-243.43 31.31,-234.41"/>
</g>
<!-- Address -->
<g id="node3" class="node">
<title>Address</title>
<polygon fill="#f2f2f2" stroke="black" points="36.62,-0.5 36.62,-60 97.62,-60 97.62,-0.5 36.62,-0.5"/>
<text text-anchor="start" x="55.88" y="-51.3" font-family="Helvetica,Arial,sans-serif" font-weight="bold" font-size="6.00">Address</text>
<polyline fill="none" stroke="black" points="36.62,-44.5 97.62,-44.5"/>
<text text-anchor="start" x="44.62" y="-35.8" font-family="Helvetica,Arial,sans-serif" font-weight="bold" font-size="6.00"> domain:core</text>
<text text-anchor="start" x="81.38" y="-35.8" font-family="Helvetica,Arial,sans-serif" font-size="6.00"> </text>
<text text-anchor="start" x="44.62" y="-29.8" font-family="Helvetica,Arial,sans-serif" font-size="6.00">street:string</text>
<text text-anchor="start" x="44.62" y="-23.8" font-family="Helvetica,Arial,sans-serif" font-size="6.00">houseNumber:int</text>
<text text-anchor="start" x="44.62" y="-17.8" font-family="Helvetica,Arial,sans-serif" font-size="6.00">postalCode:string</text>
<text text-anchor="start" x="44.62" y="-11.8" font-family="Helvetica,Arial,sans-serif" font-size="6.00">city:string</text>
<text text-anchor="start" x="44.62" y="-5.8" font-family="Helvetica,Arial,sans-serif" font-size="6.00">country:string</text>
</g>
<!-- ConceptualObject -->
<g id="node4" class="node">
<title>ConceptualObject</title>
<polygon fill="#f2f2f2" stroke="black" points="143.62,-273.75 143.62,-309.75 210.62,-309.75 210.62,-273.75 143.62,-273.75"/>
<text text-anchor="start" x="151.62" y="-301.05" font-family="Helvetica,Arial,sans-serif" font-weight="bold" font-size="6.00">ConceptualObject</text>
<polyline fill="none" stroke="black" points="143.62,-294.25 210.62,-294.25"/>
<text text-anchor="start" x="158" y="-285.55" font-family="Helvetica,Arial,sans-serif" font-weight="bold" font-size="6.00"> domain:core</text>
<text text-anchor="start" x="194.75" y="-285.55" font-family="Helvetica,Arial,sans-serif" font-size="6.00"> </text>
<text text-anchor="start" x="158" y="-279.55" font-family="Helvetica,Arial,sans-serif" font-size="6.00">name:string</text>
</g>
<!-- describesPhysicalObject -->
<g id="node8" class="node">
<title>describesPhysicalObject</title>
<polygon fill="greenyellow" stroke="none" points="221.62,-237.25 124.63,-237.25 124.63,-218.75 221.62,-218.75 221.62,-237.25"/>
<text text-anchor="middle" x="173.12" y="-228.5" font-family="Helvetica,Arial,sans-serif" font-size="5.00">describesPhysicalObject / </text>
<text text-anchor="middle" x="173.12" y="-223.25" font-family="Helvetica,Arial,sans-serif" font-size="5.00">describedByConceptualObject ➝</text>
</g>
<!-- ConceptualObject&#45;&gt;describesPhysicalObject -->
<g id="edge3" class="edge">
<title>ConceptualObject&#45;&gt;describesPhysicalObject</title>
<path fill="none" stroke="black" stroke-width="0.3" d="M177.12,-273.31C177.12,-261.4 177.12,-246.42 177.12,-237.02"/>
</g>
<!-- PhysicalObject -->
<g id="node5" class="node">
<title>PhysicalObject</title>
<polygon fill="#f2f2f2" stroke="black" points="196.88,-146.25 196.88,-182.25 253.38,-182.25 253.38,-146.25 196.88,-146.25"/>
<text text-anchor="start" x="204.88" y="-173.55" font-family="Helvetica,Arial,sans-serif" font-weight="bold" font-size="6.00">PhysicalObject</text>
<polyline fill="none" stroke="black" points="196.88,-166.75 253.38,-166.75"/>
<text text-anchor="start" x="206" y="-158.05" font-family="Helvetica,Arial,sans-serif" font-weight="bold" font-size="6.00"> domain:core</text>
<text text-anchor="start" x="242.75" y="-158.05" font-family="Helvetica,Arial,sans-serif" font-size="6.00"> </text>
<text text-anchor="start" x="206" y="-152.05" font-family="Helvetica,Arial,sans-serif" font-size="6.00">name:string</text>
</g>
<!-- Place -->
<g id="node6" class="node">
<title>Place</title>
<polygon fill="#f2f2f2" stroke="black" points="40,-146.25 40,-182.25 94.25,-182.25 94.25,-146.25 40,-146.25"/>
<text text-anchor="start" x="60" y="-173.55" font-family="Helvetica,Arial,sans-serif" font-weight="bold" font-size="6.00">Place</text>
<polyline fill="none" stroke="black" points="40,-166.75 94.25,-166.75"/>
<text text-anchor="start" x="48" y="-158.05" font-family="Helvetica,Arial,sans-serif" font-weight="bold" font-size="6.00"> domain:core</text>
<text text-anchor="start" x="84.75" y="-158.05" font-family="Helvetica,Arial,sans-serif" font-size="6.00"> </text>
<text text-anchor="start" x="48" y="-152.05" font-family="Helvetica,Arial,sans-serif" font-size="6.00">name:string</text>
</g>
<!-- hasAddress -->
<g id="node7" class="node">
<title>hasAddress</title>
<polygon fill="greenyellow" stroke="none" points="89.75,-109.75 44.5,-109.75 44.5,-96.5 89.75,-96.5 89.75,-109.75"/>
<text text-anchor="middle" x="67.12" y="-101" font-family="Helvetica,Arial,sans-serif" font-size="5.00">hasAddress</text>
</g>
<!-- Place&#45;&gt;hasAddress -->
<g id="edge1" class="edge">
<title>Place&#45;&gt;hasAddress</title>
<path fill="none" stroke="black" stroke-width="0.3" d="M67.12,-145.91C67.12,-133.67 67.12,-118.3 67.12,-109.72"/>
</g>
<!-- hasAddress&#45;&gt;Address -->
<g id="edge2" class="edge">
<title>hasAddress&#45;&gt;Address</title>
<path fill="none" stroke="black" stroke-width="0.3" d="M67.12,-96.91C67.12,-96.91 67.12,-63.85 67.12,-63.85"/>
<polygon fill="black" stroke="black" stroke-width="0.3" points="68.18,-63.85 67.13,-60.85 66.08,-63.85 68.18,-63.85"/>
</g>
<!-- describesPhysicalObject&#45;&gt;PhysicalObject -->
<g id="edge4" class="edge">
<title>describesPhysicalObject&#45;&gt;PhysicalObject</title>
<path fill="none" stroke="black" stroke-width="0.3" d="M209.25,-218.87C209.25,-218.87 209.25,-186.02 209.25,-186.02"/>
<polygon fill="black" stroke="black" stroke-width="0.3" points="210.3,-186.02 209.25,-183.02 208.2,-186.02 210.3,-186.02"/>
</g>
<!-- hasParticipant&#45;&gt;Actor -->
<g id="edge6" class="edge">
<title>hasParticipant&#45;&gt;Actor</title>
<path fill="none" stroke="black" stroke-width="0.3" d="M31.56,-346.37C31.56,-346.37 31.56,-313.52 31.56,-313.52"/>
<polygon fill="black" stroke="black" stroke-width="0.3" points="32.61,-313.52 31.56,-310.52 30.51,-313.52 32.61,-313.52"/>
</g>
<!-- refersToConceptualObject&#45;&gt;ConceptualObject -->
<g id="edge8" class="edge">
<title>refersToConceptualObject&#45;&gt;ConceptualObject</title>
<path fill="none" stroke="black" stroke-width="0.3" d="M177.12,-346.37C177.12,-346.37 177.12,-313.52 177.12,-313.52"/>
<polygon fill="black" stroke="black" stroke-width="0.3" points="178.18,-313.52 177.13,-310.52 176.08,-313.52 178.18,-313.52"/>
</g>
<!-- refersToPhysicalObject&#45;&gt;PhysicalObject -->
<g id="edge10" class="edge">
<title>refersToPhysicalObject&#45;&gt;PhysicalObject</title>
<path fill="none" stroke="black" stroke-width="0.3" d="M246.38,-218.87C246.38,-218.87 246.38,-186.02 246.38,-186.02"/>
<polygon fill="black" stroke="black" stroke-width="0.3" points="247.43,-186.02 246.38,-183.02 245.33,-186.02 247.43,-186.02"/>
</g>
<!-- relatedToPlace&#45;&gt;Place -->
<g id="edge12" class="edge">
<title>relatedToPlace&#45;&gt;Place</title>
<path fill="none" stroke="black" stroke-width="0.3" d="M50.94,-221.65C50.94,-221.65 50.94,-186.12 50.94,-186.12"/>
<polygon fill="black" stroke="black" stroke-width="0.3" points="51.99,-186.12 50.94,-183.12 49.89,-186.12 51.99,-186.12"/>
</g>
<!-- takesPlaceAt&#45;&gt;Place -->
<g id="edge14" class="edge">
<title>takesPlaceAt&#45;&gt;Place</title>
<path fill="none" stroke="black" stroke-width="0.3" d="M83.5,-282.58C83.5,-282.58 83.5,-185.98 83.5,-185.98"/>
<polygon fill="black" stroke="black" stroke-width="0.3" points="84.55,-185.98 83.5,-182.98 82.45,-185.98 84.55,-185.98"/>
</g>
</g>
</svg>
