<?xml version="1.0" encoding="UTF-8" standalone="no"?>
<!DOCTYPE svg PUBLIC "-//W3C//DTD SVG 1.1//EN"
 "http://www.w3.org/Graphics/SVG/1.1/DTD/svg11.dtd">
<!-- Generated by graphviz version 9.0.0 (20230911.1827)
 -->
<!-- Title: behaviour_ontology Pages: 1 -->
<svg width="1115pt" height="584pt"
 viewBox="0.00 0.00 1115.38 583.80" xmlns="http://www.w3.org/2000/svg" xmlns:xlink="http://www.w3.org/1999/xlink">
<g id="graph0" class="graph" transform="scale(1 1) rotate(0) translate(4 579.8)">
<title>behaviour_ontology</title>
<polygon fill="white" stroke="none" points="-4,4 -4,-579.8 1111.38,-579.8 1111.38,4 -4,4"/>
<!-- PrognosisFunction -->
<g id="node1" class="node">
<title>PrognosisFunction</title>
<polygon fill="#ffb90f" stroke="black" points="237.25,-286.08 237.25,-394.08 559.25,-394.08 559.25,-286.08 237.25,-286.08"/>
<text text-anchor="start" x="354.38" y="-381.58" font-family="Helvetica,Arial,sans-serif" font-weight="bold" font-size="10.00">PrognosisFunction</text>
<polyline fill="none" stroke="black" points="237.25,-374.08 559.25,-374.08"/>
<text text-anchor="start" x="245.25" y="-361.58" font-family="Helvetica,Arial,sans-serif" font-weight="bold" font-style="italic" font-size="10.00"> domain:behaviour</text>
<text text-anchor="start" x="333" y="-361.58" font-family="Helvetica,Arial,sans-serif" font-size="10.00"> </text>
<text text-anchor="start" x="245.25" y="-351.58" font-family="Helvetica,Arial,sans-serif" font-size="10.00">PrognosisFunctionArgument:anyType</text>
<text text-anchor="start" x="245.25" y="-341.58" font-family="Helvetica,Arial,sans-serif" font-size="10.00">countingMethod:string</text>
<text text-anchor="start" x="245.25" y="-331.58" font-family="Helvetica,Arial,sans-serif" font-size="10.00">countingUnit:string</text>
<text text-anchor="start" x="245.25" y="-321.58" font-family="Helvetica,Arial,sans-serif" font-size="10.00">countingValue:string</text>
<text text-anchor="start" x="245.25" y="-311.58" font-family="Helvetica,Arial,sans-serif" font-size="10.00">headerChannels:https://json&#45;schema.org/draft/2020&#45;12/schema#Object</text>
<text text-anchor="start" x="245.25" y="-301.58" font-family="Helvetica,Arial,sans-serif" font-size="10.00">bodyClasses:https://json&#45;schema.org/draft/2020&#45;12/schema#Object</text>
<text text-anchor="start" x="245.25" y="-291.58" font-family="Helvetica,Arial,sans-serif" font-size="10.00">bodyCountsList:https://json&#45;schema.org/draft/2020&#45;12/schema#Object</text>
</g>
<!-- Function -->
<g id="node6" class="node">
<title>Function</title>
<polygon fill="#ffb90f" stroke="black" points="65.32,-315.47 65.32,-355.47 163.82,-355.47 163.82,-315.47 65.32,-315.47"/>
<text text-anchor="start" x="93.94" y="-342.97" font-family="Helvetica,Arial,sans-serif" font-weight="bold" font-size="10.00">Function</text>
<polyline fill="none" stroke="black" points="65.32,-335.47 163.82,-335.47"/>
<text text-anchor="start" x="73.32" y="-322.97" font-family="Helvetica,Arial,sans-serif" font-weight="bold" font-style="italic" font-size="10.00"> domain:function</text>
<text text-anchor="start" x="152.82" y="-322.97" font-family="Helvetica,Arial,sans-serif" font-size="10.00"> </text>
</g>
<!-- PrognosisFunction&#45;&gt;Function -->
<g id="edge3" class="edge">
<title>PrognosisFunction&#45;&gt;Function</title>
<path fill="none" stroke="black" stroke-width="0.3" stroke-dasharray="5,2" d="M236.93,-335C236.93,-335 167.59,-335 167.59,-335"/>
<polygon fill="black" stroke="black" stroke-width="0.3" points="167.59,-333.95 164.59,-335 167.59,-336.05 167.59,-333.95"/>
</g>
<!-- HealthIndication -->
<g id="node2" class="node">
<title>HealthIndication</title>
<polygon fill="#ffb90f" stroke="black" points="0,-0.5 0,-188.5 244,-188.5 244,-0.5 0,-0.5"/>
<text text-anchor="start" x="83" y="-176" font-family="Helvetica,Arial,sans-serif" font-weight="bold" font-size="10.00">HealthIndication</text>
<polyline fill="none" stroke="black" points="0,-168.5 244,-168.5"/>
<text text-anchor="start" x="8" y="-156" font-family="Helvetica,Arial,sans-serif" font-weight="bold" font-style="italic" font-size="10.00"> domain:behaviour</text>
<text text-anchor="start" x="95.75" y="-156" font-family="Helvetica,Arial,sans-serif" font-size="10.00"> </text>
<text text-anchor="start" x="8" y="-146" font-family="Helvetica,Arial,sans-serif" font-size="10.00">HealthIndicationArgument:anyType</text>
<text text-anchor="start" x="8" y="-136" font-family="Helvetica,Arial,sans-serif" font-size="10.00">adaptionValueList:string</text>
<text text-anchor="start" x="8" y="-126" font-family="Helvetica,Arial,sans-serif" font-size="10.00">adaptionValueMileage:string</text>
<text text-anchor="start" x="8" y="-116" font-family="Helvetica,Arial,sans-serif" font-size="10.00">adaptionValueOperatingTime:string</text>
<text text-anchor="start" x="8" y="-106" font-family="Helvetica,Arial,sans-serif" font-size="10.00">adaptionValueTimestamp:string</text>
<text text-anchor="start" x="8" y="-96" font-family="Helvetica,Arial,sans-serif" font-size="10.00">adaptionValueVersion:string</text>
<text text-anchor="start" x="8" y="-86" font-family="Helvetica,Arial,sans-serif" font-size="10.00">classifiedLoadCollectiveChannels:string</text>
<text text-anchor="start" x="8" y="-76" font-family="Helvetica,Arial,sans-serif" font-size="10.00">classifiedLoadCollectiveClasses:string</text>
<text text-anchor="start" x="8" y="-66" font-family="Helvetica,Arial,sans-serif" font-size="10.00">classifiedLoadCollectiveComponentDescription:string</text>
<text text-anchor="start" x="8" y="-56" font-family="Helvetica,Arial,sans-serif" font-size="10.00">classifiedLoadCollectiveCountingMethod:string</text>
<text text-anchor="start" x="8" y="-46" font-family="Helvetica,Arial,sans-serif" font-size="10.00">classifiedLoadCollectiveCountingUnit:string</text>
<text text-anchor="start" x="8" y="-36" font-family="Helvetica,Arial,sans-serif" font-size="10.00">classifiedLoadCollectiveCountingValue:string</text>
<text text-anchor="start" x="8" y="-26" font-family="Helvetica,Arial,sans-serif" font-size="10.00">classifiedLoadCollectiveCounts:string</text>
<text text-anchor="start" x="8" y="-16" font-family="Helvetica,Arial,sans-serif" font-size="10.00">classifiedLoadCollectiveProjectDescription:string</text>
<text text-anchor="start" x="8" y="-6" font-family="Helvetica,Arial,sans-serif" font-size="10.00">requestComponentId:string</text>
</g>
<!-- HealthIndication&#45;&gt;PrognosisFunction -->
<g id="edge4" class="edge">
<title>HealthIndication&#45;&gt;PrognosisFunction</title>
<path fill="none" stroke="black" stroke-width="0.3" stroke-dasharray="5,2" d="M200.54,-188.83C200.54,-242.85 200.54,-300 200.54,-300 200.54,-300 233.35,-300 233.35,-300"/>
<polygon fill="black" stroke="black" stroke-width="0.3" points="233.35,-301.05 236.35,-300 233.35,-298.95 233.35,-301.05"/>
</g>
<!-- HealthIndicatorResult -->
<g id="node3" class="node">
<title>HealthIndicatorResult</title>
<polygon fill="#ffb90f" stroke="black" points="637,-434.7 637,-502.7 982.25,-502.7 982.25,-434.7 637,-434.7"/>
<text text-anchor="start" x="758.62" y="-490.2" font-family="Helvetica,Arial,sans-serif" font-weight="bold" font-size="10.00">HealthIndicatorResult</text>
<polyline fill="none" stroke="black" points="637,-482.7 982.25,-482.7"/>
<text text-anchor="start" x="645" y="-470.2" font-family="Helvetica,Arial,sans-serif" font-weight="bold" font-style="italic" font-size="10.00"> domain:behaviour</text>
<text text-anchor="start" x="732.75" y="-470.2" font-family="Helvetica,Arial,sans-serif" font-size="10.00"> </text>
<text text-anchor="start" x="645" y="-460.2" font-family="Helvetica,Arial,sans-serif" font-size="10.00">healthIndicatorValues:https://json&#45;schema.org/draft/2020&#45;12/schema#Object</text>
<text text-anchor="start" x="645" y="-450.2" font-family="Helvetica,Arial,sans-serif" font-size="10.00">indicatorVersion:string</text>
<text text-anchor="start" x="645" y="-440.2" font-family="Helvetica,Arial,sans-serif" font-size="10.00">responseComponentId:string</text>
</g>
<!-- Result -->
<g id="node7" class="node">
<title>Result</title>
<polygon fill="#ffb90f" stroke="black" points="1001.42,-392.5 1001.42,-432.5 1099.92,-432.5 1099.92,-392.5 1001.42,-392.5"/>
<text text-anchor="start" x="1036.04" y="-420" font-family="Helvetica,Arial,sans-serif" font-weight="bold" font-size="10.00">Result</text>
<polyline fill="none" stroke="black" points="1001.42,-412.5 1099.92,-412.5"/>
<text text-anchor="start" x="1009.42" y="-400" font-family="Helvetica,Arial,sans-serif" font-weight="bold" font-style="italic" font-size="10.00"> domain:function</text>
<text text-anchor="start" x="1088.92" y="-400" font-family="Helvetica,Arial,sans-serif" font-size="10.00"> </text>
</g>
<!-- HealthIndicatorResult&#45;&gt;Result -->
<g id="edge6" class="edge">
<title>HealthIndicatorResult&#45;&gt;Result</title>
<path fill="none" stroke="black" stroke-width="0.3" stroke-dasharray="5,2" d="M982.72,-468C1012.59,-468 1034.25,-468 1034.25,-468 1034.25,-468 1034.25,-436.31 1034.25,-436.31"/>
<polygon fill="black" stroke="black" stroke-width="0.3" points="1035.3,-436.31 1034.25,-433.31 1033.2,-436.31 1035.3,-436.31"/>
</g>
<!-- RemainingUsefulLife -->
<g id="node4" class="node">
<title>RemainingUsefulLife</title>
<polygon fill="#ffb90f" stroke="black" points="258.93,-5.18 258.93,-193.18 557.68,-193.18 557.68,-5.18 258.93,-5.18"/>
<text text-anchor="start" x="358.81" y="-180.68" font-family="Helvetica,Arial,sans-serif" font-weight="bold" font-size="10.00">RemainingUsefulLife</text>
<polyline fill="none" stroke="black" points="258.93,-173.18 557.68,-173.18"/>
<text text-anchor="start" x="266.93" y="-160.68" font-family="Helvetica,Arial,sans-serif" font-weight="bold" font-style="italic" font-size="10.00"> domain:behaviour</text>
<text text-anchor="start" x="354.68" y="-160.68" font-family="Helvetica,Arial,sans-serif" font-size="10.00"> </text>
<text text-anchor="start" x="266.93" y="-150.68" font-family="Helvetica,Arial,sans-serif" font-size="10.00">RemainingUsefulLifeArgument:anyType</text>
<text text-anchor="start" x="266.93" y="-140.68" font-family="Helvetica,Arial,sans-serif" font-size="10.00">classification:string</text>
<text text-anchor="start" x="266.93" y="-130.68" font-family="Helvetica,Arial,sans-serif" font-size="10.00">metadata:https://json&#45;schema.org/draft/2020&#45;12/schema#Object</text>
<text text-anchor="start" x="266.93" y="-120.68" font-family="Helvetica,Arial,sans-serif" font-size="10.00">notification:https://json&#45;schema.org/draft/2020&#45;12/schema#Object</text>
<text text-anchor="start" x="266.93" y="-110.68" font-family="Helvetica,Arial,sans-serif" font-size="10.00">recipient:anyURI</text>
<text text-anchor="start" x="266.93" y="-100.68" font-family="Helvetica,Arial,sans-serif" font-size="10.00">recipientConnector:anyURI</text>
<text text-anchor="start" x="266.93" y="-90.68" font-family="Helvetica,Arial,sans-serif" font-size="10.00">sender:anyURI</text>
<text text-anchor="start" x="266.93" y="-80.68" font-family="Helvetica,Arial,sans-serif" font-size="10.00">senderConnector:anyURI</text>
<text text-anchor="start" x="266.93" y="-70.68" font-family="Helvetica,Arial,sans-serif" font-size="10.00">severity:string</text>
<text text-anchor="start" x="266.93" y="-60.68" font-family="Helvetica,Arial,sans-serif" font-size="10.00">status:string</text>
<text text-anchor="start" x="266.93" y="-50.68" font-family="Helvetica,Arial,sans-serif" font-size="10.00">statusDate:dateTime</text>
<text text-anchor="start" x="266.93" y="-40.68" font-family="Helvetica,Arial,sans-serif" font-size="10.00">statusMileage:int</text>
<text text-anchor="start" x="266.93" y="-30.68" font-family="Helvetica,Arial,sans-serif" font-size="10.00">statusOperatingHours:float</text>
<text text-anchor="start" x="266.93" y="-20.68" font-family="Helvetica,Arial,sans-serif" font-size="10.00">targetDate:dateTime</text>
<text text-anchor="start" x="266.93" y="-10.68" font-family="Helvetica,Arial,sans-serif" font-size="10.00">timeStamp:dateTime</text>
</g>
<!-- RemainingUsefulLife&#45;&gt;PrognosisFunction -->
<g id="edge5" class="edge">
<title>RemainingUsefulLife&#45;&gt;PrognosisFunction</title>
<path fill="none" stroke="black" stroke-width="0.3" stroke-dasharray="5,2" d="M408.31,-193.35C408.31,-193.35 408.31,-282.18 408.31,-282.18"/>
<polygon fill="black" stroke="black" stroke-width="0.3" points="407.26,-282.18 408.31,-285.18 409.36,-282.18 407.26,-282.18"/>
</g>
<!-- component -->
<g id="node9" class="node">
<title>component</title>
<polygon fill="#bcee68" stroke="none" points="718.4,-104.63 662.65,-104.63 662.65,-86.13 718.4,-86.13 718.4,-104.63"/>
<text text-anchor="middle" x="690.52" y="-93.03" font-family="Helvetica,Arial,sans-serif" font-size="8.00">component</text>
</g>
<!-- RemainingUsefulLife&#45;&gt;component -->
<g id="edge1" class="edge">
<title>RemainingUsefulLife&#45;&gt;component</title>
<path fill="none" stroke="black" stroke-width="0.3" d="M558.09,-95C598.46,-95 637.88,-95 663.07,-95"/>
</g>
<!-- RemainingUsefulLifeResult -->
<g id="node5" class="node">
<title>RemainingUsefulLifeResult</title>
<polygon fill="#ffb90f" stroke="black" points="960.88,-517.3 960.88,-575.3 1107.38,-575.3 1107.38,-517.3 960.88,-517.3"/>
<text text-anchor="start" x="970.01" y="-562.8" font-family="Helvetica,Arial,sans-serif" font-weight="bold" font-size="10.00">RemainingUsefulLifeResult</text>
<polyline fill="none" stroke="black" points="960.88,-555.3 1107.38,-555.3"/>
<text text-anchor="start" x="968.88" y="-542.8" font-family="Helvetica,Arial,sans-serif" font-weight="bold" font-style="italic" font-size="10.00"> domain:behaviour</text>
<text text-anchor="start" x="1056.63" y="-542.8" font-family="Helvetica,Arial,sans-serif" font-size="10.00"> </text>
<text text-anchor="start" x="968.88" y="-532.8" font-family="Helvetica,Arial,sans-serif" font-size="10.00">remainingRunningDistance:int</text>
<text text-anchor="start" x="968.88" y="-522.8" font-family="Helvetica,Arial,sans-serif" font-size="10.00">remainingOperatingHours:float</text>
</g>
<!-- RemainingUsefulLifeResult&#45;&gt;Result -->
<g id="edge7" class="edge">
<title>RemainingUsefulLifeResult&#45;&gt;Result</title>
<path fill="none" stroke="black" stroke-width="0.3" stroke-dasharray="5,2" d="M1067.08,-516.93C1067.08,-516.93 1067.08,-436.13 1067.08,-436.13"/>
<polygon fill="black" stroke="black" stroke-width="0.3" points="1068.13,-436.13 1067.08,-433.13 1066.03,-436.13 1068.13,-436.13"/>
</g>
<!-- Part -->
<g id="node8" class="node">
<title>Part</title>
<polygon fill="#ffb90f" stroke="black" points="640,-316.56 640,-356.56 733.25,-356.56 733.25,-316.56 640,-316.56"/>
<text text-anchor="start" x="676.88" y="-344.06" font-family="Helvetica,Arial,sans-serif" font-weight="bold" font-size="10.00">Part</text>
<polyline fill="none" stroke="black" points="640,-336.56 733.25,-336.56"/>
<text text-anchor="start" x="648" y="-324.06" font-family="Helvetica,Arial,sans-serif" font-weight="bold" font-style="italic" font-size="10.00"> domain:vehicle</text>
<text text-anchor="start" x="722.25" y="-324.06" font-family="Helvetica,Arial,sans-serif" font-size="10.00"> </text>
</g>
<!-- component&#45;&gt;Part -->
<g id="edge2" class="edge">
<title>component&#45;&gt;Part</title>
<path fill="none" stroke="black" stroke-width="0.3" d="M690.52,-104.54C690.52,-104.54 690.52,-312.62 690.52,-312.62"/>
<polygon fill="black" stroke="black" stroke-width="0.3" points="689.47,-312.62 690.52,-315.62 691.57,-312.62 689.47,-312.62"/>
</g>
</g>
</svg>
