<?xml version="1.0" encoding="UTF-8" standalone="no"?>
<!DOCTYPE svg PUBLIC "-//W3C//DTD SVG 1.1//EN"
 "http://www.w3.org/Graphics/SVG/1.1/DTD/svg11.dtd">
<!-- Generated by graphviz version 9.0.0 (20230911.1827)
 -->
<!-- Title: bill&#45;of&#45;material_ontology Pages: 1 -->
<svg width="422pt" height="257pt"
 viewBox="0.00 0.00 421.77 256.50" xmlns="http://www.w3.org/2000/svg" xmlns:xlink="http://www.w3.org/1999/xlink">
<g id="graph0" class="graph" transform="scale(1 1) rotate(0) translate(4 252.5)">
<title>bill&#45;of&#45;material_ontology</title>
<polygon fill="white" stroke="none" points="-4,4 -4,-252.5 417.77,-252.5 417.77,4 -4,4"/>
<!-- structure -->
<g id="node1" class="node">
<title>structure</title>
<polygon fill="#bcee68" stroke="none" points="371,-248.5 322,-248.5 322,-230 371,-230 371,-248.5"/>
<text text-anchor="middle" x="346.5" y="-236.9" font-family="Helvetica,Arial,sans-serif" font-size="8.00">structure</text>
</g>
<!-- component -->
<g id="node2" class="node">
<title>component</title>
<polygon fill="#bcee68" stroke="none" points="153.52,-183.95 97.77,-183.95 97.77,-165.45 153.52,-165.45 153.52,-183.95"/>
<text text-anchor="middle" x="125.64" y="-172.35" font-family="Helvetica,Arial,sans-serif" font-size="8.00">component</text>
</g>
<!-- PhysicalObject -->
<g id="node9" class="node">
<title>PhysicalObject</title>
<polygon fill="none" stroke="black" points="6.34,-32.2 6.34,-68.2 88.34,-68.2 88.34,-32.2 6.34,-32.2"/>
<text text-anchor="middle" x="47.34" y="-46.7" font-family="Helvetica,Arial,sans-serif" font-size="10.00">PhysicalObject</text>
</g>
<!-- component&#45;&gt;PhysicalObject -->
<g id="edge2" class="edge">
<title>component&#45;&gt;PhysicalObject</title>
<path fill="none" stroke="black" stroke-width="0.3" d="M111,-165.8C111,-139.84 111,-66 111,-66 111,-66 92.19,-66 92.19,-66"/>
<polygon fill="black" stroke="black" stroke-width="0.3" points="92.19,-64.95 89.19,-66 92.19,-67.05 92.19,-64.95"/>
</g>
<!-- ConceptualObject -->
<g id="node10" class="node">
<title>ConceptualObject</title>
<polygon fill="none" stroke="black" points="0,-142.38 0,-178.38 93.25,-178.38 93.25,-142.38 0,-142.38"/>
<text text-anchor="middle" x="46.62" y="-156.88" font-family="Helvetica,Arial,sans-serif" font-size="10.00">ConceptualObject</text>
</g>
<!-- component&#45;&gt;ConceptualObject -->
<g id="edge4" class="edge">
<title>component&#45;&gt;ConceptualObject</title>
<path fill="none" stroke="black" stroke-width="0.3" d="M98.01,-172C98.01,-172 97.13,-172 97.13,-172"/>
<polygon fill="black" stroke="black" stroke-width="0.3" points="97.13,-170.95 94.13,-172 97.13,-173.05 97.13,-170.95"/>
</g>
<!-- assembly -->
<g id="node3" class="node">
<title>assembly</title>
<polygon fill="#bcee68" stroke="none" points="168.11,-103.42 117.61,-103.42 117.61,-84.92 168.11,-84.92 168.11,-103.42"/>
<text text-anchor="middle" x="142.86" y="-91.82" font-family="Helvetica,Arial,sans-serif" font-size="8.00">assembly</text>
</g>
<!-- assembly&#45;&gt;PhysicalObject -->
<g id="edge6" class="edge">
<title>assembly&#45;&gt;PhysicalObject</title>
<path fill="none" stroke="black" stroke-width="0.3" d="M122.46,-84.95C122.46,-76.08 122.46,-64 122.46,-64 122.46,-64 91.87,-64 91.87,-64"/>
<polygon fill="black" stroke="black" stroke-width="0.3" points="91.87,-62.95 88.87,-64 91.87,-65.05 91.87,-62.95"/>
</g>
<!-- assembly&#45;&gt;ConceptualObject -->
<g id="edge8" class="edge">
<title>assembly&#45;&gt;ConceptualObject</title>
<path fill="none" stroke="black" stroke-width="0.3" d="M126.59,-103.18C126.59,-121 126.59,-159 126.59,-159 126.59,-159 97.06,-159 97.06,-159"/>
<polygon fill="black" stroke="black" stroke-width="0.3" points="97.06,-157.95 94.06,-159 97.06,-160.05 97.06,-157.95"/>
</g>
<!-- hasBom -->
<g id="node4" class="node">
<title>hasBom</title>
<polygon fill="#bcee68" stroke="none" points="172.57,-28.94 127.32,-28.94 127.32,-10.44 172.57,-10.44 172.57,-28.94"/>
<text text-anchor="middle" x="149.94" y="-17.34" font-family="Helvetica,Arial,sans-serif" font-size="8.00">hasBom</text>
</g>
<!-- BillOfMaterial -->
<g id="node8" class="node">
<title>BillOfMaterial</title>
<polygon fill="none" stroke="black" points="179.93,-81.17 179.93,-117.17 253.68,-117.17 253.68,-81.17 179.93,-81.17"/>
<text text-anchor="middle" x="216.8" y="-95.67" font-family="Helvetica,Arial,sans-serif" font-size="10.00">BillOfMaterial</text>
</g>
<!-- hasBom&#45;&gt;BillOfMaterial -->
<g id="edge10" class="edge">
<title>hasBom&#45;&gt;BillOfMaterial</title>
<path fill="none" stroke="black" stroke-width="0.3" d="M172.27,-16C192.54,-16 219.3,-16 219.3,-16 219.3,-16 219.3,-77.26 219.3,-77.26"/>
<polygon fill="black" stroke="black" stroke-width="0.3" points="218.25,-77.26 219.3,-80.26 220.35,-77.26 218.25,-77.26"/>
</g>
<!-- hasBom&#45;&gt;BillOfMaterial -->
<g id="edge12" class="edge">
<title>hasBom&#45;&gt;BillOfMaterial</title>
<path fill="none" stroke="black" stroke-width="0.3" d="M172.45,-22C185.59,-22 199.61,-22 199.61,-22 199.61,-22 199.61,-77.43 199.61,-77.43"/>
<polygon fill="black" stroke="black" stroke-width="0.3" points="198.56,-77.43 199.61,-80.43 200.66,-77.43 198.56,-77.43"/>
</g>
<!-- supportsBom -->
<g id="node5" class="node">
<title>supportsBom</title>
<polygon fill="#bcee68" stroke="none" points="233.57,-185.75 169.57,-185.75 169.57,-167.25 233.57,-167.25 233.57,-185.75"/>
<text text-anchor="middle" x="201.57" y="-174.15" font-family="Helvetica,Arial,sans-serif" font-size="8.00">supportsBom</text>
</g>
<!-- supportsBom&#45;&gt;BillOfMaterial -->
<g id="edge14" class="edge">
<title>supportsBom&#45;&gt;BillOfMaterial</title>
<path fill="none" stroke="black" stroke-width="0.3" d="M197.81,-167.33C197.81,-167.33 197.81,-120.9 197.81,-120.9"/>
<polygon fill="black" stroke="black" stroke-width="0.3" points="198.86,-120.9 197.81,-117.9 196.76,-120.9 198.86,-120.9"/>
</g>
<!-- supportsBom&#45;&gt;BillOfMaterial -->
<g id="edge16" class="edge">
<title>supportsBom&#45;&gt;BillOfMaterial</title>
<path fill="none" stroke="black" stroke-width="0.3" d="M215.69,-167.33C215.69,-167.33 215.69,-120.9 215.69,-120.9"/>
<polygon fill="black" stroke="black" stroke-width="0.3" points="216.74,-120.9 215.69,-117.9 214.64,-120.9 216.74,-120.9"/>
</g>
<!-- supplier -->
<g id="node6" class="node">
<title>supplier</title>
<polygon fill="#bcee68" stroke="none" points="283.49,-59.51 238.99,-59.51 238.99,-41.01 283.49,-41.01 283.49,-59.51"/>
<text text-anchor="middle" x="261.24" y="-47.91" font-family="Helvetica,Arial,sans-serif" font-size="8.00">supplier</text>
</g>
<!-- BusinessPartner -->
<g id="node11" class="node">
<title>BusinessPartner</title>
<polygon fill="none" stroke="black" points="286.41,-0.5 286.41,-36.5 374.41,-36.5 374.41,-0.5 286.41,-0.5"/>
<text text-anchor="middle" x="330.41" y="-15" font-family="Helvetica,Arial,sans-serif" font-size="10.00">BusinessPartner</text>
</g>
<!-- supplier&#45;&gt;BusinessPartner -->
<g id="edge18" class="edge">
<title>supplier&#45;&gt;BusinessPartner</title>
<path fill="none" stroke="black" stroke-width="0.3" d="M283.3,-45C288.24,-45 292.04,-45 292.04,-45 292.04,-45 292.04,-40.36 292.04,-40.36"/>
<polygon fill="black" stroke="black" stroke-width="0.3" points="293.09,-40.36 292.04,-37.36 290.99,-40.36 293.09,-40.36"/>
</g>
<!-- Site -->
<g id="node12" class="node">
<title>Site</title>
<polygon fill="none" stroke="black" points="341.74,-156.85 341.74,-192.85 395.74,-192.85 395.74,-156.85 341.74,-156.85"/>
<text text-anchor="middle" x="368.36" y="-171.35" font-family="Helvetica,Arial,sans-serif" font-size="10.00">Site</text>
</g>
<!-- supplier&#45;&gt;Site -->
<g id="edge20" class="edge">
<title>supplier&#45;&gt;Site</title>
<path fill="none" stroke="black" stroke-width="0.3" d="M283.36,-53C309.87,-53 350.75,-53 350.75,-53 350.75,-53 350.75,-153.15 350.75,-153.15"/>
<polygon fill="black" stroke="black" stroke-width="0.3" points="349.7,-153.15 350.75,-156.15 351.8,-153.15 349.7,-153.15"/>
</g>
<!-- Address -->
<g id="node13" class="node">
<title>Address</title>
<polygon fill="none" stroke="black" points="359.77,-57.97 359.77,-93.97 413.77,-93.97 413.77,-57.97 359.77,-57.97"/>
<text text-anchor="middle" x="386.77" y="-72.47" font-family="Helvetica,Arial,sans-serif" font-size="10.00">Address</text>
</g>
<!-- supplier&#45;&gt;Address -->
<g id="edge22" class="edge">
<title>supplier&#45;&gt;Address</title>
<path fill="none" stroke="black" stroke-width="0.3" d="M283.43,-49C314.47,-49 367.09,-49 367.09,-49 367.09,-49 367.09,-54.08 367.09,-54.08"/>
<polygon fill="black" stroke="black" stroke-width="0.3" points="366.04,-54.08 367.09,-57.08 368.14,-54.08 366.04,-54.08"/>
</g>
<!-- assembler -->
<g id="node7" class="node">
<title>assembler</title>
<polygon fill="#bcee68" stroke="none" points="308.94,-165 255.44,-165 255.44,-146.5 308.94,-146.5 308.94,-165"/>
<text text-anchor="middle" x="282.19" y="-153.4" font-family="Helvetica,Arial,sans-serif" font-size="8.00">assembler</text>
</g>
<!-- assembler&#45;&gt;BusinessPartner -->
<g id="edge24" class="edge">
<title>assembler&#45;&gt;BusinessPartner</title>
<path fill="none" stroke="black" stroke-width="0.3" d="M297.67,-146.74C297.67,-146.74 297.67,-40.02 297.67,-40.02"/>
<polygon fill="black" stroke="black" stroke-width="0.3" points="298.72,-40.02 297.67,-37.02 296.62,-40.02 298.72,-40.02"/>
</g>
<!-- assembler&#45;&gt;Site -->
<g id="edge26" class="edge">
<title>assembler&#45;&gt;Site</title>
<path fill="none" stroke="black" stroke-width="0.3" d="M308.62,-160C308.62,-160 337.81,-160 337.81,-160"/>
<polygon fill="black" stroke="black" stroke-width="0.3" points="337.81,-161.05 340.81,-160 337.81,-158.95 337.81,-161.05"/>
</g>
<!-- assembler&#45;&gt;Address -->
<g id="edge28" class="edge">
<title>assembler&#45;&gt;Address</title>
<path fill="none" stroke="black" stroke-width="0.3" d="M303.31,-146.76C303.31,-128.12 303.31,-87 303.31,-87 303.31,-87 355.99,-87 355.99,-87"/>
<polygon fill="black" stroke="black" stroke-width="0.3" points="355.99,-88.05 358.99,-87 355.99,-85.95 355.99,-88.05"/>
</g>
<!-- BillOfMaterial&#45;&gt;component -->
<g id="edge1" class="edge">
<title>BillOfMaterial&#45;&gt;component</title>
<path fill="none" stroke="black" stroke-width="0.3" d="M179.83,-112C162.05,-112 144.54,-112 144.54,-112 144.54,-112 144.54,-148.38 144.54,-165.72"/>
</g>
<!-- BillOfMaterial&#45;&gt;component -->
<g id="edge3" class="edge">
<title>BillOfMaterial&#45;&gt;component</title>
<path fill="none" stroke="black" stroke-width="0.3" d="M179.51,-108C158.16,-108 135.57,-108 135.57,-108 135.57,-108 135.57,-147.5 135.57,-165.7"/>
</g>
<!-- BillOfMaterial&#45;&gt;assembly -->
<g id="edge5" class="edge">
<title>BillOfMaterial&#45;&gt;assembly</title>
<path fill="none" stroke="black" stroke-width="0.3" d="M179.83,-91C175.79,-91 171.75,-91 167.9,-91"/>
</g>
<!-- BillOfMaterial&#45;&gt;assembly -->
<g id="edge7" class="edge">
<title>BillOfMaterial&#45;&gt;assembly</title>
<path fill="none" stroke="black" stroke-width="0.3" d="M179.83,-97C175.79,-97 171.75,-97 167.9,-97"/>
</g>
<!-- BillOfMaterial&#45;&gt;supplier -->
<g id="edge17" class="edge">
<title>BillOfMaterial&#45;&gt;supplier</title>
<path fill="none" stroke="black" stroke-width="0.3" d="M246.33,-80.68C246.33,-73.43 246.33,-65.43 246.33,-59.46"/>
</g>
<!-- BillOfMaterial&#45;&gt;supplier -->
<g id="edge19" class="edge">
<title>BillOfMaterial&#45;&gt;supplier</title>
<path fill="none" stroke="black" stroke-width="0.3" d="M242.66,-80.68C242.66,-73.43 242.66,-65.43 242.66,-59.46"/>
</g>
<!-- BillOfMaterial&#45;&gt;supplier -->
<g id="edge21" class="edge">
<title>BillOfMaterial&#45;&gt;supplier</title>
<path fill="none" stroke="black" stroke-width="0.3" d="M250,-80.68C250,-73.43 250,-65.43 250,-59.46"/>
</g>
<!-- BillOfMaterial&#45;&gt;assembler -->
<g id="edge23" class="edge">
<title>BillOfMaterial&#45;&gt;assembler</title>
<path fill="none" stroke="black" stroke-width="0.3" d="M248.65,-117.44C248.65,-131.66 248.65,-149 248.65,-149 248.65,-149 251.45,-149 255.44,-149"/>
</g>
<!-- BillOfMaterial&#45;&gt;assembler -->
<g id="edge25" class="edge">
<title>BillOfMaterial&#45;&gt;assembler</title>
<path fill="none" stroke="black" stroke-width="0.3" d="M238.6,-117.43C238.6,-133.38 238.6,-154 238.6,-154 238.6,-154 246.65,-154 255.83,-154"/>
</g>
<!-- BillOfMaterial&#45;&gt;assembler -->
<g id="edge27" class="edge">
<title>BillOfMaterial&#45;&gt;assembler</title>
<path fill="none" stroke="black" stroke-width="0.3" d="M243.62,-117.59C243.62,-132.49 243.62,-151 243.62,-151 243.62,-151 249.05,-151 255.83,-151"/>
</g>
<!-- PhysicalObject&#45;&gt;hasBom -->
<g id="edge9" class="edge">
<title>PhysicalObject&#45;&gt;hasBom</title>
<path fill="none" stroke="black" stroke-width="0.3" d="M88.74,-50C116.39,-50 147.71,-50 147.71,-50 147.71,-50 147.71,-37.56 147.71,-28.62"/>
</g>
<!-- PhysicalObject&#45;&gt;supportsBom -->
<g id="edge13" class="edge">
<title>PhysicalObject&#45;&gt;supportsBom</title>
<path fill="none" stroke="black" stroke-width="0.3" d="M88.51,-61C126.64,-61 177.47,-61 177.47,-61 177.47,-61 177.47,-140.21 177.47,-167.44"/>
</g>
<!-- ConceptualObject&#45;&gt;hasBom -->
<g id="edge11" class="edge">
<title>ConceptualObject&#45;&gt;hasBom</title>
<path fill="none" stroke="black" stroke-width="0.3" d="M93.52,-157C99.94,-157 104.38,-157 104.38,-157 104.38,-157 104.38,-19 104.38,-19 104.38,-19 115.95,-19 127.43,-19"/>
</g>
<!-- ConceptualObject&#45;&gt;supportsBom -->
<g id="edge15" class="edge">
<title>ConceptualObject&#45;&gt;supportsBom</title>
<path fill="none" stroke="black" stroke-width="0.3" d="M93.71,-162C130.35,-162 175.02,-162 175.02,-162 175.02,-162 175.02,-164.58 175.02,-167.56"/>
</g>
</g>
</svg>
