<?xml version="1.0" encoding="UTF-8" standalone="no"?>
<!DOCTYPE svg PUBLIC "-//W3C//DTD SVG 1.1//EN"
 "http://www.w3.org/Graphics/SVG/1.1/DTD/svg11.dtd">
<!-- Generated by graphviz version 9.0.0 (20230911.1827)
 -->
<!-- Title: bill&#45;of&#45;material_ontology Pages: 1 -->
<svg width="409pt" height="295pt"
 viewBox="0.00 0.00 409.17 295.29" xmlns="http://www.w3.org/2000/svg" xmlns:xlink="http://www.w3.org/1999/xlink">
<g id="graph0" class="graph" transform="scale(1 1) rotate(0) translate(4 291.29)">
<title>bill&#45;of&#45;material_ontology</title>
<polygon fill="white" stroke="none" points="-4,4 -4,-291.29 405.17,-291.29 405.17,4 -4,4"/>
<!-- BillOfMaterial -->
<g id="node1" class="node">
<title>BillOfMaterial</title>
<polygon fill="#ffb90f" stroke="black" points="181.99,-82.07 181.99,-160.07 309.74,-160.07 309.74,-82.07 181.99,-82.07"/>
<text text-anchor="start" x="213.24" y="-147.57" font-family="Helvetica,Arial,sans-serif" font-weight="bold" font-size="10.00">BillOfMaterial</text>
<polyline fill="none" stroke="black" points="181.99,-140.07 309.74,-140.07"/>
<text text-anchor="start" x="189.99" y="-127.57" font-family="Helvetica,Arial,sans-serif" font-weight="bold" font-style="italic" font-size="10.00"> domain:bill&#45;of&#45;material</text>
<text text-anchor="start" x="298.74" y="-127.57" font-family="Helvetica,Arial,sans-serif" font-size="10.00"> </text>
<text text-anchor="start" x="189.99" y="-117.57" font-family="Helvetica,Arial,sans-serif" font-size="10.00">quantityMeasure:float</text>
<text text-anchor="start" x="189.99" y="-107.57" font-family="Helvetica,Arial,sans-serif" font-size="10.00">quantityUnit:string</text>
<text text-anchor="start" x="189.99" y="-97.57" font-family="Helvetica,Arial,sans-serif" font-size="10.00">validityPeriodEnd:date</text>
<text text-anchor="start" x="189.99" y="-87.57" font-family="Helvetica,Arial,sans-serif" font-size="10.00">validityPeriodStart:date</text>
</g>
<!-- ConceptualObject -->
<g id="node3" class="node">
<title>ConceptualObject</title>
<polygon fill="#ffb90f" stroke="black" points="290.11,-0.5 290.11,-40.5 390.86,-40.5 390.86,-0.5 290.11,-0.5"/>
<text text-anchor="start" x="298.11" y="-28" font-family="Helvetica,Arial,sans-serif" font-weight="bold" font-size="10.00">ConceptualObject</text>
<polyline fill="none" stroke="black" points="290.11,-20.5 390.86,-20.5"/>
<text text-anchor="start" x="308.24" y="-8" font-family="Helvetica,Arial,sans-serif" font-weight="bold" font-style="italic" font-size="10.00"> domain:core</text>
<text text-anchor="start" x="369.74" y="-8" font-family="Helvetica,Arial,sans-serif" font-size="10.00"> </text>
</g>
<!-- BillOfMaterial&#45;&gt;ConceptualObject -->
<g id="edge15" class="edge">
<title>BillOfMaterial&#45;&gt;ConceptualObject</title>
<path fill="none" stroke="black" stroke-width="0.3" stroke-dasharray="5,2" d="M299.93,-81.61C299.93,-81.61 299.93,-44.22 299.93,-44.22"/>
<polygon fill="black" stroke="black" stroke-width="0.3" points="300.98,-44.22 299.93,-41.22 298.88,-44.22 300.98,-44.22"/>
</g>
<!-- assembler -->
<g id="node5" class="node">
<title>assembler</title>
<polygon fill="#bcee68" stroke="none" points="242.31,-254.15 188.81,-254.15 188.81,-235.65 242.31,-235.65 242.31,-254.15"/>
<text text-anchor="middle" x="215.56" y="-242.55" font-family="Helvetica,Arial,sans-serif" font-size="8.00">assembler</text>
</g>
<!-- BillOfMaterial&#45;&gt;assembler -->
<g id="edge1" class="edge">
<title>BillOfMaterial&#45;&gt;assembler</title>
<path fill="none" stroke="black" stroke-width="0.3" d="M215.56,-160.25C215.56,-186.89 215.56,-220.06 215.56,-235.8"/>
</g>
<!-- assembly -->
<g id="node6" class="node">
<title>assembly</title>
<polygon fill="#bcee68" stroke="none" points="102.03,-256.2 51.53,-256.2 51.53,-237.7 102.03,-237.7 102.03,-256.2"/>
<text text-anchor="middle" x="76.78" y="-244.6" font-family="Helvetica,Arial,sans-serif" font-size="8.00">assembly</text>
</g>
<!-- BillOfMaterial&#45;&gt;assembly -->
<g id="edge3" class="edge">
<title>BillOfMaterial&#45;&gt;assembly</title>
<path fill="none" stroke="black" stroke-width="0.3" d="M181.57,-154C141.04,-154 96.32,-154 96.32,-154 96.32,-154 96.32,-214.77 96.32,-238.04"/>
</g>
<!-- assemblyConcept -->
<g id="node7" class="node">
<title>assemblyConcept</title>
<polygon fill="#bcee68" stroke="none" points="401.17,-111.73 320.67,-111.73 320.67,-93.23 401.17,-93.23 401.17,-111.73"/>
<text text-anchor="middle" x="360.92" y="-100.13" font-family="Helvetica,Arial,sans-serif" font-size="8.00">assemblyConcept</text>
</g>
<!-- BillOfMaterial&#45;&gt;assemblyConcept -->
<g id="edge5" class="edge">
<title>BillOfMaterial&#45;&gt;assemblyConcept</title>
<path fill="none" stroke="black" stroke-width="0.3" d="M310.12,-102C313.72,-102 317.29,-102 320.77,-102"/>
</g>
<!-- component -->
<g id="node8" class="node">
<title>component</title>
<polygon fill="#bcee68" stroke="none" points="149.21,-32.81 93.46,-32.81 93.46,-14.31 149.21,-14.31 149.21,-32.81"/>
<text text-anchor="middle" x="121.33" y="-21.21" font-family="Helvetica,Arial,sans-serif" font-size="8.00">component</text>
</g>
<!-- BillOfMaterial&#45;&gt;component -->
<g id="edge7" class="edge">
<title>BillOfMaterial&#45;&gt;component</title>
<path fill="none" stroke="black" stroke-width="0.3" d="M194.06,-81.72C194.06,-55.19 194.06,-25 194.06,-25 194.06,-25 169.42,-25 148.83,-25"/>
</g>
<!-- concept -->
<g id="node9" class="node">
<title>concept</title>
<polygon fill="#bcee68" stroke="none" points="251.38,-35.87 206.13,-35.87 206.13,-17.37 251.38,-17.37 251.38,-35.87"/>
<text text-anchor="middle" x="228.76" y="-24.27" font-family="Helvetica,Arial,sans-serif" font-size="8.00">concept</text>
</g>
<!-- BillOfMaterial&#45;&gt;concept -->
<g id="edge9" class="edge">
<title>BillOfMaterial&#45;&gt;concept</title>
<path fill="none" stroke="black" stroke-width="0.3" d="M228.76,-81.83C228.76,-64.81 228.76,-46.35 228.76,-35.67"/>
</g>
<!-- supplier -->
<g id="node11" class="node">
<title>supplier</title>
<polygon fill="#bcee68" stroke="none" points="360.23,-188.33 315.73,-188.33 315.73,-169.83 360.23,-169.83 360.23,-188.33"/>
<text text-anchor="middle" x="337.98" y="-176.73" font-family="Helvetica,Arial,sans-serif" font-size="8.00">supplier</text>
</g>
<!-- BillOfMaterial&#45;&gt;supplier -->
<g id="edge13" class="edge">
<title>BillOfMaterial&#45;&gt;supplier</title>
<path fill="none" stroke="black" stroke-width="0.3" d="M299.21,-160.35C299.21,-170.68 299.21,-179 299.21,-179 299.21,-179 307.17,-179 315.88,-179"/>
</g>
<!-- BusinessPartner -->
<g id="node2" class="node">
<title>BusinessPartner</title>
<polygon fill="#ffb90f" stroke="black" points="288.69,-246.79 288.69,-286.79 390.19,-286.79 390.19,-246.79 288.69,-246.79"/>
<text text-anchor="start" x="301.19" y="-274.29" font-family="Helvetica,Arial,sans-serif" font-weight="bold" font-size="10.00">BusinessPartner</text>
<polyline fill="none" stroke="black" points="288.69,-266.79 390.19,-266.79"/>
<text text-anchor="start" x="296.69" y="-254.29" font-family="Helvetica,Arial,sans-serif" font-weight="bold" font-style="italic" font-size="10.00"> domain:common</text>
<text text-anchor="start" x="379.19" y="-254.29" font-family="Helvetica,Arial,sans-serif" font-size="10.00"> </text>
</g>
<!-- PhysicalObject -->
<g id="node4" class="node">
<title>PhysicalObject</title>
<polygon fill="#ffb90f" stroke="black" points="0,-68.97 0,-108.97 86.5,-108.97 86.5,-68.97 0,-68.97"/>
<text text-anchor="start" x="8" y="-96.47" font-family="Helvetica,Arial,sans-serif" font-weight="bold" font-size="10.00">PhysicalObject</text>
<polyline fill="none" stroke="black" points="0,-88.97 86.5,-88.97"/>
<text text-anchor="start" x="11" y="-76.47" font-family="Helvetica,Arial,sans-serif" font-weight="bold" font-style="italic" font-size="10.00"> domain:core</text>
<text text-anchor="start" x="72.5" y="-76.47" font-family="Helvetica,Arial,sans-serif" font-size="10.00"> </text>
</g>
<!-- hasBom -->
<g id="node10" class="node">
<title>hasBom</title>
<polygon fill="#bcee68" stroke="none" points="175.1,-148.4 129.85,-148.4 129.85,-129.9 175.1,-129.9 175.1,-148.4"/>
<text text-anchor="middle" x="152.48" y="-136.8" font-family="Helvetica,Arial,sans-serif" font-size="8.00">hasBom</text>
</g>
<!-- PhysicalObject&#45;&gt;hasBom -->
<g id="edge11" class="edge">
<title>PhysicalObject&#45;&gt;hasBom</title>
<path fill="none" stroke="black" stroke-width="0.3" d="M86.88,-95C112.36,-95 139.53,-95 139.53,-95 139.53,-95 139.53,-117.32 139.53,-130.22"/>
</g>
<!-- assembler&#45;&gt;BusinessPartner -->
<g id="edge2" class="edge">
<title>assembler&#45;&gt;BusinessPartner</title>
<path fill="none" stroke="black" stroke-width="0.3" d="M242.13,-250C242.13,-250 284.96,-250 284.96,-250"/>
<polygon fill="black" stroke="black" stroke-width="0.3" points="284.96,-251.05 287.96,-250 284.96,-248.95 284.96,-251.05"/>
</g>
<!-- assembly&#45;&gt;PhysicalObject -->
<g id="edge4" class="edge">
<title>assembly&#45;&gt;PhysicalObject</title>
<path fill="none" stroke="black" stroke-width="0.3" d="M69.02,-238C69.02,-238 69.02,-112.91 69.02,-112.91"/>
<polygon fill="black" stroke="black" stroke-width="0.3" points="70.07,-112.91 69.02,-109.91 67.97,-112.91 70.07,-112.91"/>
</g>
<!-- assemblyConcept&#45;&gt;ConceptualObject -->
<g id="edge6" class="edge">
<title>assemblyConcept&#45;&gt;ConceptualObject</title>
<path fill="none" stroke="black" stroke-width="0.3" d="M355.77,-93.39C355.77,-93.39 355.77,-44.33 355.77,-44.33"/>
<polygon fill="black" stroke="black" stroke-width="0.3" points="356.82,-44.33 355.77,-41.33 354.72,-44.33 356.82,-44.33"/>
</g>
<!-- component&#45;&gt;PhysicalObject -->
<g id="edge8" class="edge">
<title>component&#45;&gt;PhysicalObject</title>
<path fill="none" stroke="black" stroke-width="0.3" d="M99.17,-32.52C99.17,-47.26 99.17,-75 99.17,-75 99.17,-75 90.22,-75 90.22,-75"/>
<polygon fill="black" stroke="black" stroke-width="0.3" points="90.22,-73.95 87.22,-75 90.22,-76.05 90.22,-73.95"/>
</g>
<!-- concept&#45;&gt;ConceptualObject -->
<g id="edge10" class="edge">
<title>concept&#45;&gt;ConceptualObject</title>
<path fill="none" stroke="black" stroke-width="0.3" d="M251.37,-26C251.37,-26 286.3,-26 286.3,-26"/>
<polygon fill="black" stroke="black" stroke-width="0.3" points="286.3,-27.05 289.3,-26 286.3,-24.95 286.3,-27.05"/>
</g>
<!-- hasBom&#45;&gt;BillOfMaterial -->
<g id="edge12" class="edge">
<title>hasBom&#45;&gt;BillOfMaterial</title>
<path fill="none" stroke="black" stroke-width="0.3" d="M175.08,-139C175.08,-139 178.36,-139 178.36,-139"/>
<polygon fill="black" stroke="black" stroke-width="0.3" points="178.36,-140.05 181.36,-139 178.36,-137.95 178.36,-140.05"/>
</g>
<!-- supplier&#45;&gt;BusinessPartner -->
<g id="edge14" class="edge">
<title>supplier&#45;&gt;BusinessPartner</title>
<path fill="none" stroke="black" stroke-width="0.3" d="M337.98,-188.13C337.98,-188.13 337.98,-242.96 337.98,-242.96"/>
<polygon fill="black" stroke="black" stroke-width="0.3" points="336.93,-242.96 337.98,-245.96 339.03,-242.96 336.93,-242.96"/>
</g>
</g>
</svg>
