<?xml version="1.0" encoding="UTF-8" standalone="no"?>
<!DOCTYPE svg PUBLIC "-//W3C//DTD SVG 1.1//EN"
 "http://www.w3.org/Graphics/SVG/1.1/DTD/svg11.dtd">
<!-- Generated by graphviz version 9.0.0 (20230911.1827)
 -->
<!-- Title: common_ontology Pages: 1 -->
<svg width="624pt" height="484pt"
 viewBox="0.00 0.00 624.44 483.97" xmlns="http://www.w3.org/2000/svg" xmlns:xlink="http://www.w3.org/1999/xlink">
<g id="graph0" class="graph" transform="scale(1 1) rotate(0) translate(4 479.97)">
<title>common_ontology</title>
<polygon fill="white" stroke="none" points="-4,4 -4,-479.97 620.44,-479.97 620.44,4 -4,4"/>
<!-- Asset -->
<g id="node1" class="node">
<title>Asset</title>
<polygon fill="#f2f2f2" stroke="black" points="102.32,-284.15 102.32,-382.15 231.57,-382.15 231.57,-284.15 102.32,-284.15"/>
<text text-anchor="start" x="154.57" y="-369.65" font-family="Helvetica,Arial,sans-serif" font-weight="bold" font-size="10.00">Asset</text>
<polyline fill="none" stroke="black" points="102.32,-362.15 231.57,-362.15"/>
<text text-anchor="start" x="110.32" y="-349.65" font-family="Helvetica,Arial,sans-serif" font-weight="bold" font-style="italic" font-size="10.00"> domain:common</text>
<text text-anchor="start" x="192.82" y="-349.65" font-family="Helvetica,Arial,sans-serif" font-size="10.00"> </text>
<text text-anchor="start" x="110.32" y="-339.65" font-family="Helvetica,Arial,sans-serif" font-size="10.00">contentType:string</text>
<text text-anchor="start" x="110.32" y="-329.65" font-family="Helvetica,Arial,sans-serif" font-size="10.00">description:string</text>
<text text-anchor="start" x="110.32" y="-319.65" font-family="Helvetica,Arial,sans-serif" font-size="10.00">isFederated:boolean</text>
<text text-anchor="start" x="110.32" y="-309.65" font-family="Helvetica,Arial,sans-serif" font-size="10.00">name:string</text>
<text text-anchor="start" x="110.32" y="-299.65" font-family="Helvetica,Arial,sans-serif" font-size="10.00">implementsProtocol:string</text>
<text text-anchor="start" x="110.32" y="-289.65" font-family="Helvetica,Arial,sans-serif" font-size="10.00">version:string</text>
</g>
<!-- BusinessPartner -->
<g id="node2" class="node">
<title>BusinessPartner</title>
<polygon fill="#f2f2f2" stroke="black" points="514.94,-0.5 514.94,-40.5 616.44,-40.5 616.44,-0.5 514.94,-0.5"/>
<text text-anchor="start" x="527.44" y="-28" font-family="Helvetica,Arial,sans-serif" font-weight="bold" font-size="10.00">BusinessPartner</text>
<polyline fill="none" stroke="black" points="514.94,-20.5 616.44,-20.5"/>
<text text-anchor="start" x="522.94" y="-8" font-family="Helvetica,Arial,sans-serif" font-weight="bold" font-style="italic" font-size="10.00"> domain:common</text>
<text text-anchor="start" x="605.44" y="-8" font-family="Helvetica,Arial,sans-serif" font-size="10.00"> </text>
</g>
<!-- hasDataspaceConnector -->
<g id="node7" class="node">
<title>hasDataspaceConnector</title>
<polygon fill="greenyellow" stroke="none" points="508.12,-85.75 402.12,-85.75 402.12,-67.25 508.12,-67.25 508.12,-85.75"/>
<text text-anchor="middle" x="455.12" y="-74.15" font-family="Helvetica,Arial,sans-serif" font-size="8.00">hasDataspaceConnector</text>
</g>
<!-- BusinessPartner&#45;&gt;hasDataspaceConnector -->
<g id="edge1" class="edge">
<title>BusinessPartner&#45;&gt;hasDataspaceConnector</title>
<path fill="none" stroke="black" stroke-width="0.3" d="M565.69,-40.85C565.69,-56.69 565.69,-76 565.69,-76 565.69,-76 536.3,-76 507.82,-76"/>
</g>
<!-- DataspaceConnector -->
<g id="node3" class="node">
<title>DataspaceConnector</title>
<polygon fill="#f2f2f2" stroke="black" points="300.35,-129.96 300.35,-177.96 414.6,-177.96 414.6,-129.96 300.35,-129.96"/>
<text text-anchor="start" x="308.35" y="-165.46" font-family="Helvetica,Arial,sans-serif" font-weight="bold" font-size="10.00">DataspaceConnector</text>
<polyline fill="none" stroke="black" points="300.35,-157.96 414.6,-157.96"/>
<text text-anchor="start" x="314.72" y="-145.46" font-family="Helvetica,Arial,sans-serif" font-weight="bold" font-style="italic" font-size="10.00"> domain:common</text>
<text text-anchor="start" x="397.22" y="-145.46" font-family="Helvetica,Arial,sans-serif" font-size="10.00"> </text>
<text text-anchor="start" x="314.72" y="-135.46" font-family="Helvetica,Arial,sans-serif" font-size="10.00">url:anyURI</text>
</g>
<!-- offers -->
<g id="node8" class="node">
<title>offers</title>
<polygon fill="greenyellow" stroke="none" points="284.86,-250.75 246.36,-250.75 246.36,-232.25 284.86,-232.25 284.86,-250.75"/>
<text text-anchor="middle" x="265.61" y="-239.15" font-family="Helvetica,Arial,sans-serif" font-size="8.00">offers</text>
</g>
<!-- DataspaceConnector&#45;&gt;offers -->
<g id="edge3" class="edge">
<title>DataspaceConnector&#45;&gt;offers</title>
<path fill="none" stroke="black" stroke-width="0.3" d="M300.08,-153C281.51,-153 265.61,-153 265.61,-153 265.61,-153 265.61,-209.75 265.61,-232.37"/>
</g>
<!-- FunctionAsset -->
<g id="node4" class="node">
<title>FunctionAsset</title>
<polygon fill="#f2f2f2" stroke="black" points="18.25,-404.06 18.25,-444.06 119.75,-444.06 119.75,-404.06 18.25,-404.06"/>
<text text-anchor="start" x="36" y="-431.56" font-family="Helvetica,Arial,sans-serif" font-weight="bold" font-size="10.00">FunctionAsset</text>
<polyline fill="none" stroke="black" points="18.25,-424.06 119.75,-424.06"/>
<text text-anchor="start" x="26.25" y="-411.56" font-family="Helvetica,Arial,sans-serif" font-weight="bold" font-style="italic" font-size="10.00"> domain:common</text>
<text text-anchor="start" x="108.75" y="-411.56" font-family="Helvetica,Arial,sans-serif" font-size="10.00"> </text>
</g>
<!-- FunctionAsset&#45;&gt;Asset -->
<g id="edge5" class="edge">
<title>FunctionAsset&#45;&gt;Asset</title>
<path fill="none" stroke="black" stroke-width="0.3" stroke-dasharray="5,2" d="M111.03,-403.88C111.03,-403.88 111.03,-386.09 111.03,-386.09"/>
<polygon fill="black" stroke="black" stroke-width="0.3" points="112.08,-386.09 111.03,-383.09 109.98,-386.09 112.08,-386.09"/>
</g>
<!-- GraphAsset -->
<g id="node5" class="node">
<title>GraphAsset</title>
<polygon fill="#f2f2f2" stroke="black" points="184.09,-435.47 184.09,-475.47 285.59,-475.47 285.59,-435.47 184.09,-435.47"/>
<text text-anchor="start" x="207.84" y="-462.97" font-family="Helvetica,Arial,sans-serif" font-weight="bold" font-size="10.00">GraphAsset</text>
<polyline fill="none" stroke="black" points="184.09,-455.47 285.59,-455.47"/>
<text text-anchor="start" x="192.09" y="-442.97" font-family="Helvetica,Arial,sans-serif" font-weight="bold" font-style="italic" font-size="10.00"> domain:common</text>
<text text-anchor="start" x="274.59" y="-442.97" font-family="Helvetica,Arial,sans-serif" font-size="10.00"> </text>
</g>
<!-- GraphAsset&#45;&gt;Asset -->
<g id="edge6" class="edge">
<title>GraphAsset&#45;&gt;Asset</title>
<path fill="none" stroke="black" stroke-width="0.3" stroke-dasharray="5,2" d="M207.83,-434.99C207.83,-434.99 207.83,-385.93 207.83,-385.93"/>
<polygon fill="black" stroke="black" stroke-width="0.3" points="208.88,-385.93 207.83,-382.93 206.78,-385.93 208.88,-385.93"/>
</g>
<!-- SkillAsset -->
<g id="node6" class="node">
<title>SkillAsset</title>
<polygon fill="#f2f2f2" stroke="black" points="0,-235.15 0,-275.15 101.5,-275.15 101.5,-235.15 0,-235.15"/>
<text text-anchor="start" x="27.88" y="-262.65" font-family="Helvetica,Arial,sans-serif" font-weight="bold" font-size="10.00">SkillAsset</text>
<polyline fill="none" stroke="black" points="0,-255.15 101.5,-255.15"/>
<text text-anchor="start" x="8" y="-242.65" font-family="Helvetica,Arial,sans-serif" font-weight="bold" font-style="italic" font-size="10.00"> domain:common</text>
<text text-anchor="start" x="90.5" y="-242.65" font-family="Helvetica,Arial,sans-serif" font-size="10.00"> </text>
</g>
<!-- SkillAsset&#45;&gt;Asset -->
<g id="edge7" class="edge">
<title>SkillAsset&#45;&gt;Asset</title>
<path fill="none" stroke="black" stroke-width="0.3" stroke-dasharray="5,2" d="M101.71,-263C132.93,-263 166.94,-263 166.94,-263 166.94,-263 166.94,-280.21 166.94,-280.21"/>
<polygon fill="black" stroke="black" stroke-width="0.3" points="165.89,-280.21 166.94,-283.21 167.99,-280.21 165.89,-280.21"/>
</g>
<!-- hasDataspaceConnector&#45;&gt;DataspaceConnector -->
<g id="edge2" class="edge">
<title>hasDataspaceConnector&#45;&gt;DataspaceConnector</title>
<path fill="none" stroke="black" stroke-width="0.3" d="M408.36,-85.69C408.36,-85.69 408.36,-126.09 408.36,-126.09"/>
<polygon fill="black" stroke="black" stroke-width="0.3" points="407.31,-126.09 408.36,-129.09 409.41,-126.09 407.31,-126.09"/>
</g>
<!-- offers&#45;&gt;Asset -->
<g id="edge4" class="edge">
<title>offers&#45;&gt;Asset</title>
<path fill="none" stroke="black" stroke-width="0.3" d="M265.61,-250.61C265.61,-273.75 265.61,-333 265.61,-333 265.61,-333 235.38,-333 235.38,-333"/>
<polygon fill="black" stroke="black" stroke-width="0.3" points="235.38,-331.95 232.38,-333 235.38,-334.05 235.38,-331.95"/>
</g>
<!-- publishedUnderContract -->
<g id="node9" class="node">
<title>publishedUnderContract</title>
<polygon fill="greenyellow" stroke="none" points="488,-333.5 385,-333.5 385,-315 488,-315 488,-333.5"/>
<text text-anchor="middle" x="436.5" y="-321.9" font-family="Helvetica,Arial,sans-serif" font-size="8.00">publishedUnderContract</text>
</g>
<!-- http://www.w3.org/ns/shacl#shapesGraph -->
<g id="node10" class="node">
<title>http://www.w3.org/ns/shacl#shapesGraph</title>
<polygon fill="greenyellow" stroke="none" points="524.25,-263.5 350,-263.5 350,-245 524.25,-245 524.25,-263.5"/>
<text text-anchor="middle" x="437.12" y="-251.9" font-family="Helvetica,Arial,sans-serif" font-size="8.00">http://www.w3.org/ns/shacl#shapesGraph</text>
</g>
</g>
</svg>
