<?xml version="1.0" encoding="UTF-8" standalone="no"?>
<!DOCTYPE svg PUBLIC "-//W3C//DTD SVG 1.1//EN"
 "http://www.w3.org/Graphics/SVG/1.1/DTD/svg11.dtd">
<!-- Generated by graphviz version 9.0.0 (20230911.1827)
 -->
<!-- Title: common_ontology Pages: 1 -->
<svg width="597pt" height="768pt"
 viewBox="0.00 0.00 596.81 767.75" xmlns="http://www.w3.org/2000/svg" xmlns:xlink="http://www.w3.org/1999/xlink">
<g id="graph0" class="graph" transform="scale(1 1) rotate(0) translate(4 763.75)">
<title>common_ontology</title>
<polygon fill="white" stroke="none" points="-4,4 -4,-763.75 592.81,-763.75 592.81,4 -4,4"/>
<!-- Actor -->
<g id="node1" class="node">
<title>Actor</title>
<polygon fill="#f2f2f2" stroke="black" points="0,-719.25 0,-759.25 80.5,-759.25 80.5,-719.25 0,-719.25"/>
<text text-anchor="start" x="27.88" y="-746.75" font-family="Helvetica,Arial,sans-serif" font-weight="bold" font-size="10.00">Actor</text>
<polyline fill="none" stroke="black" points="0,-739.25 80.5,-739.25"/>
<text text-anchor="start" x="8" y="-726.75" font-family="Helvetica,Arial,sans-serif" font-weight="bold" font-style="italic" font-size="10.00"> domain:core</text>
<text text-anchor="start" x="69.5" y="-726.75" font-family="Helvetica,Arial,sans-serif" font-size="10.00"> </text>
</g>
<!-- Application -->
<g id="node2" class="node">
<title>Application</title>
<polygon fill="#f2f2f2" stroke="black" points="248.81,-125.2 248.81,-165.2 350.31,-165.2 350.31,-125.2 248.81,-125.2"/>
<text text-anchor="start" x="272.56" y="-152.7" font-family="Helvetica,Arial,sans-serif" font-weight="bold" font-size="10.00">Application</text>
<polyline fill="none" stroke="black" points="248.81,-145.2 350.31,-145.2"/>
<text text-anchor="start" x="256.81" y="-132.7" font-family="Helvetica,Arial,sans-serif" font-weight="bold" font-style="italic" font-size="10.00"> domain:common</text>
<text text-anchor="start" x="339.31" y="-132.7" font-family="Helvetica,Arial,sans-serif" font-size="10.00"> </text>
</g>
<!-- Asset -->
<g id="node3" class="node">
<title>Asset</title>
<polygon fill="#f2f2f2" stroke="black" points="358.31,-0.5 358.31,-178.5 588.81,-178.5 588.81,-0.5 358.31,-0.5"/>
<text text-anchor="start" x="461.19" y="-166" font-family="Helvetica,Arial,sans-serif" font-weight="bold" font-size="10.00">Asset</text>
<polyline fill="none" stroke="black" points="358.31,-158.5 588.81,-158.5"/>
<text text-anchor="start" x="366.31" y="-146" font-family="Helvetica,Arial,sans-serif" font-weight="bold" font-style="italic" font-size="10.00"> domain:common</text>
<text text-anchor="start" x="448.81" y="-146" font-family="Helvetica,Arial,sans-serif" font-size="10.00"> </text>
<text text-anchor="start" x="366.31" y="-136" font-family="Helvetica,Arial,sans-serif" font-size="10.00">contentType:string</text>
<text text-anchor="start" x="366.31" y="-126" font-family="Helvetica,Arial,sans-serif" font-size="10.00">description:string</text>
<text text-anchor="start" x="366.31" y="-116" font-family="Helvetica,Arial,sans-serif" font-size="10.00">id:string</text>
<text text-anchor="start" x="366.31" y="-106" font-family="Helvetica,Arial,sans-serif" font-size="10.00">name:string</text>
<text text-anchor="start" x="366.31" y="-96" font-family="Helvetica,Arial,sans-serif" font-size="10.00">version:string</text>
<text text-anchor="start" x="366.31" y="-86" font-family="Helvetica,Arial,sans-serif" font-size="10.00">implementsProtocol:string</text>
<text text-anchor="start" x="366.31" y="-76" font-family="Helvetica,Arial,sans-serif" font-size="10.00">publishedUnderContract:string</text>
<text text-anchor="start" x="366.31" y="-66" font-family="Helvetica,Arial,sans-serif" font-size="10.00">satisfiesRole:anyURI</text>
<text text-anchor="start" x="366.31" y="-56" font-family="Helvetica,Arial,sans-serif" font-size="10.00">isFederated:boolean</text>
<text text-anchor="start" x="366.31" y="-46" font-family="Helvetica,Arial,sans-serif" font-size="10.00">http://www.w3.org/ns/shacl#shapesGraph:anyURI</text>
<text text-anchor="start" x="366.31" y="-36" font-family="Helvetica,Arial,sans-serif" font-size="10.00">authenticationInformation:string</text>
<text text-anchor="start" x="366.31" y="-26" font-family="Helvetica,Arial,sans-serif" font-size="10.00">authenticationCode:string</text>
<text text-anchor="start" x="366.31" y="-16" font-family="Helvetica,Arial,sans-serif" font-size="10.00">authenticationKey:string</text>
<text text-anchor="start" x="366.31" y="-6" font-family="Helvetica,Arial,sans-serif" font-size="10.00">distributionMode:string</text>
</g>
<!-- Asset&#45;&gt;Application -->
<g id="edge5" class="edge">
<title>Asset&#45;&gt;Application</title>
<path fill="none" stroke="black" stroke-width="0.3" stroke-dasharray="5,2" d="M357.99,-145C357.99,-145 354.02,-145 354.02,-145"/>
<polygon fill="black" stroke="black" stroke-width="0.3" points="354.02,-143.95 351.02,-145 354.02,-146.05 354.02,-143.95"/>
</g>
<!-- BusinessPartner -->
<g id="node4" class="node">
<title>BusinessPartner</title>
<polygon fill="#f2f2f2" stroke="black" points="106.11,-598.89 106.11,-638.89 207.61,-638.89 207.61,-598.89 106.11,-598.89"/>
<text text-anchor="start" x="118.61" y="-626.39" font-family="Helvetica,Arial,sans-serif" font-weight="bold" font-size="10.00">BusinessPartner</text>
<polyline fill="none" stroke="black" points="106.11,-618.89 207.61,-618.89"/>
<text text-anchor="start" x="114.11" y="-606.39" font-family="Helvetica,Arial,sans-serif" font-weight="bold" font-style="italic" font-size="10.00"> domain:common</text>
<text text-anchor="start" x="196.61" y="-606.39" font-family="Helvetica,Arial,sans-serif" font-size="10.00"> </text>
</g>
<!-- BusinessPartner&#45;&gt;Actor -->
<g id="edge7" class="edge">
<title>BusinessPartner&#45;&gt;Actor</title>
<path fill="none" stroke="black" stroke-width="0.3" stroke-dasharray="5,2" d="M105.72,-618C74.38,-618 40.25,-618 40.25,-618 40.25,-618 40.25,-715.5 40.25,-715.5"/>
<polygon fill="black" stroke="black" stroke-width="0.3" points="39.2,-715.5 40.25,-718.5 41.3,-715.5 39.2,-715.5"/>
</g>
<!-- hasDataspaceConnector -->
<g id="node6" class="node">
<title>hasDataspaceConnector</title>
<polygon fill="greenyellow" stroke="none" points="299.87,-485.48 193.87,-485.48 193.87,-466.98 299.87,-466.98 299.87,-485.48"/>
<text text-anchor="middle" x="246.87" y="-473.88" font-family="Helvetica,Arial,sans-serif" font-size="8.00">hasDataspaceConnector</text>
</g>
<!-- BusinessPartner&#45;&gt;hasDataspaceConnector -->
<g id="edge1" class="edge">
<title>BusinessPartner&#45;&gt;hasDataspaceConnector</title>
<path fill="none" stroke="black" stroke-width="0.3" d="M200.74,-598.45C200.74,-567.02 200.74,-508.07 200.74,-485.42"/>
</g>
<!-- DataspaceConnector -->
<g id="node5" class="node">
<title>DataspaceConnector</title>
<polygon fill="#f2f2f2" stroke="black" points="276.42,-301.46 276.42,-349.46 390.67,-349.46 390.67,-301.46 276.42,-301.46"/>
<text text-anchor="start" x="284.42" y="-336.96" font-family="Helvetica,Arial,sans-serif" font-weight="bold" font-size="10.00">DataspaceConnector</text>
<polyline fill="none" stroke="black" points="276.42,-329.46 390.67,-329.46"/>
<text text-anchor="start" x="290.79" y="-316.96" font-family="Helvetica,Arial,sans-serif" font-weight="bold" font-style="italic" font-size="10.00"> domain:common</text>
<text text-anchor="start" x="373.29" y="-316.96" font-family="Helvetica,Arial,sans-serif" font-size="10.00"> </text>
<text text-anchor="start" x="290.79" y="-306.96" font-family="Helvetica,Arial,sans-serif" font-size="10.00">url:anyURI</text>
</g>
<!-- DataspaceConnector&#45;&gt;Application -->
<g id="edge6" class="edge">
<title>DataspaceConnector&#45;&gt;Application</title>
<path fill="none" stroke="black" stroke-width="0.3" stroke-dasharray="5,2" d="M313.36,-301.15C313.36,-301.15 313.36,-168.97 313.36,-168.97"/>
<polygon fill="black" stroke="black" stroke-width="0.3" points="314.41,-168.97 313.36,-165.97 312.31,-168.97 314.41,-168.97"/>
</g>
<!-- offers -->
<g id="node7" class="node">
<title>offers</title>
<polygon fill="greenyellow" stroke="none" points="527.14,-278.39 488.64,-278.39 488.64,-259.89 527.14,-259.89 527.14,-278.39"/>
<text text-anchor="middle" x="507.89" y="-266.79" font-family="Helvetica,Arial,sans-serif" font-size="8.00">offers</text>
</g>
<!-- DataspaceConnector&#45;&gt;offers -->
<g id="edge3" class="edge">
<title>DataspaceConnector&#45;&gt;offers</title>
<path fill="none" stroke="black" stroke-width="0.3" d="M374.49,-301.19C374.49,-285.89 374.49,-269 374.49,-269 374.49,-269 451.89,-269 488.77,-269"/>
</g>
<!-- hasDataspaceConnector&#45;&gt;DataspaceConnector -->
<g id="edge2" class="edge">
<title>hasDataspaceConnector&#45;&gt;DataspaceConnector</title>
<path fill="none" stroke="black" stroke-width="0.3" d="M288.14,-467.25C288.14,-467.25 288.14,-353.24 288.14,-353.24"/>
<polygon fill="black" stroke="black" stroke-width="0.3" points="289.19,-353.24 288.14,-350.24 287.09,-353.24 289.19,-353.24"/>
</g>
<!-- offers&#45;&gt;Asset -->
<g id="edge4" class="edge">
<title>offers&#45;&gt;Asset</title>
<path fill="none" stroke="black" stroke-width="0.3" d="M507.89,-259.99C507.89,-259.99 507.89,-182.07 507.89,-182.07"/>
<polygon fill="black" stroke="black" stroke-width="0.3" points="508.94,-182.07 507.89,-179.07 506.84,-182.07 508.94,-182.07"/>
</g>
</g>
</svg>
