<?xml version="1.0" encoding="UTF-8" standalone="no"?>
<!DOCTYPE svg PUBLIC "-//W3C//DTD SVG 1.1//EN"
 "http://www.w3.org/Graphics/SVG/1.1/DTD/svg11.dtd">
<!-- Generated by graphviz version 9.0.0 (20230911.1827)
 -->
<!-- Title: common_ontology Pages: 1 -->
<svg width="389pt" height="444pt"
 viewBox="0.00 0.00 389.05 443.63" xmlns="http://www.w3.org/2000/svg" xmlns:xlink="http://www.w3.org/1999/xlink">
<g id="graph0" class="graph" transform="scale(1 1) rotate(0) translate(4 439.63)">
<title>common_ontology</title>
<polygon fill="white" stroke="none" points="-4,4 -4,-439.63 385.05,-439.63 385.05,4 -4,4"/>
<!-- Actor -->
<g id="node1" class="node">
<title>Actor</title>
<polygon fill="#ffb90f" stroke="black" points="0,-395.13 0,-435.13 80.5,-435.13 80.5,-395.13 0,-395.13"/>
<text text-anchor="start" x="27.88" y="-422.63" font-family="Helvetica,Arial,sans-serif" font-weight="bold" font-size="10.00">Actor</text>
<polyline fill="none" stroke="black" points="0,-415.13 80.5,-415.13"/>
<text text-anchor="start" x="8" y="-402.63" font-family="Helvetica,Arial,sans-serif" font-weight="bold" font-style="italic" font-size="10.00"> domain:core</text>
<text text-anchor="start" x="69.5" y="-402.63" font-family="Helvetica,Arial,sans-serif" font-size="10.00"> </text>
</g>
<!-- Application -->
<g id="node2" class="node">
<title>Application</title>
<polygon fill="#ffb90f" stroke="black" points="26.6,-97.22 26.6,-137.22 128.1,-137.22 128.1,-97.22 26.6,-97.22"/>
<text text-anchor="start" x="50.35" y="-124.72" font-family="Helvetica,Arial,sans-serif" font-weight="bold" font-size="10.00">Application</text>
<polyline fill="none" stroke="black" points="26.6,-117.22 128.1,-117.22"/>
<text text-anchor="start" x="34.6" y="-104.72" font-family="Helvetica,Arial,sans-serif" font-weight="bold" font-style="italic" font-size="10.00"> domain:common</text>
<text text-anchor="start" x="117.1" y="-104.72" font-family="Helvetica,Arial,sans-serif" font-size="10.00"> </text>
</g>
<!-- Asset -->
<g id="node3" class="node">
<title>Asset</title>
<polygon fill="#ffb90f" stroke="black" points="150.55,-0.5 150.55,-178.5 381.05,-178.5 381.05,-0.5 150.55,-0.5"/>
<text text-anchor="start" x="253.43" y="-166" font-family="Helvetica,Arial,sans-serif" font-weight="bold" font-size="10.00">Asset</text>
<polyline fill="none" stroke="black" points="150.55,-158.5 381.05,-158.5"/>
<text text-anchor="start" x="158.55" y="-146" font-family="Helvetica,Arial,sans-serif" font-weight="bold" font-style="italic" font-size="10.00"> domain:common</text>
<text text-anchor="start" x="241.05" y="-146" font-family="Helvetica,Arial,sans-serif" font-size="10.00"> </text>
<text text-anchor="start" x="158.55" y="-136" font-family="Helvetica,Arial,sans-serif" font-size="10.00">contentType:string</text>
<text text-anchor="start" x="158.55" y="-126" font-family="Helvetica,Arial,sans-serif" font-size="10.00">description:string</text>
<text text-anchor="start" x="158.55" y="-116" font-family="Helvetica,Arial,sans-serif" font-size="10.00">id:string</text>
<text text-anchor="start" x="158.55" y="-106" font-family="Helvetica,Arial,sans-serif" font-size="10.00">name:string</text>
<text text-anchor="start" x="158.55" y="-96" font-family="Helvetica,Arial,sans-serif" font-size="10.00">version:string</text>
<text text-anchor="start" x="158.55" y="-86" font-family="Helvetica,Arial,sans-serif" font-size="10.00">implementsProtocol:string</text>
<text text-anchor="start" x="158.55" y="-76" font-family="Helvetica,Arial,sans-serif" font-size="10.00">publishedUnderContract:string</text>
<text text-anchor="start" x="158.55" y="-66" font-family="Helvetica,Arial,sans-serif" font-size="10.00">satisfiesRole:anyURI</text>
<text text-anchor="start" x="158.55" y="-56" font-family="Helvetica,Arial,sans-serif" font-size="10.00">isFederated:boolean</text>
<text text-anchor="start" x="158.55" y="-46" font-family="Helvetica,Arial,sans-serif" font-size="10.00">http://www.w3.org/ns/shacl#shapesGraph:anyURI</text>
<text text-anchor="start" x="158.55" y="-36" font-family="Helvetica,Arial,sans-serif" font-size="10.00">authenticationInformation:string</text>
<text text-anchor="start" x="158.55" y="-26" font-family="Helvetica,Arial,sans-serif" font-size="10.00">authenticationCode:string</text>
<text text-anchor="start" x="158.55" y="-16" font-family="Helvetica,Arial,sans-serif" font-size="10.00">authenticationKey:string</text>
<text text-anchor="start" x="158.55" y="-6" font-family="Helvetica,Arial,sans-serif" font-size="10.00">distributionMode:string</text>
</g>
<!-- Asset&#45;&gt;Application -->
<g id="edge5" class="edge">
<title>Asset&#45;&gt;Application</title>
<path fill="none" stroke="black" stroke-width="0.3" stroke-dasharray="5,2" d="M150.21,-117C150.21,-117 132.03,-117 132.03,-117"/>
<polygon fill="black" stroke="black" stroke-width="0.3" points="132.03,-115.95 129.03,-117 132.03,-118.05 132.03,-115.95"/>
</g>
<!-- BusinessPartner -->
<g id="node4" class="node">
<title>BusinessPartner</title>
<polygon fill="#ffb90f" stroke="black" points="40.04,-342.96 40.04,-382.96 141.54,-382.96 141.54,-342.96 40.04,-342.96"/>
<text text-anchor="start" x="52.54" y="-370.46" font-family="Helvetica,Arial,sans-serif" font-weight="bold" font-size="10.00">BusinessPartner</text>
<polyline fill="none" stroke="black" points="40.04,-362.96 141.54,-362.96"/>
<text text-anchor="start" x="48.04" y="-350.46" font-family="Helvetica,Arial,sans-serif" font-weight="bold" font-style="italic" font-size="10.00"> domain:common</text>
<text text-anchor="start" x="130.54" y="-350.46" font-family="Helvetica,Arial,sans-serif" font-size="10.00"> </text>
</g>
<!-- BusinessPartner&#45;&gt;Actor -->
<g id="edge7" class="edge">
<title>BusinessPartner&#45;&gt;Actor</title>
<path fill="none" stroke="black" stroke-width="0.3" stroke-dasharray="5,2" d="M60.27,-383.28C60.27,-383.28 60.27,-391.33 60.27,-391.33"/>
<polygon fill="black" stroke="black" stroke-width="0.3" points="59.22,-391.33 60.27,-394.33 61.32,-391.33 59.22,-391.33"/>
</g>
<!-- hasDataspaceConnector -->
<g id="node6" class="node">
<title>hasDataspaceConnector</title>
<polygon fill="#bcee68" stroke="none" points="182.81,-310.38 76.81,-310.38 76.81,-291.88 182.81,-291.88 182.81,-310.38"/>
<text text-anchor="middle" x="129.81" y="-298.78" font-family="Helvetica,Arial,sans-serif" font-size="8.00">hasDataspaceConnector</text>
</g>
<!-- BusinessPartner&#45;&gt;hasDataspaceConnector -->
<g id="edge1" class="edge">
<title>BusinessPartner&#45;&gt;hasDataspaceConnector</title>
<path fill="none" stroke="black" stroke-width="0.3" d="M109.17,-342.72C109.17,-331.73 109.17,-318.69 109.17,-310.18"/>
</g>
<!-- DataspaceConnector -->
<g id="node5" class="node">
<title>DataspaceConnector</title>
<polygon fill="#ffb90f" stroke="black" points="105.43,-217.64 105.43,-265.64 219.68,-265.64 219.68,-217.64 105.43,-217.64"/>
<text text-anchor="start" x="113.43" y="-253.14" font-family="Helvetica,Arial,sans-serif" font-weight="bold" font-size="10.00">DataspaceConnector</text>
<polyline fill="none" stroke="black" points="105.43,-245.64 219.68,-245.64"/>
<text text-anchor="start" x="119.81" y="-233.14" font-family="Helvetica,Arial,sans-serif" font-weight="bold" font-style="italic" font-size="10.00"> domain:common</text>
<text text-anchor="start" x="202.31" y="-233.14" font-family="Helvetica,Arial,sans-serif" font-size="10.00"> </text>
<text text-anchor="start" x="119.81" y="-223.14" font-family="Helvetica,Arial,sans-serif" font-size="10.00">url:anyURI</text>
</g>
<!-- DataspaceConnector&#45;&gt;Application -->
<g id="edge6" class="edge">
<title>DataspaceConnector&#45;&gt;Application</title>
<path fill="none" stroke="black" stroke-width="0.3" stroke-dasharray="5,2" d="M116.76,-217.35C116.76,-217.35 116.76,-140.79 116.76,-140.79"/>
<polygon fill="black" stroke="black" stroke-width="0.3" points="117.81,-140.79 116.76,-137.79 115.71,-140.79 117.81,-140.79"/>
</g>
<!-- offers -->
<g id="node7" class="node">
<title>offers</title>
<polygon fill="#bcee68" stroke="none" points="319.31,-286.96 280.81,-286.96 280.81,-268.46 319.31,-268.46 319.31,-286.96"/>
<text text-anchor="middle" x="300.06" y="-275.36" font-family="Helvetica,Arial,sans-serif" font-size="8.00">offers</text>
</g>
<!-- DataspaceConnector&#45;&gt;offers -->
<g id="edge3" class="edge">
<title>DataspaceConnector&#45;&gt;offers</title>
<path fill="none" stroke="black" stroke-width="0.3" d="M201.24,-265.81C201.24,-272.03 201.24,-277 201.24,-277 201.24,-277 252.29,-277 281.01,-277"/>
</g>
<!-- hasDataspaceConnector&#45;&gt;DataspaceConnector -->
<g id="edge2" class="edge">
<title>hasDataspaceConnector&#45;&gt;DataspaceConnector</title>
<path fill="none" stroke="black" stroke-width="0.3" d="M144.12,-292.09C144.12,-292.09 144.12,-269.4 144.12,-269.4"/>
<polygon fill="black" stroke="black" stroke-width="0.3" points="145.17,-269.4 144.12,-266.4 143.07,-269.4 145.17,-269.4"/>
</g>
<!-- offers&#45;&gt;Asset -->
<g id="edge4" class="edge">
<title>offers&#45;&gt;Asset</title>
<path fill="none" stroke="black" stroke-width="0.3" d="M300.06,-268.63C300.06,-268.63 300.06,-182.18 300.06,-182.18"/>
<polygon fill="black" stroke="black" stroke-width="0.3" points="301.11,-182.18 300.06,-179.18 299.01,-182.18 301.11,-182.18"/>
</g>
</g>
</svg>
