<?xml version="1.0" encoding="UTF-8" standalone="no"?>
<!DOCTYPE svg PUBLIC "-//W3C//DTD SVG 1.1//EN"
 "http://www.w3.org/Graphics/SVG/1.1/DTD/svg11.dtd">
<!-- Generated by graphviz version 9.0.0 (20230911.1827)
 -->
<!-- Title: core_ontology Pages: 1 -->
<svg width="663pt" height="489pt"
 viewBox="0.00 0.00 663.28 489.28" xmlns="http://www.w3.org/2000/svg" xmlns:xlink="http://www.w3.org/1999/xlink">
<g id="graph0" class="graph" transform="scale(1 1) rotate(0) translate(4 485.28)">
<title>core_ontology</title>
<polygon fill="white" stroke="none" points="-4,4 -4,-485.28 659.28,-485.28 659.28,4 -4,4"/>
<!-- Activity -->
<g id="node1" class="node">
<title>Activity</title>
<polygon fill="#f2f2f2" stroke="black" points="212.97,-106.61 212.97,-184.61 332.47,-184.61 332.47,-106.61 212.97,-106.61"/>
<text text-anchor="start" x="255.47" y="-172.11" font-family="Helvetica,Arial,sans-serif" font-weight="bold" font-size="10.00">Activity</text>
<polyline fill="none" stroke="black" points="212.97,-164.61 332.47,-164.61"/>
<text text-anchor="start" x="220.97" y="-152.11" font-family="Helvetica,Arial,sans-serif" font-weight="bold" font-style="italic" font-size="10.00"> domain:core</text>
<text text-anchor="start" x="282.47" y="-152.11" font-family="Helvetica,Arial,sans-serif" font-size="10.00"> </text>
<text text-anchor="start" x="220.97" y="-142.11" font-family="Helvetica,Arial,sans-serif" font-size="10.00">endDateTime:dateTime</text>
<text text-anchor="start" x="220.97" y="-132.11" font-family="Helvetica,Arial,sans-serif" font-size="10.00">id:string</text>
<text text-anchor="start" x="220.97" y="-122.11" font-family="Helvetica,Arial,sans-serif" font-size="10.00">name:string</text>
<text text-anchor="start" x="220.97" y="-112.11" font-family="Helvetica,Arial,sans-serif" font-size="10.00">startDateTime:dateTime</text>
</g>
<!-- hasParticipant -->
<g id="node9" class="node">
<title>hasParticipant</title>
<polygon fill="greenyellow" stroke="none" points="167.42,-146.62 92.18,-146.62 92.18,-117.62 167.42,-117.62 167.42,-146.62"/>
<text text-anchor="middle" x="129.8" y="-135.02" font-family="Helvetica,Arial,sans-serif" font-size="8.00">hasParticipant / </text>
<text text-anchor="middle" x="129.8" y="-124.52" font-family="Helvetica,Arial,sans-serif" font-size="8.00">participatesIn ➝</text>
</g>
<!-- Activity&#45;&gt;hasParticipant -->
<g id="edge5" class="edge">
<title>Activity&#45;&gt;hasParticipant</title>
<path fill="none" stroke="black" stroke-width="0.3" d="M212.52,-132C197.11,-132 180.99,-132 167.11,-132"/>
</g>
<!-- refersToConceptualObject -->
<g id="node10" class="node">
<title>refersToConceptualObject</title>
<polygon fill="greenyellow" stroke="none" points="458.47,-215.45 340.47,-215.45 340.47,-186.45 458.47,-186.45 458.47,-215.45"/>
<text text-anchor="middle" x="399.47" y="-203.85" font-family="Helvetica,Arial,sans-serif" font-size="8.00">refersToConceptualObject / </text>
<text text-anchor="middle" x="399.47" y="-193.35" font-family="Helvetica,Arial,sans-serif" font-size="8.00">involvedIn ➝</text>
</g>
<!-- Activity&#45;&gt;refersToConceptualObject -->
<g id="edge7" class="edge">
<title>Activity&#45;&gt;refersToConceptualObject</title>
<path fill="none" stroke="black" stroke-width="0.3" d="M327.45,-184.85C327.45,-193.43 327.45,-200 327.45,-200 327.45,-200 332.83,-200 340.66,-200"/>
</g>
<!-- refersToPhysicalObject -->
<g id="node11" class="node">
<title>refersToPhysicalObject</title>
<polygon fill="greenyellow" stroke="none" points="406.59,-40.72 299.09,-40.72 299.09,-11.72 406.59,-11.72 406.59,-40.72"/>
<text text-anchor="middle" x="352.84" y="-29.12" font-family="Helvetica,Arial,sans-serif" font-size="8.00">refersToPhysicalObject / </text>
<text text-anchor="middle" x="352.84" y="-18.62" font-family="Helvetica,Arial,sans-serif" font-size="8.00">involvedIn ➝</text>
</g>
<!-- Activity&#45;&gt;refersToPhysicalObject -->
<g id="edge9" class="edge">
<title>Activity&#45;&gt;refersToPhysicalObject</title>
<path fill="none" stroke="black" stroke-width="0.3" d="M315.78,-106.18C315.78,-83.63 315.78,-56.7 315.78,-40.56"/>
</g>
<!-- takesPlaceAt -->
<g id="node13" class="node">
<title>takesPlaceAt</title>
<polygon fill="greenyellow" stroke="none" points="271.63,-293.84 201.63,-293.84 201.63,-264.84 271.63,-264.84 271.63,-293.84"/>
<text text-anchor="middle" x="236.63" y="-282.24" font-family="Helvetica,Arial,sans-serif" font-size="8.00">takesPlaceAt / </text>
<text text-anchor="middle" x="236.63" y="-271.74" font-family="Helvetica,Arial,sans-serif" font-size="8.00">hosts ➝</text>
</g>
<!-- Activity&#45;&gt;takesPlaceAt -->
<g id="edge13" class="edge">
<title>Activity&#45;&gt;takesPlaceAt</title>
<path fill="none" stroke="black" stroke-width="0.3" d="M242.3,-185.01C242.3,-211.97 242.3,-246.15 242.3,-265.08"/>
</g>
<!-- Actor -->
<g id="node2" class="node">
<title>Actor</title>
<polygon fill="#f2f2f2" stroke="black" points="0,-218.32 0,-276.32 80.5,-276.32 80.5,-218.32 0,-218.32"/>
<text text-anchor="start" x="27.88" y="-263.82" font-family="Helvetica,Arial,sans-serif" font-weight="bold" font-size="10.00">Actor</text>
<polyline fill="none" stroke="black" points="0,-256.32 80.5,-256.32"/>
<text text-anchor="start" x="8" y="-243.82" font-family="Helvetica,Arial,sans-serif" font-weight="bold" font-style="italic" font-size="10.00"> domain:core</text>
<text text-anchor="start" x="69.5" y="-243.82" font-family="Helvetica,Arial,sans-serif" font-size="10.00"> </text>
<text text-anchor="start" x="8" y="-233.82" font-family="Helvetica,Arial,sans-serif" font-size="10.00">id:string</text>
<text text-anchor="start" x="8" y="-223.82" font-family="Helvetica,Arial,sans-serif" font-size="10.00">name:string</text>
</g>
<!-- relatedToPlace -->
<g id="node12" class="node">
<title>relatedToPlace</title>
<polygon fill="greenyellow" stroke="none" points="110.3,-398.73 41.05,-398.73 41.05,-380.23 110.3,-380.23 110.3,-398.73"/>
<text text-anchor="middle" x="75.67" y="-387.13" font-family="Helvetica,Arial,sans-serif" font-size="8.00">relatedToPlace</text>
</g>
<!-- Actor&#45;&gt;relatedToPlace -->
<g id="edge11" class="edge">
<title>Actor&#45;&gt;relatedToPlace</title>
<path fill="none" stroke="black" stroke-width="0.3" d="M60.77,-276.78C60.77,-309.31 60.77,-359.8 60.77,-380.33"/>
</g>
<!-- Address -->
<g id="node3" class="node">
<title>Address</title>
<polygon fill="#f2f2f2" stroke="black" points="433.12,-365.5 433.12,-453.5 524.87,-453.5 524.87,-365.5 433.12,-365.5"/>
<text text-anchor="start" x="460.25" y="-441" font-family="Helvetica,Arial,sans-serif" font-weight="bold" font-size="10.00">Address</text>
<polyline fill="none" stroke="black" points="433.12,-433.5 524.87,-433.5"/>
<text text-anchor="start" x="441.12" y="-421" font-family="Helvetica,Arial,sans-serif" font-weight="bold" font-style="italic" font-size="10.00"> domain:core</text>
<text text-anchor="start" x="502.62" y="-421" font-family="Helvetica,Arial,sans-serif" font-size="10.00"> </text>
<text text-anchor="start" x="441.12" y="-411" font-family="Helvetica,Arial,sans-serif" font-size="10.00">street:string</text>
<text text-anchor="start" x="441.12" y="-401" font-family="Helvetica,Arial,sans-serif" font-size="10.00">houseNumber:int</text>
<text text-anchor="start" x="441.12" y="-391" font-family="Helvetica,Arial,sans-serif" font-size="10.00">postalCode:string</text>
<text text-anchor="start" x="441.12" y="-381" font-family="Helvetica,Arial,sans-serif" font-size="10.00">city:string</text>
<text text-anchor="start" x="441.12" y="-371" font-family="Helvetica,Arial,sans-serif" font-size="10.00">country:string</text>
</g>
<!-- ConceptualObject -->
<g id="node4" class="node">
<title>ConceptualObject</title>
<polygon fill="#f2f2f2" stroke="black" points="466.25,-241.68 466.25,-299.68 567,-299.68 567,-241.68 466.25,-241.68"/>
<text text-anchor="start" x="474.25" y="-287.18" font-family="Helvetica,Arial,sans-serif" font-weight="bold" font-size="10.00">ConceptualObject</text>
<polyline fill="none" stroke="black" points="466.25,-279.68 567,-279.68"/>
<text text-anchor="start" x="484.37" y="-267.18" font-family="Helvetica,Arial,sans-serif" font-weight="bold" font-style="italic" font-size="10.00"> domain:core</text>
<text text-anchor="start" x="545.87" y="-267.18" font-family="Helvetica,Arial,sans-serif" font-size="10.00"> </text>
<text text-anchor="start" x="484.37" y="-257.18" font-family="Helvetica,Arial,sans-serif" font-size="10.00">id:string</text>
<text text-anchor="start" x="484.37" y="-247.18" font-family="Helvetica,Arial,sans-serif" font-size="10.00">name:string</text>
</g>
<!-- Address&#45;&gt;ConceptualObject -->
<g id="edge15" class="edge">
<title>Address&#45;&gt;ConceptualObject</title>
<path fill="none" stroke="black" stroke-width="0.3" stroke-dasharray="5,2" d="M495.56,-365.19C495.56,-365.19 495.56,-303.59 495.56,-303.59"/>
<polygon fill="black" stroke="black" stroke-width="0.3" points="496.61,-303.59 495.56,-300.59 494.51,-303.59 496.61,-303.59"/>
</g>
<!-- describesPhysicalObject -->
<g id="node8" class="node">
<title>describesPhysicalObject</title>
<polygon fill="greenyellow" stroke="none" points="655.28,-161.17 518.53,-161.17 518.53,-132.17 655.28,-132.17 655.28,-161.17"/>
<text text-anchor="middle" x="586.91" y="-149.57" font-family="Helvetica,Arial,sans-serif" font-size="8.00">describesPhysicalObject / </text>
<text text-anchor="middle" x="586.91" y="-139.07" font-family="Helvetica,Arial,sans-serif" font-size="8.00">describedByConceptualObject ➝</text>
</g>
<!-- ConceptualObject&#45;&gt;describesPhysicalObject -->
<g id="edge3" class="edge">
<title>ConceptualObject&#45;&gt;describesPhysicalObject</title>
<path fill="none" stroke="black" stroke-width="0.3" d="M542.76,-241.3C542.76,-215.94 542.76,-180.41 542.76,-160.9"/>
</g>
<!-- PhysicalObject -->
<g id="node5" class="node">
<title>PhysicalObject</title>
<polygon fill="#f2f2f2" stroke="black" points="455.6,-0.5 455.6,-58.5 542.1,-58.5 542.1,-0.5 455.6,-0.5"/>
<text text-anchor="start" x="463.6" y="-46" font-family="Helvetica,Arial,sans-serif" font-weight="bold" font-size="10.00">PhysicalObject</text>
<polyline fill="none" stroke="black" points="455.6,-38.5 542.1,-38.5"/>
<text text-anchor="start" x="466.6" y="-26" font-family="Helvetica,Arial,sans-serif" font-weight="bold" font-style="italic" font-size="10.00"> domain:core</text>
<text text-anchor="start" x="528.1" y="-26" font-family="Helvetica,Arial,sans-serif" font-size="10.00"> </text>
<text text-anchor="start" x="466.6" y="-16" font-family="Helvetica,Arial,sans-serif" font-size="10.00">id:string</text>
<text text-anchor="start" x="466.6" y="-6" font-family="Helvetica,Arial,sans-serif" font-size="10.00">name:string</text>
</g>
<!-- Place -->
<g id="node6" class="node">
<title>Place</title>
<polygon fill="#f2f2f2" stroke="black" points="175.92,-385.08 175.92,-443.08 256.42,-443.08 256.42,-385.08 175.92,-385.08"/>
<text text-anchor="start" x="202.67" y="-430.58" font-family="Helvetica,Arial,sans-serif" font-weight="bold" font-size="10.00">Place</text>
<polyline fill="none" stroke="black" points="175.92,-423.08 256.42,-423.08"/>
<text text-anchor="start" x="183.92" y="-410.58" font-family="Helvetica,Arial,sans-serif" font-weight="bold" font-style="italic" font-size="10.00"> domain:core</text>
<text text-anchor="start" x="245.42" y="-410.58" font-family="Helvetica,Arial,sans-serif" font-size="10.00"> </text>
<text text-anchor="start" x="183.92" y="-400.58" font-family="Helvetica,Arial,sans-serif" font-size="10.00">id:string</text>
<text text-anchor="start" x="183.92" y="-390.58" font-family="Helvetica,Arial,sans-serif" font-size="10.00">name:string</text>
</g>
<!-- hasAddress -->
<g id="node7" class="node">
<title>hasAddress</title>
<polygon fill="greenyellow" stroke="none" points="378.4,-481.28 317.4,-481.28 317.4,-462.78 378.4,-462.78 378.4,-481.28"/>
<text text-anchor="middle" x="347.9" y="-469.68" font-family="Helvetica,Arial,sans-serif" font-size="8.00">hasAddress</text>
</g>
<!-- Place&#45;&gt;hasAddress -->
<g id="edge1" class="edge">
<title>Place&#45;&gt;hasAddress</title>
<path fill="none" stroke="black" stroke-width="0.3" d="M256.64,-414C286.67,-414 322.43,-414 322.43,-414 322.43,-414 322.43,-446.64 322.43,-462.96"/>
</g>
<!-- hasAddress&#45;&gt;Address -->
<g id="edge2" class="edge">
<title>hasAddress&#45;&gt;Address</title>
<path fill="none" stroke="black" stroke-width="0.3" d="M359.44,-462.81C359.44,-456.03 359.44,-448 359.44,-448 359.44,-448 429.32,-448 429.32,-448"/>
<polygon fill="black" stroke="black" stroke-width="0.3" points="429.32,-449.05 432.32,-448 429.32,-446.95 429.32,-449.05"/>
</g>
<!-- describesPhysicalObject&#45;&gt;PhysicalObject -->
<g id="edge4" class="edge">
<title>describesPhysicalObject&#45;&gt;PhysicalObject</title>
<path fill="none" stroke="black" stroke-width="0.3" d="M530.32,-132.31C530.32,-132.31 530.32,-62.28 530.32,-62.28"/>
<polygon fill="black" stroke="black" stroke-width="0.3" points="531.37,-62.28 530.32,-59.28 529.27,-62.28 531.37,-62.28"/>
</g>
<!-- hasParticipant&#45;&gt;Actor -->
<g id="edge6" class="edge">
<title>hasParticipant&#45;&gt;Actor</title>
<path fill="none" stroke="black" stroke-width="0.3" d="M101.24,-146.42C101.24,-173.37 101.24,-229 101.24,-229 101.24,-229 84.38,-229 84.38,-229"/>
<polygon fill="black" stroke="black" stroke-width="0.3" points="84.38,-227.95 81.38,-229 84.38,-230.05 84.38,-227.95"/>
</g>
<!-- refersToConceptualObject&#45;&gt;ConceptualObject -->
<g id="edge8" class="edge">
<title>refersToConceptualObject&#45;&gt;ConceptualObject</title>
<path fill="none" stroke="black" stroke-width="0.3" d="M445.8,-215.17C445.8,-230.58 445.8,-253 445.8,-253 445.8,-253 462.45,-253 462.45,-253"/>
<polygon fill="black" stroke="black" stroke-width="0.3" points="462.45,-254.05 465.45,-253 462.45,-251.95 462.45,-254.05"/>
</g>
<!-- refersToPhysicalObject&#45;&gt;PhysicalObject -->
<g id="edge10" class="edge">
<title>refersToPhysicalObject&#45;&gt;PhysicalObject</title>
<path fill="none" stroke="black" stroke-width="0.3" d="M406.38,-26C406.38,-26 451.9,-26 451.9,-26"/>
<polygon fill="black" stroke="black" stroke-width="0.3" points="451.9,-27.05 454.9,-26 451.9,-24.95 451.9,-27.05"/>
</g>
<!-- relatedToPlace&#45;&gt;Place -->
<g id="edge12" class="edge">
<title>relatedToPlace&#45;&gt;Place</title>
<path fill="none" stroke="black" stroke-width="0.3" d="M110.04,-391C110.04,-391 172.21,-391 172.21,-391"/>
<polygon fill="black" stroke="black" stroke-width="0.3" points="172.21,-392.05 175.21,-391 172.21,-389.95 172.21,-392.05"/>
</g>
<!-- takesPlaceAt&#45;&gt;Place -->
<g id="edge14" class="edge">
<title>takesPlaceAt&#45;&gt;Place</title>
<path fill="none" stroke="black" stroke-width="0.3" d="M229.02,-293.76C229.02,-293.76 229.02,-381.19 229.02,-381.19"/>
<polygon fill="black" stroke="black" stroke-width="0.3" points="227.97,-381.19 229.02,-384.19 230.07,-381.19 227.97,-381.19"/>
</g>
</g>
</svg>
