<?xml version="1.0" encoding="UTF-8" standalone="no"?>
<!DOCTYPE svg PUBLIC "-//W3C//DTD SVG 1.1//EN"
 "http://www.w3.org/Graphics/SVG/1.1/DTD/svg11.dtd">
<!-- Generated by graphviz version 9.0.0 (20230911.1827)
 -->
<!-- Title: core_ontology Pages: 1 -->
<svg width="552pt" height="378pt"
 viewBox="0.00 0.00 552.13 378.04" xmlns="http://www.w3.org/2000/svg" xmlns:xlink="http://www.w3.org/1999/xlink">
<g id="graph0" class="graph" transform="scale(1 1) rotate(0) translate(4 374.04)">
<title>core_ontology</title>
<polygon fill="white" stroke="none" points="-4,4 -4,-374.04 548.13,-374.04 548.13,4 -4,4"/>
<!-- Activity -->
<g id="node1" class="node">
<title>Activity</title>
<polygon fill="#ffb90f" stroke="black" points="121.32,-72.51 121.32,-150.51 240.82,-150.51 240.82,-72.51 121.32,-72.51"/>
<text text-anchor="start" x="163.82" y="-138.01" font-family="Helvetica,Arial,sans-serif" font-weight="bold" font-size="10.00">Activity</text>
<polyline fill="none" stroke="black" points="121.32,-130.51 240.82,-130.51"/>
<text text-anchor="start" x="129.32" y="-118.01" font-family="Helvetica,Arial,sans-serif" font-weight="bold" font-style="italic" font-size="10.00"> domain:core</text>
<text text-anchor="start" x="190.82" y="-118.01" font-family="Helvetica,Arial,sans-serif" font-size="10.00"> </text>
<text text-anchor="start" x="129.32" y="-108.01" font-family="Helvetica,Arial,sans-serif" font-size="10.00">endDateTime:dateTime</text>
<text text-anchor="start" x="129.32" y="-98.01" font-family="Helvetica,Arial,sans-serif" font-size="10.00">id:string</text>
<text text-anchor="start" x="129.32" y="-88.01" font-family="Helvetica,Arial,sans-serif" font-size="10.00">name:string</text>
<text text-anchor="start" x="129.32" y="-78.01" font-family="Helvetica,Arial,sans-serif" font-size="10.00">startDateTime:dateTime</text>
</g>
<!-- hasParticipant -->
<g id="node9" class="node">
<title>hasParticipant</title>
<polygon fill="#bcee68" stroke="none" points="94.57,-56.46 19.32,-56.46 19.32,-27.46 94.57,-27.46 94.57,-56.46"/>
<text text-anchor="middle" x="56.94" y="-44.86" font-family="Helvetica,Arial,sans-serif" font-size="8.00">hasParticipant / </text>
<text text-anchor="middle" x="56.94" y="-34.36" font-family="Helvetica,Arial,sans-serif" font-size="8.00">participatesIn ➝</text>
</g>
<!-- Activity&#45;&gt;hasParticipant -->
<g id="edge5" class="edge">
<title>Activity&#45;&gt;hasParticipant</title>
<path fill="none" stroke="black" stroke-width="0.3" d="M158.81,-72.16C158.81,-60.61 158.81,-51 158.81,-51 158.81,-51 123.37,-51 94.29,-51"/>
</g>
<!-- refersToConceptualObject -->
<g id="node10" class="node">
<title>refersToConceptualObject</title>
<polygon fill="#bcee68" stroke="none" points="372.12,-180.07 254.12,-180.07 254.12,-151.07 372.12,-151.07 372.12,-180.07"/>
<text text-anchor="middle" x="313.12" y="-168.47" font-family="Helvetica,Arial,sans-serif" font-size="8.00">refersToConceptualObject / </text>
<text text-anchor="middle" x="313.12" y="-157.97" font-family="Helvetica,Arial,sans-serif" font-size="8.00">involvedIn ➝</text>
</g>
<!-- Activity&#45;&gt;refersToConceptualObject -->
<g id="edge7" class="edge">
<title>Activity&#45;&gt;refersToConceptualObject</title>
<path fill="none" stroke="black" stroke-width="0.3" d="M230.98,-150.95C230.98,-158.96 230.98,-165 230.98,-165 230.98,-165 241.13,-165 254.3,-165"/>
</g>
<!-- refersToPhysicalObject -->
<g id="node11" class="node">
<title>refersToPhysicalObject</title>
<polygon fill="#bcee68" stroke="none" points="303.8,-47.39 196.3,-47.39 196.3,-18.39 303.8,-18.39 303.8,-47.39"/>
<text text-anchor="middle" x="250.05" y="-35.79" font-family="Helvetica,Arial,sans-serif" font-size="8.00">refersToPhysicalObject / </text>
<text text-anchor="middle" x="250.05" y="-25.29" font-family="Helvetica,Arial,sans-serif" font-size="8.00">involvedIn ➝</text>
</g>
<!-- Activity&#45;&gt;refersToPhysicalObject -->
<g id="edge9" class="edge">
<title>Activity&#45;&gt;refersToPhysicalObject</title>
<path fill="none" stroke="black" stroke-width="0.3" d="M218.56,-72.2C218.56,-63.3 218.56,-54.39 218.56,-47.31"/>
</g>
<!-- takesPlaceAt -->
<g id="node13" class="node">
<title>takesPlaceAt</title>
<polygon fill="#bcee68" stroke="none" points="221.14,-225.32 151.14,-225.32 151.14,-196.32 221.14,-196.32 221.14,-225.32"/>
<text text-anchor="middle" x="186.14" y="-213.72" font-family="Helvetica,Arial,sans-serif" font-size="8.00">takesPlaceAt / </text>
<text text-anchor="middle" x="186.14" y="-203.22" font-family="Helvetica,Arial,sans-serif" font-size="8.00">hosts ➝</text>
</g>
<!-- Activity&#45;&gt;takesPlaceAt -->
<g id="edge13" class="edge">
<title>Activity&#45;&gt;takesPlaceAt</title>
<path fill="none" stroke="black" stroke-width="0.3" d="M186.14,-150.76C186.14,-166.81 186.14,-184.37 186.14,-196.34"/>
</g>
<!-- Actor -->
<g id="node2" class="node">
<title>Actor</title>
<polygon fill="#ffb90f" stroke="black" points="0,-145.42 0,-203.42 80.5,-203.42 80.5,-145.42 0,-145.42"/>
<text text-anchor="start" x="27.88" y="-190.92" font-family="Helvetica,Arial,sans-serif" font-weight="bold" font-size="10.00">Actor</text>
<polyline fill="none" stroke="black" points="0,-183.42 80.5,-183.42"/>
<text text-anchor="start" x="8" y="-170.92" font-family="Helvetica,Arial,sans-serif" font-weight="bold" font-style="italic" font-size="10.00"> domain:core</text>
<text text-anchor="start" x="69.5" y="-170.92" font-family="Helvetica,Arial,sans-serif" font-size="10.00"> </text>
<text text-anchor="start" x="8" y="-160.92" font-family="Helvetica,Arial,sans-serif" font-size="10.00">id:string</text>
<text text-anchor="start" x="8" y="-150.92" font-family="Helvetica,Arial,sans-serif" font-size="10.00">name:string</text>
</g>
<!-- relatedToPlace -->
<g id="node12" class="node">
<title>relatedToPlace</title>
<polygon fill="#bcee68" stroke="none" points="73.64,-317.45 4.39,-317.45 4.39,-298.95 73.64,-298.95 73.64,-317.45"/>
<text text-anchor="middle" x="39.01" y="-305.85" font-family="Helvetica,Arial,sans-serif" font-size="8.00">relatedToPlace</text>
</g>
<!-- Actor&#45;&gt;relatedToPlace -->
<g id="edge11" class="edge">
<title>Actor&#45;&gt;relatedToPlace</title>
<path fill="none" stroke="black" stroke-width="0.3" d="M39.01,-203.78C39.01,-234.24 39.01,-280.05 39.01,-299.24"/>
</g>
<!-- Address -->
<g id="node3" class="node">
<title>Address</title>
<polygon fill="#ffb90f" stroke="black" points="391.55,-281.54 391.55,-369.54 494.55,-369.54 494.55,-281.54 391.55,-281.54"/>
<text text-anchor="start" x="424.3" y="-357.04" font-family="Helvetica,Arial,sans-serif" font-weight="bold" font-size="10.00">Address</text>
<polyline fill="none" stroke="black" points="391.55,-349.54 494.55,-349.54"/>
<text text-anchor="start" x="399.55" y="-337.04" font-family="Helvetica,Arial,sans-serif" font-weight="bold" font-style="italic" font-size="10.00"> domain:core</text>
<text text-anchor="start" x="461.05" y="-337.04" font-family="Helvetica,Arial,sans-serif" font-size="10.00"> </text>
<text text-anchor="start" x="399.55" y="-327.04" font-family="Helvetica,Arial,sans-serif" font-size="10.00">street:string</text>
<text text-anchor="start" x="399.55" y="-317.04" font-family="Helvetica,Arial,sans-serif" font-size="10.00">houseNumber:string</text>
<text text-anchor="start" x="399.55" y="-307.04" font-family="Helvetica,Arial,sans-serif" font-size="10.00">postalCode:string</text>
<text text-anchor="start" x="399.55" y="-297.04" font-family="Helvetica,Arial,sans-serif" font-size="10.00">city:string</text>
<text text-anchor="start" x="399.55" y="-287.04" font-family="Helvetica,Arial,sans-serif" font-size="10.00">country:string</text>
</g>
<!-- ConceptualObject -->
<g id="node4" class="node">
<title>ConceptualObject</title>
<polygon fill="#ffb90f" stroke="black" points="401.38,-192.05 401.38,-250.05 502.13,-250.05 502.13,-192.05 401.38,-192.05"/>
<text text-anchor="start" x="409.38" y="-237.55" font-family="Helvetica,Arial,sans-serif" font-weight="bold" font-size="10.00">ConceptualObject</text>
<polyline fill="none" stroke="black" points="401.38,-230.05 502.13,-230.05"/>
<text text-anchor="start" x="419.51" y="-217.55" font-family="Helvetica,Arial,sans-serif" font-weight="bold" font-style="italic" font-size="10.00"> domain:core</text>
<text text-anchor="start" x="481.01" y="-217.55" font-family="Helvetica,Arial,sans-serif" font-size="10.00"> </text>
<text text-anchor="start" x="419.51" y="-207.55" font-family="Helvetica,Arial,sans-serif" font-size="10.00">id:string</text>
<text text-anchor="start" x="419.51" y="-197.55" font-family="Helvetica,Arial,sans-serif" font-size="10.00">name:string</text>
</g>
<!-- Address&#45;&gt;ConceptualObject -->
<g id="edge15" class="edge">
<title>Address&#45;&gt;ConceptualObject</title>
<path fill="none" stroke="black" stroke-width="0.3" stroke-dasharray="5,2" d="M447.97,-281.23C447.97,-281.23 447.97,-253.74 447.97,-253.74"/>
<polygon fill="black" stroke="black" stroke-width="0.3" points="449.02,-253.74 447.97,-250.74 446.92,-253.74 449.02,-253.74"/>
</g>
<!-- describesPhysicalObject -->
<g id="node8" class="node">
<title>describesPhysicalObject</title>
<polygon fill="#bcee68" stroke="none" points="544.13,-121.15 407.38,-121.15 407.38,-92.15 544.13,-92.15 544.13,-121.15"/>
<text text-anchor="middle" x="475.75" y="-109.55" font-family="Helvetica,Arial,sans-serif" font-size="8.00">describesPhysicalObject / </text>
<text text-anchor="middle" x="475.75" y="-99.05" font-family="Helvetica,Arial,sans-serif" font-size="8.00">describedByConceptualObject ➝</text>
</g>
<!-- ConceptualObject&#45;&gt;describesPhysicalObject -->
<g id="edge3" class="edge">
<title>ConceptualObject&#45;&gt;describesPhysicalObject</title>
<path fill="none" stroke="black" stroke-width="0.3" d="M454.76,-191.59C454.76,-168.95 454.76,-138.65 454.76,-121.03"/>
</g>
<!-- PhysicalObject -->
<g id="node5" class="node">
<title>PhysicalObject</title>
<polygon fill="#ffb90f" stroke="black" points="363.09,-0.5 363.09,-58.5 449.59,-58.5 449.59,-0.5 363.09,-0.5"/>
<text text-anchor="start" x="371.09" y="-46" font-family="Helvetica,Arial,sans-serif" font-weight="bold" font-size="10.00">PhysicalObject</text>
<polyline fill="none" stroke="black" points="363.09,-38.5 449.59,-38.5"/>
<text text-anchor="start" x="374.09" y="-26" font-family="Helvetica,Arial,sans-serif" font-weight="bold" font-style="italic" font-size="10.00"> domain:core</text>
<text text-anchor="start" x="435.59" y="-26" font-family="Helvetica,Arial,sans-serif" font-size="10.00"> </text>
<text text-anchor="start" x="374.09" y="-16" font-family="Helvetica,Arial,sans-serif" font-size="10.00">id:string</text>
<text text-anchor="start" x="374.09" y="-6" font-family="Helvetica,Arial,sans-serif" font-size="10.00">name:string</text>
</g>
<!-- Place -->
<g id="node6" class="node">
<title>Place</title>
<polygon fill="#ffb90f" stroke="black" points="131.79,-292.05 131.79,-350.05 212.29,-350.05 212.29,-292.05 131.79,-292.05"/>
<text text-anchor="start" x="158.54" y="-337.55" font-family="Helvetica,Arial,sans-serif" font-weight="bold" font-size="10.00">Place</text>
<polyline fill="none" stroke="black" points="131.79,-330.05 212.29,-330.05"/>
<text text-anchor="start" x="139.79" y="-317.55" font-family="Helvetica,Arial,sans-serif" font-weight="bold" font-style="italic" font-size="10.00"> domain:core</text>
<text text-anchor="start" x="201.29" y="-317.55" font-family="Helvetica,Arial,sans-serif" font-size="10.00"> </text>
<text text-anchor="start" x="139.79" y="-307.55" font-family="Helvetica,Arial,sans-serif" font-size="10.00">id:string</text>
<text text-anchor="start" x="139.79" y="-297.55" font-family="Helvetica,Arial,sans-serif" font-size="10.00">name:string</text>
</g>
<!-- hasAddress -->
<g id="node7" class="node">
<title>hasAddress</title>
<polygon fill="#bcee68" stroke="none" points="323.56,-315.57 262.56,-315.57 262.56,-297.07 323.56,-297.07 323.56,-315.57"/>
<text text-anchor="middle" x="293.06" y="-303.97" font-family="Helvetica,Arial,sans-serif" font-size="8.00">hasAddress</text>
</g>
<!-- Place&#45;&gt;hasAddress -->
<g id="edge1" class="edge">
<title>Place&#45;&gt;hasAddress</title>
<path fill="none" stroke="black" stroke-width="0.3" d="M212.67,-306C229.01,-306 247.53,-306 262.67,-306"/>
</g>
<!-- hasAddress&#45;&gt;Address -->
<g id="edge2" class="edge">
<title>hasAddress&#45;&gt;Address</title>
<path fill="none" stroke="black" stroke-width="0.3" d="M323.41,-306C323.41,-306 387.72,-306 387.72,-306"/>
<polygon fill="black" stroke="black" stroke-width="0.3" points="387.72,-307.05 390.72,-306 387.72,-304.95 387.72,-307.05"/>
</g>
<!-- describesPhysicalObject&#45;&gt;PhysicalObject -->
<g id="edge4" class="edge">
<title>describesPhysicalObject&#45;&gt;PhysicalObject</title>
<path fill="none" stroke="black" stroke-width="0.3" d="M428.48,-92.5C428.48,-92.5 428.48,-62.35 428.48,-62.35"/>
<polygon fill="black" stroke="black" stroke-width="0.3" points="429.53,-62.35 428.48,-59.35 427.43,-62.35 429.53,-62.35"/>
</g>
<!-- hasParticipant&#45;&gt;Actor -->
<g id="edge6" class="edge">
<title>hasParticipant&#45;&gt;Actor</title>
<path fill="none" stroke="black" stroke-width="0.3" d="M49.91,-56.39C49.91,-56.39 49.91,-141.64 49.91,-141.64"/>
<polygon fill="black" stroke="black" stroke-width="0.3" points="48.86,-141.64 49.91,-144.64 50.96,-141.64 48.86,-141.64"/>
</g>
<!-- refersToConceptualObject&#45;&gt;ConceptualObject -->
<g id="edge8" class="edge">
<title>refersToConceptualObject&#45;&gt;ConceptualObject</title>
<path fill="none" stroke="black" stroke-width="0.3" d="M347.84,-179.63C347.84,-192.65 347.84,-210 347.84,-210 347.84,-210 397.56,-210 397.56,-210"/>
<polygon fill="black" stroke="black" stroke-width="0.3" points="397.56,-211.05 400.56,-210 397.56,-208.95 397.56,-211.05"/>
</g>
<!-- refersToPhysicalObject&#45;&gt;PhysicalObject -->
<g id="edge10" class="edge">
<title>refersToPhysicalObject&#45;&gt;PhysicalObject</title>
<path fill="none" stroke="black" stroke-width="0.3" d="M303.4,-32C303.4,-32 359.36,-32 359.36,-32"/>
<polygon fill="black" stroke="black" stroke-width="0.3" points="359.36,-33.05 362.36,-32 359.36,-30.95 359.36,-33.05"/>
</g>
<!-- relatedToPlace&#45;&gt;Place -->
<g id="edge12" class="edge">
<title>relatedToPlace&#45;&gt;Place</title>
<path fill="none" stroke="black" stroke-width="0.3" d="M73.62,-308C73.62,-308 128.02,-308 128.02,-308"/>
<polygon fill="black" stroke="black" stroke-width="0.3" points="128.02,-309.05 131.02,-308 128.02,-306.95 128.02,-309.05"/>
</g>
<!-- takesPlaceAt&#45;&gt;Place -->
<g id="edge14" class="edge">
<title>takesPlaceAt&#45;&gt;Place</title>
<path fill="none" stroke="black" stroke-width="0.3" d="M181.71,-225.23C181.71,-225.23 181.71,-288.27 181.71,-288.27"/>
<polygon fill="black" stroke="black" stroke-width="0.3" points="180.66,-288.27 181.71,-291.27 182.76,-288.27 180.66,-288.27"/>
</g>
</g>
</svg>
