<?xml version="1.0" encoding="UTF-8" standalone="no"?>
<!DOCTYPE svg PUBLIC "-//W3C//DTD SVG 1.1//EN"
 "http://www.w3.org/Graphics/SVG/1.1/DTD/svg11.dtd">
<!-- Generated by graphviz version 9.0.0 (20230911.1827)
 -->
<!-- Title: function_ontology Pages: 1 -->
<svg width="197pt" height="319pt"
 viewBox="0.00 0.00 196.88 319.42" xmlns="http://www.w3.org/2000/svg" xmlns:xlink="http://www.w3.org/1999/xlink">
<g id="graph0" class="graph" transform="scale(1 1) rotate(0) translate(4 315.42)">
<title>function_ontology</title>
<polygon fill="white" stroke="none" points="-4,4 -4,-315.42 192.88,-315.42 192.88,4 -4,4"/>
<!-- ConceptualObject -->
<g id="node1" class="node">
<title>ConceptualObject</title>
<polygon fill="#ffb90f" stroke="black" points="0,-270.92 0,-310.92 100.75,-310.92 100.75,-270.92 0,-270.92"/>
<text text-anchor="start" x="8" y="-298.42" font-family="Helvetica,Arial,sans-serif" font-weight="bold" font-size="10.00">ConceptualObject</text>
<polyline fill="none" stroke="black" points="0,-290.92 100.75,-290.92"/>
<text text-anchor="start" x="18.12" y="-278.42" font-family="Helvetica,Arial,sans-serif" font-weight="bold" font-style="italic" font-size="10.00"> domain:core</text>
<text text-anchor="start" x="79.62" y="-278.42" font-family="Helvetica,Arial,sans-serif" font-size="10.00"> </text>
</g>
<!-- Application -->
<g id="node2" class="node">
<title>Application</title>
<polygon fill="#ffb90f" stroke="black" points="87.38,-0.5 87.38,-40.5 188.88,-40.5 188.88,-0.5 87.38,-0.5"/>
<text text-anchor="start" x="111.13" y="-28" font-family="Helvetica,Arial,sans-serif" font-weight="bold" font-size="10.00">Application</text>
<polyline fill="none" stroke="black" points="87.38,-20.5 188.88,-20.5"/>
<text text-anchor="start" x="95.38" y="-8" font-family="Helvetica,Arial,sans-serif" font-weight="bold" font-style="italic" font-size="10.00"> domain:common</text>
<text text-anchor="start" x="177.88" y="-8" font-family="Helvetica,Arial,sans-serif" font-size="10.00"> </text>
</g>
<!-- Function -->
<g id="node3" class="node">
<title>Function</title>
<polygon fill="#ffb90f" stroke="black" points="84.13,-68.64 84.13,-116.64 182.63,-116.64 182.63,-68.64 84.13,-68.64"/>
<text text-anchor="start" x="112.76" y="-104.14" font-family="Helvetica,Arial,sans-serif" font-weight="bold" font-size="10.00">Function</text>
<polyline fill="none" stroke="black" points="84.13,-96.64 182.63,-96.64"/>
<text text-anchor="start" x="92.13" y="-84.14" font-family="Helvetica,Arial,sans-serif" font-weight="bold" font-style="italic" font-size="10.00"> domain:function</text>
<text text-anchor="start" x="171.63" y="-84.14" font-family="Helvetica,Arial,sans-serif" font-size="10.00"> </text>
<text text-anchor="start" x="92.13" y="-74.14" font-family="Helvetica,Arial,sans-serif" font-size="10.00">argument:string</text>
</g>
<!-- Function&#45;&gt;Application -->
<g id="edge3" class="edge">
<title>Function&#45;&gt;Application</title>
<path fill="none" stroke="black" stroke-width="0.3" stroke-dasharray="5,2" d="M135.01,-68.21C135.01,-68.21 135.01,-44.04 135.01,-44.04"/>
<polygon fill="black" stroke="black" stroke-width="0.3" points="136.06,-44.04 135.01,-41.04 133.96,-44.04 136.06,-44.04"/>
</g>
<!-- output -->
<g id="node5" class="node">
<title>output</title>
<polygon fill="#bcee68" stroke="none" points="136.1,-172.32 97.6,-172.32 97.6,-153.82 136.1,-153.82 136.1,-172.32"/>
<text text-anchor="middle" x="116.85" y="-160.72" font-family="Helvetica,Arial,sans-serif" font-size="8.00">output</text>
</g>
<!-- Function&#45;&gt;output -->
<g id="edge1" class="edge">
<title>Function&#45;&gt;output</title>
<path fill="none" stroke="black" stroke-width="0.3" d="M116.85,-116.88C116.85,-129.61 116.85,-144.47 116.85,-153.82"/>
</g>
<!-- Result -->
<g id="node4" class="node">
<title>Result</title>
<polygon fill="#ffb90f" stroke="black" points="39.71,-205.81 39.71,-253.81 138.21,-253.81 138.21,-205.81 39.71,-205.81"/>
<text text-anchor="start" x="74.34" y="-241.31" font-family="Helvetica,Arial,sans-serif" font-weight="bold" font-size="10.00">Result</text>
<polyline fill="none" stroke="black" points="39.71,-233.81 138.21,-233.81"/>
<text text-anchor="start" x="47.71" y="-221.31" font-family="Helvetica,Arial,sans-serif" font-weight="bold" font-style="italic" font-size="10.00"> domain:function</text>
<text text-anchor="start" x="127.21" y="-221.31" font-family="Helvetica,Arial,sans-serif" font-size="10.00"> </text>
<text text-anchor="start" x="47.71" y="-211.31" font-family="Helvetica,Arial,sans-serif" font-size="10.00">returnValue:string</text>
</g>
<!-- Result&#45;&gt;ConceptualObject -->
<g id="edge4" class="edge">
<title>Result&#45;&gt;ConceptualObject</title>
<path fill="none" stroke="black" stroke-width="0.3" stroke-dasharray="5,2" d="M70.23,-253.96C70.23,-253.96 70.23,-267.04 70.23,-267.04"/>
<polygon fill="black" stroke="black" stroke-width="0.3" points="69.18,-267.04 70.23,-270.04 71.28,-267.04 69.18,-267.04"/>
</g>
<!-- output&#45;&gt;Result -->
<g id="edge2" class="edge">
<title>output&#45;&gt;Result</title>
<path fill="none" stroke="black" stroke-width="0.3" d="M116.85,-172.07C116.85,-172.07 116.85,-202.01 116.85,-202.01"/>
<polygon fill="black" stroke="black" stroke-width="0.3" points="115.81,-202.01 116.85,-205.01 117.91,-202.01 115.81,-202.01"/>
</g>
</g>
</svg>
