<?xml version="1.0" encoding="UTF-8" standalone="no"?>
<!DOCTYPE svg PUBLIC "-//W3C//DTD SVG 1.1//EN"
 "http://www.w3.org/Graphics/SVG/1.1/DTD/svg11.dtd">
<!-- Generated by graphviz version 9.0.0 (20230911.1827)
 -->
<!-- Title: function_ontology Pages: 1 -->
<svg width="608pt" height="282pt"
 viewBox="0.00 0.00 608.25 282.29" xmlns="http://www.w3.org/2000/svg" xmlns:xlink="http://www.w3.org/1999/xlink">
<g id="graph0" class="graph" transform="scale(1 1) rotate(0) translate(4 278.29)">
<title>function_ontology</title>
<polygon fill="white" stroke="none" points="-4,4 -4,-278.29 604.25,-278.29 604.25,4 -4,4"/>
<!-- https://w3id.org/catenax/ontology/core#ConceptualObject -->
<g id="node1" class="node">
<title>https://w3id.org/catenax/ontology/core#ConceptualObject</title>
<polygon fill="#f2f2f2" stroke="black" points="312,-0.5 312,-40.5 600.25,-40.5 600.25,-0.5 312,-0.5"/>
<text text-anchor="start" x="320" y="-28" font-family="Helvetica,Arial,sans-serif" font-weight="bold" font-size="10.00">https://w3id.org/catenax/ontology/core#ConceptualObject</text>
<polyline fill="none" stroke="black" points="312,-20.5 600.25,-20.5"/>
<text text-anchor="start" x="423.88" y="-8" font-family="Helvetica,Arial,sans-serif" font-weight="bold" font-style="italic" font-size="10.00"> domain:core</text>
<text text-anchor="start" x="485.38" y="-8" font-family="Helvetica,Arial,sans-serif" font-size="10.00"> </text>
</g>
<!-- Argument -->
<g id="node2" class="node">
<title>Argument</title>
<polygon fill="#f2f2f2" stroke="black" points="99.28,-205.79 99.28,-273.79 208.28,-273.79 208.28,-205.79 99.28,-205.79"/>
<text text-anchor="start" x="130.53" y="-261.29" font-family="Helvetica,Arial,sans-serif" font-weight="bold" font-size="10.00">Argument</text>
<polyline fill="none" stroke="black" points="99.28,-253.79 208.28,-253.79"/>
<text text-anchor="start" x="107.28" y="-241.29" font-family="Helvetica,Arial,sans-serif" font-weight="bold" font-style="italic" font-size="10.00"> domain:function</text>
<text text-anchor="start" x="186.78" y="-241.29" font-family="Helvetica,Arial,sans-serif" font-size="10.00"> </text>
<text text-anchor="start" x="107.28" y="-231.29" font-family="Helvetica,Arial,sans-serif" font-size="10.00">argumentName:string</text>
<text text-anchor="start" x="107.28" y="-221.29" font-family="Helvetica,Arial,sans-serif" font-size="10.00">default:anyType</text>
<text text-anchor="start" x="107.28" y="-211.29" font-family="Helvetica,Arial,sans-serif" font-size="10.00">priority:integer</text>
</g>
<!-- https -->
<g id="node9" class="node">
<title>https</title>
<polygon fill="none" stroke="black" points="116.1,-122.42 116.1,-158.42 170.1,-158.42 170.1,-122.42 116.1,-122.42"/>
<text text-anchor="middle" x="142.98" y="-136.92" font-family="Helvetica,Arial,sans-serif" font-size="10.00">https</text>
</g>
<!-- Argument&#45;&gt;https -->
<g id="edge7" class="edge">
<title>Argument&#45;&gt;https://w3id.org/catenax/ontology/core#ConceptualObject</title>
<path fill="none" stroke="black" stroke-width="0.3" stroke-dasharray="5,2" d="M143.1,-205.32C143.1,-205.32 143.1,-162.11 143.1,-162.11"/>
<polygon fill="black" stroke="black" stroke-width="0.3" points="144.15,-162.11 143.1,-159.11 142.05,-162.11 144.15,-162.11"/>
</g>
<!-- Function -->
<g id="node3" class="node">
<title>Function</title>
<polygon fill="#f2f2f2" stroke="black" points="180.87,-98.14 180.87,-196.14 310.87,-196.14 310.87,-98.14 180.87,-98.14"/>
<text text-anchor="start" x="225.24" y="-183.64" font-family="Helvetica,Arial,sans-serif" font-weight="bold" font-size="10.00">Function</text>
<polyline fill="none" stroke="black" points="180.87,-176.14 310.87,-176.14"/>
<text text-anchor="start" x="188.87" y="-163.64" font-family="Helvetica,Arial,sans-serif" font-weight="bold" font-style="italic" font-size="10.00"> domain:function</text>
<text text-anchor="start" x="268.37" y="-163.64" font-family="Helvetica,Arial,sans-serif" font-size="10.00"> </text>
<text text-anchor="start" x="188.87" y="-153.64" font-family="Helvetica,Arial,sans-serif" font-size="10.00">batch:long</text>
<text text-anchor="start" x="188.87" y="-143.64" font-family="Helvetica,Arial,sans-serif" font-size="10.00">callbackProperty:string</text>
<text text-anchor="start" x="188.87" y="-133.64" font-family="Helvetica,Arial,sans-serif" font-size="10.00">inputProperty:string</text>
<text text-anchor="start" x="188.87" y="-123.64" font-family="Helvetica,Arial,sans-serif" font-size="10.00">invocationIdProperty:string</text>
<text text-anchor="start" x="188.87" y="-113.64" font-family="Helvetica,Arial,sans-serif" font-size="10.00">invocationMethod:string</text>
<text text-anchor="start" x="188.87" y="-103.64" font-family="Helvetica,Arial,sans-serif" font-size="10.00">targetUri:string</text>
</g>
<!-- input -->
<g id="node6" class="node">
<title>input</title>
<polygon fill="greenyellow" stroke="none" points="269.11,-253.33 235.86,-253.33 235.86,-234.83 269.11,-234.83 269.11,-253.33"/>
<text text-anchor="middle" x="252.49" y="-241.73" font-family="Helvetica,Arial,sans-serif" font-size="8.00">input</text>
</g>
<!-- Function&#45;&gt;input -->
<g id="edge1" class="edge">
<title>Function&#45;&gt;input</title>
<path fill="none" stroke="black" stroke-width="0.3" d="M252.49,-196.46C252.49,-211.24 252.49,-225.91 252.49,-234.98"/>
</g>
<!-- result -->
<g id="node8" class="node">
<title>result</title>
<polygon fill="greenyellow" stroke="none" points="276.45,-59.59 240.2,-59.59 240.2,-41.09 276.45,-41.09 276.45,-59.59"/>
<text text-anchor="middle" x="258.33" y="-47.99" font-family="Helvetica,Arial,sans-serif" font-size="8.00">result</text>
</g>
<!-- Function&#45;&gt;result -->
<g id="edge5" class="edge">
<title>Function&#45;&gt;result</title>
<path fill="none" stroke="black" stroke-width="0.3" d="M258.33,-97.89C258.33,-83.13 258.33,-68.47 258.33,-59.42"/>
</g>
<!-- Function&#45;&gt;https -->
<g id="edge8" class="edge">
<title>Function&#45;&gt;https://w3id.org/catenax/ontology/core#ConceptualObject</title>
<path fill="none" stroke="black" stroke-width="0.3" stroke-dasharray="5,2" d="M180.49,-140C180.49,-140 173.85,-140 173.85,-140"/>
<polygon fill="black" stroke="black" stroke-width="0.3" points="173.85,-138.95 170.85,-140 173.85,-141.05 173.85,-138.95"/>
</g>
<!-- Result -->
<g id="node4" class="node">
<title>Result</title>
<polygon fill="#f2f2f2" stroke="black" points="103.5,-5.07 103.5,-73.07 219.25,-73.07 219.25,-5.07 103.5,-5.07"/>
<text text-anchor="start" x="146.75" y="-60.57" font-family="Helvetica,Arial,sans-serif" font-weight="bold" font-size="10.00">Result</text>
<polyline fill="none" stroke="black" points="103.5,-53.07 219.25,-53.07"/>
<text text-anchor="start" x="111.5" y="-40.57" font-family="Helvetica,Arial,sans-serif" font-weight="bold" font-style="italic" font-size="10.00"> domain:function</text>
<text text-anchor="start" x="191" y="-40.57" font-family="Helvetica,Arial,sans-serif" font-size="10.00"> </text>
<text text-anchor="start" x="111.5" y="-30.57" font-family="Helvetica,Arial,sans-serif" font-size="10.00">callbackProperty:string</text>
<text text-anchor="start" x="111.5" y="-20.57" font-family="Helvetica,Arial,sans-serif" font-size="10.00">outputProperty:string</text>
<text text-anchor="start" x="111.5" y="-10.57" font-family="Helvetica,Arial,sans-serif" font-size="10.00">resultIdProperty:string</text>
</g>
<!-- output -->
<g id="node7" class="node">
<title>output</title>
<polygon fill="greenyellow" stroke="none" points="88.15,-18.5 49.65,-18.5 49.65,0 88.15,0 88.15,-18.5"/>
<text text-anchor="middle" x="68.9" y="-6.9" font-family="Helvetica,Arial,sans-serif" font-size="8.00">output</text>
</g>
<!-- Result&#45;&gt;output -->
<g id="edge3" class="edge">
<title>Result&#45;&gt;output</title>
<path fill="none" stroke="black" stroke-width="0.3" d="M103.08,-11C97.74,-11 92.63,-11 88.07,-11"/>
</g>
<!-- Result&#45;&gt;https -->
<g id="edge9" class="edge">
<title>Result&#45;&gt;https://w3id.org/catenax/ontology/core#ConceptualObject</title>
<path fill="none" stroke="black" stroke-width="0.3" stroke-dasharray="5,2" d="M143.1,-73.39C143.1,-73.39 143.1,-118.63 143.1,-118.63"/>
<polygon fill="black" stroke="black" stroke-width="0.3" points="142.05,-118.63 143.1,-121.63 144.15,-118.63 142.05,-118.63"/>
</g>
<!-- ReturnValue -->
<g id="node5" class="node">
<title>ReturnValue</title>
<polygon fill="#f2f2f2" stroke="black" points="0,-82.07 0,-130.07 98.5,-130.07 98.5,-82.07 0,-82.07"/>
<text text-anchor="start" x="19.62" y="-117.57" font-family="Helvetica,Arial,sans-serif" font-weight="bold" font-size="10.00">ReturnValue</text>
<polyline fill="none" stroke="black" points="0,-110.07 98.5,-110.07"/>
<text text-anchor="start" x="8" y="-97.57" font-family="Helvetica,Arial,sans-serif" font-weight="bold" font-style="italic" font-size="10.00"> domain:function</text>
<text text-anchor="start" x="87.5" y="-97.57" font-family="Helvetica,Arial,sans-serif" font-size="10.00"> </text>
<text text-anchor="start" x="8" y="-87.57" font-family="Helvetica,Arial,sans-serif" font-size="10.00">valuePath:string</text>
</g>
<!-- ReturnValue&#45;&gt;https -->
<g id="edge10" class="edge">
<title>ReturnValue&#45;&gt;https://w3id.org/catenax/ontology/core#ConceptualObject</title>
<path fill="none" stroke="black" stroke-width="0.3" stroke-dasharray="5,2" d="M98.92,-126C98.92,-126 112.36,-126 112.36,-126"/>
<polygon fill="black" stroke="black" stroke-width="0.3" points="112.36,-127.05 115.36,-126 112.36,-124.95 112.36,-127.05"/>
</g>
<!-- input&#45;&gt;Argument -->
<g id="edge2" class="edge">
<title>input&#45;&gt;Argument</title>
<path fill="none" stroke="black" stroke-width="0.3" d="M236.19,-244C236.19,-244 211.96,-244 211.96,-244"/>
<polygon fill="black" stroke="black" stroke-width="0.3" points="211.96,-242.95 208.96,-244 211.96,-245.05 211.96,-242.95"/>
</g>
<!-- output&#45;&gt;ReturnValue -->
<g id="edge4" class="edge">
<title>output&#45;&gt;ReturnValue</title>
<path fill="none" stroke="black" stroke-width="0.3" d="M68.9,-18.19C68.9,-18.19 68.9,-78.34 68.9,-78.34"/>
<polygon fill="black" stroke="black" stroke-width="0.3" points="67.85,-78.34 68.9,-81.34 69.95,-78.34 67.85,-78.34"/>
</g>
<!-- result&#45;&gt;Result -->
<g id="edge6" class="edge">
<title>result&#45;&gt;Result</title>
<path fill="none" stroke="black" stroke-width="0.3" d="M240.55,-50C240.55,-50 223.08,-50 223.08,-50"/>
<polygon fill="black" stroke="black" stroke-width="0.3" points="223.08,-48.95 220.08,-50 223.08,-51.05 223.08,-48.95"/>
</g>
</g>
</svg>
