<?xml version="1.0" encoding="UTF-8" standalone="no"?>
<!DOCTYPE svg PUBLIC "-//W3C//DTD SVG 1.1//EN"
 "http://www.w3.org/Graphics/SVG/1.1/DTD/svg11.dtd">
<!-- Generated by graphviz version 9.0.0 (20230911.1827)
 -->
<!-- Title: function_ontology Pages: 1 -->
<svg width="433pt" height="338pt"
 viewBox="0.00 0.00 432.50 338.05" xmlns="http://www.w3.org/2000/svg" xmlns:xlink="http://www.w3.org/1999/xlink">
<g id="graph0" class="graph" transform="scale(1 1) rotate(0) translate(4 334.05)">
<title>function_ontology</title>
<polygon fill="white" stroke="none" points="-4,4 -4,-334.05 428.5,-334.05 428.5,4 -4,4"/>
<!-- ConceptualObject -->
<g id="node1" class="node">
<title>ConceptualObject</title>
<polygon fill="#f2f2f2" stroke="black" points="167.88,-179.74 167.88,-219.74 268.63,-219.74 268.63,-179.74 167.88,-179.74"/>
<text text-anchor="start" x="175.88" y="-207.24" font-family="Helvetica,Arial,sans-serif" font-weight="bold" font-size="10.00">ConceptualObject</text>
<polyline fill="none" stroke="black" points="167.88,-199.74 268.63,-199.74"/>
<text text-anchor="start" x="186" y="-187.24" font-family="Helvetica,Arial,sans-serif" font-weight="bold" font-style="italic" font-size="10.00"> domain:core</text>
<text text-anchor="start" x="247.5" y="-187.24" font-family="Helvetica,Arial,sans-serif" font-size="10.00"> </text>
</g>
<!-- Argument -->
<g id="node2" class="node">
<title>Argument</title>
<polygon fill="#f2f2f2" stroke="black" points="69.87,-261.55 69.87,-329.55 178.87,-329.55 178.87,-261.55 69.87,-261.55"/>
<text text-anchor="start" x="101.12" y="-317.05" font-family="Helvetica,Arial,sans-serif" font-weight="bold" font-size="10.00">Argument</text>
<polyline fill="none" stroke="black" points="69.87,-309.55 178.87,-309.55"/>
<text text-anchor="start" x="77.87" y="-297.05" font-family="Helvetica,Arial,sans-serif" font-weight="bold" font-style="italic" font-size="10.00"> domain:function</text>
<text text-anchor="start" x="157.37" y="-297.05" font-family="Helvetica,Arial,sans-serif" font-size="10.00"> </text>
<text text-anchor="start" x="77.87" y="-287.05" font-family="Helvetica,Arial,sans-serif" font-size="10.00">argumentName:string</text>
<text text-anchor="start" x="77.87" y="-277.05" font-family="Helvetica,Arial,sans-serif" font-size="10.00">default:anyType</text>
<text text-anchor="start" x="77.87" y="-267.05" font-family="Helvetica,Arial,sans-serif" font-size="10.00">priority:integer</text>
</g>
<!-- Argument&#45;&gt;ConceptualObject -->
<g id="edge7" class="edge">
<title>Argument&#45;&gt;ConceptualObject</title>
<path fill="none" stroke="black" stroke-width="0.3" stroke-dasharray="5,2" d="M173.37,-261.23C173.37,-261.23 173.37,-223.63 173.37,-223.63"/>
<polygon fill="black" stroke="black" stroke-width="0.3" points="174.42,-223.63 173.37,-220.63 172.32,-223.63 174.42,-223.63"/>
</g>
<!-- Function -->
<g id="node3" class="node">
<title>Function</title>
<polygon fill="#f2f2f2" stroke="black" points="39.23,-72.74 39.23,-170.74 169.23,-170.74 169.23,-72.74 39.23,-72.74"/>
<text text-anchor="start" x="83.6" y="-158.24" font-family="Helvetica,Arial,sans-serif" font-weight="bold" font-size="10.00">Function</text>
<polyline fill="none" stroke="black" points="39.23,-150.74 169.23,-150.74"/>
<text text-anchor="start" x="47.23" y="-138.24" font-family="Helvetica,Arial,sans-serif" font-weight="bold" font-style="italic" font-size="10.00"> domain:function</text>
<text text-anchor="start" x="126.73" y="-138.24" font-family="Helvetica,Arial,sans-serif" font-size="10.00"> </text>
<text text-anchor="start" x="47.23" y="-128.24" font-family="Helvetica,Arial,sans-serif" font-size="10.00">batch:long</text>
<text text-anchor="start" x="47.23" y="-118.24" font-family="Helvetica,Arial,sans-serif" font-size="10.00">callbackProperty:string</text>
<text text-anchor="start" x="47.23" y="-108.24" font-family="Helvetica,Arial,sans-serif" font-size="10.00">inputProperty:string</text>
<text text-anchor="start" x="47.23" y="-98.24" font-family="Helvetica,Arial,sans-serif" font-size="10.00">invocationIdProperty:string</text>
<text text-anchor="start" x="47.23" y="-88.24" font-family="Helvetica,Arial,sans-serif" font-size="10.00">invocationMethod:string</text>
<text text-anchor="start" x="47.23" y="-78.24" font-family="Helvetica,Arial,sans-serif" font-size="10.00">targetUri:string</text>
</g>
<!-- Function&#45;&gt;ConceptualObject -->
<g id="edge8" class="edge">
<title>Function&#45;&gt;ConceptualObject</title>
<path fill="none" stroke="black" stroke-width="0.3" stroke-dasharray="5,2" d="M169.33,-151C173.42,-151 175.95,-151 175.95,-151 175.95,-151 175.95,-175.9 175.95,-175.9"/>
<polygon fill="black" stroke="black" stroke-width="0.3" points="174.9,-175.9 175.95,-178.9 177,-175.9 174.9,-175.9"/>
</g>
<!-- input -->
<g id="node6" class="node">
<title>input</title>
<polygon fill="greenyellow" stroke="none" points="33.25,-227.54 0,-227.54 0,-209.04 33.25,-209.04 33.25,-227.54"/>
<text text-anchor="middle" x="16.62" y="-215.94" font-family="Helvetica,Arial,sans-serif" font-size="8.00">input</text>
</g>
<!-- Function&#45;&gt;input -->
<g id="edge1" class="edge">
<title>Function&#45;&gt;input</title>
<path fill="none" stroke="black" stroke-width="0.3" d="M54.55,-171.11C54.55,-193.05 54.55,-214 54.55,-214 54.55,-214 43.21,-214 32.93,-214"/>
</g>
<!-- result -->
<g id="node8" class="node">
<title>result</title>
<polygon fill="greenyellow" stroke="none" points="189.38,-18.5 153.13,-18.5 153.13,0 189.38,0 189.38,-18.5"/>
<text text-anchor="middle" x="171.26" y="-6.9" font-family="Helvetica,Arial,sans-serif" font-size="8.00">result</text>
</g>
<!-- Function&#45;&gt;result -->
<g id="edge5" class="edge">
<title>Function&#45;&gt;result</title>
<path fill="none" stroke="black" stroke-width="0.3" d="M161.18,-72.4C161.18,-51.86 161.18,-30.07 161.18,-18.21"/>
</g>
<!-- Result -->
<g id="node4" class="node">
<title>Result</title>
<polygon fill="#f2f2f2" stroke="black" points="225.13,-43.61 225.13,-111.61 340.88,-111.61 340.88,-43.61 225.13,-43.61"/>
<text text-anchor="start" x="268.38" y="-99.11" font-family="Helvetica,Arial,sans-serif" font-weight="bold" font-size="10.00">Result</text>
<polyline fill="none" stroke="black" points="225.13,-91.61 340.88,-91.61"/>
<text text-anchor="start" x="233.13" y="-79.11" font-family="Helvetica,Arial,sans-serif" font-weight="bold" font-style="italic" font-size="10.00"> domain:function</text>
<text text-anchor="start" x="312.63" y="-79.11" font-family="Helvetica,Arial,sans-serif" font-size="10.00"> </text>
<text text-anchor="start" x="233.13" y="-69.11" font-family="Helvetica,Arial,sans-serif" font-size="10.00">callbackProperty:string</text>
<text text-anchor="start" x="233.13" y="-59.11" font-family="Helvetica,Arial,sans-serif" font-size="10.00">outputProperty:string</text>
<text text-anchor="start" x="233.13" y="-49.11" font-family="Helvetica,Arial,sans-serif" font-size="10.00">resultIdProperty:string</text>
</g>
<!-- Result&#45;&gt;ConceptualObject -->
<g id="edge9" class="edge">
<title>Result&#45;&gt;ConceptualObject</title>
<path fill="none" stroke="black" stroke-width="0.3" stroke-dasharray="5,2" d="M246.88,-111.95C246.88,-111.95 246.88,-175.93 246.88,-175.93"/>
<polygon fill="black" stroke="black" stroke-width="0.3" points="245.83,-175.93 246.88,-178.93 247.93,-175.93 245.83,-175.93"/>
</g>
<!-- output -->
<g id="node7" class="node">
<title>output</title>
<polygon fill="greenyellow" stroke="none" points="424.5,-132.34 386,-132.34 386,-113.84 424.5,-113.84 424.5,-132.34"/>
<text text-anchor="middle" x="405.25" y="-120.74" font-family="Helvetica,Arial,sans-serif" font-size="8.00">output</text>
</g>
<!-- Result&#45;&gt;output -->
<g id="edge3" class="edge">
<title>Result&#45;&gt;output</title>
<path fill="none" stroke="black" stroke-width="0.3" d="M326.07,-112.01C326.07,-118.34 326.07,-123 326.07,-123 326.07,-123 362.65,-123 386.09,-123"/>
</g>
<!-- ReturnValue -->
<g id="node5" class="node">
<title>ReturnValue</title>
<polygon fill="#f2f2f2" stroke="black" points="296.44,-217.55 296.44,-265.55 394.94,-265.55 394.94,-217.55 296.44,-217.55"/>
<text text-anchor="start" x="316.06" y="-253.05" font-family="Helvetica,Arial,sans-serif" font-weight="bold" font-size="10.00">ReturnValue</text>
<polyline fill="none" stroke="black" points="296.44,-245.55 394.94,-245.55"/>
<text text-anchor="start" x="304.44" y="-233.05" font-family="Helvetica,Arial,sans-serif" font-weight="bold" font-style="italic" font-size="10.00"> domain:function</text>
<text text-anchor="start" x="383.94" y="-233.05" font-family="Helvetica,Arial,sans-serif" font-size="10.00"> </text>
<text text-anchor="start" x="304.44" y="-223.05" font-family="Helvetica,Arial,sans-serif" font-size="10.00">valuePath:string</text>
</g>
<!-- ReturnValue&#45;&gt;ConceptualObject -->
<g id="edge10" class="edge">
<title>ReturnValue&#45;&gt;ConceptualObject</title>
<path fill="none" stroke="black" stroke-width="0.3" stroke-dasharray="5,2" d="M311.25,-217.23C311.25,-207.25 311.25,-198 311.25,-198 311.25,-198 272.56,-198 272.56,-198"/>
<polygon fill="black" stroke="black" stroke-width="0.3" points="272.56,-196.95 269.56,-198 272.56,-199.05 272.56,-196.95"/>
</g>
<!-- input&#45;&gt;Argument -->
<g id="edge2" class="edge">
<title>input&#45;&gt;Argument</title>
<path fill="none" stroke="black" stroke-width="0.3" d="M16.62,-227.39C16.62,-247.71 16.62,-295 16.63,-295 16.63,-295 66.1,-295 66.1,-295"/>
<polygon fill="black" stroke="black" stroke-width="0.3" points="66.1,-296.05 69.1,-295 66.1,-293.95 66.1,-296.05"/>
</g>
<!-- output&#45;&gt;ReturnValue -->
<g id="edge4" class="edge">
<title>output&#45;&gt;ReturnValue</title>
<path fill="none" stroke="black" stroke-width="0.3" d="M390.47,-131.99C390.47,-131.99 390.47,-213.62 390.47,-213.62"/>
<polygon fill="black" stroke="black" stroke-width="0.3" points="389.42,-213.62 390.47,-216.62 391.52,-213.62 389.42,-213.62"/>
</g>
<!-- result&#45;&gt;Result -->
<g id="edge6" class="edge">
<title>result&#45;&gt;Result</title>
<path fill="none" stroke="black" stroke-width="0.3" d="M182.66,-18.46C182.66,-32.33 182.66,-57 182.66,-57 182.66,-57 221.18,-57 221.18,-57"/>
<polygon fill="black" stroke="black" stroke-width="0.3" points="221.18,-58.05 224.18,-57 221.18,-55.95 221.18,-58.05"/>
</g>
</g>
</svg>
