<?xml version="1.0" encoding="UTF-8" standalone="no"?>
<!DOCTYPE svg PUBLIC "-//W3C//DTD SVG 1.1//EN"
 "http://www.w3.org/Graphics/SVG/1.1/DTD/svg11.dtd">
<!-- Generated by graphviz version 9.0.0 (20230911.1827)
 -->
<!-- Title: reliability_ontology Pages: 1 -->
<svg width="1036pt" height="1071pt"
 viewBox="0.00 0.00 1035.56 1071.45" xmlns="http://www.w3.org/2000/svg" xmlns:xlink="http://www.w3.org/1999/xlink">
<g id="graph0" class="graph" transform="scale(1 1) rotate(0) translate(4 1067.45)">
<title>reliability_ontology</title>
<polygon fill="white" stroke="none" points="-4,4 -4,-1067.45 1031.56,-1067.45 1031.56,4 -4,4"/>
<!-- Activity -->
<g id="node1" class="node">
<title>Activity</title>
<polygon fill="#ffb90f" stroke="black" points="433.02,-773.79 433.02,-813.79 513.52,-813.79 513.52,-773.79 433.02,-773.79"/>
<text text-anchor="start" x="456.02" y="-801.29" font-family="Helvetica,Arial,sans-serif" font-weight="bold" font-size="10.00">Activity</text>
<polyline fill="none" stroke="black" points="433.02,-793.79 513.52,-793.79"/>
<text text-anchor="start" x="441.02" y="-781.29" font-family="Helvetica,Arial,sans-serif" font-weight="bold" font-style="italic" font-size="10.00"> domain:core</text>
<text text-anchor="start" x="502.52" y="-781.29" font-family="Helvetica,Arial,sans-serif" font-size="10.00"> </text>
</g>
<!-- Actor -->
<g id="node2" class="node">
<title>Actor</title>
<polygon fill="#ffb90f" stroke="black" points="317.14,-1011.58 317.14,-1051.58 397.64,-1051.58 397.64,-1011.58 317.14,-1011.58"/>
<text text-anchor="start" x="345.01" y="-1039.08" font-family="Helvetica,Arial,sans-serif" font-weight="bold" font-size="10.00">Actor</text>
<polyline fill="none" stroke="black" points="317.14,-1031.58 397.64,-1031.58"/>
<text text-anchor="start" x="325.14" y="-1019.08" font-family="Helvetica,Arial,sans-serif" font-weight="bold" font-style="italic" font-size="10.00"> domain:core</text>
<text text-anchor="start" x="386.64" y="-1019.08" font-family="Helvetica,Arial,sans-serif" font-size="10.00"> </text>
</g>
<!-- PhysicalObject -->
<g id="node3" class="node">
<title>PhysicalObject</title>
<polygon fill="#ffb90f" stroke="black" points="941.06,-522.2 941.06,-562.2 1027.56,-562.2 1027.56,-522.2 941.06,-522.2"/>
<text text-anchor="start" x="949.06" y="-549.7" font-family="Helvetica,Arial,sans-serif" font-weight="bold" font-size="10.00">PhysicalObject</text>
<polyline fill="none" stroke="black" points="941.06,-542.2 1027.56,-542.2"/>
<text text-anchor="start" x="952.06" y="-529.7" font-family="Helvetica,Arial,sans-serif" font-weight="bold" font-style="italic" font-size="10.00"> domain:core</text>
<text text-anchor="start" x="1013.56" y="-529.7" font-family="Helvetica,Arial,sans-serif" font-size="10.00"> </text>
</g>
<!-- ConceptualObject -->
<g id="node4" class="node">
<title>ConceptualObject</title>
<polygon fill="#ffb90f" stroke="black" points="197.19,-437.29 197.19,-477.29 297.94,-477.29 297.94,-437.29 197.19,-437.29"/>
<text text-anchor="start" x="205.19" y="-464.79" font-family="Helvetica,Arial,sans-serif" font-weight="bold" font-size="10.00">ConceptualObject</text>
<polyline fill="none" stroke="black" points="197.19,-457.29 297.94,-457.29"/>
<text text-anchor="start" x="215.31" y="-444.79" font-family="Helvetica,Arial,sans-serif" font-weight="bold" font-style="italic" font-size="10.00"> domain:core</text>
<text text-anchor="start" x="276.81" y="-444.79" font-family="Helvetica,Arial,sans-serif" font-size="10.00"> </text>
</g>
<!-- Part -->
<g id="node5" class="node">
<title>Part</title>
<polygon fill="#ffb90f" stroke="black" points="928.84,-301.39 928.84,-341.39 1022.09,-341.39 1022.09,-301.39 928.84,-301.39"/>
<text text-anchor="start" x="965.72" y="-328.89" font-family="Helvetica,Arial,sans-serif" font-weight="bold" font-size="10.00">Part</text>
<polyline fill="none" stroke="black" points="928.84,-321.39 1022.09,-321.39"/>
<text text-anchor="start" x="936.84" y="-308.89" font-family="Helvetica,Arial,sans-serif" font-weight="bold" font-style="italic" font-size="10.00"> domain:vehicle</text>
<text text-anchor="start" x="1011.09" y="-308.89" font-family="Helvetica,Arial,sans-serif" font-size="10.00"> </text>
</g>
<!-- Vehicle -->
<g id="node6" class="node">
<title>Vehicle</title>
<polygon fill="#ffb90f" stroke="black" points="889.09,-1005.91 889.09,-1045.91 982.34,-1045.91 982.34,-1005.91 889.09,-1005.91"/>
<text text-anchor="start" x="917.71" y="-1033.41" font-family="Helvetica,Arial,sans-serif" font-weight="bold" font-size="10.00">Vehicle</text>
<polyline fill="none" stroke="black" points="889.09,-1025.91 982.34,-1025.91"/>
<text text-anchor="start" x="897.09" y="-1013.41" font-family="Helvetica,Arial,sans-serif" font-weight="bold" font-style="italic" font-size="10.00"> domain:vehicle</text>
<text text-anchor="start" x="971.34" y="-1013.41" font-family="Helvetica,Arial,sans-serif" font-size="10.00"> </text>
</g>
<!-- Analysis -->
<g id="node7" class="node">
<title>Analysis</title>
<polygon fill="#ffb90f" stroke="black" points="517.11,-513.59 517.11,-581.59 661.36,-581.59 661.36,-513.59 517.11,-513.59"/>
<text text-anchor="start" x="569.73" y="-569.09" font-family="Helvetica,Arial,sans-serif" font-weight="bold" font-size="10.00">Analysis</text>
<polyline fill="none" stroke="black" points="517.11,-561.59 661.36,-561.59"/>
<text text-anchor="start" x="525.11" y="-549.09" font-family="Helvetica,Arial,sans-serif" font-weight="bold" font-style="italic" font-size="10.00"> domain:reliability</text>
<text text-anchor="start" x="609.86" y="-549.09" font-family="Helvetica,Arial,sans-serif" font-size="10.00"> </text>
<text text-anchor="start" x="525.11" y="-539.09" font-family="Helvetica,Arial,sans-serif" font-size="10.00">mileageOfVehicle:integer</text>
<text text-anchor="start" x="525.11" y="-529.09" font-family="Helvetica,Arial,sans-serif" font-size="10.00">operatingHoursOfPart:float</text>
<text text-anchor="start" x="525.11" y="-519.09" font-family="Helvetica,Arial,sans-serif" font-size="10.00">operatingHoursOfVehicle:float</text>
</g>
<!-- Analysis&#45;&gt;Activity -->
<g id="edge23" class="edge">
<title>Analysis&#45;&gt;Activity</title>
<path fill="none" stroke="black" stroke-width="0.3" stroke-dasharray="5,2" d="M533.79,-581.95C533.79,-649.05 533.79,-791 533.79,-791 533.79,-791 517.43,-791 517.43,-791"/>
<polygon fill="black" stroke="black" stroke-width="0.3" points="517.43,-789.95 514.43,-791 517.43,-792.05 517.43,-789.95"/>
</g>
<!-- analysedObject -->
<g id="node19" class="node">
<title>analysedObject</title>
<polygon fill="#bcee68" stroke="none" points="794.05,-623.8 721.8,-623.8 721.8,-605.3 794.05,-605.3 794.05,-623.8"/>
<text text-anchor="middle" x="757.92" y="-612.2" font-family="Helvetica,Arial,sans-serif" font-size="8.00">analysedObject</text>
</g>
<!-- Analysis&#45;&gt;analysedObject -->
<g id="edge3" class="edge">
<title>Analysis&#45;&gt;analysedObject</title>
<path fill="none" stroke="black" stroke-width="0.3" d="M661.67,-572C711.21,-572 767.96,-572 767.96,-572 767.96,-572 767.96,-593.04 767.96,-605.53"/>
</g>
<!-- analysedPart -->
<g id="node20" class="node">
<title>analysedPart</title>
<polygon fill="#bcee68" stroke="none" points="789.04,-454.05 725.79,-454.05 725.79,-435.55 789.04,-435.55 789.04,-454.05"/>
<text text-anchor="middle" x="757.41" y="-442.45" font-family="Helvetica,Arial,sans-serif" font-size="8.00">analysedPart</text>
</g>
<!-- Analysis&#45;&gt;analysedPart -->
<g id="edge5" class="edge">
<title>Analysis&#45;&gt;analysedPart</title>
<path fill="none" stroke="black" stroke-width="0.3" d="M661.59,-517C703.03,-517 746.87,-517 746.87,-517 746.87,-517 746.87,-473.37 746.87,-453.94"/>
</g>
<!-- analysedVehicle -->
<g id="node21" class="node">
<title>analysedVehicle</title>
<polygon fill="#bcee68" stroke="none" points="1002.94,-767.37 926.94,-767.37 926.94,-748.87 1002.94,-748.87 1002.94,-767.37"/>
<text text-anchor="middle" x="964.94" y="-755.77" font-family="Helvetica,Arial,sans-serif" font-size="8.00">analysedVehicle</text>
</g>
<!-- Analysis&#45;&gt;analysedVehicle -->
<g id="edge7" class="edge">
<title>Analysis&#45;&gt;analysedVehicle</title>
<path fill="none" stroke="black" stroke-width="0.3" d="M661.7,-567C762.53,-567 932.91,-567 932.91,-567 932.91,-567 932.91,-710.72 932.91,-748.9"/>
</g>
<!-- result -->
<g id="node27" class="node">
<title>result</title>
<polygon fill="#bcee68" stroke="none" points="601.66,-432.98 565.41,-432.98 565.41,-414.48 601.66,-414.48 601.66,-432.98"/>
<text text-anchor="middle" x="583.53" y="-421.38" font-family="Helvetica,Arial,sans-serif" font-size="8.00">result</text>
</g>
<!-- Analysis&#45;&gt;result -->
<g id="edge19" class="edge">
<title>Analysis&#45;&gt;result</title>
<path fill="none" stroke="black" stroke-width="0.3" d="M583.53,-513.42C583.53,-486.07 583.53,-449.61 583.53,-432.85"/>
</g>
<!-- AnalysisDevice -->
<g id="node8" class="node">
<title>AnalysisDevice</title>
<polygon fill="#ffb90f" stroke="black" points="564.12,-1022.95 564.12,-1062.95 667.87,-1062.95 667.87,-1022.95 564.12,-1022.95"/>
<text text-anchor="start" x="580.37" y="-1050.45" font-family="Helvetica,Arial,sans-serif" font-weight="bold" font-size="10.00">AnalysisDevice</text>
<polyline fill="none" stroke="black" points="564.12,-1042.95 667.87,-1042.95"/>
<text text-anchor="start" x="572.12" y="-1030.45" font-family="Helvetica,Arial,sans-serif" font-weight="bold" font-style="italic" font-size="10.00"> domain:reliability</text>
<text text-anchor="start" x="656.87" y="-1030.45" font-family="Helvetica,Arial,sans-serif" font-size="10.00"> </text>
</g>
<!-- AnalysisDevice&#45;&gt;Actor -->
<g id="edge24" class="edge">
<title>AnalysisDevice&#45;&gt;Actor</title>
<path fill="none" stroke="black" stroke-width="0.3" stroke-dasharray="5,2" d="M563.66,-1037C563.66,-1037 401.23,-1037 401.23,-1037"/>
<polygon fill="black" stroke="black" stroke-width="0.3" points="401.23,-1035.95 398.23,-1037 401.23,-1038.05 401.23,-1035.95"/>
</g>
<!-- performs -->
<g id="node22" class="node">
<title>performs</title>
<polygon fill="#bcee68" stroke="none" points="725.75,-827.99 676.75,-827.99 676.75,-809.49 725.75,-809.49 725.75,-827.99"/>
<text text-anchor="middle" x="701.25" y="-816.39" font-family="Helvetica,Arial,sans-serif" font-size="8.00">performs</text>
</g>
<!-- AnalysisDevice&#45;&gt;performs -->
<g id="edge9" class="edge">
<title>AnalysisDevice&#45;&gt;performs</title>
<path fill="none" stroke="black" stroke-width="0.3" d="M668.05,-1034C685.8,-1034 701.25,-1034 701.25,-1034 701.25,-1034 701.25,-869.19 701.25,-827.99"/>
</g>
<!-- AnalysisResult -->
<g id="node9" class="node">
<title>AnalysisResult</title>
<polygon fill="#ffb90f" stroke="black" points="376.66,-422.48 376.66,-462.48 480.41,-462.48 480.41,-422.48 376.66,-422.48"/>
<text text-anchor="start" x="394.41" y="-449.98" font-family="Helvetica,Arial,sans-serif" font-weight="bold" font-size="10.00">AnalysisResult</text>
<polyline fill="none" stroke="black" points="376.66,-442.48 480.41,-442.48"/>
<text text-anchor="start" x="384.66" y="-429.98" font-family="Helvetica,Arial,sans-serif" font-weight="bold" font-style="italic" font-size="10.00"> domain:reliability</text>
<text text-anchor="start" x="469.41" y="-429.98" font-family="Helvetica,Arial,sans-serif" font-size="10.00"> </text>
</g>
<!-- AnalysisResult&#45;&gt;ConceptualObject -->
<g id="edge25" class="edge">
<title>AnalysisResult&#45;&gt;ConceptualObject</title>
<path fill="none" stroke="black" stroke-width="0.3" stroke-dasharray="5,2" d="M376.19,-449C376.19,-449 301.69,-449 301.69,-449"/>
<polygon fill="black" stroke="black" stroke-width="0.3" points="301.69,-447.95 298.69,-449 301.69,-450.05 301.69,-447.95"/>
</g>
<!-- Diagnosis -->
<g id="node10" class="node">
<title>Diagnosis</title>
<polygon fill="#ffb90f" stroke="black" points="404.3,-589.78 404.3,-629.78 508.05,-629.78 508.05,-589.78 404.3,-589.78"/>
<text text-anchor="start" x="433.3" y="-617.28" font-family="Helvetica,Arial,sans-serif" font-weight="bold" font-size="10.00">Diagnosis</text>
<polyline fill="none" stroke="black" points="404.3,-609.78 508.05,-609.78"/>
<text text-anchor="start" x="412.3" y="-597.28" font-family="Helvetica,Arial,sans-serif" font-weight="bold" font-style="italic" font-size="10.00"> domain:reliability</text>
<text text-anchor="start" x="497.05" y="-597.28" font-family="Helvetica,Arial,sans-serif" font-size="10.00"> </text>
</g>
<!-- Diagnosis&#45;&gt;Analysis -->
<g id="edge27" class="edge">
<title>Diagnosis&#45;&gt;Analysis</title>
<path fill="none" stroke="black" stroke-width="0.3" stroke-dasharray="5,2" d="M508.33,-597C518.17,-597 525.45,-597 525.45,-597 525.45,-597 525.45,-585.36 525.45,-585.36"/>
<polygon fill="black" stroke="black" stroke-width="0.3" points="526.5,-585.36 525.45,-582.36 524.4,-585.36 526.5,-585.36"/>
</g>
<!-- hasDiagnosticTroubleCode -->
<g id="node25" class="node">
<title>hasDiagnosticTroubleCode</title>
<polygon fill="#bcee68" stroke="none" points="328.57,-772.71 215.82,-772.71 215.82,-754.21 328.57,-754.21 328.57,-772.71"/>
<text text-anchor="middle" x="272.19" y="-761.11" font-family="Helvetica,Arial,sans-serif" font-size="8.00">hasDiagnosticTroubleCode</text>
</g>
<!-- Diagnosis&#45;&gt;hasDiagnosticTroubleCode -->
<g id="edge15" class="edge">
<title>Diagnosis&#45;&gt;hasDiagnosticTroubleCode</title>
<path fill="none" stroke="black" stroke-width="0.3" d="M418.66,-630.04C418.66,-671.04 418.66,-760 418.66,-760 418.66,-760 369.71,-760 328.4,-760"/>
</g>
<!-- DiagnosticTroubleCode -->
<g id="node11" class="node">
<title>DiagnosticTroubleCode</title>
<polygon fill="#ffb90f" stroke="black" points="227.4,-558.56 227.4,-616.56 394.15,-616.56 394.15,-558.56 227.4,-558.56"/>
<text text-anchor="start" x="255.27" y="-604.06" font-family="Helvetica,Arial,sans-serif" font-weight="bold" font-size="10.00">DiagnosticTroubleCode</text>
<polyline fill="none" stroke="black" points="227.4,-596.56 394.15,-596.56"/>
<text text-anchor="start" x="235.4" y="-584.06" font-family="Helvetica,Arial,sans-serif" font-weight="bold" font-style="italic" font-size="10.00"> domain:reliability</text>
<text text-anchor="start" x="320.15" y="-584.06" font-family="Helvetica,Arial,sans-serif" font-size="10.00"> </text>
<text text-anchor="start" x="235.4" y="-574.06" font-family="Helvetica,Arial,sans-serif" font-size="10.00">diagnosticTroubleCodeId:string</text>
<text text-anchor="start" x="235.4" y="-564.06" font-family="Helvetica,Arial,sans-serif" font-size="10.00">diagnosticTroubleCodeName:string</text>
</g>
<!-- DiagnosticTroubleCode&#45;&gt;AnalysisResult -->
<g id="edge29" class="edge">
<title>DiagnosticTroubleCode&#45;&gt;AnalysisResult</title>
<path fill="none" stroke="black" stroke-width="0.3" stroke-dasharray="5,2" d="M385.41,-558.2C385.41,-558.2 385.41,-466.37 385.41,-466.37"/>
<polygon fill="black" stroke="black" stroke-width="0.3" points="386.46,-466.37 385.41,-463.37 384.36,-466.37 386.46,-466.37"/>
</g>
<!-- actualCause -->
<g id="node18" class="node">
<title>actualCause</title>
<polygon fill="#bcee68" stroke="none" points="84.73,-655.7 23.73,-655.7 23.73,-637.2 84.73,-637.2 84.73,-655.7"/>
<text text-anchor="middle" x="54.23" y="-644.1" font-family="Helvetica,Arial,sans-serif" font-size="8.00">actualCause</text>
</g>
<!-- DiagnosticTroubleCode&#45;&gt;actualCause -->
<g id="edge1" class="edge">
<title>DiagnosticTroubleCode&#45;&gt;actualCause</title>
<path fill="none" stroke="black" stroke-width="0.3" d="M261.12,-616.78C261.12,-631.39 261.12,-646 261.12,-646 261.12,-646 141.69,-646 84.31,-646"/>
</g>
<!-- possibleCause -->
<g id="node26" class="node">
<title>possibleCause</title>
<polygon fill="#bcee68" stroke="none" points="110.46,-999.8 41.21,-999.8 41.21,-981.3 110.46,-981.3 110.46,-999.8"/>
<text text-anchor="middle" x="75.84" y="-988.2" font-family="Helvetica,Arial,sans-serif" font-size="8.00">possibleCause</text>
</g>
<!-- DiagnosticTroubleCode&#45;&gt;possibleCause -->
<g id="edge17" class="edge">
<title>DiagnosticTroubleCode&#45;&gt;possibleCause</title>
<path fill="none" stroke="black" stroke-width="0.3" d="M227.05,-587C166.12,-587 94.24,-587 94.24,-587 94.24,-587 94.24,-921.29 94.24,-981.36"/>
</g>
<!-- ErrorCause -->
<g id="node12" class="node">
<title>ErrorCause</title>
<polygon fill="#ffb90f" stroke="black" points="0,-344.72 0,-384.72 103.75,-384.72 103.75,-344.72 0,-344.72"/>
<text text-anchor="start" x="25.62" y="-372.22" font-family="Helvetica,Arial,sans-serif" font-weight="bold" font-size="10.00">ErrorCause</text>
<polyline fill="none" stroke="black" points="0,-364.72 103.75,-364.72"/>
<text text-anchor="start" x="8" y="-352.22" font-family="Helvetica,Arial,sans-serif" font-weight="bold" font-style="italic" font-size="10.00"> domain:reliability</text>
<text text-anchor="start" x="92.75" y="-352.22" font-family="Helvetica,Arial,sans-serif" font-size="10.00"> </text>
</g>
<!-- ErrorCause&#45;&gt;ConceptualObject -->
<g id="edge26" class="edge">
<title>ErrorCause&#45;&gt;ConceptualObject</title>
<path fill="none" stroke="black" stroke-width="0.3" stroke-dasharray="5,2" d="M98.99,-385.2C98.99,-412.39 98.99,-457 98.99,-457 98.99,-457 193.39,-457 193.39,-457"/>
<polygon fill="black" stroke="black" stroke-width="0.3" points="193.39,-458.05 196.39,-457 193.39,-455.95 193.39,-458.05"/>
</g>
<!-- LoadSpectrum -->
<g id="node13" class="node">
<title>LoadSpectrum</title>
<polygon fill="#ffb90f" stroke="black" points="326.44,-0.5 326.44,-98.5 439.94,-98.5 439.94,-0.5 326.44,-0.5"/>
<text text-anchor="start" x="348.31" y="-86" font-family="Helvetica,Arial,sans-serif" font-weight="bold" font-size="10.00">LoadSpectrum</text>
<polyline fill="none" stroke="black" points="326.44,-78.5 439.94,-78.5"/>
<text text-anchor="start" x="334.44" y="-66" font-family="Helvetica,Arial,sans-serif" font-weight="bold" font-style="italic" font-size="10.00"> domain:reliability</text>
<text text-anchor="start" x="419.19" y="-66" font-family="Helvetica,Arial,sans-serif" font-size="10.00"> </text>
<text text-anchor="start" x="334.44" y="-56" font-family="Helvetica,Arial,sans-serif" font-size="10.00">datetime:dateTime</text>
<text text-anchor="start" x="334.44" y="-46" font-family="Helvetica,Arial,sans-serif" font-size="10.00">description:string</text>
<text text-anchor="start" x="334.44" y="-36" font-family="Helvetica,Arial,sans-serif" font-size="10.00">endDatetime:dateTime</text>
<text text-anchor="start" x="334.44" y="-26" font-family="Helvetica,Arial,sans-serif" font-size="10.00">id:string</text>
<text text-anchor="start" x="334.44" y="-16" font-family="Helvetica,Arial,sans-serif" font-size="10.00">name:string</text>
<text text-anchor="start" x="334.44" y="-6" font-family="Helvetica,Arial,sans-serif" font-size="10.00">type:string</text>
</g>
<!-- LoadSpectrum&#45;&gt;AnalysisResult -->
<g id="edge30" class="edge">
<title>LoadSpectrum&#45;&gt;AnalysisResult</title>
<path fill="none" stroke="black" stroke-width="0.3" stroke-dasharray="5,2" d="M408.3,-98.87C408.3,-98.87 408.3,-418.55 408.3,-418.55"/>
<polygon fill="black" stroke="black" stroke-width="0.3" points="407.25,-418.55 408.3,-421.55 409.35,-418.55 407.25,-418.55"/>
</g>
<!-- channel -->
<g id="node23" class="node">
<title>channel</title>
<polygon fill="#bcee68" stroke="none" points="653.96,-58.33 609.46,-58.33 609.46,-39.83 653.96,-39.83 653.96,-58.33"/>
<text text-anchor="middle" x="631.71" y="-46.73" font-family="Helvetica,Arial,sans-serif" font-size="8.00">channel</text>
</g>
<!-- LoadSpectrum&#45;&gt;channel -->
<g id="edge11" class="edge">
<title>LoadSpectrum&#45;&gt;channel</title>
<path fill="none" stroke="black" stroke-width="0.3" d="M440.2,-49C494.09,-49 572.11,-49 609.76,-49"/>
</g>
<!-- class -->
<g id="node24" class="node">
<title>class</title>
<polygon fill="#bcee68" stroke="none" points="108.63,-82.1 73.13,-82.1 73.13,-63.6 108.63,-63.6 108.63,-82.1"/>
<text text-anchor="middle" x="90.88" y="-70.5" font-family="Helvetica,Arial,sans-serif" font-size="8.00">class</text>
</g>
<!-- LoadSpectrum&#45;&gt;class -->
<g id="edge13" class="edge">
<title>LoadSpectrum&#45;&gt;class</title>
<path fill="none" stroke="black" stroke-width="0.3" d="M326.13,-72C258.84,-72 150.81,-72 108.59,-72"/>
</g>
<!-- value -->
<g id="node28" class="node">
<title>value</title>
<polygon fill="#bcee68" stroke="none" points="953.59,-70.07 918.09,-70.07 918.09,-51.57 953.59,-51.57 953.59,-70.07"/>
<text text-anchor="middle" x="935.84" y="-58.47" font-family="Helvetica,Arial,sans-serif" font-size="8.00">value</text>
</g>
<!-- LoadSpectrum&#45;&gt;value -->
<g id="edge21" class="edge">
<title>LoadSpectrum&#45;&gt;value</title>
<path fill="none" stroke="black" stroke-width="0.3" d="M440.25,-64C562.56,-64 844.83,-64 918.17,-64"/>
</g>
<!-- LoadSpectrumAnalysis -->
<g id="node14" class="node">
<title>LoadSpectrumAnalysis</title>
<polygon fill="#ffb90f" stroke="black" points="542.14,-660.16 542.14,-700.16 666.89,-700.16 666.89,-660.16 542.14,-660.16"/>
<text text-anchor="start" x="550.14" y="-687.66" font-family="Helvetica,Arial,sans-serif" font-weight="bold" font-size="10.00">LoadSpectrumAnalysis</text>
<polyline fill="none" stroke="black" points="542.14,-680.16 666.89,-680.16"/>
<text text-anchor="start" x="560.64" y="-667.66" font-family="Helvetica,Arial,sans-serif" font-weight="bold" font-style="italic" font-size="10.00"> domain:reliability</text>
<text text-anchor="start" x="645.39" y="-667.66" font-family="Helvetica,Arial,sans-serif" font-size="10.00"> </text>
</g>
<!-- LoadSpectrumAnalysis&#45;&gt;Analysis -->
<g id="edge28" class="edge">
<title>LoadSpectrumAnalysis&#45;&gt;Analysis</title>
<path fill="none" stroke="black" stroke-width="0.3" stroke-dasharray="5,2" d="M601.75,-659.74C601.75,-659.74 601.75,-585.43 601.75,-585.43"/>
<polygon fill="black" stroke="black" stroke-width="0.3" points="602.8,-585.43 601.75,-582.43 600.7,-585.43 602.8,-585.43"/>
</g>
<!-- LoadSpectrumChannel -->
<g id="node15" class="node">
<title>LoadSpectrumChannel</title>
<polygon fill="#ffb90f" stroke="black" points="445.19,-231.54 445.19,-319.54 570.69,-319.54 570.69,-231.54 445.19,-231.54"/>
<text text-anchor="start" x="453.19" y="-307.04" font-family="Helvetica,Arial,sans-serif" font-weight="bold" font-size="10.00">LoadSpectrumChannel</text>
<polyline fill="none" stroke="black" points="445.19,-299.54 570.69,-299.54"/>
<text text-anchor="start" x="461.06" y="-287.04" font-family="Helvetica,Arial,sans-serif" font-weight="bold" font-style="italic" font-size="10.00"> domain:reliability</text>
<text text-anchor="start" x="545.81" y="-287.04" font-family="Helvetica,Arial,sans-serif" font-size="10.00"> </text>
<text text-anchor="start" x="461.06" y="-277.04" font-family="Helvetica,Arial,sans-serif" font-size="10.00">lowerLimit:float</text>
<text text-anchor="start" x="461.06" y="-267.04" font-family="Helvetica,Arial,sans-serif" font-size="10.00">numberOfBins:integer</text>
<text text-anchor="start" x="461.06" y="-257.04" font-family="Helvetica,Arial,sans-serif" font-size="10.00">type:string</text>
<text text-anchor="start" x="461.06" y="-247.04" font-family="Helvetica,Arial,sans-serif" font-size="10.00">unit:string</text>
<text text-anchor="start" x="461.06" y="-237.04" font-family="Helvetica,Arial,sans-serif" font-size="10.00">upperLimit:float</text>
</g>
<!-- LoadSpectrumChannel&#45;&gt;AnalysisResult -->
<g id="edge31" class="edge">
<title>LoadSpectrumChannel&#45;&gt;AnalysisResult</title>
<path fill="none" stroke="black" stroke-width="0.3" stroke-dasharray="5,2" d="M462.8,-319.84C462.8,-319.84 462.8,-418.81 462.8,-418.81"/>
<polygon fill="black" stroke="black" stroke-width="0.3" points="461.75,-418.81 462.8,-421.81 463.85,-418.81 461.75,-418.81"/>
</g>
<!-- LoadSpectrumClass -->
<g id="node16" class="node">
<title>LoadSpectrumClass</title>
<polygon fill="#ffb90f" stroke="black" points="252.94,-260.48 252.94,-300.48 363.44,-300.48 363.44,-260.48 252.94,-260.48"/>
<text text-anchor="start" x="260.94" y="-287.98" font-family="Helvetica,Arial,sans-serif" font-weight="bold" font-size="10.00">LoadSpectrumClass</text>
<polyline fill="none" stroke="black" points="252.94,-280.48 363.44,-280.48"/>
<text text-anchor="start" x="264.32" y="-267.98" font-family="Helvetica,Arial,sans-serif" font-weight="bold" font-style="italic" font-size="10.00"> domain:reliability</text>
<text text-anchor="start" x="349.07" y="-267.98" font-family="Helvetica,Arial,sans-serif" font-size="10.00"> </text>
</g>
<!-- LoadSpectrumClass&#45;&gt;AnalysisResult -->
<g id="edge32" class="edge">
<title>LoadSpectrumClass&#45;&gt;AnalysisResult</title>
<path fill="none" stroke="black" stroke-width="0.3" stroke-dasharray="5,2" d="M330.69,-300.82C330.69,-341.5 330.69,-429 330.69,-429 330.69,-429 372.72,-429 372.72,-429"/>
<polygon fill="black" stroke="black" stroke-width="0.3" points="372.72,-430.05 375.72,-429 372.72,-427.95 372.72,-430.05"/>
</g>
<!-- LoadSpectrumValue -->
<g id="node17" class="node">
<title>LoadSpectrumValue</title>
<polygon fill="#ffb90f" stroke="black" points="654.52,-234.15 654.52,-312.15 768.02,-312.15 768.02,-234.15 654.52,-234.15"/>
<text text-anchor="start" x="662.52" y="-299.65" font-family="Helvetica,Arial,sans-serif" font-weight="bold" font-size="10.00">LoadSpectrumValue</text>
<polyline fill="none" stroke="black" points="654.52,-292.15 768.02,-292.15"/>
<text text-anchor="start" x="663.27" y="-279.65" font-family="Helvetica,Arial,sans-serif" font-weight="bold" font-style="italic" font-size="10.00"> domain:reliability</text>
<text text-anchor="start" x="748.02" y="-279.65" font-family="Helvetica,Arial,sans-serif" font-size="10.00"> </text>
<text text-anchor="start" x="663.27" y="-269.65" font-family="Helvetica,Arial,sans-serif" font-size="10.00">countingMethod:string</text>
<text text-anchor="start" x="663.27" y="-259.65" font-family="Helvetica,Arial,sans-serif" font-size="10.00">countingUnit:string</text>
<text text-anchor="start" x="663.27" y="-249.65" font-family="Helvetica,Arial,sans-serif" font-size="10.00">countingValue:string</text>
<text text-anchor="start" x="663.27" y="-239.65" font-family="Helvetica,Arial,sans-serif" font-size="10.00">index:string</text>
</g>
<!-- LoadSpectrumValue&#45;&gt;AnalysisResult -->
<g id="edge33" class="edge">
<title>LoadSpectrumValue&#45;&gt;AnalysisResult</title>
<path fill="none" stroke="black" stroke-width="0.3" stroke-dasharray="5,2" d="M672.31,-312.35C672.31,-362.79 672.31,-444 672.31,-444 672.31,-444 484.29,-444 484.29,-444"/>
<polygon fill="black" stroke="black" stroke-width="0.3" points="484.29,-442.95 481.29,-444 484.29,-445.05 484.29,-442.95"/>
</g>
<!-- actualCause&#45;&gt;ErrorCause -->
<g id="edge2" class="edge">
<title>actualCause&#45;&gt;ErrorCause</title>
<path fill="none" stroke="black" stroke-width="0.3" d="M54.23,-637.39C54.23,-637.39 54.23,-388.39 54.23,-388.39"/>
<polygon fill="black" stroke="black" stroke-width="0.3" points="55.28,-388.39 54.23,-385.39 53.18,-388.39 55.28,-388.39"/>
</g>
<!-- analysedObject&#45;&gt;PhysicalObject -->
<g id="edge4" class="edge">
<title>analysedObject&#45;&gt;PhysicalObject</title>
<path fill="none" stroke="black" stroke-width="0.3" d="M793.75,-614C854.7,-614 972,-614 972,-614 972,-614 972,-566.04 972,-566.04"/>
<polygon fill="black" stroke="black" stroke-width="0.3" points="973.05,-566.04 972,-563.04 970.95,-566.04 973.05,-566.04"/>
</g>
<!-- analysedPart&#45;&gt;Part -->
<g id="edge6" class="edge">
<title>analysedPart&#45;&gt;Part</title>
<path fill="none" stroke="black" stroke-width="0.3" d="M788.69,-444C840.14,-444 936.99,-444 936.99,-444 936.99,-444 936.99,-345.09 936.99,-345.09"/>
<polygon fill="black" stroke="black" stroke-width="0.3" points="938.04,-345.09 936.99,-342.09 935.94,-345.09 938.04,-345.09"/>
</g>
<!-- analysedVehicle&#45;&gt;Vehicle -->
<g id="edge8" class="edge">
<title>analysedVehicle&#45;&gt;Vehicle</title>
<path fill="none" stroke="black" stroke-width="0.3" d="M954.64,-767.33C954.64,-767.33 954.64,-1002.24 954.64,-1002.24"/>
<polygon fill="black" stroke="black" stroke-width="0.3" points="953.59,-1002.24 954.64,-1005.24 955.69,-1002.24 953.59,-1002.24"/>
</g>
<!-- performs&#45;&gt;Analysis -->
<g id="edge10" class="edge">
<title>performs&#45;&gt;Analysis</title>
<path fill="none" stroke="black" stroke-width="0.3" d="M699.28,-809.55C699.28,-765.4 699.28,-577 699.28,-577 699.28,-577 665.17,-577 665.17,-577"/>
<polygon fill="black" stroke="black" stroke-width="0.3" points="665.17,-575.95 662.17,-577 665.17,-578.05 665.17,-575.95"/>
</g>
<!-- channel&#45;&gt;LoadSpectrumChannel -->
<g id="edge12" class="edge">
<title>channel&#45;&gt;LoadSpectrumChannel</title>
<path fill="none" stroke="black" stroke-width="0.3" d="M631.71,-58.13C631.71,-100.02 631.71,-273 631.71,-273 631.71,-273 574.36,-273 574.36,-273"/>
<polygon fill="black" stroke="black" stroke-width="0.3" points="574.36,-271.95 571.36,-273 574.36,-274.05 574.36,-271.95"/>
</g>
<!-- class&#45;&gt;LoadSpectrumClass -->
<g id="edge14" class="edge">
<title>class&#45;&gt;LoadSpectrumClass</title>
<path fill="none" stroke="black" stroke-width="0.3" d="M88.44,-82.02C88.44,-122.11 88.44,-280 88.44,-280 88.44,-280 249,-280 249,-280"/>
<polygon fill="black" stroke="black" stroke-width="0.3" points="249,-281.05 252,-280 249,-278.95 249,-281.05"/>
</g>
<!-- hasDiagnosticTroubleCode&#45;&gt;DiagnosticTroubleCode -->
<g id="edge16" class="edge">
<title>hasDiagnosticTroubleCode&#45;&gt;DiagnosticTroubleCode</title>
<path fill="none" stroke="black" stroke-width="0.3" d="M294.84,-754.49C294.84,-754.49 294.84,-620.44 294.84,-620.44"/>
<polygon fill="black" stroke="black" stroke-width="0.3" points="295.89,-620.44 294.84,-617.44 293.79,-620.44 295.89,-620.44"/>
</g>
<!-- possibleCause&#45;&gt;ErrorCause -->
<g id="edge18" class="edge">
<title>possibleCause&#45;&gt;ErrorCause</title>
<path fill="none" stroke="black" stroke-width="0.3" d="M89.48,-981.7C89.48,-981.7 89.48,-388.51 89.48,-388.51"/>
<polygon fill="black" stroke="black" stroke-width="0.3" points="90.53,-388.51 89.48,-385.51 88.43,-388.51 90.53,-388.51"/>
</g>
<!-- result&#45;&gt;AnalysisResult -->
<g id="edge20" class="edge">
<title>result&#45;&gt;AnalysisResult</title>
<path fill="none" stroke="black" stroke-width="0.3" d="M565.45,-427C565.45,-427 484.09,-427 484.09,-427"/>
<polygon fill="black" stroke="black" stroke-width="0.3" points="484.09,-425.95 481.09,-427 484.09,-428.05 484.09,-425.95"/>
</g>
<!-- value&#45;&gt;LoadSpectrumValue -->
<g id="edge22" class="edge">
<title>value&#45;&gt;LoadSpectrumValue</title>
<path fill="none" stroke="black" stroke-width="0.3" d="M922.51,-69.94C922.51,-109.85 922.51,-267 922.51,-267 922.51,-267 771.89,-267 771.89,-267"/>
<polygon fill="black" stroke="black" stroke-width="0.3" points="771.89,-265.95 768.89,-267 771.89,-268.05 771.89,-265.95"/>
</g>
</g>
</svg>
