<?xml version="1.0" encoding="UTF-8" standalone="no"?>
<!DOCTYPE svg PUBLIC "-//W3C//DTD SVG 1.1//EN"
 "http://www.w3.org/Graphics/SVG/1.1/DTD/svg11.dtd">
<!-- Generated by graphviz version 9.0.0 (20230911.1827)
 -->
<!-- Title: reliability_ontology Pages: 1 -->
<svg width="1079pt" height="1261pt"
 viewBox="0.00 0.00 1078.50 1260.74" xmlns="http://www.w3.org/2000/svg" xmlns:xlink="http://www.w3.org/1999/xlink">
<g id="graph0" class="graph" transform="scale(1 1) rotate(0) translate(4 1256.74)">
<title>reliability_ontology</title>
<polygon fill="white" stroke="none" points="-4,4 -4,-1256.74 1074.5,-1256.74 1074.5,4 -4,4"/>
<!-- https://w3id.org/catenax/ontology/core#Activity -->
<g id="node1" class="node">
<title>https://w3id.org/catenax/ontology/core#Activity</title>
<polygon fill="#f2f2f2" stroke="black" points="560,-784.5 560,-842.5 850.5,-842.5 850.5,-784.5 560,-784.5"/>
<text text-anchor="start" x="594.25" y="-830" font-family="Helvetica,Arial,sans-serif" font-weight="bold" font-size="10.00">https://w3id.org/catenax/ontology/core#Activity</text>
<polyline fill="none" stroke="black" points="560,-822.5 850.5,-822.5"/>
<text text-anchor="start" x="568" y="-810" font-family="Helvetica,Arial,sans-serif" font-weight="bold" font-style="italic" font-size="10.00"> domain:core</text>
<text text-anchor="start" x="629.5" y="-810" font-family="Helvetica,Arial,sans-serif" font-size="10.00"> </text>
<text text-anchor="start" x="568" y="-800" font-family="Helvetica,Arial,sans-serif" font-size="10.00">https://w3id.org/catenax/ontology/core#endDateTime:dateTime</text>
<text text-anchor="start" x="568" y="-790" font-family="Helvetica,Arial,sans-serif" font-size="10.00">https://w3id.org/catenax/ontology/core#startDateTime:dateTime</text>
</g>
<!-- https://w3id.org/catenax/ontology/core#Actor -->
<g id="node2" class="node">
<title>https://w3id.org/catenax/ontology/core#Actor</title>
<polygon fill="#f2f2f2" stroke="black" points="756,-980.5 756,-1020.5 984.25,-1020.5 984.25,-980.5 756,-980.5"/>
<text text-anchor="start" x="764" y="-1008" font-family="Helvetica,Arial,sans-serif" font-weight="bold" font-size="10.00">https://w3id.org/catenax/ontology/core#Actor</text>
<polyline fill="none" stroke="black" points="756,-1000.5 984.25,-1000.5"/>
<text text-anchor="start" x="837.88" y="-988" font-family="Helvetica,Arial,sans-serif" font-weight="bold" font-style="italic" font-size="10.00"> domain:core</text>
<text text-anchor="start" x="899.38" y="-988" font-family="Helvetica,Arial,sans-serif" font-size="10.00"> </text>
</g>
<!-- https://w3id.org/catenax/ontology/core#Address -->
<g id="node3" class="node">
<title>https://w3id.org/catenax/ontology/core#Address</title>
<polygon fill="#f2f2f2" stroke="black" points="672,-896.5 672,-936.5 913,-936.5 913,-896.5 672,-896.5"/>
<text text-anchor="start" x="680" y="-924" font-family="Helvetica,Arial,sans-serif" font-weight="bold" font-size="10.00">https://w3id.org/catenax/ontology/core#Address</text>
<polyline fill="none" stroke="black" points="672,-916.5 913,-916.5"/>
<text text-anchor="start" x="760.25" y="-904" font-family="Helvetica,Arial,sans-serif" font-weight="bold" font-style="italic" font-size="10.00"> domain:core</text>
<text text-anchor="start" x="821.75" y="-904" font-family="Helvetica,Arial,sans-serif" font-size="10.00"> </text>
</g>
<!-- https://w3id.org/catenax/ontology/core#ConceptualObject -->
<g id="node4" class="node">
<title>https://w3id.org/catenax/ontology/core#ConceptualObject</title>
<polygon fill="#f2f2f2" stroke="black" points="560,-616.5 560,-656.5 848.25,-656.5 848.25,-616.5 560,-616.5"/>
<text text-anchor="start" x="568" y="-644" font-family="Helvetica,Arial,sans-serif" font-weight="bold" font-size="10.00">https://w3id.org/catenax/ontology/core#ConceptualObject</text>
<polyline fill="none" stroke="black" points="560,-636.5 848.25,-636.5"/>
<text text-anchor="start" x="671.88" y="-624" font-family="Helvetica,Arial,sans-serif" font-weight="bold" font-style="italic" font-size="10.00"> domain:core</text>
<text text-anchor="start" x="733.38" y="-624" font-family="Helvetica,Arial,sans-serif" font-size="10.00"> </text>
</g>
<!-- https://w3id.org/catenax/ontology/core#PhysicalObject -->
<g id="node5" class="node">
<title>https://w3id.org/catenax/ontology/core#PhysicalObject</title>
<polygon fill="#f2f2f2" stroke="black" points="476,-700.5 476,-740.5 750,-740.5 750,-700.5 476,-700.5"/>
<text text-anchor="start" x="484" y="-728" font-family="Helvetica,Arial,sans-serif" font-weight="bold" font-size="10.00">https://w3id.org/catenax/ontology/core#PhysicalObject</text>
<polyline fill="none" stroke="black" points="476,-720.5 750,-720.5"/>
<text text-anchor="start" x="580.75" y="-708" font-family="Helvetica,Arial,sans-serif" font-weight="bold" font-style="italic" font-size="10.00"> domain:core</text>
<text text-anchor="start" x="642.25" y="-708" font-family="Helvetica,Arial,sans-serif" font-size="10.00"> </text>
</g>
<!-- https://w3id.org/catenax/ontology/core#Place -->
<g id="node6" class="node">
<title>https://w3id.org/catenax/ontology/core#Place</title>
<polygon fill="#f2f2f2" stroke="black" points="840,-1064.5 840,-1104.5 1070.5,-1104.5 1070.5,-1064.5 840,-1064.5"/>
<text text-anchor="start" x="848" y="-1092" font-family="Helvetica,Arial,sans-serif" font-weight="bold" font-size="10.00">https://w3id.org/catenax/ontology/core#Place</text>
<polyline fill="none" stroke="black" points="840,-1084.5 1070.5,-1084.5"/>
<text text-anchor="start" x="923" y="-1072" font-family="Helvetica,Arial,sans-serif" font-weight="bold" font-style="italic" font-size="10.00"> domain:core</text>
<text text-anchor="start" x="984.5" y="-1072" font-family="Helvetica,Arial,sans-serif" font-size="10.00"> </text>
</g>
<!-- Analysis -->
<g id="node7" class="node">
<title>Analysis</title>
<polygon fill="#f2f2f2" stroke="black" points="412.77,-356.57 412.77,-424.57 557.02,-424.57 557.02,-356.57 412.77,-356.57"/>
<text text-anchor="start" x="465.4" y="-412.07" font-family="Helvetica,Arial,sans-serif" font-weight="bold" font-size="10.00">Analysis</text>
<polyline fill="none" stroke="black" points="412.77,-404.57 557.02,-404.57"/>
<text text-anchor="start" x="420.77" y="-392.07" font-family="Helvetica,Arial,sans-serif" font-weight="bold" font-style="italic" font-size="10.00"> domain:reliability</text>
<text text-anchor="start" x="505.52" y="-392.07" font-family="Helvetica,Arial,sans-serif" font-size="10.00"> </text>
<text text-anchor="start" x="420.77" y="-382.07" font-family="Helvetica,Arial,sans-serif" font-size="10.00">mileageOfVehicle:integer</text>
<text text-anchor="start" x="420.77" y="-372.07" font-family="Helvetica,Arial,sans-serif" font-size="10.00">operatingHoursOfPart:float</text>
<text text-anchor="start" x="420.77" y="-362.07" font-family="Helvetica,Arial,sans-serif" font-size="10.00">operatingHoursOfVehicle:float</text>
</g>
<!-- analysedObject -->
<g id="node27" class="node">
<title>analysedObject</title>
<polygon fill="greenyellow" stroke="none" points="267.98,-390.78 195.73,-390.78 195.73,-372.28 267.98,-372.28 267.98,-390.78"/>
<text text-anchor="middle" x="231.86" y="-379.18" font-family="Helvetica,Arial,sans-serif" font-size="8.00">analysedObject</text>
</g>
<!-- Analysis&#45;&gt;analysedObject -->
<g id="edge21" class="edge">
<title>Analysis&#45;&gt;analysedObject</title>
<path fill="none" stroke="black" stroke-width="0.3" d="M412.39,-381C365.07,-381 305.35,-381 267.87,-381"/>
</g>
<!-- analysedPart -->
<g id="node28" class="node">
<title>analysedPart</title>
<polygon fill="greenyellow" stroke="none" points="669.22,-515.83 605.97,-515.83 605.97,-497.33 669.22,-497.33 669.22,-515.83"/>
<text text-anchor="middle" x="637.6" y="-504.23" font-family="Helvetica,Arial,sans-serif" font-size="8.00">analysedPart</text>
</g>
<!-- Analysis&#45;&gt;analysedPart -->
<g id="edge23" class="edge">
<title>Analysis&#45;&gt;analysedPart</title>
<path fill="none" stroke="black" stroke-width="0.3" d="M528.68,-424.95C528.68,-461.47 528.68,-514 528.68,-514 528.68,-514 573.93,-514 606.09,-514"/>
</g>
<!-- analysedVehicle -->
<g id="node29" class="node">
<title>analysedVehicle</title>
<polygon fill="greenyellow" stroke="none" points="361.02,-318.44 285.02,-318.44 285.02,-299.94 361.02,-299.94 361.02,-318.44"/>
<text text-anchor="middle" x="323.02" y="-306.84" font-family="Helvetica,Arial,sans-serif" font-size="8.00">analysedVehicle</text>
</g>
<!-- Analysis&#45;&gt;analysedVehicle -->
<g id="edge25" class="edge">
<title>Analysis&#45;&gt;analysedVehicle</title>
<path fill="none" stroke="black" stroke-width="0.3" d="M412.58,-364C377.13,-364 341.95,-364 341.95,-364 341.95,-364 341.95,-333.81 341.95,-318.24"/>
</g>
<!-- result -->
<g id="node32" class="node">
<title>result</title>
<polygon fill="greenyellow" stroke="none" points="500.34,-659.67 464.09,-659.67 464.09,-641.17 500.34,-641.17 500.34,-659.67"/>
<text text-anchor="middle" x="482.22" y="-648.07" font-family="Helvetica,Arial,sans-serif" font-size="8.00">result</text>
</g>
<!-- Analysis&#45;&gt;result -->
<g id="edge31" class="edge">
<title>Analysis&#45;&gt;result</title>
<path fill="none" stroke="black" stroke-width="0.3" d="M482.22,-424.81C482.22,-485.17 482.22,-607.36 482.22,-641.42"/>
</g>
<!-- https -->
<g id="node34" class="node">
<title>https</title>
<polygon fill="none" stroke="black" points="340.04,-528.25 340.04,-564.25 394.04,-564.25 394.04,-528.25 340.04,-528.25"/>
<text text-anchor="middle" x="366.92" y="-542.75" font-family="Helvetica,Arial,sans-serif" font-size="10.00">https</text>
</g>
<!-- Analysis&#45;&gt;https -->
<g id="edge35" class="edge">
<title>Analysis&#45;&gt;https://w3id.org/catenax/ontology/core#Activity</title>
<path fill="none" stroke="black" stroke-width="0.3" stroke-dasharray="5,2" d="M412.37,-407C388.16,-407 367.21,-407 367.21,-407 367.21,-407 367.21,-524.31 367.21,-524.31"/>
<polygon fill="black" stroke="black" stroke-width="0.3" points="366.16,-524.31 367.21,-527.31 368.26,-524.31 366.16,-524.31"/>
</g>
<!-- AnalysisResult -->
<g id="node8" class="node">
<title>AnalysisResult</title>
<polygon fill="#f2f2f2" stroke="black" points="257.64,-773.98 257.64,-813.98 361.39,-813.98 361.39,-773.98 257.64,-773.98"/>
<text text-anchor="start" x="275.39" y="-801.48" font-family="Helvetica,Arial,sans-serif" font-weight="bold" font-size="10.00">AnalysisResult</text>
<polyline fill="none" stroke="black" points="257.64,-793.98 361.39,-793.98"/>
<text text-anchor="start" x="265.64" y="-781.48" font-family="Helvetica,Arial,sans-serif" font-weight="bold" font-style="italic" font-size="10.00"> domain:reliability</text>
<text text-anchor="start" x="350.39" y="-781.48" font-family="Helvetica,Arial,sans-serif" font-size="10.00"> </text>
</g>
<!-- AnalysisResult&#45;&gt;https -->
<g id="edge36" class="edge">
<title>AnalysisResult&#45;&gt;https://w3id.org/catenax/ontology/core#ConceptualObject</title>
<path fill="none" stroke="black" stroke-width="0.3" stroke-dasharray="5,2" d="M361.39,-787C362.87,-787 363.72,-787 363.72,-787 363.72,-787 363.72,-568.2 363.72,-568.2"/>
<polygon fill="black" stroke="black" stroke-width="0.3" points="364.77,-568.2 363.72,-565.2 362.67,-568.2 364.77,-568.2"/>
</g>
<!-- LoadSpectrum -->
<g id="node9" class="node">
<title>LoadSpectrum</title>
<polygon fill="#f2f2f2" stroke="black" points="282.96,-997.97 282.96,-1095.97 396.46,-1095.97 396.46,-997.97 282.96,-997.97"/>
<text text-anchor="start" x="304.84" y="-1083.47" font-family="Helvetica,Arial,sans-serif" font-weight="bold" font-size="10.00">LoadSpectrum</text>
<polyline fill="none" stroke="black" points="282.96,-1075.97 396.46,-1075.97"/>
<text text-anchor="start" x="290.96" y="-1063.47" font-family="Helvetica,Arial,sans-serif" font-weight="bold" font-style="italic" font-size="10.00"> domain:reliability</text>
<text text-anchor="start" x="375.71" y="-1063.47" font-family="Helvetica,Arial,sans-serif" font-size="10.00"> </text>
<text text-anchor="start" x="290.96" y="-1053.47" font-family="Helvetica,Arial,sans-serif" font-size="10.00">datetime:dateTime</text>
<text text-anchor="start" x="290.96" y="-1043.47" font-family="Helvetica,Arial,sans-serif" font-size="10.00">description:string</text>
<text text-anchor="start" x="290.96" y="-1033.47" font-family="Helvetica,Arial,sans-serif" font-size="10.00">endDatetime:dateTime</text>
<text text-anchor="start" x="290.96" y="-1023.47" font-family="Helvetica,Arial,sans-serif" font-size="10.00">id:string</text>
<text text-anchor="start" x="290.96" y="-1013.47" font-family="Helvetica,Arial,sans-serif" font-size="10.00">name:string</text>
<text text-anchor="start" x="290.96" y="-1003.47" font-family="Helvetica,Arial,sans-serif" font-size="10.00">type:string</text>
</g>
<!-- LoadSpectrum&#45;&gt;AnalysisResult -->
<g id="edge37" class="edge">
<title>LoadSpectrum&#45;&gt;AnalysisResult</title>
<path fill="none" stroke="black" stroke-width="0.3" stroke-dasharray="5,2" d="M322.17,-997.59C322.17,-997.59 322.17,-817.66 322.17,-817.66"/>
<polygon fill="black" stroke="black" stroke-width="0.3" points="323.22,-817.66 322.17,-814.66 321.12,-817.66 323.22,-817.66"/>
</g>
<!-- channel -->
<g id="node30" class="node">
<title>channel</title>
<polygon fill="greenyellow" stroke="none" points="85.77,-1119.09 41.27,-1119.09 41.27,-1100.59 85.77,-1100.59 85.77,-1119.09"/>
<text text-anchor="middle" x="63.52" y="-1107.49" font-family="Helvetica,Arial,sans-serif" font-size="8.00">channel</text>
</g>
<!-- LoadSpectrum&#45;&gt;channel -->
<g id="edge27" class="edge">
<title>LoadSpectrum&#45;&gt;channel</title>
<path fill="none" stroke="black" stroke-width="0.3" d="M282.71,-1039C203.81,-1039 70.94,-1039 70.94,-1039 70.94,-1039 70.94,-1081.81 70.94,-1100.87"/>
</g>
<!-- class -->
<g id="node31" class="node">
<title>class</title>
<polygon fill="greenyellow" stroke="none" points="286.76,-1252.74 251.26,-1252.74 251.26,-1234.24 286.76,-1234.24 286.76,-1252.74"/>
<text text-anchor="middle" x="269.01" y="-1241.14" font-family="Helvetica,Arial,sans-serif" font-size="8.00">class</text>
</g>
<!-- LoadSpectrum&#45;&gt;class -->
<g id="edge29" class="edge">
<title>LoadSpectrum&#45;&gt;class</title>
<path fill="none" stroke="black" stroke-width="0.3" d="M282.58,-1068C280.3,-1068 278.96,-1068 278.96,-1068 278.96,-1068 278.96,-1198.78 278.96,-1234.54"/>
</g>
<!-- hasValues -->
<g id="node33" class="node">
<title>hasValues</title>
<polygon fill="greenyellow" stroke="none" points="587.83,-1161.71 532.83,-1161.71 532.83,-1143.21 587.83,-1143.21 587.83,-1161.71"/>
<text text-anchor="middle" x="560.33" y="-1150.11" font-family="Helvetica,Arial,sans-serif" font-size="8.00">hasValues</text>
</g>
<!-- LoadSpectrum&#45;&gt;hasValues -->
<g id="edge33" class="edge">
<title>LoadSpectrum&#45;&gt;hasValues</title>
<path fill="none" stroke="black" stroke-width="0.3" d="M341.61,-1096.41C341.61,-1123.65 341.61,-1152 341.61,-1152 341.61,-1152 474.44,-1152 533.07,-1152"/>
</g>
<!-- LoadSpectrumAnalysis -->
<g id="node10" class="node">
<title>LoadSpectrumAnalysis</title>
<polygon fill="#f2f2f2" stroke="black" points="687.67,-0.5 687.67,-40.5 812.42,-40.5 812.42,-0.5 687.67,-0.5"/>
<text text-anchor="start" x="695.67" y="-28" font-family="Helvetica,Arial,sans-serif" font-weight="bold" font-size="10.00">LoadSpectrumAnalysis</text>
<polyline fill="none" stroke="black" points="687.67,-20.5 812.42,-20.5"/>
<text text-anchor="start" x="706.17" y="-8" font-family="Helvetica,Arial,sans-serif" font-weight="bold" font-style="italic" font-size="10.00"> domain:reliability</text>
<text text-anchor="start" x="790.92" y="-8" font-family="Helvetica,Arial,sans-serif" font-size="10.00"> </text>
</g>
<!-- OnBoardTelematics -->
<g id="node14" class="node">
<title>OnBoardTelematics</title>
<polygon fill="#f2f2f2" stroke="black" points="561.64,-172.12 561.64,-212.12 671.39,-212.12 671.39,-172.12 561.64,-172.12"/>
<text text-anchor="start" x="569.64" y="-199.62" font-family="Helvetica,Arial,sans-serif" font-weight="bold" font-size="10.00">OnBoardTelematics</text>
<polyline fill="none" stroke="black" points="561.64,-192.12 671.39,-192.12"/>
<text text-anchor="start" x="572.64" y="-179.62" font-family="Helvetica,Arial,sans-serif" font-weight="bold" font-style="italic" font-size="10.00"> domain:reliability</text>
<text text-anchor="start" x="657.39" y="-179.62" font-family="Helvetica,Arial,sans-serif" font-size="10.00"> </text>
</g>
<!-- LoadSpectrumAnalysis&#45;&gt;OnBoardTelematics -->
<g id="edge42" class="edge">
<title>LoadSpectrumAnalysis&#45;&gt;OnBoardTelematics</title>
<path fill="none" stroke="black" stroke-width="0.3" stroke-dasharray="5,2" d="M687.19,-20C652.55,-20 616.51,-20 616.51,-20 616.51,-20 616.51,-168.25 616.51,-168.25"/>
<polygon fill="black" stroke="black" stroke-width="0.3" points="615.46,-168.25 616.51,-171.25 617.56,-168.25 615.46,-168.25"/>
</g>
<!-- LoadSpectrumChannel -->
<g id="node11" class="node">
<title>LoadSpectrumChannel</title>
<polygon fill="#f2f2f2" stroke="black" points="0,-823.1 0,-921.1 125.5,-921.1 125.5,-823.1 0,-823.1"/>
<text text-anchor="start" x="8" y="-908.6" font-family="Helvetica,Arial,sans-serif" font-weight="bold" font-size="10.00">LoadSpectrumChannel</text>
<polyline fill="none" stroke="black" points="0,-901.1 125.5,-901.1"/>
<text text-anchor="start" x="15.88" y="-888.6" font-family="Helvetica,Arial,sans-serif" font-weight="bold" font-style="italic" font-size="10.00"> domain:reliability</text>
<text text-anchor="start" x="100.62" y="-888.6" font-family="Helvetica,Arial,sans-serif" font-size="10.00"> </text>
<text text-anchor="start" x="15.88" y="-878.6" font-family="Helvetica,Arial,sans-serif" font-size="10.00">lowerLimit:float</text>
<text text-anchor="start" x="15.88" y="-868.6" font-family="Helvetica,Arial,sans-serif" font-size="10.00">name:string</text>
<text text-anchor="start" x="15.88" y="-858.6" font-family="Helvetica,Arial,sans-serif" font-size="10.00">numberOfBins:integer</text>
<text text-anchor="start" x="15.88" y="-848.6" font-family="Helvetica,Arial,sans-serif" font-size="10.00">type:string</text>
<text text-anchor="start" x="15.88" y="-838.6" font-family="Helvetica,Arial,sans-serif" font-size="10.00">unit:string</text>
<text text-anchor="start" x="15.88" y="-828.6" font-family="Helvetica,Arial,sans-serif" font-size="10.00">upperLimit:float</text>
</g>
<!-- LoadSpectrumChannel&#45;&gt;AnalysisResult -->
<g id="edge38" class="edge">
<title>LoadSpectrumChannel&#45;&gt;AnalysisResult</title>
<path fill="none" stroke="black" stroke-width="0.3" stroke-dasharray="5,2" d="M125.97,-854C184.78,-854 263.41,-854 263.41,-854 263.41,-854 263.41,-817.75 263.41,-817.75"/>
<polygon fill="black" stroke="black" stroke-width="0.3" points="264.46,-817.75 263.41,-814.75 262.36,-817.75 264.46,-817.75"/>
</g>
<!-- LoadSpectrumClass -->
<g id="node12" class="node">
<title>LoadSpectrumClass</title>
<polygon fill="#f2f2f2" stroke="black" points="164.46,-970.86 164.46,-1010.86 274.96,-1010.86 274.96,-970.86 164.46,-970.86"/>
<text text-anchor="start" x="172.46" y="-998.36" font-family="Helvetica,Arial,sans-serif" font-weight="bold" font-size="10.00">LoadSpectrumClass</text>
<polyline fill="none" stroke="black" points="164.46,-990.86 274.96,-990.86"/>
<text text-anchor="start" x="175.84" y="-978.36" font-family="Helvetica,Arial,sans-serif" font-weight="bold" font-style="italic" font-size="10.00"> domain:reliability</text>
<text text-anchor="start" x="260.59" y="-978.36" font-family="Helvetica,Arial,sans-serif" font-size="10.00"> </text>
</g>
<!-- LoadSpectrumClass&#45;&gt;AnalysisResult -->
<g id="edge39" class="edge">
<title>LoadSpectrumClass&#45;&gt;AnalysisResult</title>
<path fill="none" stroke="black" stroke-width="0.3" stroke-dasharray="5,2" d="M269.19,-970.53C269.19,-970.53 269.19,-817.65 269.19,-817.65"/>
<polygon fill="black" stroke="black" stroke-width="0.3" points="270.24,-817.65 269.19,-814.65 268.14,-817.65 270.24,-817.65"/>
</g>
<!-- LoadSpectrumValues -->
<g id="node13" class="node">
<title>LoadSpectrumValues</title>
<polygon fill="#f2f2f2" stroke="black" points="484.9,-886.65 484.9,-964.65 602.9,-964.65 602.9,-886.65 484.9,-886.65"/>
<text text-anchor="start" x="492.9" y="-952.15" font-family="Helvetica,Arial,sans-serif" font-weight="bold" font-size="10.00">LoadSpectrumValues</text>
<polyline fill="none" stroke="black" points="484.9,-944.65 602.9,-944.65"/>
<text text-anchor="start" x="495.9" y="-932.15" font-family="Helvetica,Arial,sans-serif" font-weight="bold" font-style="italic" font-size="10.00"> domain:reliability</text>
<text text-anchor="start" x="580.65" y="-932.15" font-family="Helvetica,Arial,sans-serif" font-size="10.00"> </text>
<text text-anchor="start" x="495.9" y="-922.15" font-family="Helvetica,Arial,sans-serif" font-size="10.00">countingValue:string</text>
<text text-anchor="start" x="495.9" y="-912.15" font-family="Helvetica,Arial,sans-serif" font-size="10.00">countingMethod:string</text>
<text text-anchor="start" x="495.9" y="-902.15" font-family="Helvetica,Arial,sans-serif" font-size="10.00">countingUnit:string</text>
<text text-anchor="start" x="495.9" y="-892.15" font-family="Helvetica,Arial,sans-serif" font-size="10.00">index:string</text>
</g>
<!-- LoadSpectrumValues&#45;&gt;AnalysisResult -->
<g id="edge40" class="edge">
<title>LoadSpectrumValues&#45;&gt;AnalysisResult</title>
<path fill="none" stroke="black" stroke-width="0.3" stroke-dasharray="5,2" d="M492.62,-886.24C492.62,-849.39 492.62,-800 492.62,-800 492.62,-800 364.95,-800 364.95,-800"/>
<polygon fill="black" stroke="black" stroke-width="0.3" points="364.95,-798.95 361.95,-800 364.95,-801.05 364.95,-798.95"/>
</g>
<!-- OnBoardTelematics&#45;&gt;Analysis -->
<g id="edge43" class="edge">
<title>OnBoardTelematics&#45;&gt;Analysis</title>
<path fill="none" stroke="black" stroke-width="0.3" stroke-dasharray="5,2" d="M582.27,-212.55C582.27,-263.11 582.27,-390 582.27,-390 582.27,-390 560.9,-390 560.9,-390"/>
<polygon fill="black" stroke="black" stroke-width="0.3" points="560.9,-388.95 557.9,-390 560.9,-391.05 560.9,-388.95"/>
</g>
<!-- TelematicsResult -->
<g id="node15" class="node">
<title>TelematicsResult</title>
<polygon fill="#f2f2f2" stroke="black" points="19.45,-673.14 19.45,-713.14 123.2,-713.14 123.2,-673.14 19.45,-673.14"/>
<text text-anchor="start" x="30.83" y="-700.64" font-family="Helvetica,Arial,sans-serif" font-weight="bold" font-size="10.00">TelematicsResult</text>
<polyline fill="none" stroke="black" points="19.45,-693.14 123.2,-693.14"/>
<text text-anchor="start" x="27.45" y="-680.64" font-family="Helvetica,Arial,sans-serif" font-weight="bold" font-style="italic" font-size="10.00"> domain:reliability</text>
<text text-anchor="start" x="112.2" y="-680.64" font-family="Helvetica,Arial,sans-serif" font-size="10.00"> </text>
</g>
<!-- TelematicsResult&#45;&gt;AnalysisResult -->
<g id="edge41" class="edge">
<title>TelematicsResult&#45;&gt;AnalysisResult</title>
<path fill="none" stroke="black" stroke-width="0.3" stroke-dasharray="5,2" d="M123.68,-693C179.85,-693 261.09,-693 261.09,-693 261.09,-693 261.09,-770.09 261.09,-770.09"/>
<polygon fill="black" stroke="black" stroke-width="0.3" points="260.04,-770.09 261.09,-773.09 262.14,-770.09 260.04,-770.09"/>
</g>
<!-- https://w3id.org/catenax/ontology/vehicle#Part -->
<g id="node16" class="node">
<title>https://w3id.org/catenax/ontology/vehicle#Part</title>
<polygon fill="#f2f2f2" stroke="black" points="728,-504.5 728,-544.5 964.5,-544.5 964.5,-504.5 728,-504.5"/>
<text text-anchor="start" x="736" y="-532" font-family="Helvetica,Arial,sans-serif" font-weight="bold" font-size="10.00">https://w3id.org/catenax/ontology/vehicle#Part</text>
<polyline fill="none" stroke="black" points="728,-524.5 964.5,-524.5"/>
<text text-anchor="start" x="807.62" y="-512" font-family="Helvetica,Arial,sans-serif" font-weight="bold" font-style="italic" font-size="10.00"> domain:vehicle</text>
<text text-anchor="start" x="881.88" y="-512" font-family="Helvetica,Arial,sans-serif" font-size="10.00"> </text>
</g>
<!-- https://w3id.org/catenax/ontology/vehicle#Vehicle -->
<g id="node17" class="node">
<title>https://w3id.org/catenax/ontology/vehicle#Vehicle</title>
<polygon fill="#f2f2f2" stroke="black" points="644,-420.5 644,-460.5 897,-460.5 897,-420.5 644,-420.5"/>
<text text-anchor="start" x="652" y="-448" font-family="Helvetica,Arial,sans-serif" font-weight="bold" font-size="10.00">https://w3id.org/catenax/ontology/vehicle#Vehicle</text>
<polyline fill="none" stroke="black" points="644,-440.5 897,-440.5"/>
<text text-anchor="start" x="731.88" y="-428" font-family="Helvetica,Arial,sans-serif" font-weight="bold" font-style="italic" font-size="10.00"> domain:vehicle</text>
<text text-anchor="start" x="806.12" y="-428" font-family="Helvetica,Arial,sans-serif" font-size="10.00"> </text>
</g>
<!-- https://w3id.org/catenax/ontology/core#describesPhysicalObject -->
<g id="node18" class="node">
<title>https://w3id.org/catenax/ontology/core#describesPhysicalObject</title>
<polygon fill="greenyellow" stroke="none" points="925.5,-365 644,-365 644,-336 925.5,-336 925.5,-365"/>
<text text-anchor="middle" x="784.75" y="-353.4" font-family="Helvetica,Arial,sans-serif" font-size="8.00">https://w3id.org/catenax/ontology/core#describesPhysicalObject / </text>
<text text-anchor="middle" x="784.75" y="-342.9" font-family="Helvetica,Arial,sans-serif" font-size="8.00">https://w3id.org/catenax/ontology/core#describedByConceptualObject ➝</text>
</g>
<!-- https://w3id.org/catenax/ontology/core#hasParticipant -->
<g id="node19" class="node">
<title>https://w3id.org/catenax/ontology/core#hasParticipant</title>
<polygon fill="greenyellow" stroke="none" points="239.75,-522.5 28,-522.5 28,-504 239.75,-504 239.75,-522.5"/>
<text text-anchor="middle" x="133.88" y="-510.9" font-family="Helvetica,Arial,sans-serif" font-size="8.00">https://w3id.org/catenax/ontology/core#hasParticipant</text>
</g>
<!-- https://w3id.org/catenax/ontology/core#hosts -->
<g id="node20" class="node">
<title>https://w3id.org/catenax/ontology/core#hosts</title>
<polygon fill="greenyellow" stroke="none" points="237,-466.5 56,-466.5 56,-448 237,-448 237,-466.5"/>
<text text-anchor="middle" x="146.5" y="-454.9" font-family="Helvetica,Arial,sans-serif" font-size="8.00">https://w3id.org/catenax/ontology/core#hosts</text>
</g>
<!-- https://w3id.org/catenax/ontology/core#involvedIn -->
<g id="node21" class="node">
<title>https://w3id.org/catenax/ontology/core#involvedIn</title>
<polygon fill="greenyellow" stroke="none" points="224.75,-298.5 28,-298.5 28,-280 224.75,-280 224.75,-298.5"/>
<text text-anchor="middle" x="126.38" y="-286.9" font-family="Helvetica,Arial,sans-serif" font-size="8.00">https://w3id.org/catenax/ontology/core#involvedIn</text>
</g>
<!-- https://w3id.org/catenax/ontology/core#participatesIn -->
<g id="node22" class="node">
<title>https://w3id.org/catenax/ontology/core#participatesIn</title>
<polygon fill="greenyellow" stroke="none" points="264.75,-634.5 56,-634.5 56,-616 264.75,-616 264.75,-634.5"/>
<text text-anchor="middle" x="160.38" y="-622.9" font-family="Helvetica,Arial,sans-serif" font-size="8.00">https://w3id.org/catenax/ontology/core#participatesIn</text>
</g>
<!-- https://w3id.org/catenax/ontology/core#refersToConceptualObject -->
<g id="node23" class="node">
<title>https://w3id.org/catenax/ontology/core#refersToConceptualObject</title>
<polygon fill="greenyellow" stroke="none" points="900,-298.5 644,-298.5 644,-280 900,-280 900,-298.5"/>
<text text-anchor="middle" x="772" y="-286.9" font-family="Helvetica,Arial,sans-serif" font-size="8.00">https://w3id.org/catenax/ontology/core#refersToConceptualObject</text>
</g>
<!-- https://w3id.org/catenax/ontology/core#refersToPhysicalObject -->
<g id="node24" class="node">
<title>https://w3id.org/catenax/ontology/core#refersToPhysicalObject</title>
<polygon fill="greenyellow" stroke="none" points="1057.5,-718.5 812,-718.5 812,-700 1057.5,-700 1057.5,-718.5"/>
<text text-anchor="middle" x="934.75" y="-706.9" font-family="Helvetica,Arial,sans-serif" font-size="8.00">https://w3id.org/catenax/ontology/core#refersToPhysicalObject</text>
</g>
<!-- https://w3id.org/catenax/ontology/core#relatedToPlace -->
<g id="node25" class="node">
<title>https://w3id.org/catenax/ontology/core#relatedToPlace</title>
<polygon fill="greenyellow" stroke="none" points="242,-578.5 28,-578.5 28,-560 242,-560 242,-578.5"/>
<text text-anchor="middle" x="135" y="-566.9" font-family="Helvetica,Arial,sans-serif" font-size="8.00">https://w3id.org/catenax/ontology/core#relatedToPlace</text>
</g>
<!-- https://w3id.org/catenax/ontology/core#takesPlaceAt -->
<g id="node26" class="node">
<title>https://w3id.org/catenax/ontology/core#takesPlaceAt</title>
<polygon fill="greenyellow" stroke="none" points="236,-354.5 28,-354.5 28,-336 236,-336 236,-354.5"/>
<text text-anchor="middle" x="132" y="-342.9" font-family="Helvetica,Arial,sans-serif" font-size="8.00">https://w3id.org/catenax/ontology/core#takesPlaceAt</text>
</g>
<!-- analysedObject&#45;&gt;https -->
<g id="edge22" class="edge">
<title>analysedObject&#45;&gt;https://w3id.org/catenax/ontology/core#PhysicalObject</title>
<path fill="none" stroke="black" stroke-width="0.3" d="M264.54,-390.38C264.54,-424.54 264.54,-546 264.54,-546 264.54,-546 336.12,-546 336.12,-546"/>
<polygon fill="black" stroke="black" stroke-width="0.3" points="336.12,-547.05 339.12,-546 336.12,-544.95 336.12,-547.05"/>
</g>
<!-- analysedPart&#45;&gt;https -->
<g id="edge24" class="edge">
<title>analysedPart&#45;&gt;https://w3id.org/catenax/ontology/vehicle#Part</title>
<path fill="none" stroke="black" stroke-width="0.3" d="M637.6,-515.72C637.6,-527.37 637.6,-546 637.6,-546 637.6,-546 397.93,-546 397.93,-546"/>
<polygon fill="black" stroke="black" stroke-width="0.3" points="397.93,-544.95 394.93,-546 397.93,-547.05 397.93,-544.95"/>
</g>
<!-- analysedVehicle&#45;&gt;https -->
<g id="edge26" class="edge">
<title>analysedVehicle&#45;&gt;https://w3id.org/catenax/ontology/vehicle#Vehicle</title>
<path fill="none" stroke="black" stroke-width="0.3" d="M360.95,-309C363.54,-309 365.15,-309 365.15,-309 365.15,-309 365.15,-524.58 365.15,-524.58"/>
<polygon fill="black" stroke="black" stroke-width="0.3" points="364.1,-524.58 365.15,-527.58 366.2,-524.58 364.1,-524.58"/>
</g>
<!-- channel&#45;&gt;LoadSpectrumChannel -->
<g id="edge28" class="edge">
<title>channel&#45;&gt;LoadSpectrumChannel</title>
<path fill="none" stroke="black" stroke-width="0.3" d="M56.1,-1100.81C56.1,-1100.81 56.1,-924.86 56.1,-924.86"/>
<polygon fill="black" stroke="black" stroke-width="0.3" points="57.15,-924.86 56.1,-921.86 55.05,-924.86 57.15,-924.86"/>
</g>
<!-- class&#45;&gt;LoadSpectrumClass -->
<g id="edge30" class="edge">
<title>class&#45;&gt;LoadSpectrumClass</title>
<path fill="none" stroke="black" stroke-width="0.3" d="M263.11,-1234.49C263.11,-1234.49 263.11,-1014.79 263.11,-1014.79"/>
<polygon fill="black" stroke="black" stroke-width="0.3" points="264.16,-1014.79 263.11,-1011.79 262.06,-1014.79 264.16,-1014.79"/>
</g>
<!-- result&#45;&gt;AnalysisResult -->
<g id="edge32" class="edge">
<title>result&#45;&gt;AnalysisResult</title>
<path fill="none" stroke="black" stroke-width="0.3" d="M464.15,-650C426.23,-650 341.82,-650 341.82,-650 341.82,-650 341.82,-770.2 341.82,-770.2"/>
<polygon fill="black" stroke="black" stroke-width="0.3" points="340.77,-770.2 341.82,-773.2 342.87,-770.2 340.77,-770.2"/>
</g>
<!-- hasValues&#45;&gt;LoadSpectrumValues -->
<g id="edge34" class="edge">
<title>hasValues&#45;&gt;LoadSpectrumValues</title>
<path fill="none" stroke="black" stroke-width="0.3" d="M560.33,-1143.28C560.33,-1143.28 560.33,-968.27 560.33,-968.27"/>
<polygon fill="black" stroke="black" stroke-width="0.3" points="561.38,-968.27 560.33,-965.27 559.28,-968.27 561.38,-968.27"/>
</g>
<!-- https&#45;&gt;https -->
<g id="edge1" class="edge">
<title>https://w3id.org/catenax/ontology/core#ConceptualObject&#45;&gt;https://w3id.org/catenax/ontology/core#describesPhysicalObject</title>
<path fill="none" stroke="black" stroke-width="0.3" d="M359.61,-564.73C359.61,-586.87 359.61,-621 359.61,-621 359.61,-621 290.02,-621 290.02,-621 290.02,-621 290.02,-507 290.02,-507 290.02,-507 363.08,-507 363.08,-507 363.08,-507 363.08,-517.76 363.08,-528.01"/>
</g>
<!-- https&#45;&gt;https -->
<g id="edge2" class="edge">
<title>https://w3id.org/catenax/ontology/core#describesPhysicalObject&#45;&gt;https://w3id.org/catenax/ontology/core#PhysicalObject</title>
<path fill="none" stroke="black" stroke-width="0.3" d="M352.49,-564.48C352.49,-582.37 352.49,-607 352.49,-607 352.49,-607 310.03,-607 310.03,-607 310.03,-607 310.03,-513 310.03,-513 310.03,-513 343.85,-513 343.85,-513 343.85,-513 343.85,-524.62 343.85,-524.62"/>
<polygon fill="black" stroke="black" stroke-width="0.3" points="342.8,-524.62 343.85,-527.62 344.9,-524.62 342.8,-524.62"/>
</g>
<!-- https&#45;&gt;https -->
<g id="edge3" class="edge">
<title>https://w3id.org/catenax/ontology/core#Activity&#45;&gt;https://w3id.org/catenax/ontology/core#hasParticipant</title>
<path fill="none" stroke="black" stroke-width="0.3" d="M380.05,-564.48C380.05,-580.41 380.05,-601 380.05,-601 380.05,-601 408.69,-601 408.69,-601 408.69,-601 408.69,-506 408.69,-506 408.69,-506 381.66,-506 381.66,-506 381.66,-506 381.66,-517.36 381.66,-528.01"/>
</g>
<!-- https&#45;&gt;https -->
<g id="edge4" class="edge">
<title>https://w3id.org/catenax/ontology/core#hasParticipant&#45;&gt;https://w3id.org/catenax/ontology/core#Actor</title>
<path fill="none" stroke="black" stroke-width="0.3" d="M348.94,-564.58C348.94,-578.04 348.94,-594 348.94,-594 348.94,-594 320.03,-594 320.03,-594 320.03,-594 320.03,-523 320.03,-523 320.03,-523 357.2,-523 357.2,-523 357.2,-523 357.2,-524.48 357.2,-524.48"/>
<polygon fill="black" stroke="black" stroke-width="0.3" points="356.15,-524.48 357.2,-527.48 358.25,-524.48 356.15,-524.48"/>
</g>
<!-- https&#45;&gt;https -->
<g id="edge5" class="edge">
<title>https://w3id.org/catenax/ontology/core#Place&#45;&gt;https://w3id.org/catenax/ontology/core#hosts</title>
<path fill="none" stroke="black" stroke-width="0.3" d="M382.38,-564.44C382.38,-572.85 382.38,-581 382.38,-581 382.38,-581 406.66,-581 406.66,-581 406.66,-581 406.66,-516 406.66,-516 406.66,-516 383.72,-516 383.72,-516 383.72,-516 383.72,-521.59 383.72,-527.96"/>
</g>
<!-- https&#45;&gt;https -->
<g id="edge6" class="edge">
<title>https://w3id.org/catenax/ontology/core#hosts&#45;&gt;https://w3id.org/catenax/ontology/core#Activity</title>
<path fill="none" stroke="black" stroke-width="0.3" d="M387.04,-564.61C387.04,-569.77 387.04,-574 387.04,-574 387.04,-574 402.58,-574 402.58,-574 402.58,-574 402.58,-519 402.58,-519 402.58,-519 387.85,-519 387.85,-519 387.85,-519 387.85,-524.47 387.85,-524.47"/>
<polygon fill="black" stroke="black" stroke-width="0.3" points="386.8,-524.47 387.85,-527.47 388.9,-524.47 386.8,-524.47"/>
</g>
<!-- https&#45;&gt;https -->
<g id="edge7" class="edge">
<title>https://w3id.org/catenax/ontology/core#ConceptualObject&#45;&gt;https://w3id.org/catenax/ontology/core#involvedIn</title>
<path fill="none" stroke="black" stroke-width="0.3" d="M389.38,-564.5C389.38,-568.21 389.38,-571 389.38,-571 389.38,-571 400.54,-571 400.54,-571 400.54,-571 400.54,-520 400.54,-520 400.54,-520 389.91,-520 389.91,-520 389.91,-520 389.91,-523.54 389.91,-528.02"/>
</g>
<!-- https&#45;&gt;https -->
<g id="edge8" class="edge">
<title>https://w3id.org/catenax/ontology/core#involvedIn&#45;&gt;https://w3id.org/catenax/ontology/core#Activity</title>
<path fill="none" stroke="black" stroke-width="0.3" d="M366.05,-564.62C366.05,-591.13 366.05,-637 366.05,-637 366.05,-637 455.54,-637 455.54,-637 455.54,-637 455.54,-498 455.54,-498 455.54,-498 369.27,-498 369.27,-498 369.27,-498 369.27,-524.56 369.27,-524.56"/>
<polygon fill="black" stroke="black" stroke-width="0.3" points="368.22,-524.56 369.27,-527.56 370.32,-524.56 368.22,-524.56"/>
</g>
<!-- https&#45;&gt;https -->
<g id="edge9" class="edge">
<title>https://w3id.org/catenax/ontology/core#PhysicalObject&#45;&gt;https://w3id.org/catenax/ontology/core#involvedIn</title>
<path fill="none" stroke="black" stroke-width="0.3" d="M368.39,-564.44C368.39,-590.14 368.39,-634 368.39,-634 368.39,-634 446.99,-634 446.99,-634 446.99,-634 446.99,-499 446.99,-499 446.99,-499 371.34,-499 371.34,-499 371.34,-499 371.34,-514.58 371.34,-527.85"/>
</g>
<!-- https&#45;&gt;https -->
<g id="edge10" class="edge">
<title>https://w3id.org/catenax/ontology/core#involvedIn&#45;&gt;https://w3id.org/catenax/ontology/core#Activity</title>
<path fill="none" stroke="black" stroke-width="0.3" d="M370.72,-564.64C370.72,-589.57 370.72,-631 370.72,-631 370.72,-631 438.43,-631 438.43,-631 438.43,-631 438.43,-501 438.43,-501 438.43,-501 373.4,-501 373.4,-501 373.4,-501 373.4,-524.39 373.4,-524.39"/>
<polygon fill="black" stroke="black" stroke-width="0.3" points="372.35,-524.39 373.4,-527.39 374.45,-524.39 372.35,-524.39"/>
</g>
<!-- https&#45;&gt;https -->
<g id="edge11" class="edge">
<title>https://w3id.org/catenax/ontology/core#Actor&#45;&gt;https://w3id.org/catenax/ontology/core#participatesIn</title>
<path fill="none" stroke="black" stroke-width="0.3" d="M373.05,-564.58C373.05,-588.4 373.05,-627 373.05,-627 373.05,-627 429.88,-627 429.88,-627 429.88,-627 429.88,-502 429.88,-502 429.88,-502 375.47,-502 375.47,-502 375.47,-502 375.47,-515.81 375.47,-528"/>
</g>
<!-- https&#45;&gt;https -->
<g id="edge12" class="edge">
<title>https://w3id.org/catenax/ontology/core#participatesIn&#45;&gt;https://w3id.org/catenax/ontology/core#Activity</title>
<path fill="none" stroke="black" stroke-width="0.3" d="M375.38,-564.68C375.38,-587.67 375.38,-624 375.38,-624 375.38,-624 421.33,-624 421.33,-624 421.33,-624 421.33,-503 421.33,-503 421.33,-503 377.53,-503 377.53,-503 377.53,-503 377.53,-524.46 377.53,-524.46"/>
<polygon fill="black" stroke="black" stroke-width="0.3" points="376.48,-524.46 377.53,-527.46 378.58,-524.46 376.48,-524.46"/>
</g>
<!-- https&#45;&gt;https -->
<g id="edge13" class="edge">
<title>https://w3id.org/catenax/ontology/core#Activity&#45;&gt;https://w3id.org/catenax/ontology/core#refersToConceptualObject</title>
<path fill="none" stroke="black" stroke-width="0.3" d="M357.83,-564.47C357.83,-585.43 357.83,-617 357.83,-617 357.83,-617 295.02,-617 295.02,-617 295.02,-617 295.02,-509 295.02,-509 295.02,-509 349.58,-509 349.58,-509 349.58,-509 349.58,-518.61 349.58,-528.06"/>
</g>
<!-- https&#45;&gt;https -->
<g id="edge14" class="edge">
<title>https://w3id.org/catenax/ontology/core#refersToConceptualObject&#45;&gt;https://w3id.org/catenax/ontology/core#ConceptualObject</title>
<path fill="none" stroke="black" stroke-width="0.3" d="M356.05,-564.41C356.05,-584.48 356.05,-614 356.05,-614 356.05,-614 300.02,-614 300.02,-614 300.02,-614 300.02,-510 300.02,-510 300.02,-510 347.67,-510 347.67,-510 347.67,-510 347.67,-524.67 347.67,-524.67"/>
<polygon fill="black" stroke="black" stroke-width="0.3" points="346.62,-524.67 347.67,-527.67 348.72,-524.67 346.62,-524.67"/>
</g>
<!-- https&#45;&gt;https -->
<g id="edge15" class="edge">
<title>https://w3id.org/catenax/ontology/core#Activity&#45;&gt;https://w3id.org/catenax/ontology/core#refersToPhysicalObject</title>
<path fill="none" stroke="black" stroke-width="0.3" d="M354.27,-564.63C354.27,-583.78 354.27,-611 354.27,-611 354.27,-611 305.03,-611 305.03,-611 305.03,-611 305.03,-511 305.03,-511 305.03,-511 345.76,-511 345.76,-511 345.76,-511 345.76,-519.27 345.76,-527.8"/>
</g>
<!-- https&#45;&gt;https -->
<g id="edge16" class="edge">
<title>https://w3id.org/catenax/ontology/core#refersToPhysicalObject&#45;&gt;https://w3id.org/catenax/ontology/core#ConceptualObject</title>
<path fill="none" stroke="black" stroke-width="0.3" d="M377.71,-564.53C377.71,-581.44 377.71,-604 377.71,-604 377.71,-604 410.73,-604 410.73,-604 410.73,-604 410.73,-505 410.73,-505 410.73,-505 379.59,-505 379.59,-505 379.59,-505 379.59,-524.59 379.59,-524.59"/>
<polygon fill="black" stroke="black" stroke-width="0.3" points="378.54,-524.59 379.59,-527.59 380.64,-524.59 378.54,-524.59"/>
</g>
<!-- https&#45;&gt;https -->
<g id="edge17" class="edge">
<title>https://w3id.org/catenax/ontology/core#Actor&#45;&gt;https://w3id.org/catenax/ontology/core#relatedToPlace</title>
<path fill="none" stroke="black" stroke-width="0.3" d="M350.71,-564.57C350.71,-579.11 350.71,-597 350.71,-597 350.71,-597 315.03,-597 315.03,-597 315.03,-597 315.03,-522 315.03,-522 315.03,-522 359.11,-522 359.11,-522 359.11,-522 359.11,-524.49 359.11,-527.87"/>
</g>
<!-- https&#45;&gt;https -->
<g id="edge18" class="edge">
<title>https://w3id.org/catenax/ontology/core#relatedToPlace&#45;&gt;https://w3id.org/catenax/ontology/core#Place</title>
<path fill="none" stroke="black" stroke-width="0.3" d="M347.16,-564.71C347.16,-577.04 347.16,-591 347.16,-591 347.16,-591 325.03,-591 325.03,-591 325.03,-591 325.03,-524 325.03,-524 325.03,-524 355.3,-524 355.3,-524 355.3,-524 355.3,-524.42 355.3,-524.42"/>
<polygon fill="black" stroke="black" stroke-width="0.3" points="354.25,-524.42 355.3,-527.42 356.35,-524.42 354.25,-524.42"/>
</g>
<!-- https&#45;&gt;https -->
<g id="edge19" class="edge">
<title>https://w3id.org/catenax/ontology/core#Activity&#45;&gt;https://w3id.org/catenax/ontology/core#takesPlaceAt</title>
<path fill="none" stroke="black" stroke-width="0.3" d="M345.38,-564.69C345.38,-575.87 345.38,-588 345.38,-588 345.38,-588 330.04,-588 330.04,-588 330.04,-588 330.04,-525 330.04,-525 330.04,-525 353.39,-525 353.39,-525 353.39,-525 353.39,-526.17 353.39,-527.96"/>
</g>
<!-- https&#45;&gt;https -->
<g id="edge20" class="edge">
<title>https://w3id.org/catenax/ontology/core#takesPlaceAt&#45;&gt;https://w3id.org/catenax/ontology/core#Place</title>
<path fill="none" stroke="black" stroke-width="0.3" d="M343.6,-564.68C343.6,-574.27 343.6,-584 343.6,-584 343.6,-584 335.04,-584 335.04,-584 335.04,-584 335.04,-526 335.04,-526 335.04,-526 351.48,-526 351.48,-526 351.48,-526 351.48,-526.19 351.48,-526.19"/>
<polygon fill="black" stroke="black" stroke-width="0.3" points="350.43,-524.42 351.48,-527.42 352.53,-524.42 350.43,-524.42"/>
</g>
<!-- https&#45;&gt;https -->
<g id="edge44" class="edge">
<title>https://w3id.org/catenax/ontology/vehicle#Part&#45;&gt;https://w3id.org/catenax/ontology/core#PhysicalObject</title>
<path fill="none" stroke="black" stroke-width="0.3" stroke-dasharray="5,2" d="M384.71,-564.72C384.71,-571.7 384.71,-578 384.71,-578 384.71,-578 404.62,-578 404.62,-578 404.62,-578 404.62,-517 404.62,-517 404.62,-517 385.78,-517 385.78,-517 385.78,-517 385.78,-524.44 385.78,-524.44"/>
<polygon fill="black" stroke="black" stroke-width="0.3" points="384.73,-524.44 385.78,-527.44 386.83,-524.44 384.73,-524.44"/>
</g>
<!-- https&#45;&gt;https -->
<g id="edge45" class="edge">
<title>https://w3id.org/catenax/ontology/vehicle#Vehicle&#45;&gt;https://w3id.org/catenax/ontology/core#PhysicalObject</title>
<path fill="none" stroke="black" stroke-width="0.3" stroke-dasharray="5,2" d="M391.71,-564.6C391.71,-566.64 391.71,-568 391.71,-568 391.71,-568 398.5,-568 398.5,-568 398.5,-568 398.5,-521 398.5,-521 398.5,-521 391.98,-521 391.98,-521 391.98,-521 391.98,-524.45 391.98,-524.45"/>
<polygon fill="black" stroke="black" stroke-width="0.3" points="390.93,-524.45 391.98,-527.45 393.03,-524.45 390.93,-524.45"/>
</g>
</g>
</svg>
