<?xml version="1.0" encoding="UTF-8" standalone="no"?>
<!DOCTYPE svg PUBLIC "-//W3C//DTD SVG 1.1//EN"
 "http://www.w3.org/Graphics/SVG/1.1/DTD/svg11.dtd">
<!-- Generated by graphviz version 9.0.0 (20230911.1827)
 -->
<!-- Title: reliability_ontology Pages: 1 -->
<svg width="1571pt" height="1665pt"
 viewBox="0.00 0.00 1570.62 1664.90" xmlns="http://www.w3.org/2000/svg" xmlns:xlink="http://www.w3.org/1999/xlink">
<g id="graph0" class="graph" transform="scale(1 1) rotate(0) translate(4 1660.9)">
<title>reliability_ontology</title>
<polygon fill="white" stroke="none" points="-4,4 -4,-1660.9 1566.62,-1660.9 1566.62,4 -4,4"/>
<!-- Activity -->
<g id="node1" class="node">
<title>Activity</title>
<polygon fill="#f2f2f2" stroke="black" points="827,-1134.71 827,-1192.71 1117.5,-1192.71 1117.5,-1134.71 827,-1134.71"/>
<text text-anchor="start" x="955" y="-1180.21" font-family="Helvetica,Arial,sans-serif" font-weight="bold" font-size="10.00">Activity</text>
<polyline fill="none" stroke="black" points="827,-1172.71 1117.5,-1172.71"/>
<text text-anchor="start" x="835" y="-1160.21" font-family="Helvetica,Arial,sans-serif" font-weight="bold" font-style="italic" font-size="10.00"> domain:core</text>
<text text-anchor="start" x="896.5" y="-1160.21" font-family="Helvetica,Arial,sans-serif" font-size="10.00"> </text>
<text text-anchor="start" x="835" y="-1150.21" font-family="Helvetica,Arial,sans-serif" font-size="10.00">https://w3id.org/catenax/ontology/core#endDateTime:dateTime</text>
<text text-anchor="start" x="835" y="-1140.21" font-family="Helvetica,Arial,sans-serif" font-size="10.00">https://w3id.org/catenax/ontology/core#startDateTime:dateTime</text>
</g>
<!-- hasParticipant -->
<g id="node19" class="node">
<title>hasParticipant</title>
<polygon fill="greenyellow" stroke="none" points="1082.48,-1470.16 870.73,-1470.16 870.73,-1451.66 1082.48,-1451.66 1082.48,-1470.16"/>
<text text-anchor="middle" x="976.61" y="-1458.56" font-family="Helvetica,Arial,sans-serif" font-size="8.00">https://w3id.org/catenax/ontology/core#hasParticipant</text>
</g>
<!-- Activity&#45;&gt;hasParticipant -->
<g id="edge3" class="edge">
<title>Activity&#45;&gt;hasParticipant</title>
<path fill="none" stroke="black" stroke-width="0.3" d="M920.82,-1193.02C920.82,-1258.19 920.82,-1412.44 920.82,-1451.69"/>
</g>
<!-- refersToConceptualObject -->
<g id="node23" class="node">
<title>refersToConceptualObject</title>
<polygon fill="greenyellow" stroke="none" points="1212.52,-889.49 956.52,-889.49 956.52,-870.99 1212.52,-870.99 1212.52,-889.49"/>
<text text-anchor="middle" x="1084.52" y="-877.89" font-family="Helvetica,Arial,sans-serif" font-size="8.00">https://w3id.org/catenax/ontology/core#refersToConceptualObject</text>
</g>
<!-- Activity&#45;&gt;refersToConceptualObject -->
<g id="edge13" class="edge">
<title>Activity&#45;&gt;refersToConceptualObject</title>
<path fill="none" stroke="black" stroke-width="0.3" d="M1117.62,-1140C1135.59,-1140 1147.8,-1140 1147.8,-1140 1147.8,-1140 1147.8,-935.76 1147.8,-889.48"/>
</g>
<!-- refersToPhysicalObject -->
<g id="node24" class="node">
<title>refersToPhysicalObject</title>
<polygon fill="greenyellow" stroke="none" points="1132.71,-925.41 887.21,-925.41 887.21,-906.91 1132.71,-906.91 1132.71,-925.41"/>
<text text-anchor="middle" x="1009.96" y="-913.81" font-family="Helvetica,Arial,sans-serif" font-size="8.00">https://w3id.org/catenax/ontology/core#refersToPhysicalObject</text>
</g>
<!-- Activity&#45;&gt;refersToPhysicalObject -->
<g id="edge15" class="edge">
<title>Activity&#45;&gt;refersToPhysicalObject</title>
<path fill="none" stroke="black" stroke-width="0.3" d="M1008.72,-1134.34C1008.72,-1078.25 1008.72,-958.46 1008.72,-925"/>
</g>
<!-- takesPlaceAt -->
<g id="node26" class="node">
<title>takesPlaceAt</title>
<polygon fill="greenyellow" stroke="none" points="1370.88,-1164.44 1162.88,-1164.44 1162.88,-1145.94 1370.88,-1145.94 1370.88,-1164.44"/>
<text text-anchor="middle" x="1266.88" y="-1152.84" font-family="Helvetica,Arial,sans-serif" font-size="8.00">https://w3id.org/catenax/ontology/core#takesPlaceAt</text>
</g>
<!-- Activity&#45;&gt;takesPlaceAt -->
<g id="edge19" class="edge">
<title>Activity&#45;&gt;takesPlaceAt</title>
<path fill="none" stroke="black" stroke-width="0.3" d="M1117.84,-1155C1133.07,-1155 1148.31,-1155 1162.93,-1155"/>
</g>
<!-- Actor -->
<g id="node2" class="node">
<title>Actor</title>
<polygon fill="#f2f2f2" stroke="black" points="1144.88,-1616.4 1144.88,-1656.4 1225.38,-1656.4 1225.38,-1616.4 1144.88,-1616.4"/>
<text text-anchor="start" x="1172.75" y="-1643.9" font-family="Helvetica,Arial,sans-serif" font-weight="bold" font-size="10.00">Actor</text>
<polyline fill="none" stroke="black" points="1144.88,-1636.4 1225.38,-1636.4"/>
<text text-anchor="start" x="1152.88" y="-1623.9" font-family="Helvetica,Arial,sans-serif" font-weight="bold" font-style="italic" font-size="10.00"> domain:core</text>
<text text-anchor="start" x="1214.38" y="-1623.9" font-family="Helvetica,Arial,sans-serif" font-size="10.00"> </text>
</g>
<!-- participatesIn -->
<g id="node22" class="node">
<title>participatesIn</title>
<polygon fill="greenyellow" stroke="none" points="1179.66,-1412.36 970.91,-1412.36 970.91,-1393.86 1179.66,-1393.86 1179.66,-1412.36"/>
<text text-anchor="middle" x="1075.29" y="-1400.76" font-family="Helvetica,Arial,sans-serif" font-size="8.00">https://w3id.org/catenax/ontology/core#participatesIn</text>
</g>
<!-- Actor&#45;&gt;participatesIn -->
<g id="edge11" class="edge">
<title>Actor&#45;&gt;participatesIn</title>
<path fill="none" stroke="black" stroke-width="0.3" d="M1168.07,-1616.11C1168.07,-1567.55 1168.07,-1446.19 1168.07,-1412.13"/>
</g>
<!-- relatedToPlace -->
<g id="node25" class="node">
<title>relatedToPlace</title>
<polygon fill="greenyellow" stroke="none" points="1562.62,-1637.7 1348.62,-1637.7 1348.62,-1619.2 1562.62,-1619.2 1562.62,-1637.7"/>
<text text-anchor="middle" x="1455.62" y="-1626.1" font-family="Helvetica,Arial,sans-serif" font-size="8.00">https://w3id.org/catenax/ontology/core#relatedToPlace</text>
</g>
<!-- Actor&#45;&gt;relatedToPlace -->
<g id="edge17" class="edge">
<title>Actor&#45;&gt;relatedToPlace</title>
<path fill="none" stroke="black" stroke-width="0.3" d="M1225.62,-1628C1258.19,-1628 1305.5,-1628 1348.75,-1628"/>
</g>
<!-- Address -->
<g id="node3" class="node">
<title>Address</title>
<polygon fill="#f2f2f2" stroke="black" points="1116,-620.5 1116,-660.5 1196.5,-660.5 1196.5,-620.5 1116,-620.5"/>
<text text-anchor="start" x="1137.5" y="-648" font-family="Helvetica,Arial,sans-serif" font-weight="bold" font-size="10.00">Address</text>
<polyline fill="none" stroke="black" points="1116,-640.5 1196.5,-640.5"/>
<text text-anchor="start" x="1124" y="-628" font-family="Helvetica,Arial,sans-serif" font-weight="bold" font-style="italic" font-size="10.00"> domain:core</text>
<text text-anchor="start" x="1185.5" y="-628" font-family="Helvetica,Arial,sans-serif" font-size="10.00"> </text>
</g>
<!-- ConceptualObject -->
<g id="node4" class="node">
<title>ConceptualObject</title>
<polygon fill="#f2f2f2" stroke="black" points="797.36,-715.38 797.36,-755.38 898.11,-755.38 898.11,-715.38 797.36,-715.38"/>
<text text-anchor="start" x="805.36" y="-742.88" font-family="Helvetica,Arial,sans-serif" font-weight="bold" font-size="10.00">ConceptualObject</text>
<polyline fill="none" stroke="black" points="797.36,-735.38 898.11,-735.38"/>
<text text-anchor="start" x="815.48" y="-722.88" font-family="Helvetica,Arial,sans-serif" font-weight="bold" font-style="italic" font-size="10.00"> domain:core</text>
<text text-anchor="start" x="876.98" y="-722.88" font-family="Helvetica,Arial,sans-serif" font-size="10.00"> </text>
</g>
<!-- describesPhysicalObject -->
<g id="node18" class="node">
<title>describesPhysicalObject</title>
<polygon fill="greenyellow" stroke="none" points="671.66,-852.68 390.16,-852.68 390.16,-823.68 671.66,-823.68 671.66,-852.68"/>
<text text-anchor="middle" x="530.91" y="-841.08" font-family="Helvetica,Arial,sans-serif" font-size="8.00">https://w3id.org/catenax/ontology/core#describesPhysicalObject / </text>
<text text-anchor="middle" x="530.91" y="-830.58" font-family="Helvetica,Arial,sans-serif" font-size="8.00">https://w3id.org/catenax/ontology/core#describedByConceptualObject ➝</text>
</g>
<!-- ConceptualObject&#45;&gt;describesPhysicalObject -->
<g id="edge1" class="edge">
<title>ConceptualObject&#45;&gt;describesPhysicalObject</title>
<path fill="none" stroke="black" stroke-width="0.3" d="M796.89,-735C734.74,-735 637.72,-735 637.72,-735 637.72,-735 637.72,-795.48 637.72,-823.83"/>
</g>
<!-- involvedIn -->
<g id="node21" class="node">
<title>involvedIn</title>
<polygon fill="greenyellow" stroke="none" points="899.94,-1019.74 703.19,-1019.74 703.19,-1001.24 899.94,-1001.24 899.94,-1019.74"/>
<text text-anchor="middle" x="801.56" y="-1008.14" font-family="Helvetica,Arial,sans-serif" font-size="8.00">https://w3id.org/catenax/ontology/core#involvedIn</text>
</g>
<!-- ConceptualObject&#45;&gt;involvedIn -->
<g id="edge7" class="edge">
<title>ConceptualObject&#45;&gt;involvedIn</title>
<path fill="none" stroke="black" stroke-width="0.3" d="M842.28,-755.61C842.28,-810.83 842.28,-962.6 842.28,-1001.38"/>
</g>
<!-- PhysicalObject -->
<g id="node5" class="node">
<title>PhysicalObject</title>
<polygon fill="#f2f2f2" stroke="black" points="448.65,-1104 448.65,-1144 535.15,-1144 535.15,-1104 448.65,-1104"/>
<text text-anchor="start" x="456.65" y="-1131.5" font-family="Helvetica,Arial,sans-serif" font-weight="bold" font-size="10.00">PhysicalObject</text>
<polyline fill="none" stroke="black" points="448.65,-1124 535.15,-1124"/>
<text text-anchor="start" x="459.65" y="-1111.5" font-family="Helvetica,Arial,sans-serif" font-weight="bold" font-style="italic" font-size="10.00"> domain:core</text>
<text text-anchor="start" x="521.15" y="-1111.5" font-family="Helvetica,Arial,sans-serif" font-size="10.00"> </text>
</g>
<!-- PhysicalObject&#45;&gt;involvedIn -->
<g id="edge9" class="edge">
<title>PhysicalObject&#45;&gt;involvedIn</title>
<path fill="none" stroke="black" stroke-width="0.3" d="M506.31,-1103.53C506.31,-1070.23 506.31,-1008 506.31,-1008 506.31,-1008 617.36,-1008 703.25,-1008"/>
</g>
<!-- Place -->
<g id="node6" class="node">
<title>Place</title>
<polygon fill="#f2f2f2" stroke="black" points="1407.79,-1337.67 1407.79,-1377.67 1488.29,-1377.67 1488.29,-1337.67 1407.79,-1337.67"/>
<text text-anchor="start" x="1434.54" y="-1365.17" font-family="Helvetica,Arial,sans-serif" font-weight="bold" font-size="10.00">Place</text>
<polyline fill="none" stroke="black" points="1407.79,-1357.67 1488.29,-1357.67"/>
<text text-anchor="start" x="1415.79" y="-1345.17" font-family="Helvetica,Arial,sans-serif" font-weight="bold" font-style="italic" font-size="10.00"> domain:core</text>
<text text-anchor="start" x="1477.29" y="-1345.17" font-family="Helvetica,Arial,sans-serif" font-size="10.00"> </text>
</g>
<!-- hosts -->
<g id="node20" class="node">
<title>hosts</title>
<polygon fill="greenyellow" stroke="none" points="1301.09,-1270.88 1120.09,-1270.88 1120.09,-1252.38 1301.09,-1252.38 1301.09,-1270.88"/>
<text text-anchor="middle" x="1210.59" y="-1259.28" font-family="Helvetica,Arial,sans-serif" font-size="8.00">https://w3id.org/catenax/ontology/core#hosts</text>
</g>
<!-- Place&#45;&gt;hosts -->
<g id="edge5" class="edge">
<title>Place&#45;&gt;hosts</title>
<path fill="none" stroke="black" stroke-width="0.3" d="M1448.04,-1337.64C1448.04,-1309.33 1448.04,-1261 1448.04,-1261 1448.04,-1261 1368.14,-1261 1301.04,-1261"/>
</g>
<!-- Analysis -->
<g id="node7" class="node">
<title>Analysis</title>
<polygon fill="#f2f2f2" stroke="black" points="593.75,-1046.6 593.75,-1114.6 738,-1114.6 738,-1046.6 593.75,-1046.6"/>
<text text-anchor="start" x="646.37" y="-1102.1" font-family="Helvetica,Arial,sans-serif" font-weight="bold" font-size="10.00">Analysis</text>
<polyline fill="none" stroke="black" points="593.75,-1094.6 738,-1094.6"/>
<text text-anchor="start" x="601.75" y="-1082.1" font-family="Helvetica,Arial,sans-serif" font-weight="bold" font-style="italic" font-size="10.00"> domain:reliability</text>
<text text-anchor="start" x="686.5" y="-1082.1" font-family="Helvetica,Arial,sans-serif" font-size="10.00"> </text>
<text text-anchor="start" x="601.75" y="-1072.1" font-family="Helvetica,Arial,sans-serif" font-size="10.00">mileageOfVehicle:integer</text>
<text text-anchor="start" x="601.75" y="-1062.1" font-family="Helvetica,Arial,sans-serif" font-size="10.00">operatingHoursOfPart:float</text>
<text text-anchor="start" x="601.75" y="-1052.1" font-family="Helvetica,Arial,sans-serif" font-size="10.00">operatingHoursOfVehicle:float</text>
</g>
<!-- Analysis&#45;&gt;Activity -->
<g id="edge35" class="edge">
<title>Analysis&#45;&gt;Activity</title>
<path fill="none" stroke="black" stroke-width="0.3" stroke-dasharray="5,2" d="M700.22,-1115.03C700.22,-1128.6 700.22,-1141 700.22,-1141 700.22,-1141 823.23,-1141 823.23,-1141"/>
<polygon fill="black" stroke="black" stroke-width="0.3" points="823.23,-1142.05 826.23,-1141 823.23,-1139.95 823.23,-1142.05"/>
</g>
<!-- analysedObject -->
<g id="node27" class="node">
<title>analysedObject</title>
<polygon fill="greenyellow" stroke="none" points="662.44,-1273.53 590.19,-1273.53 590.19,-1255.03 662.44,-1255.03 662.44,-1273.53"/>
<text text-anchor="middle" x="626.32" y="-1261.93" font-family="Helvetica,Arial,sans-serif" font-size="8.00">analysedObject</text>
</g>
<!-- Analysis&#45;&gt;analysedObject -->
<g id="edge21" class="edge">
<title>Analysis&#45;&gt;analysedObject</title>
<path fill="none" stroke="black" stroke-width="0.3" d="M645.27,-1114.72C645.27,-1158.08 645.27,-1230.33 645.27,-1255.39"/>
</g>
<!-- analysedPart -->
<g id="node28" class="node">
<title>analysedPart</title>
<polygon fill="greenyellow" stroke="none" points="627.29,-1397.15 564.04,-1397.15 564.04,-1378.65 627.29,-1378.65 627.29,-1397.15"/>
<text text-anchor="middle" x="595.66" y="-1385.55" font-family="Helvetica,Arial,sans-serif" font-size="8.00">analysedPart</text>
</g>
<!-- Analysis&#45;&gt;analysedPart -->
<g id="edge23" class="edge">
<title>Analysis&#45;&gt;analysedPart</title>
<path fill="none" stroke="black" stroke-width="0.3" d="M593.39,-1109C583.75,-1109 577.12,-1109 577.12,-1109 577.12,-1109 577.12,-1331.2 577.12,-1378.94"/>
</g>
<!-- analysedVehicle -->
<g id="node29" class="node">
<title>analysedVehicle</title>
<polygon fill="greenyellow" stroke="none" points="451.26,-1227.01 375.26,-1227.01 375.26,-1208.51 451.26,-1208.51 451.26,-1227.01"/>
<text text-anchor="middle" x="413.26" y="-1215.41" font-family="Helvetica,Arial,sans-serif" font-size="8.00">analysedVehicle</text>
</g>
<!-- Analysis&#45;&gt;analysedVehicle -->
<g id="edge25" class="edge">
<title>Analysis&#45;&gt;analysedVehicle</title>
<path fill="none" stroke="black" stroke-width="0.3" d="M610.92,-1115.02C610.92,-1155.43 610.92,-1217 610.92,-1217 610.92,-1217 508.25,-1217 450.9,-1217"/>
</g>
<!-- result -->
<g id="node32" class="node">
<title>result</title>
<polygon fill="greenyellow" stroke="none" points="680.09,-764.74 643.84,-764.74 643.84,-746.24 680.09,-746.24 680.09,-764.74"/>
<text text-anchor="middle" x="661.97" y="-753.14" font-family="Helvetica,Arial,sans-serif" font-size="8.00">result</text>
</g>
<!-- Analysis&#45;&gt;result -->
<g id="edge31" class="edge">
<title>Analysis&#45;&gt;result</title>
<path fill="none" stroke="black" stroke-width="0.3" d="M675.87,-1046.11C675.87,-972.9 675.87,-805.3 675.87,-764.54"/>
</g>
<!-- AnalysisResult -->
<g id="node8" class="node">
<title>AnalysisResult</title>
<polygon fill="#f2f2f2" stroke="black" points="695.66,-479.41 695.66,-519.41 799.41,-519.41 799.41,-479.41 695.66,-479.41"/>
<text text-anchor="start" x="713.41" y="-506.91" font-family="Helvetica,Arial,sans-serif" font-weight="bold" font-size="10.00">AnalysisResult</text>
<polyline fill="none" stroke="black" points="695.66,-499.41 799.41,-499.41"/>
<text text-anchor="start" x="703.66" y="-486.91" font-family="Helvetica,Arial,sans-serif" font-weight="bold" font-style="italic" font-size="10.00"> domain:reliability</text>
<text text-anchor="start" x="788.41" y="-486.91" font-family="Helvetica,Arial,sans-serif" font-size="10.00"> </text>
</g>
<!-- AnalysisResult&#45;&gt;ConceptualObject -->
<g id="edge36" class="edge">
<title>AnalysisResult&#45;&gt;ConceptualObject</title>
<path fill="none" stroke="black" stroke-width="0.3" stroke-dasharray="5,2" d="M750.27,-519.83C750.27,-575.36 750.27,-725 750.27,-725 750.27,-725 793.55,-725 793.55,-725"/>
<polygon fill="black" stroke="black" stroke-width="0.3" points="793.55,-726.05 796.55,-725 793.55,-723.95 793.55,-726.05"/>
</g>
<!-- LoadSpectrum -->
<g id="node9" class="node">
<title>LoadSpectrum</title>
<polygon fill="#f2f2f2" stroke="black" points="802.38,-189.6 802.38,-287.6 915.88,-287.6 915.88,-189.6 802.38,-189.6"/>
<text text-anchor="start" x="824.25" y="-275.1" font-family="Helvetica,Arial,sans-serif" font-weight="bold" font-size="10.00">LoadSpectrum</text>
<polyline fill="none" stroke="black" points="802.38,-267.6 915.88,-267.6"/>
<text text-anchor="start" x="810.38" y="-255.1" font-family="Helvetica,Arial,sans-serif" font-weight="bold" font-style="italic" font-size="10.00"> domain:reliability</text>
<text text-anchor="start" x="895.13" y="-255.1" font-family="Helvetica,Arial,sans-serif" font-size="10.00"> </text>
<text text-anchor="start" x="810.38" y="-245.1" font-family="Helvetica,Arial,sans-serif" font-size="10.00">datetime:dateTime</text>
<text text-anchor="start" x="810.38" y="-235.1" font-family="Helvetica,Arial,sans-serif" font-size="10.00">description:string</text>
<text text-anchor="start" x="810.38" y="-225.1" font-family="Helvetica,Arial,sans-serif" font-size="10.00">endDatetime:dateTime</text>
<text text-anchor="start" x="810.38" y="-215.1" font-family="Helvetica,Arial,sans-serif" font-size="10.00">id:string</text>
<text text-anchor="start" x="810.38" y="-205.1" font-family="Helvetica,Arial,sans-serif" font-size="10.00">name:string</text>
<text text-anchor="start" x="810.38" y="-195.1" font-family="Helvetica,Arial,sans-serif" font-size="10.00">type:string</text>
</g>
<!-- LoadSpectrum&#45;&gt;AnalysisResult -->
<g id="edge37" class="edge">
<title>LoadSpectrum&#45;&gt;AnalysisResult</title>
<path fill="none" stroke="black" stroke-width="0.3" stroke-dasharray="5,2" d="M850.24,-287.88C850.24,-363.38 850.24,-499 850.24,-499 850.24,-499 803.24,-499 803.24,-499"/>
<polygon fill="black" stroke="black" stroke-width="0.3" points="803.24,-497.95 800.24,-499 803.24,-500.05 803.24,-497.95"/>
</g>
<!-- channel -->
<g id="node30" class="node">
<title>channel</title>
<polygon fill="greenyellow" stroke="none" points="631.59,-60.77 587.09,-60.77 587.09,-42.27 631.59,-42.27 631.59,-60.77"/>
<text text-anchor="middle" x="609.34" y="-49.17" font-family="Helvetica,Arial,sans-serif" font-size="8.00">channel</text>
</g>
<!-- LoadSpectrum&#45;&gt;channel -->
<g id="edge27" class="edge">
<title>LoadSpectrum&#45;&gt;channel</title>
<path fill="none" stroke="black" stroke-width="0.3" d="M814.21,-189.31C814.21,-133.73 814.21,-51 814.21,-51 814.21,-51 684.12,-51 631.27,-51"/>
</g>
<!-- class -->
<g id="node31" class="node">
<title>class</title>
<polygon fill="greenyellow" stroke="none" points="1132.44,-160.31 1096.94,-160.31 1096.94,-141.81 1132.44,-141.81 1132.44,-160.31"/>
<text text-anchor="middle" x="1114.69" y="-148.71" font-family="Helvetica,Arial,sans-serif" font-size="8.00">class</text>
</g>
<!-- LoadSpectrum&#45;&gt;class -->
<g id="edge29" class="edge">
<title>LoadSpectrum&#45;&gt;class</title>
<path fill="none" stroke="black" stroke-width="0.3" d="M898.46,-189.17C898.46,-169.3 898.46,-151 898.46,-151 898.46,-151 1045.35,-151 1096.99,-151"/>
</g>
<!-- hasValues -->
<g id="node33" class="node">
<title>hasValues</title>
<polygon fill="greenyellow" stroke="none" points="881.03,-18.5 826.03,-18.5 826.03,0 881.03,0 881.03,-18.5"/>
<text text-anchor="middle" x="853.53" y="-6.9" font-family="Helvetica,Arial,sans-serif" font-size="8.00">hasValues</text>
</g>
<!-- LoadSpectrum&#45;&gt;hasValues -->
<g id="edge33" class="edge">
<title>LoadSpectrum&#45;&gt;hasValues</title>
<path fill="none" stroke="black" stroke-width="0.3" d="M853.53,-189.12C853.53,-133.28 853.53,-46.57 853.53,-18.42"/>
</g>
<!-- LoadSpectrumAnalysis -->
<g id="node10" class="node">
<title>LoadSpectrumAnalysis</title>
<polygon fill="#f2f2f2" stroke="black" points="0,-985.73 0,-1025.73 124.75,-1025.73 124.75,-985.73 0,-985.73"/>
<text text-anchor="start" x="8" y="-1013.23" font-family="Helvetica,Arial,sans-serif" font-weight="bold" font-size="10.00">LoadSpectrumAnalysis</text>
<polyline fill="none" stroke="black" points="0,-1005.73 124.75,-1005.73"/>
<text text-anchor="start" x="18.5" y="-993.23" font-family="Helvetica,Arial,sans-serif" font-weight="bold" font-style="italic" font-size="10.00"> domain:reliability</text>
<text text-anchor="start" x="103.25" y="-993.23" font-family="Helvetica,Arial,sans-serif" font-size="10.00"> </text>
</g>
<!-- OnBoardTelematics -->
<g id="node14" class="node">
<title>OnBoardTelematics</title>
<polygon fill="#f2f2f2" stroke="black" points="298.31,-975.19 298.31,-1015.19 408.06,-1015.19 408.06,-975.19 298.31,-975.19"/>
<text text-anchor="start" x="306.31" y="-1002.69" font-family="Helvetica,Arial,sans-serif" font-weight="bold" font-size="10.00">OnBoardTelematics</text>
<polyline fill="none" stroke="black" points="298.31,-995.19 408.06,-995.19"/>
<text text-anchor="start" x="309.31" y="-982.69" font-family="Helvetica,Arial,sans-serif" font-weight="bold" font-style="italic" font-size="10.00"> domain:reliability</text>
<text text-anchor="start" x="394.06" y="-982.69" font-family="Helvetica,Arial,sans-serif" font-size="10.00"> </text>
</g>
<!-- LoadSpectrumAnalysis&#45;&gt;OnBoardTelematics -->
<g id="edge42" class="edge">
<title>LoadSpectrumAnalysis&#45;&gt;OnBoardTelematics</title>
<path fill="none" stroke="black" stroke-width="0.3" stroke-dasharray="5,2" d="M125.12,-1000C125.12,-1000 294.45,-1000 294.45,-1000"/>
<polygon fill="black" stroke="black" stroke-width="0.3" points="294.45,-1001.05 297.45,-1000 294.45,-998.95 294.45,-1001.05"/>
</g>
<!-- LoadSpectrumChannel -->
<g id="node11" class="node">
<title>LoadSpectrumChannel</title>
<polygon fill="#f2f2f2" stroke="black" points="480.8,-252.83 480.8,-350.83 606.3,-350.83 606.3,-252.83 480.8,-252.83"/>
<text text-anchor="start" x="488.8" y="-338.33" font-family="Helvetica,Arial,sans-serif" font-weight="bold" font-size="10.00">LoadSpectrumChannel</text>
<polyline fill="none" stroke="black" points="480.8,-330.83 606.3,-330.83"/>
<text text-anchor="start" x="496.68" y="-318.33" font-family="Helvetica,Arial,sans-serif" font-weight="bold" font-style="italic" font-size="10.00"> domain:reliability</text>
<text text-anchor="start" x="581.43" y="-318.33" font-family="Helvetica,Arial,sans-serif" font-size="10.00"> </text>
<text text-anchor="start" x="496.68" y="-308.33" font-family="Helvetica,Arial,sans-serif" font-size="10.00">lowerLimit:float</text>
<text text-anchor="start" x="496.68" y="-298.33" font-family="Helvetica,Arial,sans-serif" font-size="10.00">name:string</text>
<text text-anchor="start" x="496.68" y="-288.33" font-family="Helvetica,Arial,sans-serif" font-size="10.00">numberOfBins:integer</text>
<text text-anchor="start" x="496.68" y="-278.33" font-family="Helvetica,Arial,sans-serif" font-size="10.00">type:string</text>
<text text-anchor="start" x="496.68" y="-268.33" font-family="Helvetica,Arial,sans-serif" font-size="10.00">unit:string</text>
<text text-anchor="start" x="496.68" y="-258.33" font-family="Helvetica,Arial,sans-serif" font-size="10.00">upperLimit:float</text>
</g>
<!-- LoadSpectrumChannel&#45;&gt;AnalysisResult -->
<g id="edge38" class="edge">
<title>LoadSpectrumChannel&#45;&gt;AnalysisResult</title>
<path fill="none" stroke="black" stroke-width="0.3" stroke-dasharray="5,2" d="M559.12,-351.33C559.12,-409.74 559.12,-499 559.12,-499 559.12,-499 691.84,-499 691.84,-499"/>
<polygon fill="black" stroke="black" stroke-width="0.3" points="691.84,-500.05 694.84,-499 691.84,-497.95 691.84,-500.05"/>
</g>
<!-- LoadSpectrumClass -->
<g id="node12" class="node">
<title>LoadSpectrumClass</title>
<polygon fill="#f2f2f2" stroke="black" points="968.61,-372.12 968.61,-412.12 1079.11,-412.12 1079.11,-372.12 968.61,-372.12"/>
<text text-anchor="start" x="976.61" y="-399.62" font-family="Helvetica,Arial,sans-serif" font-weight="bold" font-size="10.00">LoadSpectrumClass</text>
<polyline fill="none" stroke="black" points="968.61,-392.12 1079.11,-392.12"/>
<text text-anchor="start" x="979.98" y="-379.62" font-family="Helvetica,Arial,sans-serif" font-weight="bold" font-style="italic" font-size="10.00"> domain:reliability</text>
<text text-anchor="start" x="1064.73" y="-379.62" font-family="Helvetica,Arial,sans-serif" font-size="10.00"> </text>
</g>
<!-- LoadSpectrumClass&#45;&gt;AnalysisResult -->
<g id="edge39" class="edge">
<title>LoadSpectrumClass&#45;&gt;AnalysisResult</title>
<path fill="none" stroke="black" stroke-width="0.3" stroke-dasharray="5,2" d="M968.39,-392C893.61,-392 769.7,-392 769.7,-392 769.7,-392 769.7,-475.5 769.7,-475.5"/>
<polygon fill="black" stroke="black" stroke-width="0.3" points="768.65,-475.5 769.7,-478.5 770.75,-475.5 768.65,-475.5"/>
</g>
<!-- LoadSpectrumValues -->
<g id="node13" class="node">
<title>LoadSpectrumValues</title>
<polygon fill="#f2f2f2" stroke="black" points="676.38,-231.01 676.38,-309.01 794.38,-309.01 794.38,-231.01 676.38,-231.01"/>
<text text-anchor="start" x="684.38" y="-296.51" font-family="Helvetica,Arial,sans-serif" font-weight="bold" font-size="10.00">LoadSpectrumValues</text>
<polyline fill="none" stroke="black" points="676.38,-289.01 794.38,-289.01"/>
<text text-anchor="start" x="687.38" y="-276.51" font-family="Helvetica,Arial,sans-serif" font-weight="bold" font-style="italic" font-size="10.00"> domain:reliability</text>
<text text-anchor="start" x="772.13" y="-276.51" font-family="Helvetica,Arial,sans-serif" font-size="10.00"> </text>
<text text-anchor="start" x="687.38" y="-266.51" font-family="Helvetica,Arial,sans-serif" font-size="10.00">countingValue:string</text>
<text text-anchor="start" x="687.38" y="-256.51" font-family="Helvetica,Arial,sans-serif" font-size="10.00">countingMethod:string</text>
<text text-anchor="start" x="687.38" y="-246.51" font-family="Helvetica,Arial,sans-serif" font-size="10.00">countingUnit:string</text>
<text text-anchor="start" x="687.38" y="-236.51" font-family="Helvetica,Arial,sans-serif" font-size="10.00">index:string</text>
</g>
<!-- LoadSpectrumValues&#45;&gt;AnalysisResult -->
<g id="edge40" class="edge">
<title>LoadSpectrumValues&#45;&gt;AnalysisResult</title>
<path fill="none" stroke="black" stroke-width="0.3" stroke-dasharray="5,2" d="M745.02,-309.44C745.02,-309.44 745.02,-475.5 745.02,-475.5"/>
<polygon fill="black" stroke="black" stroke-width="0.3" points="743.97,-475.5 745.02,-478.5 746.07,-475.5 743.97,-475.5"/>
</g>
<!-- OnBoardTelematics&#45;&gt;Analysis -->
<g id="edge43" class="edge">
<title>OnBoardTelematics&#45;&gt;Analysis</title>
<path fill="none" stroke="black" stroke-width="0.3" stroke-dasharray="5,2" d="M391.66,-1015.48C391.66,-1038.83 391.66,-1074 391.66,-1074 391.66,-1074 590.01,-1074 590.01,-1074"/>
<polygon fill="black" stroke="black" stroke-width="0.3" points="590.01,-1075.05 593.01,-1074 590.01,-1072.95 590.01,-1075.05"/>
</g>
<!-- TelematicsResult -->
<g id="node15" class="node">
<title>TelematicsResult</title>
<polygon fill="#f2f2f2" stroke="black" points="408.18,-416.52 408.18,-456.52 511.93,-456.52 511.93,-416.52 408.18,-416.52"/>
<text text-anchor="start" x="419.55" y="-444.02" font-family="Helvetica,Arial,sans-serif" font-weight="bold" font-size="10.00">TelematicsResult</text>
<polyline fill="none" stroke="black" points="408.18,-436.52 511.93,-436.52"/>
<text text-anchor="start" x="416.18" y="-424.02" font-family="Helvetica,Arial,sans-serif" font-weight="bold" font-style="italic" font-size="10.00"> domain:reliability</text>
<text text-anchor="start" x="500.93" y="-424.02" font-family="Helvetica,Arial,sans-serif" font-size="10.00"> </text>
</g>
<!-- TelematicsResult&#45;&gt;AnalysisResult -->
<g id="edge41" class="edge">
<title>TelematicsResult&#45;&gt;AnalysisResult</title>
<path fill="none" stroke="black" stroke-width="0.3" stroke-dasharray="5,2" d="M512.41,-436C588.42,-436 720.34,-436 720.34,-436 720.34,-436 720.34,-475.54 720.34,-475.54"/>
<polygon fill="black" stroke="black" stroke-width="0.3" points="719.29,-475.54 720.34,-478.54 721.39,-475.54 719.29,-475.54"/>
</g>
<!-- Part -->
<g id="node16" class="node">
<title>Part</title>
<polygon fill="#f2f2f2" stroke="black" points="334.67,-1410.9 334.67,-1450.9 427.92,-1450.9 427.92,-1410.9 334.67,-1410.9"/>
<text text-anchor="start" x="371.55" y="-1438.4" font-family="Helvetica,Arial,sans-serif" font-weight="bold" font-size="10.00">Part</text>
<polyline fill="none" stroke="black" points="334.67,-1430.9 427.92,-1430.9"/>
<text text-anchor="start" x="342.67" y="-1418.4" font-family="Helvetica,Arial,sans-serif" font-weight="bold" font-style="italic" font-size="10.00"> domain:vehicle</text>
<text text-anchor="start" x="416.92" y="-1418.4" font-family="Helvetica,Arial,sans-serif" font-size="10.00"> </text>
</g>
<!-- Part&#45;&gt;PhysicalObject -->
<g id="edge44" class="edge">
<title>Part&#45;&gt;PhysicalObject</title>
<path fill="none" stroke="black" stroke-width="0.3" stroke-dasharray="5,2" d="M428.11,-1431C458.77,-1431 493.2,-1431 493.2,-1431 493.2,-1431 493.2,-1147.6 493.2,-1147.6"/>
<polygon fill="black" stroke="black" stroke-width="0.3" points="494.25,-1147.6 493.2,-1144.6 492.15,-1147.6 494.25,-1147.6"/>
</g>
<!-- Vehicle -->
<g id="node17" class="node">
<title>Vehicle</title>
<polygon fill="#f2f2f2" stroke="black" points="168.69,-1213.99 168.69,-1253.99 261.94,-1253.99 261.94,-1213.99 168.69,-1213.99"/>
<text text-anchor="start" x="197.32" y="-1241.49" font-family="Helvetica,Arial,sans-serif" font-weight="bold" font-size="10.00">Vehicle</text>
<polyline fill="none" stroke="black" points="168.69,-1233.99 261.94,-1233.99"/>
<text text-anchor="start" x="176.69" y="-1221.49" font-family="Helvetica,Arial,sans-serif" font-weight="bold" font-style="italic" font-size="10.00"> domain:vehicle</text>
<text text-anchor="start" x="250.94" y="-1221.49" font-family="Helvetica,Arial,sans-serif" font-size="10.00"> </text>
</g>
<!-- Vehicle&#45;&gt;PhysicalObject -->
<g id="edge45" class="edge">
<title>Vehicle&#45;&gt;PhysicalObject</title>
<path fill="none" stroke="black" stroke-width="0.3" stroke-dasharray="5,2" d="M215.32,-1213.56C215.32,-1181.75 215.32,-1124 215.32,-1124 215.32,-1124 444.92,-1124 444.92,-1124"/>
<polygon fill="black" stroke="black" stroke-width="0.3" points="444.92,-1125.05 447.92,-1124 444.92,-1122.95 444.92,-1125.05"/>
</g>
<!-- describesPhysicalObject&#45;&gt;PhysicalObject -->
<g id="edge2" class="edge">
<title>describesPhysicalObject&#45;&gt;PhysicalObject</title>
<path fill="none" stroke="black" stroke-width="0.3" d="M477.48,-852.35C477.48,-852.35 477.48,-1100.42 477.48,-1100.42"/>
<polygon fill="black" stroke="black" stroke-width="0.3" points="476.43,-1100.42 477.48,-1103.42 478.53,-1100.42 476.43,-1100.42"/>
</g>
<!-- hasParticipant&#45;&gt;Actor -->
<g id="edge4" class="edge">
<title>hasParticipant&#45;&gt;Actor</title>
<path fill="none" stroke="black" stroke-width="0.3" d="M1082.28,-1460C1121.43,-1460 1156.47,-1460 1156.47,-1460 1156.47,-1460 1156.47,-1612.71 1156.47,-1612.71"/>
<polygon fill="black" stroke="black" stroke-width="0.3" points="1155.42,-1612.71 1156.47,-1615.71 1157.52,-1612.71 1155.42,-1612.71"/>
</g>
<!-- hosts&#45;&gt;Activity -->
<g id="edge6" class="edge">
<title>hosts&#45;&gt;Activity</title>
<path fill="none" stroke="black" stroke-width="0.3" d="M1126.4,-1252.68C1126.4,-1231.11 1126.4,-1178 1126.4,-1178 1126.4,-1178 1121.12,-1178 1121.12,-1178"/>
<polygon fill="black" stroke="black" stroke-width="0.3" points="1121.12,-1176.95 1118.12,-1178 1121.12,-1179.05 1121.12,-1176.95"/>
</g>
<!-- involvedIn&#45;&gt;Activity -->
<g id="edge8" class="edge">
<title>involvedIn&#45;&gt;Activity</title>
<path fill="none" stroke="black" stroke-width="0.3" d="M851.32,-1019.62C851.32,-1019.62 851.32,-1131.05 851.32,-1131.05"/>
<polygon fill="black" stroke="black" stroke-width="0.3" points="850.27,-1131.05 851.32,-1134.05 852.37,-1131.06 850.27,-1131.05"/>
</g>
<!-- involvedIn&#45;&gt;Activity -->
<g id="edge10" class="edge">
<title>involvedIn&#45;&gt;Activity</title>
<path fill="none" stroke="black" stroke-width="0.3" d="M875.63,-1019.62C875.63,-1019.62 875.63,-1131.05 875.63,-1131.05"/>
<polygon fill="black" stroke="black" stroke-width="0.3" points="874.58,-1131.05 875.63,-1134.05 876.68,-1131.06 874.58,-1131.05"/>
</g>
<!-- participatesIn&#45;&gt;Activity -->
<g id="edge12" class="edge">
<title>participatesIn&#45;&gt;Activity</title>
<path fill="none" stroke="black" stroke-width="0.3" d="M1044.21,-1394.01C1044.21,-1394.01 1044.21,-1196.58 1044.21,-1196.58"/>
<polygon fill="black" stroke="black" stroke-width="0.3" points="1045.26,-1196.58 1044.21,-1193.58 1043.16,-1196.58 1045.26,-1196.58"/>
</g>
<!-- refersToConceptualObject&#45;&gt;ConceptualObject -->
<g id="edge14" class="edge">
<title>refersToConceptualObject&#45;&gt;ConceptualObject</title>
<path fill="none" stroke="black" stroke-width="0.3" d="M956.7,-880C922.32,-880 894.47,-880 894.47,-880 894.47,-880 894.47,-759.25 894.47,-759.25"/>
<polygon fill="black" stroke="black" stroke-width="0.3" points="895.52,-759.25 894.47,-756.25 893.42,-759.25 895.52,-759.25"/>
</g>
<!-- refersToPhysicalObject&#45;&gt;ConceptualObject -->
<g id="edge16" class="edge">
<title>refersToPhysicalObject&#45;&gt;ConceptualObject</title>
<path fill="none" stroke="black" stroke-width="0.3" d="M890.84,-906.95C890.84,-906.95 890.84,-759.24 890.84,-759.24"/>
<polygon fill="black" stroke="black" stroke-width="0.3" points="891.89,-759.24 890.84,-756.24 889.79,-759.24 891.89,-759.24"/>
</g>
<!-- relatedToPlace&#45;&gt;Place -->
<g id="edge18" class="edge">
<title>relatedToPlace&#45;&gt;Place</title>
<path fill="none" stroke="black" stroke-width="0.3" d="M1448.04,-1619.44C1448.04,-1619.44 1448.04,-1381.26 1448.04,-1381.26"/>
<polygon fill="black" stroke="black" stroke-width="0.3" points="1449.09,-1381.26 1448.04,-1378.26 1446.99,-1381.26 1449.09,-1381.26"/>
</g>
<!-- takesPlaceAt&#45;&gt;Place -->
<g id="edge20" class="edge">
<title>takesPlaceAt&#45;&gt;Place</title>
<path fill="none" stroke="black" stroke-width="0.3" d="M1359.75,-1164.39C1359.75,-1203.87 1359.75,-1357 1359.75,-1357 1359.75,-1357 1404.06,-1357 1404.06,-1357"/>
<polygon fill="black" stroke="black" stroke-width="0.3" points="1404.06,-1358.05 1407.06,-1357 1404.06,-1355.95 1404.06,-1358.05"/>
</g>
<!-- analysedObject&#45;&gt;PhysicalObject -->
<g id="edge22" class="edge">
<title>analysedObject&#45;&gt;PhysicalObject</title>
<path fill="none" stroke="black" stroke-width="0.3" d="M628.09,-1255.13C628.09,-1225.94 628.09,-1137 628.09,-1137 628.09,-1137 538.82,-1137 538.82,-1137"/>
<polygon fill="black" stroke="black" stroke-width="0.3" points="538.82,-1135.95 535.82,-1137 538.82,-1138.05 538.82,-1135.95"/>
</g>
<!-- analysedPart&#45;&gt;Part -->
<g id="edge24" class="edge">
<title>analysedPart&#45;&gt;Part</title>
<path fill="none" stroke="black" stroke-width="0.3" d="M564.05,-1387C509.06,-1387 401.59,-1387 401.59,-1387 401.59,-1387 401.59,-1407.04 401.59,-1407.04"/>
<polygon fill="black" stroke="black" stroke-width="0.3" points="400.54,-1407.04 401.59,-1410.04 402.64,-1407.04 400.54,-1407.04"/>
</g>
<!-- analysedVehicle&#45;&gt;Vehicle -->
<g id="edge26" class="edge">
<title>analysedVehicle&#45;&gt;Vehicle</title>
<path fill="none" stroke="black" stroke-width="0.3" d="M375.56,-1220C375.56,-1220 265.76,-1220 265.76,-1220"/>
<polygon fill="black" stroke="black" stroke-width="0.3" points="265.76,-1218.95 262.76,-1220 265.76,-1221.05 265.76,-1218.95"/>
</g>
<!-- channel&#45;&gt;LoadSpectrumChannel -->
<g id="edge28" class="edge">
<title>channel&#45;&gt;LoadSpectrumChannel</title>
<path fill="none" stroke="black" stroke-width="0.3" d="M596.7,-60.72C596.7,-60.72 596.7,-248.93 596.7,-248.93"/>
<polygon fill="black" stroke="black" stroke-width="0.3" points="595.65,-248.93 596.7,-251.93 597.75,-248.93 595.65,-248.93"/>
</g>
<!-- class&#45;&gt;LoadSpectrumClass -->
<g id="edge30" class="edge">
<title>class&#45;&gt;LoadSpectrumClass</title>
<path fill="none" stroke="black" stroke-width="0.3" d="M1114.69,-160.21C1114.69,-204.22 1114.69,-392 1114.69,-392 1114.69,-392 1083.02,-392 1083.02,-392"/>
<polygon fill="black" stroke="black" stroke-width="0.3" points="1083.02,-390.95 1080.02,-392 1083.02,-393.05 1083.02,-390.95"/>
</g>
<!-- result&#45;&gt;AnalysisResult -->
<g id="edge32" class="edge">
<title>result&#45;&gt;AnalysisResult</title>
<path fill="none" stroke="black" stroke-width="0.3" d="M679.82,-751C689.46,-751 699.42,-751 699.42,-751 699.42,-751 699.42,-523.03 699.42,-523.03"/>
<polygon fill="black" stroke="black" stroke-width="0.3" points="700.47,-523.03 699.42,-520.03 698.37,-523.03 700.47,-523.03"/>
</g>
<!-- hasValues&#45;&gt;LoadSpectrumValues -->
<g id="edge34" class="edge">
<title>hasValues&#45;&gt;LoadSpectrumValues</title>
<path fill="none" stroke="black" stroke-width="0.3" d="M826.13,-9C791.23,-9 735.38,-9 735.38,-9 735.38,-9 735.38,-227.2 735.38,-227.2"/>
<polygon fill="black" stroke="black" stroke-width="0.3" points="734.33,-227.2 735.38,-230.2 736.43,-227.2 734.33,-227.2"/>
</g>
</g>
</svg>
