<?xml version="1.0" encoding="UTF-8" standalone="no"?>
<!DOCTYPE svg PUBLIC "-//W3C//DTD SVG 1.1//EN"
 "http://www.w3.org/Graphics/SVG/1.1/DTD/svg11.dtd">
<!-- Generated by graphviz version 9.0.0 (20230911.1827)
 -->
<!-- Title: reliability_ontology Pages: 1 -->
<svg width="1056pt" height="1079pt"
 viewBox="0.00 0.00 1055.80 1079.16" xmlns="http://www.w3.org/2000/svg" xmlns:xlink="http://www.w3.org/1999/xlink">
<g id="graph0" class="graph" transform="scale(1 1) rotate(0) translate(4 1075.16)">
<title>reliability_ontology</title>
<polygon fill="white" stroke="none" points="-4,4 -4,-1075.16 1051.8,-1075.16 1051.8,4 -4,4"/>
<!-- Activity -->
<g id="node1" class="node">
<title>Activity</title>
<polygon fill="#ffb90f" stroke="black" points="425.01,-768.33 425.01,-808.33 505.51,-808.33 505.51,-768.33 425.01,-768.33"/>
<text text-anchor="start" x="448.01" y="-795.83" font-family="Helvetica,Arial,sans-serif" font-weight="bold" font-size="10.00">Activity</text>
<polyline fill="none" stroke="black" points="425.01,-788.33 505.51,-788.33"/>
<text text-anchor="start" x="433.01" y="-775.83" font-family="Helvetica,Arial,sans-serif" font-weight="bold" font-style="italic" font-size="10.00"> domain:core</text>
<text text-anchor="start" x="494.51" y="-775.83" font-family="Helvetica,Arial,sans-serif" font-size="10.00"> </text>
</g>
<!-- Actor -->
<g id="node2" class="node">
<title>Actor</title>
<polygon fill="#ffb90f" stroke="black" points="322.99,-1013.81 322.99,-1053.81 403.49,-1053.81 403.49,-1013.81 322.99,-1013.81"/>
<text text-anchor="start" x="350.87" y="-1041.31" font-family="Helvetica,Arial,sans-serif" font-weight="bold" font-size="10.00">Actor</text>
<polyline fill="none" stroke="black" points="322.99,-1033.81 403.49,-1033.81"/>
<text text-anchor="start" x="330.99" y="-1021.31" font-family="Helvetica,Arial,sans-serif" font-weight="bold" font-style="italic" font-size="10.00"> domain:core</text>
<text text-anchor="start" x="392.49" y="-1021.31" font-family="Helvetica,Arial,sans-serif" font-size="10.00"> </text>
</g>
<!-- PhysicalObject -->
<g id="node3" class="node">
<title>PhysicalObject</title>
<polygon fill="#ffb90f" stroke="black" points="961.3,-637.51 961.3,-677.51 1047.8,-677.51 1047.8,-637.51 961.3,-637.51"/>
<text text-anchor="start" x="969.3" y="-665.01" font-family="Helvetica,Arial,sans-serif" font-weight="bold" font-size="10.00">PhysicalObject</text>
<polyline fill="none" stroke="black" points="961.3,-657.51 1047.8,-657.51"/>
<text text-anchor="start" x="972.3" y="-645.01" font-family="Helvetica,Arial,sans-serif" font-weight="bold" font-style="italic" font-size="10.00"> domain:core</text>
<text text-anchor="start" x="1033.8" y="-645.01" font-family="Helvetica,Arial,sans-serif" font-size="10.00"> </text>
</g>
<!-- ConceptualObject -->
<g id="node4" class="node">
<title>ConceptualObject</title>
<polygon fill="#ffb90f" stroke="black" points="194.37,-435.38 194.37,-475.38 295.12,-475.38 295.12,-435.38 194.37,-435.38"/>
<text text-anchor="start" x="202.37" y="-462.88" font-family="Helvetica,Arial,sans-serif" font-weight="bold" font-size="10.00">ConceptualObject</text>
<polyline fill="none" stroke="black" points="194.37,-455.38 295.12,-455.38"/>
<text text-anchor="start" x="212.49" y="-442.88" font-family="Helvetica,Arial,sans-serif" font-weight="bold" font-style="italic" font-size="10.00"> domain:core</text>
<text text-anchor="start" x="273.99" y="-442.88" font-family="Helvetica,Arial,sans-serif" font-size="10.00"> </text>
</g>
<!-- Part -->
<g id="node5" class="node">
<title>Part</title>
<polygon fill="#ffb90f" stroke="black" points="927.57,-361.92 927.57,-401.92 1020.82,-401.92 1020.82,-361.92 927.57,-361.92"/>
<text text-anchor="start" x="964.45" y="-389.42" font-family="Helvetica,Arial,sans-serif" font-weight="bold" font-size="10.00">Part</text>
<polyline fill="none" stroke="black" points="927.57,-381.92 1020.82,-381.92"/>
<text text-anchor="start" x="935.57" y="-369.42" font-family="Helvetica,Arial,sans-serif" font-weight="bold" font-style="italic" font-size="10.00"> domain:vehicle</text>
<text text-anchor="start" x="1009.82" y="-369.42" font-family="Helvetica,Arial,sans-serif" font-size="10.00"> </text>
</g>
<!-- Vehicle -->
<g id="node6" class="node">
<title>Vehicle</title>
<polygon fill="#ffb90f" stroke="black" points="903.32,-989.99 903.32,-1029.99 996.57,-1029.99 996.57,-989.99 903.32,-989.99"/>
<text text-anchor="start" x="931.95" y="-1017.49" font-family="Helvetica,Arial,sans-serif" font-weight="bold" font-size="10.00">Vehicle</text>
<polyline fill="none" stroke="black" points="903.32,-1009.99 996.57,-1009.99"/>
<text text-anchor="start" x="911.32" y="-997.49" font-family="Helvetica,Arial,sans-serif" font-weight="bold" font-style="italic" font-size="10.00"> domain:vehicle</text>
<text text-anchor="start" x="985.57" y="-997.49" font-family="Helvetica,Arial,sans-serif" font-size="10.00"> </text>
</g>
<!-- Analysis -->
<g id="node7" class="node">
<title>Analysis</title>
<polygon fill="#ffb90f" stroke="black" points="518.24,-521.23 518.24,-589.23 662.49,-589.23 662.49,-521.23 518.24,-521.23"/>
<text text-anchor="start" x="570.86" y="-576.73" font-family="Helvetica,Arial,sans-serif" font-weight="bold" font-size="10.00">Analysis</text>
<polyline fill="none" stroke="black" points="518.24,-569.23 662.49,-569.23"/>
<text text-anchor="start" x="526.24" y="-556.73" font-family="Helvetica,Arial,sans-serif" font-weight="bold" font-style="italic" font-size="10.00"> domain:reliability</text>
<text text-anchor="start" x="610.99" y="-556.73" font-family="Helvetica,Arial,sans-serif" font-size="10.00"> </text>
<text text-anchor="start" x="526.24" y="-546.73" font-family="Helvetica,Arial,sans-serif" font-size="10.00">mileageOfVehicle:integer</text>
<text text-anchor="start" x="526.24" y="-536.73" font-family="Helvetica,Arial,sans-serif" font-size="10.00">operatingHoursOfPart:float</text>
<text text-anchor="start" x="526.24" y="-526.73" font-family="Helvetica,Arial,sans-serif" font-size="10.00">operatingHoursOfVehicle:float</text>
</g>
<!-- Analysis&#45;&gt;Activity -->
<g id="edge23" class="edge">
<title>Analysis&#45;&gt;Activity</title>
<path fill="none" stroke="black" stroke-width="0.3" stroke-dasharray="5,2" d="M535.9,-589.26C535.9,-650.51 535.9,-773 535.9,-773 535.9,-773 509.4,-773 509.4,-773"/>
<polygon fill="black" stroke="black" stroke-width="0.3" points="509.4,-771.95 506.4,-773 509.4,-774.05 509.4,-771.95"/>
</g>
<!-- analysedObject -->
<g id="node19" class="node">
<title>analysedObject</title>
<polygon fill="#bcee68" stroke="none" points="820.92,-573.3 748.67,-573.3 748.67,-554.8 820.92,-554.8 820.92,-573.3"/>
<text text-anchor="middle" x="784.79" y="-561.7" font-family="Helvetica,Arial,sans-serif" font-size="8.00">analysedObject</text>
</g>
<!-- Analysis&#45;&gt;analysedObject -->
<g id="edge3" class="edge">
<title>Analysis&#45;&gt;analysedObject</title>
<path fill="none" stroke="black" stroke-width="0.3" d="M662.76,-564C692.13,-564 724.73,-564 748.85,-564"/>
</g>
<!-- analysedPart -->
<g id="node20" class="node">
<title>analysedPart</title>
<polygon fill="#bcee68" stroke="none" points="742.98,-446.99 679.73,-446.99 679.73,-428.49 742.98,-428.49 742.98,-446.99"/>
<text text-anchor="middle" x="711.35" y="-435.39" font-family="Helvetica,Arial,sans-serif" font-size="8.00">analysedPart</text>
</g>
<!-- Analysis&#45;&gt;analysedPart -->
<g id="edge5" class="edge">
<title>Analysis&#45;&gt;analysedPart</title>
<path fill="none" stroke="black" stroke-width="0.3" d="M662.75,-537C677.11,-537 687.85,-537 687.85,-537 687.85,-537 687.85,-471.47 687.85,-446.9"/>
</g>
<!-- analysedVehicle -->
<g id="node21" class="node">
<title>analysedVehicle</title>
<polygon fill="#bcee68" stroke="none" points="857.34,-778.7 781.34,-778.7 781.34,-760.2 857.34,-760.2 857.34,-778.7"/>
<text text-anchor="middle" x="819.34" y="-767.1" font-family="Helvetica,Arial,sans-serif" font-size="8.00">analysedVehicle</text>
</g>
<!-- Analysis&#45;&gt;analysedVehicle -->
<g id="edge7" class="edge">
<title>Analysis&#45;&gt;analysedVehicle</title>
<path fill="none" stroke="black" stroke-width="0.3" d="M662.92,-581C721.6,-581 794.53,-581 794.53,-581 794.53,-581 794.53,-722.72 794.53,-760.36"/>
</g>
<!-- result -->
<g id="node27" class="node">
<title>result</title>
<polygon fill="#bcee68" stroke="none" points="574.03,-441.94 537.78,-441.94 537.78,-423.44 574.03,-423.44 574.03,-441.94"/>
<text text-anchor="middle" x="555.91" y="-430.34" font-family="Helvetica,Arial,sans-serif" font-size="8.00">result</text>
</g>
<!-- Analysis&#45;&gt;result -->
<g id="edge19" class="edge">
<title>Analysis&#45;&gt;result</title>
<path fill="none" stroke="black" stroke-width="0.3" d="M555.91,-520.77C555.91,-493.87 555.91,-458.38 555.91,-441.87"/>
</g>
<!-- AnalysisDevice -->
<g id="node8" class="node">
<title>AnalysisDevice</title>
<polygon fill="#ffb90f" stroke="black" points="578.74,-1030.66 578.74,-1070.66 682.49,-1070.66 682.49,-1030.66 578.74,-1030.66"/>
<text text-anchor="start" x="594.99" y="-1058.16" font-family="Helvetica,Arial,sans-serif" font-weight="bold" font-size="10.00">AnalysisDevice</text>
<polyline fill="none" stroke="black" points="578.74,-1050.66 682.49,-1050.66"/>
<text text-anchor="start" x="586.74" y="-1038.16" font-family="Helvetica,Arial,sans-serif" font-weight="bold" font-style="italic" font-size="10.00"> domain:reliability</text>
<text text-anchor="start" x="671.49" y="-1038.16" font-family="Helvetica,Arial,sans-serif" font-size="10.00"> </text>
</g>
<!-- AnalysisDevice&#45;&gt;Actor -->
<g id="edge24" class="edge">
<title>AnalysisDevice&#45;&gt;Actor</title>
<path fill="none" stroke="black" stroke-width="0.3" stroke-dasharray="5,2" d="M578.42,-1042C578.42,-1042 407.39,-1042 407.39,-1042"/>
<polygon fill="black" stroke="black" stroke-width="0.3" points="407.39,-1040.95 404.39,-1042 407.39,-1043.05 407.39,-1040.95"/>
</g>
<!-- carryOut -->
<g id="node22" class="node">
<title>carryOut</title>
<polygon fill="#bcee68" stroke="none" points="670.37,-841.46 622.12,-841.46 622.12,-822.96 670.37,-822.96 670.37,-841.46"/>
<text text-anchor="middle" x="646.25" y="-829.86" font-family="Helvetica,Arial,sans-serif" font-size="8.00">carryOut</text>
</g>
<!-- AnalysisDevice&#45;&gt;carryOut -->
<g id="edge9" class="edge">
<title>AnalysisDevice&#45;&gt;carryOut</title>
<path fill="none" stroke="black" stroke-width="0.3" d="M646.25,-1030.5C646.25,-984.66 646.25,-874.06 646.25,-841.42"/>
</g>
<!-- AnalysisResult -->
<g id="node9" class="node">
<title>AnalysisResult</title>
<polygon fill="#ffb90f" stroke="black" points="365.79,-418.29 365.79,-458.29 469.54,-458.29 469.54,-418.29 365.79,-418.29"/>
<text text-anchor="start" x="383.54" y="-445.79" font-family="Helvetica,Arial,sans-serif" font-weight="bold" font-size="10.00">AnalysisResult</text>
<polyline fill="none" stroke="black" points="365.79,-438.29 469.54,-438.29"/>
<text text-anchor="start" x="373.79" y="-425.79" font-family="Helvetica,Arial,sans-serif" font-weight="bold" font-style="italic" font-size="10.00"> domain:reliability</text>
<text text-anchor="start" x="458.54" y="-425.79" font-family="Helvetica,Arial,sans-serif" font-size="10.00"> </text>
</g>
<!-- AnalysisResult&#45;&gt;ConceptualObject -->
<g id="edge25" class="edge">
<title>AnalysisResult&#45;&gt;ConceptualObject</title>
<path fill="none" stroke="black" stroke-width="0.3" stroke-dasharray="5,2" d="M365.31,-446C365.31,-446 298.89,-446 298.89,-446"/>
<polygon fill="black" stroke="black" stroke-width="0.3" points="298.89,-444.95 295.89,-446 298.89,-447.05 298.89,-444.95"/>
</g>
<!-- Diagnosis -->
<g id="node10" class="node">
<title>Diagnosis</title>
<polygon fill="#ffb90f" stroke="black" points="406.35,-589.9 406.35,-629.9 510.1,-629.9 510.1,-589.9 406.35,-589.9"/>
<text text-anchor="start" x="435.35" y="-617.4" font-family="Helvetica,Arial,sans-serif" font-weight="bold" font-size="10.00">Diagnosis</text>
<polyline fill="none" stroke="black" points="406.35,-609.9 510.1,-609.9"/>
<text text-anchor="start" x="414.35" y="-597.4" font-family="Helvetica,Arial,sans-serif" font-weight="bold" font-style="italic" font-size="10.00"> domain:reliability</text>
<text text-anchor="start" x="499.1" y="-597.4" font-family="Helvetica,Arial,sans-serif" font-size="10.00"> </text>
</g>
<!-- Diagnosis&#45;&gt;Analysis -->
<g id="edge27" class="edge">
<title>Diagnosis&#45;&gt;Analysis</title>
<path fill="none" stroke="black" stroke-width="0.3" stroke-dasharray="5,2" d="M489.82,-589.43C489.82,-581.37 489.82,-574 489.82,-574 489.82,-574 514.37,-574 514.37,-574"/>
<polygon fill="black" stroke="black" stroke-width="0.3" points="514.37,-575.05 517.37,-574 514.37,-572.95 514.37,-575.05"/>
</g>
<!-- hasDiagnosticTroubleCode -->
<g id="node25" class="node">
<title>hasDiagnosticTroubleCode</title>
<polygon fill="#bcee68" stroke="none" points="326.15,-776.67 213.4,-776.67 213.4,-758.17 326.15,-758.17 326.15,-776.67"/>
<text text-anchor="middle" x="269.77" y="-765.07" font-family="Helvetica,Arial,sans-serif" font-size="8.00">hasDiagnosticTroubleCode</text>
</g>
<!-- Diagnosis&#45;&gt;hasDiagnosticTroubleCode -->
<g id="edge15" class="edge">
<title>Diagnosis&#45;&gt;hasDiagnosticTroubleCode</title>
<path fill="none" stroke="black" stroke-width="0.3" d="M415.68,-630.36C415.68,-672.28 415.68,-764 415.68,-764 415.68,-764 366.91,-764 325.77,-764"/>
</g>
<!-- DiagnosticTroubleCode -->
<g id="node11" class="node">
<title>DiagnosticTroubleCode</title>
<polygon fill="#ffb90f" stroke="black" points="224.96,-560.45 224.96,-618.45 391.71,-618.45 391.71,-560.45 224.96,-560.45"/>
<text text-anchor="start" x="252.83" y="-605.95" font-family="Helvetica,Arial,sans-serif" font-weight="bold" font-size="10.00">DiagnosticTroubleCode</text>
<polyline fill="none" stroke="black" points="224.96,-598.45 391.71,-598.45"/>
<text text-anchor="start" x="232.96" y="-585.95" font-family="Helvetica,Arial,sans-serif" font-weight="bold" font-style="italic" font-size="10.00"> domain:reliability</text>
<text text-anchor="start" x="317.71" y="-585.95" font-family="Helvetica,Arial,sans-serif" font-size="10.00"> </text>
<text text-anchor="start" x="232.96" y="-575.95" font-family="Helvetica,Arial,sans-serif" font-size="10.00">diagnosticTroubleCodeId:string</text>
<text text-anchor="start" x="232.96" y="-565.95" font-family="Helvetica,Arial,sans-serif" font-size="10.00">diagnosticTroubleCodeName:string</text>
</g>
<!-- DiagnosticTroubleCode&#45;&gt;AnalysisResult -->
<g id="edge29" class="edge">
<title>DiagnosticTroubleCode&#45;&gt;AnalysisResult</title>
<path fill="none" stroke="black" stroke-width="0.3" stroke-dasharray="5,2" d="M378.75,-560.31C378.75,-560.31 378.75,-462.09 378.75,-462.09"/>
<polygon fill="black" stroke="black" stroke-width="0.3" points="379.8,-462.09 378.75,-459.09 377.7,-462.09 379.8,-462.09"/>
</g>
<!-- actualCause -->
<g id="node18" class="node">
<title>actualCause</title>
<polygon fill="#bcee68" stroke="none" points="84.57,-657.31 23.57,-657.31 23.57,-638.81 84.57,-638.81 84.57,-657.31"/>
<text text-anchor="middle" x="54.07" y="-645.71" font-family="Helvetica,Arial,sans-serif" font-size="8.00">actualCause</text>
</g>
<!-- DiagnosticTroubleCode&#45;&gt;actualCause -->
<g id="edge1" class="edge">
<title>DiagnosticTroubleCode&#45;&gt;actualCause</title>
<path fill="none" stroke="black" stroke-width="0.3" d="M258.69,-618.9C258.69,-633.06 258.69,-647 258.69,-647 258.69,-647 141.18,-647 84.26,-647"/>
</g>
<!-- possibleCause -->
<g id="node26" class="node">
<title>possibleCause</title>
<polygon fill="#bcee68" stroke="none" points="112.09,-1003.05 42.84,-1003.05 42.84,-984.55 112.09,-984.55 112.09,-1003.05"/>
<text text-anchor="middle" x="77.47" y="-991.45" font-family="Helvetica,Arial,sans-serif" font-size="8.00">possibleCause</text>
</g>
<!-- DiagnosticTroubleCode&#45;&gt;possibleCause -->
<g id="edge17" class="edge">
<title>DiagnosticTroubleCode&#45;&gt;possibleCause</title>
<path fill="none" stroke="black" stroke-width="0.3" d="M224.5,-589C169.06,-589 106.53,-589 106.53,-589 106.53,-589 106.53,-924.33 106.53,-984.58"/>
</g>
<!-- ErrorCause -->
<g id="node12" class="node">
<title>ErrorCause</title>
<polygon fill="#ffb90f" stroke="black" points="0,-343.9 0,-383.9 103.75,-383.9 103.75,-343.9 0,-343.9"/>
<text text-anchor="start" x="25.62" y="-371.4" font-family="Helvetica,Arial,sans-serif" font-weight="bold" font-size="10.00">ErrorCause</text>
<polyline fill="none" stroke="black" points="0,-363.9 103.75,-363.9"/>
<text text-anchor="start" x="8" y="-351.4" font-family="Helvetica,Arial,sans-serif" font-weight="bold" font-style="italic" font-size="10.00"> domain:reliability</text>
<text text-anchor="start" x="92.75" y="-351.4" font-family="Helvetica,Arial,sans-serif" font-size="10.00"> </text>
</g>
<!-- ErrorCause&#45;&gt;ConceptualObject -->
<g id="edge26" class="edge">
<title>ErrorCause&#45;&gt;ConceptualObject</title>
<path fill="none" stroke="black" stroke-width="0.3" stroke-dasharray="5,2" d="M97.36,-384.12C97.36,-410.96 97.36,-455 97.36,-455 97.36,-455 190.57,-455 190.57,-455"/>
<polygon fill="black" stroke="black" stroke-width="0.3" points="190.57,-456.05 193.57,-455 190.57,-453.95 190.57,-456.05"/>
</g>
<!-- LoadSpectrum -->
<g id="node13" class="node">
<title>LoadSpectrum</title>
<polygon fill="#ffb90f" stroke="black" points="339.35,-0.5 339.35,-98.5 452.85,-98.5 452.85,-0.5 339.35,-0.5"/>
<text text-anchor="start" x="361.23" y="-86" font-family="Helvetica,Arial,sans-serif" font-weight="bold" font-size="10.00">LoadSpectrum</text>
<polyline fill="none" stroke="black" points="339.35,-78.5 452.85,-78.5"/>
<text text-anchor="start" x="347.35" y="-66" font-family="Helvetica,Arial,sans-serif" font-weight="bold" font-style="italic" font-size="10.00"> domain:reliability</text>
<text text-anchor="start" x="432.1" y="-66" font-family="Helvetica,Arial,sans-serif" font-size="10.00"> </text>
<text text-anchor="start" x="347.35" y="-56" font-family="Helvetica,Arial,sans-serif" font-size="10.00">datetime:dateTime</text>
<text text-anchor="start" x="347.35" y="-46" font-family="Helvetica,Arial,sans-serif" font-size="10.00">description:string</text>
<text text-anchor="start" x="347.35" y="-36" font-family="Helvetica,Arial,sans-serif" font-size="10.00">endDatetime:dateTime</text>
<text text-anchor="start" x="347.35" y="-26" font-family="Helvetica,Arial,sans-serif" font-size="10.00">id:string</text>
<text text-anchor="start" x="347.35" y="-16" font-family="Helvetica,Arial,sans-serif" font-size="10.00">name:string</text>
<text text-anchor="start" x="347.35" y="-6" font-family="Helvetica,Arial,sans-serif" font-size="10.00">type:string</text>
</g>
<!-- LoadSpectrum&#45;&gt;AnalysisResult -->
<g id="edge30" class="edge">
<title>LoadSpectrum&#45;&gt;AnalysisResult</title>
<path fill="none" stroke="black" stroke-width="0.3" stroke-dasharray="5,2" d="M409.92,-98.74C409.92,-98.74 409.92,-414.62 409.92,-414.62"/>
<polygon fill="black" stroke="black" stroke-width="0.3" points="408.87,-414.62 409.92,-417.62 410.97,-414.62 408.87,-414.62"/>
</g>
<!-- channel -->
<g id="node23" class="node">
<title>channel</title>
<polygon fill="#bcee68" stroke="none" points="675.24,-58.99 630.74,-58.99 630.74,-40.49 675.24,-40.49 675.24,-58.99"/>
<text text-anchor="middle" x="652.99" y="-47.39" font-family="Helvetica,Arial,sans-serif" font-size="8.00">channel</text>
</g>
<!-- LoadSpectrum&#45;&gt;channel -->
<g id="edge11" class="edge">
<title>LoadSpectrum&#45;&gt;channel</title>
<path fill="none" stroke="black" stroke-width="0.3" d="M453.11,-49C509.14,-49 591.74,-49 630.88,-49"/>
</g>
<!-- class -->
<g id="node24" class="node">
<title>class</title>
<polygon fill="#bcee68" stroke="none" points="112.79,-82.2 77.29,-82.2 77.29,-63.7 112.79,-63.7 112.79,-82.2"/>
<text text-anchor="middle" x="95.04" y="-70.6" font-family="Helvetica,Arial,sans-serif" font-size="8.00">class</text>
</g>
<!-- LoadSpectrum&#45;&gt;class -->
<g id="edge13" class="edge">
<title>LoadSpectrum&#45;&gt;class</title>
<path fill="none" stroke="black" stroke-width="0.3" d="M339.12,-72C269.57,-72 155.87,-72 112.55,-72"/>
</g>
<!-- value -->
<g id="node28" class="node">
<title>value</title>
<polygon fill="#bcee68" stroke="none" points="969.73,-91.36 934.23,-91.36 934.23,-72.86 969.73,-72.86 969.73,-91.36"/>
<text text-anchor="middle" x="951.98" y="-79.76" font-family="Helvetica,Arial,sans-serif" font-size="8.00">value</text>
</g>
<!-- LoadSpectrum&#45;&gt;value -->
<g id="edge21" class="edge">
<title>LoadSpectrum&#45;&gt;value</title>
<path fill="none" stroke="black" stroke-width="0.3" d="M453.24,-82C576.25,-82 860.97,-82 934.44,-82"/>
</g>
<!-- LoadSpectrumAnalysis -->
<g id="node14" class="node">
<title>LoadSpectrumAnalysis</title>
<polygon fill="#ffb90f" stroke="black" points="571.23,-652.63 571.23,-692.63 695.98,-692.63 695.98,-652.63 571.23,-652.63"/>
<text text-anchor="start" x="579.23" y="-680.13" font-family="Helvetica,Arial,sans-serif" font-weight="bold" font-size="10.00">LoadSpectrumAnalysis</text>
<polyline fill="none" stroke="black" points="571.23,-672.63 695.98,-672.63"/>
<text text-anchor="start" x="589.73" y="-660.13" font-family="Helvetica,Arial,sans-serif" font-weight="bold" font-style="italic" font-size="10.00"> domain:reliability</text>
<text text-anchor="start" x="674.48" y="-660.13" font-family="Helvetica,Arial,sans-serif" font-size="10.00"> </text>
</g>
<!-- LoadSpectrumAnalysis&#45;&gt;Analysis -->
<g id="edge28" class="edge">
<title>LoadSpectrumAnalysis&#45;&gt;Analysis</title>
<path fill="none" stroke="black" stroke-width="0.3" stroke-dasharray="5,2" d="M616.86,-652.18C616.86,-652.18 616.86,-593.15 616.86,-593.15"/>
<polygon fill="black" stroke="black" stroke-width="0.3" points="617.91,-593.15 616.86,-590.15 615.81,-593.15 617.91,-593.15"/>
</g>
<!-- LoadSpectrumChannel -->
<g id="node15" class="node">
<title>LoadSpectrumChannel</title>
<polygon fill="#ffb90f" stroke="black" points="457.89,-224.83 457.89,-322.83 583.39,-322.83 583.39,-224.83 457.89,-224.83"/>
<text text-anchor="start" x="465.89" y="-310.33" font-family="Helvetica,Arial,sans-serif" font-weight="bold" font-size="10.00">LoadSpectrumChannel</text>
<polyline fill="none" stroke="black" points="457.89,-302.83 583.39,-302.83"/>
<text text-anchor="start" x="473.76" y="-290.33" font-family="Helvetica,Arial,sans-serif" font-weight="bold" font-style="italic" font-size="10.00"> domain:reliability</text>
<text text-anchor="start" x="558.51" y="-290.33" font-family="Helvetica,Arial,sans-serif" font-size="10.00"> </text>
<text text-anchor="start" x="473.76" y="-280.33" font-family="Helvetica,Arial,sans-serif" font-size="10.00">lowerLimit:float</text>
<text text-anchor="start" x="473.76" y="-270.33" font-family="Helvetica,Arial,sans-serif" font-size="10.00">name:string</text>
<text text-anchor="start" x="473.76" y="-260.33" font-family="Helvetica,Arial,sans-serif" font-size="10.00">numberOfBins:integer</text>
<text text-anchor="start" x="473.76" y="-250.33" font-family="Helvetica,Arial,sans-serif" font-size="10.00">type:string</text>
<text text-anchor="start" x="473.76" y="-240.33" font-family="Helvetica,Arial,sans-serif" font-size="10.00">unit:string</text>
<text text-anchor="start" x="473.76" y="-230.33" font-family="Helvetica,Arial,sans-serif" font-size="10.00">upperLimit:float</text>
</g>
<!-- LoadSpectrumChannel&#45;&gt;AnalysisResult -->
<g id="edge31" class="edge">
<title>LoadSpectrumChannel&#45;&gt;AnalysisResult</title>
<path fill="none" stroke="black" stroke-width="0.3" stroke-dasharray="5,2" d="M463.71,-323.18C463.71,-323.18 463.71,-414.65 463.71,-414.65"/>
<polygon fill="black" stroke="black" stroke-width="0.3" points="462.66,-414.65 463.71,-417.65 464.76,-414.65 462.66,-414.65"/>
</g>
<!-- LoadSpectrumClass -->
<g id="node16" class="node">
<title>LoadSpectrumClass</title>
<polygon fill="#ffb90f" stroke="black" points="256.49,-255.78 256.49,-295.78 366.99,-295.78 366.99,-255.78 256.49,-255.78"/>
<text text-anchor="start" x="264.49" y="-283.28" font-family="Helvetica,Arial,sans-serif" font-weight="bold" font-size="10.00">LoadSpectrumClass</text>
<polyline fill="none" stroke="black" points="256.49,-275.78 366.99,-275.78"/>
<text text-anchor="start" x="267.86" y="-263.28" font-family="Helvetica,Arial,sans-serif" font-weight="bold" font-style="italic" font-size="10.00"> domain:reliability</text>
<text text-anchor="start" x="352.61" y="-263.28" font-family="Helvetica,Arial,sans-serif" font-size="10.00"> </text>
</g>
<!-- LoadSpectrumClass&#45;&gt;AnalysisResult -->
<g id="edge32" class="edge">
<title>LoadSpectrumClass&#45;&gt;AnalysisResult</title>
<path fill="none" stroke="black" stroke-width="0.3" stroke-dasharray="5,2" d="M330.45,-296.04C330.45,-337.04 330.45,-426 330.45,-426 330.45,-426 361.97,-426 361.97,-426"/>
<polygon fill="black" stroke="black" stroke-width="0.3" points="361.97,-427.05 364.97,-426 361.97,-424.95 361.97,-427.05"/>
</g>
<!-- LoadSpectrumValue -->
<g id="node17" class="node">
<title>LoadSpectrumValue</title>
<polygon fill="#ffb90f" stroke="black" points="672.6,-240.95 672.6,-318.95 786.1,-318.95 786.1,-240.95 672.6,-240.95"/>
<text text-anchor="start" x="680.6" y="-306.45" font-family="Helvetica,Arial,sans-serif" font-weight="bold" font-size="10.00">LoadSpectrumValue</text>
<polyline fill="none" stroke="black" points="672.6,-298.95 786.1,-298.95"/>
<text text-anchor="start" x="681.35" y="-286.45" font-family="Helvetica,Arial,sans-serif" font-weight="bold" font-style="italic" font-size="10.00"> domain:reliability</text>
<text text-anchor="start" x="766.1" y="-286.45" font-family="Helvetica,Arial,sans-serif" font-size="10.00"> </text>
<text text-anchor="start" x="681.35" y="-276.45" font-family="Helvetica,Arial,sans-serif" font-size="10.00">countingMethod:string</text>
<text text-anchor="start" x="681.35" y="-266.45" font-family="Helvetica,Arial,sans-serif" font-size="10.00">countingUnit:string</text>
<text text-anchor="start" x="681.35" y="-256.45" font-family="Helvetica,Arial,sans-serif" font-size="10.00">countingValue:string</text>
<text text-anchor="start" x="681.35" y="-246.45" font-family="Helvetica,Arial,sans-serif" font-size="10.00">index:string</text>
</g>
<!-- LoadSpectrumValue&#45;&gt;AnalysisResult -->
<g id="edge33" class="edge">
<title>LoadSpectrumValue&#45;&gt;AnalysisResult</title>
<path fill="none" stroke="black" stroke-width="0.3" stroke-dasharray="5,2" d="M676.16,-319.42C676.16,-370.22 676.16,-452 676.16,-452 676.16,-452 473.43,-452 473.43,-452"/>
<polygon fill="black" stroke="black" stroke-width="0.3" points="473.43,-450.95 470.43,-452 473.43,-453.05 473.43,-450.95"/>
</g>
<!-- actualCause&#45;&gt;ErrorCause -->
<g id="edge2" class="edge">
<title>actualCause&#45;&gt;ErrorCause</title>
<path fill="none" stroke="black" stroke-width="0.3" d="M54.07,-638.93C54.07,-638.93 54.07,-387.75 54.07,-387.75"/>
<polygon fill="black" stroke="black" stroke-width="0.3" points="55.12,-387.75 54.07,-384.75 53.02,-387.75 55.12,-387.75"/>
</g>
<!-- analysedObject&#45;&gt;PhysicalObject -->
<g id="edge4" class="edge">
<title>analysedObject&#45;&gt;PhysicalObject</title>
<path fill="none" stroke="black" stroke-width="0.3" d="M807.73,-573.11C807.73,-593.85 807.73,-643 807.73,-643 807.73,-643 957.41,-643 957.41,-643"/>
<polygon fill="black" stroke="black" stroke-width="0.3" points="957.41,-644.05 960.41,-643 957.41,-641.95 957.41,-644.05"/>
</g>
<!-- analysedPart&#45;&gt;Part -->
<g id="edge6" class="edge">
<title>analysedPart&#45;&gt;Part</title>
<path fill="none" stroke="black" stroke-width="0.3" d="M742.79,-437C806.41,-437 944.44,-437 944.44,-437 944.44,-437 944.44,-405.57 944.44,-405.57"/>
<polygon fill="black" stroke="black" stroke-width="0.3" points="945.49,-405.57 944.44,-402.57 943.39,-405.57 945.49,-405.57"/>
</g>
<!-- analysedVehicle&#45;&gt;Vehicle -->
<g id="edge8" class="edge">
<title>analysedVehicle&#45;&gt;Vehicle</title>
<path fill="none" stroke="black" stroke-width="0.3" d="M857.32,-769C884.19,-769 915.45,-769 915.45,-769 915.45,-769 915.45,-986.41 915.45,-986.41"/>
<polygon fill="black" stroke="black" stroke-width="0.3" points="914.4,-986.41 915.45,-989.41 916.5,-986.41 914.4,-986.41"/>
</g>
<!-- carryOut&#45;&gt;Analysis -->
<g id="edge10" class="edge">
<title>carryOut&#45;&gt;Analysis</title>
<path fill="none" stroke="black" stroke-width="0.3" d="M622.38,-832C594.92,-832 553.57,-832 553.57,-832 553.57,-832 553.57,-593.18 553.57,-593.18"/>
<polygon fill="black" stroke="black" stroke-width="0.3" points="554.62,-593.18 553.57,-590.18 552.52,-593.18 554.62,-593.18"/>
</g>
<!-- channel&#45;&gt;LoadSpectrumChannel -->
<g id="edge12" class="edge">
<title>channel&#45;&gt;LoadSpectrumChannel</title>
<path fill="none" stroke="black" stroke-width="0.3" d="M646.61,-58.53C646.61,-94.94 646.61,-232 646.61,-232 646.61,-232 587.08,-232 587.08,-232"/>
<polygon fill="black" stroke="black" stroke-width="0.3" points="587.08,-230.95 584.08,-232 587.08,-233.05 587.08,-230.95"/>
</g>
<!-- class&#45;&gt;LoadSpectrumClass -->
<g id="edge14" class="edge">
<title>class&#45;&gt;LoadSpectrumClass</title>
<path fill="none" stroke="black" stroke-width="0.3" d="M109.31,-82.16C109.31,-121.68 109.31,-275 109.31,-275 109.31,-275 252.7,-275 252.7,-275"/>
<polygon fill="black" stroke="black" stroke-width="0.3" points="252.7,-276.05 255.7,-275 252.7,-273.95 252.7,-276.05"/>
</g>
<!-- hasDiagnosticTroubleCode&#45;&gt;DiagnosticTroubleCode -->
<g id="edge16" class="edge">
<title>hasDiagnosticTroubleCode&#45;&gt;DiagnosticTroubleCode</title>
<path fill="none" stroke="black" stroke-width="0.3" d="M292.42,-758.35C292.42,-758.35 292.42,-622.33 292.42,-622.33"/>
<polygon fill="black" stroke="black" stroke-width="0.3" points="293.47,-622.33 292.42,-619.33 291.37,-622.33 293.47,-622.33"/>
</g>
<!-- possibleCause&#45;&gt;ErrorCause -->
<g id="edge18" class="edge">
<title>possibleCause&#45;&gt;ErrorCause</title>
<path fill="none" stroke="black" stroke-width="0.3" d="M90.97,-984.65C90.97,-984.65 90.97,-387.78 90.97,-387.78"/>
<polygon fill="black" stroke="black" stroke-width="0.3" points="92.02,-387.78 90.97,-384.78 89.92,-387.78 92.02,-387.78"/>
</g>
<!-- result&#45;&gt;AnalysisResult -->
<g id="edge20" class="edge">
<title>result&#45;&gt;AnalysisResult</title>
<path fill="none" stroke="black" stroke-width="0.3" d="M537.84,-432C537.84,-432 473.48,-432 473.48,-432"/>
<polygon fill="black" stroke="black" stroke-width="0.3" points="473.48,-430.95 470.48,-432 473.48,-433.05 473.48,-430.95"/>
</g>
<!-- value&#45;&gt;LoadSpectrumValue -->
<g id="edge22" class="edge">
<title>value&#45;&gt;LoadSpectrumValue</title>
<path fill="none" stroke="black" stroke-width="0.3" d="M951.98,-91.34C951.98,-130.27 951.98,-279 951.98,-279 951.98,-279 789.85,-279 789.85,-279"/>
<polygon fill="black" stroke="black" stroke-width="0.3" points="789.85,-277.95 786.85,-279 789.85,-280.05 789.85,-277.95"/>
</g>
</g>
</svg>
