<?xml version="1.0" encoding="UTF-8" standalone="no"?>
<!DOCTYPE svg PUBLIC "-//W3C//DTD SVG 1.1//EN"
 "http://www.w3.org/Graphics/SVG/1.1/DTD/svg11.dtd">
<!-- Generated by graphviz version 9.0.0 (20230911.1827)
 -->
<!-- Title: reliability_ontology Pages: 1 -->
<svg width="2309pt" height="1975pt"
 viewBox="0.00 0.00 2309.38 1975.21" xmlns="http://www.w3.org/2000/svg" xmlns:xlink="http://www.w3.org/1999/xlink">
<g id="graph0" class="graph" transform="scale(1 1) rotate(0) translate(4 1971.21)">
<title>reliability_ontology</title>
<polygon fill="white" stroke="none" points="-4,4 -4,-1971.21 2305.38,-1971.21 2305.38,4 -4,4"/>
<!-- Activity -->
<g id="node1" class="node">
<title>Activity</title>
<polygon fill="#ffb90f" stroke="black" points="1182.82,-1181.96 1182.82,-1239.96 1473.32,-1239.96 1473.32,-1181.96 1182.82,-1181.96"/>
<text text-anchor="start" x="1310.82" y="-1227.46" font-family="Helvetica,Arial,sans-serif" font-weight="bold" font-size="10.00">Activity</text>
<polyline fill="none" stroke="black" points="1182.82,-1219.96 1473.32,-1219.96"/>
<text text-anchor="start" x="1190.82" y="-1207.46" font-family="Helvetica,Arial,sans-serif" font-weight="bold" font-style="italic" font-size="10.00"> domain:core</text>
<text text-anchor="start" x="1252.32" y="-1207.46" font-family="Helvetica,Arial,sans-serif" font-size="10.00"> </text>
<text text-anchor="start" x="1190.82" y="-1197.46" font-family="Helvetica,Arial,sans-serif" font-size="10.00">https://w3id.org/catenax/ontology/core#endDateTime:dateTime</text>
<text text-anchor="start" x="1190.82" y="-1187.46" font-family="Helvetica,Arial,sans-serif" font-size="10.00">https://w3id.org/catenax/ontology/core#startDateTime:dateTime</text>
</g>
<!-- hasParticipant -->
<g id="node19" class="node">
<title>hasParticipant</title>
<polygon fill="#bcee68" stroke="none" points="1272.65,-1967.21 1060.9,-1967.21 1060.9,-1948.71 1272.65,-1948.71 1272.65,-1967.21"/>
<text text-anchor="middle" x="1166.78" y="-1955.61" font-family="Helvetica,Arial,sans-serif" font-size="8.00">https://w3id.org/catenax/ontology/core#hasParticipant</text>
</g>
<!-- Activity&#45;&gt;hasParticipant -->
<g id="edge3" class="edge">
<title>Activity&#45;&gt;hasParticipant</title>
<path fill="none" stroke="black" stroke-width="0.3" d="M1208.47,-1240.25C1208.47,-1368.1 1208.47,-1874.36 1208.47,-1948.8"/>
</g>
<!-- refersToConceptualObject -->
<g id="node23" class="node">
<title>refersToConceptualObject</title>
<polygon fill="#bcee68" stroke="none" points="1829.34,-804.08 1573.34,-804.08 1573.34,-785.58 1829.34,-785.58 1829.34,-804.08"/>
<text text-anchor="middle" x="1701.34" y="-792.48" font-family="Helvetica,Arial,sans-serif" font-size="8.00">https://w3id.org/catenax/ontology/core#refersToConceptualObject</text>
</g>
<!-- Activity&#45;&gt;refersToConceptualObject -->
<g id="edge13" class="edge">
<title>Activity&#45;&gt;refersToConceptualObject</title>
<path fill="none" stroke="black" stroke-width="0.3" d="M1445.02,-1181.57C1445.02,-1086.43 1445.02,-793 1445.02,-793 1445.02,-793 1509.35,-793 1573.56,-793"/>
</g>
<!-- refersToPhysicalObject -->
<g id="node24" class="node">
<title>refersToPhysicalObject</title>
<polygon fill="#bcee68" stroke="none" points="1698.36,-1072.93 1452.86,-1072.93 1452.86,-1054.43 1698.36,-1054.43 1698.36,-1072.93"/>
<text text-anchor="middle" x="1575.61" y="-1061.33" font-family="Helvetica,Arial,sans-serif" font-size="8.00">https://w3id.org/catenax/ontology/core#refersToPhysicalObject</text>
</g>
<!-- Activity&#45;&gt;refersToPhysicalObject -->
<g id="edge15" class="edge">
<title>Activity&#45;&gt;refersToPhysicalObject</title>
<path fill="none" stroke="black" stroke-width="0.3" d="M1463.09,-1181.51C1463.09,-1147.6 1463.09,-1093.84 1463.09,-1072.67"/>
</g>
<!-- takesPlaceAt -->
<g id="node26" class="node">
<title>takesPlaceAt</title>
<polygon fill="#bcee68" stroke="none" points="2194.43,-998.45 1986.43,-998.45 1986.43,-979.95 2194.43,-979.95 2194.43,-998.45"/>
<text text-anchor="middle" x="2090.43" y="-986.85" font-family="Helvetica,Arial,sans-serif" font-size="8.00">https://w3id.org/catenax/ontology/core#takesPlaceAt</text>
</g>
<!-- Activity&#45;&gt;takesPlaceAt -->
<g id="edge19" class="edge">
<title>Activity&#45;&gt;takesPlaceAt</title>
<path fill="none" stroke="black" stroke-width="0.3" d="M1448.94,-1181.89C1448.94,-1122.32 1448.94,-992 1448.94,-992 1448.94,-992 1805.1,-992 1986.65,-992"/>
</g>
<!-- Actor -->
<g id="node2" class="node">
<title>Actor</title>
<polygon fill="#ffb90f" stroke="black" points="1559.6,-1917.14 1559.6,-1957.14 1640.1,-1957.14 1640.1,-1917.14 1559.6,-1917.14"/>
<text text-anchor="start" x="1587.48" y="-1944.64" font-family="Helvetica,Arial,sans-serif" font-weight="bold" font-size="10.00">Actor</text>
<polyline fill="none" stroke="black" points="1559.6,-1937.14 1640.1,-1937.14"/>
<text text-anchor="start" x="1567.6" y="-1924.64" font-family="Helvetica,Arial,sans-serif" font-weight="bold" font-style="italic" font-size="10.00"> domain:core</text>
<text text-anchor="start" x="1629.1" y="-1924.64" font-family="Helvetica,Arial,sans-serif" font-size="10.00"> </text>
</g>
<!-- participatesIn -->
<g id="node22" class="node">
<title>participatesIn</title>
<polygon fill="#bcee68" stroke="none" points="1442.88,-1516.51 1234.13,-1516.51 1234.13,-1498.01 1442.88,-1498.01 1442.88,-1516.51"/>
<text text-anchor="middle" x="1338.5" y="-1504.91" font-family="Helvetica,Arial,sans-serif" font-size="8.00">https://w3id.org/catenax/ontology/core#participatesIn</text>
</g>
<!-- Actor&#45;&gt;participatesIn -->
<g id="edge11" class="edge">
<title>Actor&#45;&gt;participatesIn</title>
<path fill="none" stroke="black" stroke-width="0.3" d="M1590.69,-1916.68C1590.69,-1831.2 1590.69,-1507 1590.69,-1507 1590.69,-1507 1512,-1507 1442.53,-1507"/>
</g>
<!-- relatedToPlace -->
<g id="node25" class="node">
<title>relatedToPlace</title>
<polygon fill="#bcee68" stroke="none" points="2283.71,-1925.12 2069.71,-1925.12 2069.71,-1906.62 2283.71,-1906.62 2283.71,-1925.12"/>
<text text-anchor="middle" x="2176.71" y="-1913.52" font-family="Helvetica,Arial,sans-serif" font-size="8.00">https://w3id.org/catenax/ontology/core#relatedToPlace</text>
</g>
<!-- Actor&#45;&gt;relatedToPlace -->
<g id="edge17" class="edge">
<title>Actor&#45;&gt;relatedToPlace</title>
<path fill="none" stroke="black" stroke-width="0.3" d="M1640.42,-1920C1728.64,-1920 1940.4,-1920 2069.87,-1920"/>
</g>
<!-- Address -->
<g id="node3" class="node">
<title>Address</title>
<polygon fill="#ffb90f" stroke="black" points="1956,-326.5 1956,-366.5 2036.5,-366.5 2036.5,-326.5 1956,-326.5"/>
<text text-anchor="start" x="1977.5" y="-354" font-family="Helvetica,Arial,sans-serif" font-weight="bold" font-size="10.00">Address</text>
<polyline fill="none" stroke="black" points="1956,-346.5 2036.5,-346.5"/>
<text text-anchor="start" x="1964" y="-334" font-family="Helvetica,Arial,sans-serif" font-weight="bold" font-style="italic" font-size="10.00"> domain:core</text>
<text text-anchor="start" x="2025.5" y="-334" font-family="Helvetica,Arial,sans-serif" font-size="10.00"> </text>
</g>
<!-- ConceptualObject -->
<g id="node4" class="node">
<title>ConceptualObject</title>
<polygon fill="#ffb90f" stroke="black" points="1284.21,-718.72 1284.21,-758.72 1384.96,-758.72 1384.96,-718.72 1284.21,-718.72"/>
<text text-anchor="start" x="1292.21" y="-746.22" font-family="Helvetica,Arial,sans-serif" font-weight="bold" font-size="10.00">ConceptualObject</text>
<polyline fill="none" stroke="black" points="1284.21,-738.72 1384.96,-738.72"/>
<text text-anchor="start" x="1302.34" y="-726.22" font-family="Helvetica,Arial,sans-serif" font-weight="bold" font-style="italic" font-size="10.00"> domain:core</text>
<text text-anchor="start" x="1363.84" y="-726.22" font-family="Helvetica,Arial,sans-serif" font-size="10.00"> </text>
</g>
<!-- describesPhysicalObject -->
<g id="node18" class="node">
<title>describesPhysicalObject</title>
<polygon fill="#bcee68" stroke="none" points="750.05,-845.2 468.55,-845.2 468.55,-816.2 750.05,-816.2 750.05,-845.2"/>
<text text-anchor="middle" x="609.3" y="-833.6" font-family="Helvetica,Arial,sans-serif" font-size="8.00">https://w3id.org/catenax/ontology/core#describesPhysicalObject / </text>
<text text-anchor="middle" x="609.3" y="-823.1" font-family="Helvetica,Arial,sans-serif" font-size="8.00">https://w3id.org/catenax/ontology/core#describedByConceptualObject ➝</text>
</g>
<!-- ConceptualObject&#45;&gt;describesPhysicalObject -->
<g id="edge1" class="edge">
<title>ConceptualObject&#45;&gt;describesPhysicalObject</title>
<path fill="none" stroke="black" stroke-width="0.3" d="M1283.91,-745C1141.2,-745 746.22,-745 746.22,-745 746.22,-745 746.22,-792.21 746.22,-816.55"/>
</g>
<!-- involvedIn -->
<g id="node21" class="node">
<title>involvedIn</title>
<polygon fill="#bcee68" stroke="none" points="1342.17,-968.17 1145.42,-968.17 1145.42,-949.67 1342.17,-949.67 1342.17,-968.17"/>
<text text-anchor="middle" x="1243.8" y="-956.57" font-family="Helvetica,Arial,sans-serif" font-size="8.00">https://w3id.org/catenax/ontology/core#involvedIn</text>
</g>
<!-- ConceptualObject&#45;&gt;involvedIn -->
<g id="edge7" class="edge">
<title>ConceptualObject&#45;&gt;involvedIn</title>
<path fill="none" stroke="black" stroke-width="0.3" d="M1313.19,-759.04C1313.19,-805.46 1313.19,-917.76 1313.19,-950.08"/>
</g>
<!-- PhysicalObject -->
<g id="node5" class="node">
<title>PhysicalObject</title>
<polygon fill="#ffb90f" stroke="black" points="822.04,-1095.99 822.04,-1135.99 908.54,-1135.99 908.54,-1095.99 822.04,-1095.99"/>
<text text-anchor="start" x="830.04" y="-1123.49" font-family="Helvetica,Arial,sans-serif" font-weight="bold" font-size="10.00">PhysicalObject</text>
<polyline fill="none" stroke="black" points="822.04,-1115.99 908.54,-1115.99"/>
<text text-anchor="start" x="833.04" y="-1103.49" font-family="Helvetica,Arial,sans-serif" font-weight="bold" font-style="italic" font-size="10.00"> domain:core</text>
<text text-anchor="start" x="894.54" y="-1103.49" font-family="Helvetica,Arial,sans-serif" font-size="10.00"> </text>
</g>
<!-- PhysicalObject&#45;&gt;involvedIn -->
<g id="edge9" class="edge">
<title>PhysicalObject&#45;&gt;involvedIn</title>
<path fill="none" stroke="black" stroke-width="0.3" d="M904.65,-1095.53C904.65,-1052.59 904.65,-957 904.65,-957 904.65,-957 1045.54,-957 1145.7,-957"/>
</g>
<!-- Place -->
<g id="node6" class="node">
<title>Place</title>
<polygon fill="#ffb90f" stroke="black" points="2216.07,-1325.94 2216.07,-1365.94 2296.57,-1365.94 2296.57,-1325.94 2216.07,-1325.94"/>
<text text-anchor="start" x="2242.82" y="-1353.44" font-family="Helvetica,Arial,sans-serif" font-weight="bold" font-size="10.00">Place</text>
<polyline fill="none" stroke="black" points="2216.07,-1345.94 2296.57,-1345.94"/>
<text text-anchor="start" x="2224.07" y="-1333.44" font-family="Helvetica,Arial,sans-serif" font-weight="bold" font-style="italic" font-size="10.00"> domain:core</text>
<text text-anchor="start" x="2285.57" y="-1333.44" font-family="Helvetica,Arial,sans-serif" font-size="10.00"> </text>
</g>
<!-- hosts -->
<g id="node20" class="node">
<title>hosts</title>
<polygon fill="#bcee68" stroke="none" points="1802.78,-1409.09 1621.78,-1409.09 1621.78,-1390.59 1802.78,-1390.59 1802.78,-1409.09"/>
<text text-anchor="middle" x="1712.28" y="-1397.49" font-family="Helvetica,Arial,sans-serif" font-size="8.00">https://w3id.org/catenax/ontology/core#hosts</text>
</g>
<!-- Place&#45;&gt;hosts -->
<g id="edge5" class="edge">
<title>Place&#45;&gt;hosts</title>
<path fill="none" stroke="black" stroke-width="0.3" d="M2238.62,-1366.3C2238.62,-1381.26 2238.62,-1399 2238.62,-1399 2238.62,-1399 1953.25,-1399 1802.76,-1399"/>
</g>
<!-- Analysis -->
<g id="node7" class="node">
<title>Analysis</title>
<polygon fill="#ffb90f" stroke="black" points="1016.69,-1111.44 1016.69,-1179.44 1160.94,-1179.44 1160.94,-1111.44 1016.69,-1111.44"/>
<text text-anchor="start" x="1069.32" y="-1166.94" font-family="Helvetica,Arial,sans-serif" font-weight="bold" font-size="10.00">Analysis</text>
<polyline fill="none" stroke="black" points="1016.69,-1159.44 1160.94,-1159.44"/>
<text text-anchor="start" x="1024.69" y="-1146.94" font-family="Helvetica,Arial,sans-serif" font-weight="bold" font-style="italic" font-size="10.00"> domain:reliability</text>
<text text-anchor="start" x="1109.44" y="-1146.94" font-family="Helvetica,Arial,sans-serif" font-size="10.00"> </text>
<text text-anchor="start" x="1024.69" y="-1136.94" font-family="Helvetica,Arial,sans-serif" font-size="10.00">mileageOfVehicle:integer</text>
<text text-anchor="start" x="1024.69" y="-1126.94" font-family="Helvetica,Arial,sans-serif" font-size="10.00">operatingHoursOfPart:float</text>
<text text-anchor="start" x="1024.69" y="-1116.94" font-family="Helvetica,Arial,sans-serif" font-size="10.00">operatingHoursOfVehicle:float</text>
</g>
<!-- Analysis&#45;&gt;Activity -->
<g id="edge35" class="edge">
<title>Analysis&#45;&gt;Activity</title>
<path fill="none" stroke="black" stroke-width="0.3" stroke-dasharray="5,2" d="M1110.92,-1179.61C1110.92,-1195.1 1110.92,-1210 1110.92,-1210 1110.92,-1210 1178.87,-1210 1178.87,-1210"/>
<polygon fill="black" stroke="black" stroke-width="0.3" points="1178.87,-1211.05 1181.87,-1210 1178.87,-1208.95 1178.87,-1211.05"/>
</g>
<!-- analysedObject -->
<g id="node27" class="node">
<title>analysedObject</title>
<polygon fill="#bcee68" stroke="none" points="1045.58,-1478.26 973.33,-1478.26 973.33,-1459.76 1045.58,-1459.76 1045.58,-1478.26"/>
<text text-anchor="middle" x="1009.45" y="-1466.66" font-family="Helvetica,Arial,sans-serif" font-size="8.00">analysedObject</text>
</g>
<!-- Analysis&#45;&gt;analysedObject -->
<g id="edge21" class="edge">
<title>Analysis&#45;&gt;analysedObject</title>
<path fill="none" stroke="black" stroke-width="0.3" d="M1031.13,-1179.76C1031.13,-1252.63 1031.13,-1419.43 1031.13,-1460"/>
</g>
<!-- analysedPart -->
<g id="node28" class="node">
<title>analysedPart</title>
<polygon fill="#bcee68" stroke="none" points="763.7,-1962.97 700.45,-1962.97 700.45,-1944.47 763.7,-1944.47 763.7,-1962.97"/>
<text text-anchor="middle" x="732.07" y="-1951.37" font-family="Helvetica,Arial,sans-serif" font-size="8.00">analysedPart</text>
</g>
<!-- Analysis&#45;&gt;analysedPart -->
<g id="edge23" class="edge">
<title>Analysis&#45;&gt;analysedPart</title>
<path fill="none" stroke="black" stroke-width="0.3" d="M1016.38,-1174C918.71,-1174 756.87,-1174 756.87,-1174 756.87,-1174 756.87,-1857.88 756.87,-1944.7"/>
</g>
<!-- analysedVehicle -->
<g id="node29" class="node">
<title>analysedVehicle</title>
<polygon fill="#bcee68" stroke="none" points="676.41,-1490.87 600.41,-1490.87 600.41,-1472.37 676.41,-1472.37 676.41,-1490.87"/>
<text text-anchor="middle" x="638.41" y="-1479.27" font-family="Helvetica,Arial,sans-serif" font-size="8.00">analysedVehicle</text>
</g>
<!-- Analysis&#45;&gt;analysedVehicle -->
<g id="edge25" class="edge">
<title>Analysis&#45;&gt;analysedVehicle</title>
<path fill="none" stroke="black" stroke-width="0.3" d="M1016.24,-1168C888.91,-1168 638.66,-1168 638.66,-1168 638.66,-1168 638.66,-1421.15 638.66,-1472.57"/>
</g>
<!-- result -->
<g id="node32" class="node">
<title>result</title>
<polygon fill="#bcee68" stroke="none" points="997.57,-816.06 961.32,-816.06 961.32,-797.56 997.57,-797.56 997.57,-816.06"/>
<text text-anchor="middle" x="979.44" y="-804.46" font-family="Helvetica,Arial,sans-serif" font-size="8.00">result</text>
</g>
<!-- Analysis&#45;&gt;result -->
<g id="edge31" class="edge">
<title>Analysis&#45;&gt;result</title>
<path fill="none" stroke="black" stroke-width="0.3" d="M1016.37,-1119C1001.09,-1119 989.49,-1119 989.49,-1119 989.49,-1119 989.49,-867 989.49,-815.81"/>
</g>
<!-- AnalysisResult -->
<g id="node8" class="node">
<title>AnalysisResult</title>
<polygon fill="#ffb90f" stroke="black" points="1072.91,-454.78 1072.91,-494.78 1176.66,-494.78 1176.66,-454.78 1072.91,-454.78"/>
<text text-anchor="start" x="1090.66" y="-482.28" font-family="Helvetica,Arial,sans-serif" font-weight="bold" font-size="10.00">AnalysisResult</text>
<polyline fill="none" stroke="black" points="1072.91,-474.78 1176.66,-474.78"/>
<text text-anchor="start" x="1080.91" y="-462.28" font-family="Helvetica,Arial,sans-serif" font-weight="bold" font-style="italic" font-size="10.00"> domain:reliability</text>
<text text-anchor="start" x="1165.66" y="-462.28" font-family="Helvetica,Arial,sans-serif" font-size="10.00"> </text>
</g>
<!-- AnalysisResult&#45;&gt;ConceptualObject -->
<g id="edge36" class="edge">
<title>AnalysisResult&#45;&gt;ConceptualObject</title>
<path fill="none" stroke="black" stroke-width="0.3" stroke-dasharray="5,2" d="M1155.84,-494.88C1155.84,-555.28 1155.84,-731 1155.84,-731 1155.84,-731 1280.39,-731 1280.39,-731"/>
<polygon fill="black" stroke="black" stroke-width="0.3" points="1280.39,-732.05 1283.39,-731 1280.39,-729.95 1280.39,-732.05"/>
</g>
<!-- LoadSpectrum -->
<g id="node9" class="node">
<title>LoadSpectrum</title>
<polygon fill="#ffb90f" stroke="black" points="1553.55,-411.52 1553.55,-509.52 1667.05,-509.52 1667.05,-411.52 1553.55,-411.52"/>
<text text-anchor="start" x="1575.43" y="-497.02" font-family="Helvetica,Arial,sans-serif" font-weight="bold" font-size="10.00">LoadSpectrum</text>
<polyline fill="none" stroke="black" points="1553.55,-489.52 1667.05,-489.52"/>
<text text-anchor="start" x="1561.55" y="-477.02" font-family="Helvetica,Arial,sans-serif" font-weight="bold" font-style="italic" font-size="10.00"> domain:reliability</text>
<text text-anchor="start" x="1646.3" y="-477.02" font-family="Helvetica,Arial,sans-serif" font-size="10.00"> </text>
<text text-anchor="start" x="1561.55" y="-467.02" font-family="Helvetica,Arial,sans-serif" font-size="10.00">datetime:dateTime</text>
<text text-anchor="start" x="1561.55" y="-457.02" font-family="Helvetica,Arial,sans-serif" font-size="10.00">description:string</text>
<text text-anchor="start" x="1561.55" y="-447.02" font-family="Helvetica,Arial,sans-serif" font-size="10.00">endDatetime:dateTime</text>
<text text-anchor="start" x="1561.55" y="-437.02" font-family="Helvetica,Arial,sans-serif" font-size="10.00">id:string</text>
<text text-anchor="start" x="1561.55" y="-427.02" font-family="Helvetica,Arial,sans-serif" font-size="10.00">name:string</text>
<text text-anchor="start" x="1561.55" y="-417.02" font-family="Helvetica,Arial,sans-serif" font-size="10.00">type:string</text>
</g>
<!-- LoadSpectrum&#45;&gt;AnalysisResult -->
<g id="edge37" class="edge">
<title>LoadSpectrum&#45;&gt;AnalysisResult</title>
<path fill="none" stroke="black" stroke-width="0.3" stroke-dasharray="5,2" d="M1553.18,-474C1553.18,-474 1180.35,-474 1180.35,-474"/>
<polygon fill="black" stroke="black" stroke-width="0.3" points="1180.35,-472.95 1177.35,-474 1180.35,-475.05 1180.35,-472.95"/>
</g>
<!-- channel -->
<g id="node30" class="node">
<title>channel</title>
<polygon fill="#bcee68" stroke="none" points="180.18,-75.27 135.68,-75.27 135.68,-56.77 180.18,-56.77 180.18,-75.27"/>
<text text-anchor="middle" x="157.93" y="-63.67" font-family="Helvetica,Arial,sans-serif" font-size="8.00">channel</text>
</g>
<!-- LoadSpectrum&#45;&gt;channel -->
<g id="edge27" class="edge">
<title>LoadSpectrum&#45;&gt;channel</title>
<path fill="none" stroke="black" stroke-width="0.3" d="M1553.25,-434C1286.79,-434 177.59,-434 177.59,-434 177.59,-434 177.59,-131.78 177.59,-75.12"/>
</g>
<!-- class -->
<g id="node31" class="node">
<title>class</title>
<polygon fill="#bcee68" stroke="none" points="2137.36,-71.72 2101.86,-71.72 2101.86,-53.22 2137.36,-53.22 2137.36,-71.72"/>
<text text-anchor="middle" x="2119.61" y="-60.12" font-family="Helvetica,Arial,sans-serif" font-size="8.00">class</text>
</g>
<!-- LoadSpectrum&#45;&gt;class -->
<g id="edge29" class="edge">
<title>LoadSpectrum&#45;&gt;class</title>
<path fill="none" stroke="black" stroke-width="0.3" d="M1610.3,-411.25C1610.3,-304.63 1610.3,-62 1610.3,-62 1610.3,-62 2012.52,-62 2102.08,-62"/>
</g>
<!-- hasValues -->
<g id="node33" class="node">
<title>hasValues</title>
<polygon fill="#bcee68" stroke="none" points="1441.11,-41.09 1386.11,-41.09 1386.11,-22.59 1441.11,-22.59 1441.11,-41.09"/>
<text text-anchor="middle" x="1413.61" y="-29.49" font-family="Helvetica,Arial,sans-serif" font-size="8.00">hasValues</text>
</g>
<!-- LoadSpectrum&#45;&gt;hasValues -->
<g id="edge33" class="edge">
<title>LoadSpectrum&#45;&gt;hasValues</title>
<path fill="none" stroke="black" stroke-width="0.3" d="M1553.14,-422C1495.07,-422 1413.61,-422 1413.61,-422 1413.61,-422 1413.61,-98.8 1413.61,-40.72"/>
</g>
<!-- LoadSpectrumAnalysis -->
<g id="node10" class="node">
<title>LoadSpectrumAnalysis</title>
<polygon fill="#ffb90f" stroke="black" points="0,-964.91 0,-1004.91 124.75,-1004.91 124.75,-964.91 0,-964.91"/>
<text text-anchor="start" x="8" y="-992.41" font-family="Helvetica,Arial,sans-serif" font-weight="bold" font-size="10.00">LoadSpectrumAnalysis</text>
<polyline fill="none" stroke="black" points="0,-984.91 124.75,-984.91"/>
<text text-anchor="start" x="18.5" y="-972.41" font-family="Helvetica,Arial,sans-serif" font-weight="bold" font-style="italic" font-size="10.00"> domain:reliability</text>
<text text-anchor="start" x="103.25" y="-972.41" font-family="Helvetica,Arial,sans-serif" font-size="10.00"> </text>
</g>
<!-- OnBoardTelematics -->
<g id="node14" class="node">
<title>OnBoardTelematics</title>
<polygon fill="#ffb90f" stroke="black" points="491.16,-1121.93 491.16,-1161.93 600.91,-1161.93 600.91,-1121.93 491.16,-1121.93"/>
<text text-anchor="start" x="499.16" y="-1149.43" font-family="Helvetica,Arial,sans-serif" font-weight="bold" font-size="10.00">OnBoardTelematics</text>
<polyline fill="none" stroke="black" points="491.16,-1141.93 600.91,-1141.93"/>
<text text-anchor="start" x="502.16" y="-1129.43" font-family="Helvetica,Arial,sans-serif" font-weight="bold" font-style="italic" font-size="10.00"> domain:reliability</text>
<text text-anchor="start" x="586.91" y="-1129.43" font-family="Helvetica,Arial,sans-serif" font-size="10.00"> </text>
</g>
<!-- LoadSpectrumAnalysis&#45;&gt;OnBoardTelematics -->
<g id="edge42" class="edge">
<title>LoadSpectrumAnalysis&#45;&gt;OnBoardTelematics</title>
<path fill="none" stroke="black" stroke-width="0.3" stroke-dasharray="5,2" d="M125.11,-986C255.98,-986 546.04,-986 546.04,-986 546.04,-986 546.04,-1118.09 546.04,-1118.09"/>
<polygon fill="black" stroke="black" stroke-width="0.3" points="544.99,-1118.09 546.04,-1121.09 547.09,-1118.09 544.99,-1118.09"/>
</g>
<!-- LoadSpectrumChannel -->
<g id="node11" class="node">
<title>LoadSpectrumChannel</title>
<polygon fill="#ffb90f" stroke="black" points="616.9,-447.02 616.9,-545.02 742.4,-545.02 742.4,-447.02 616.9,-447.02"/>
<text text-anchor="start" x="624.9" y="-532.52" font-family="Helvetica,Arial,sans-serif" font-weight="bold" font-size="10.00">LoadSpectrumChannel</text>
<polyline fill="none" stroke="black" points="616.9,-525.02 742.4,-525.02"/>
<text text-anchor="start" x="632.77" y="-512.52" font-family="Helvetica,Arial,sans-serif" font-weight="bold" font-style="italic" font-size="10.00"> domain:reliability</text>
<text text-anchor="start" x="717.52" y="-512.52" font-family="Helvetica,Arial,sans-serif" font-size="10.00"> </text>
<text text-anchor="start" x="632.77" y="-502.52" font-family="Helvetica,Arial,sans-serif" font-size="10.00">lowerLimit:float</text>
<text text-anchor="start" x="632.77" y="-492.52" font-family="Helvetica,Arial,sans-serif" font-size="10.00">name:string</text>
<text text-anchor="start" x="632.77" y="-482.52" font-family="Helvetica,Arial,sans-serif" font-size="10.00">numberOfBins:integer</text>
<text text-anchor="start" x="632.77" y="-472.52" font-family="Helvetica,Arial,sans-serif" font-size="10.00">type:string</text>
<text text-anchor="start" x="632.77" y="-462.52" font-family="Helvetica,Arial,sans-serif" font-size="10.00">unit:string</text>
<text text-anchor="start" x="632.77" y="-452.52" font-family="Helvetica,Arial,sans-serif" font-size="10.00">upperLimit:float</text>
</g>
<!-- LoadSpectrumChannel&#45;&gt;AnalysisResult -->
<g id="edge38" class="edge">
<title>LoadSpectrumChannel&#45;&gt;AnalysisResult</title>
<path fill="none" stroke="black" stroke-width="0.3" stroke-dasharray="5,2" d="M742.48,-467C742.48,-467 1069.22,-467 1069.22,-467"/>
<polygon fill="black" stroke="black" stroke-width="0.3" points="1069.22,-468.05 1072.22,-467 1069.22,-465.95 1069.22,-468.05"/>
</g>
<!-- LoadSpectrumClass -->
<g id="node12" class="node">
<title>LoadSpectrumClass</title>
<polygon fill="#ffb90f" stroke="black" points="2190.88,-583.88 2190.88,-623.88 2301.38,-623.88 2301.38,-583.88 2190.88,-583.88"/>
<text text-anchor="start" x="2198.88" y="-611.38" font-family="Helvetica,Arial,sans-serif" font-weight="bold" font-size="10.00">LoadSpectrumClass</text>
<polyline fill="none" stroke="black" points="2190.88,-603.88 2301.38,-603.88"/>
<text text-anchor="start" x="2202.26" y="-591.38" font-family="Helvetica,Arial,sans-serif" font-weight="bold" font-style="italic" font-size="10.00"> domain:reliability</text>
<text text-anchor="start" x="2287.01" y="-591.38" font-family="Helvetica,Arial,sans-serif" font-size="10.00"> </text>
</g>
<!-- LoadSpectrumClass&#45;&gt;AnalysisResult -->
<g id="edge39" class="edge">
<title>LoadSpectrumClass&#45;&gt;AnalysisResult</title>
<path fill="none" stroke="black" stroke-width="0.3" stroke-dasharray="5,2" d="M2190.72,-594C1970.13,-594 1166.25,-594 1166.25,-594 1166.25,-594 1166.25,-498.73 1166.25,-498.73"/>
<polygon fill="black" stroke="black" stroke-width="0.3" points="1167.3,-498.73 1166.25,-495.73 1165.2,-498.73 1167.3,-498.73"/>
</g>
<!-- LoadSpectrumValues -->
<g id="node13" class="node">
<title>LoadSpectrumValues</title>
<polygon fill="#ffb90f" stroke="black" points="782.76,-0.5 782.76,-78.5 900.76,-78.5 900.76,-0.5 782.76,-0.5"/>
<text text-anchor="start" x="790.76" y="-66" font-family="Helvetica,Arial,sans-serif" font-weight="bold" font-size="10.00">LoadSpectrumValues</text>
<polyline fill="none" stroke="black" points="782.76,-58.5 900.76,-58.5"/>
<text text-anchor="start" x="793.76" y="-46" font-family="Helvetica,Arial,sans-serif" font-weight="bold" font-style="italic" font-size="10.00"> domain:reliability</text>
<text text-anchor="start" x="878.51" y="-46" font-family="Helvetica,Arial,sans-serif" font-size="10.00"> </text>
<text text-anchor="start" x="793.76" y="-36" font-family="Helvetica,Arial,sans-serif" font-size="10.00">countingValue:string</text>
<text text-anchor="start" x="793.76" y="-26" font-family="Helvetica,Arial,sans-serif" font-size="10.00">countingMethod:string</text>
<text text-anchor="start" x="793.76" y="-16" font-family="Helvetica,Arial,sans-serif" font-size="10.00">countingUnit:string</text>
<text text-anchor="start" x="793.76" y="-6" font-family="Helvetica,Arial,sans-serif" font-size="10.00">index:string</text>
</g>
<!-- LoadSpectrumValues&#45;&gt;AnalysisResult -->
<g id="edge40" class="edge">
<title>LoadSpectrumValues&#45;&gt;AnalysisResult</title>
<path fill="none" stroke="black" stroke-width="0.3" stroke-dasharray="5,2" d="M901.09,-75C984.08,-75 1124.79,-75 1124.79,-75 1124.79,-75 1124.79,-450.95 1124.79,-450.95"/>
<polygon fill="black" stroke="black" stroke-width="0.3" points="1123.74,-450.95 1124.79,-453.95 1125.84,-450.95 1123.74,-450.95"/>
</g>
<!-- OnBoardTelematics&#45;&gt;Analysis -->
<g id="edge43" class="edge">
<title>OnBoardTelematics&#45;&gt;Analysis</title>
<path fill="none" stroke="black" stroke-width="0.3" stroke-dasharray="5,2" d="M601.32,-1149C601.32,-1149 1013.14,-1149 1013.14,-1149"/>
<polygon fill="black" stroke="black" stroke-width="0.3" points="1013.14,-1150.05 1016.14,-1149 1013.14,-1147.95 1013.14,-1150.05"/>
</g>
<!-- TelematicsResult -->
<g id="node15" class="node">
<title>TelematicsResult</title>
<polygon fill="#ffb90f" stroke="black" points="34.78,-558.97 34.78,-598.97 138.53,-598.97 138.53,-558.97 34.78,-558.97"/>
<text text-anchor="start" x="46.15" y="-586.47" font-family="Helvetica,Arial,sans-serif" font-weight="bold" font-size="10.00">TelematicsResult</text>
<polyline fill="none" stroke="black" points="34.78,-578.97 138.53,-578.97"/>
<text text-anchor="start" x="42.78" y="-566.47" font-family="Helvetica,Arial,sans-serif" font-weight="bold" font-style="italic" font-size="10.00"> domain:reliability</text>
<text text-anchor="start" x="127.53" y="-566.47" font-family="Helvetica,Arial,sans-serif" font-size="10.00"> </text>
</g>
<!-- TelematicsResult&#45;&gt;AnalysisResult -->
<g id="edge41" class="edge">
<title>TelematicsResult&#45;&gt;AnalysisResult</title>
<path fill="none" stroke="black" stroke-width="0.3" stroke-dasharray="5,2" d="M138.77,-570C347.13,-570 1109.17,-570 1109.17,-570 1109.17,-570 1109.17,-498.42 1109.17,-498.42"/>
<polygon fill="black" stroke="black" stroke-width="0.3" points="1110.22,-498.42 1109.17,-495.42 1108.12,-498.42 1110.22,-498.42"/>
</g>
<!-- Part -->
<g id="node16" class="node">
<title>Part</title>
<polygon fill="#ffb90f" stroke="black" points="79.18,-1910.11 79.18,-1950.11 172.43,-1950.11 172.43,-1910.11 79.18,-1910.11"/>
<text text-anchor="start" x="116.06" y="-1937.61" font-family="Helvetica,Arial,sans-serif" font-weight="bold" font-size="10.00">Part</text>
<polyline fill="none" stroke="black" points="79.18,-1930.11 172.43,-1930.11"/>
<text text-anchor="start" x="87.18" y="-1917.61" font-family="Helvetica,Arial,sans-serif" font-weight="bold" font-style="italic" font-size="10.00"> domain:vehicle</text>
<text text-anchor="start" x="161.43" y="-1917.61" font-family="Helvetica,Arial,sans-serif" font-size="10.00"> </text>
</g>
<!-- Part&#45;&gt;PhysicalObject -->
<g id="edge44" class="edge">
<title>Part&#45;&gt;PhysicalObject</title>
<path fill="none" stroke="black" stroke-width="0.3" stroke-dasharray="5,2" d="M155.48,-1909.89C155.48,-1783.9 155.48,-1112 155.48,-1112 155.48,-1112 818.24,-1112 818.24,-1112"/>
<polygon fill="black" stroke="black" stroke-width="0.3" points="818.24,-1113.05 821.24,-1112 818.24,-1110.95 818.24,-1113.05"/>
</g>
<!-- Vehicle -->
<g id="node17" class="node">
<title>Vehicle</title>
<polygon fill="#ffb90f" stroke="black" points="26.66,-1381.92 26.66,-1421.92 119.91,-1421.92 119.91,-1381.92 26.66,-1381.92"/>
<text text-anchor="start" x="55.28" y="-1409.42" font-family="Helvetica,Arial,sans-serif" font-weight="bold" font-size="10.00">Vehicle</text>
<polyline fill="none" stroke="black" points="26.66,-1401.92 119.91,-1401.92"/>
<text text-anchor="start" x="34.66" y="-1389.42" font-family="Helvetica,Arial,sans-serif" font-weight="bold" font-style="italic" font-size="10.00"> domain:vehicle</text>
<text text-anchor="start" x="108.91" y="-1389.42" font-family="Helvetica,Arial,sans-serif" font-size="10.00"> </text>
</g>
<!-- Vehicle&#45;&gt;PhysicalObject -->
<g id="edge45" class="edge">
<title>Vehicle&#45;&gt;PhysicalObject</title>
<path fill="none" stroke="black" stroke-width="0.3" stroke-dasharray="5,2" d="M120.16,-1386C290.3,-1386 865.29,-1386 865.29,-1386 865.29,-1386 865.29,-1139.74 865.29,-1139.74"/>
<polygon fill="black" stroke="black" stroke-width="0.3" points="866.34,-1139.74 865.29,-1136.74 864.24,-1139.74 866.34,-1139.74"/>
</g>
<!-- describesPhysicalObject&#45;&gt;PhysicalObject -->
<g id="edge2" class="edge">
<title>describesPhysicalObject&#45;&gt;PhysicalObject</title>
<path fill="none" stroke="black" stroke-width="0.3" d="M733.52,-845.01C733.52,-901.24 733.52,-1104 733.52,-1104 733.52,-1104 818.33,-1104 818.33,-1104"/>
<polygon fill="black" stroke="black" stroke-width="0.3" points="818.33,-1105.05 821.33,-1104 818.33,-1102.95 818.33,-1105.05"/>
</g>
<!-- hasParticipant&#45;&gt;Actor -->
<g id="edge4" class="edge">
<title>hasParticipant&#45;&gt;Actor</title>
<path fill="none" stroke="black" stroke-width="0.3" d="M1272.44,-1953C1272.44,-1953 1555.67,-1953 1555.67,-1953"/>
<polygon fill="black" stroke="black" stroke-width="0.3" points="1555.67,-1954.05 1558.67,-1953 1555.67,-1951.95 1555.67,-1954.05"/>
</g>
<!-- hosts&#45;&gt;Activity -->
<g id="edge6" class="edge">
<title>hosts&#45;&gt;Activity</title>
<path fill="none" stroke="black" stroke-width="0.3" d="M1621.95,-1399C1548.89,-1399 1458.1,-1399 1458.1,-1399 1458.1,-1399 1458.1,-1243.8 1458.1,-1243.8"/>
<polygon fill="black" stroke="black" stroke-width="0.3" points="1459.15,-1243.8 1458.1,-1240.8 1457.05,-1243.8 1459.15,-1243.8"/>
</g>
<!-- involvedIn&#45;&gt;Activity -->
<g id="edge8" class="edge">
<title>involvedIn&#45;&gt;Activity</title>
<path fill="none" stroke="black" stroke-width="0.3" d="M1235.93,-967.89C1235.93,-967.89 1235.93,-1178.07 1235.93,-1178.07"/>
<polygon fill="black" stroke="black" stroke-width="0.3" points="1234.88,-1178.07 1235.93,-1181.07 1236.98,-1178.07 1234.88,-1178.07"/>
</g>
<!-- involvedIn&#45;&gt;Activity -->
<g id="edge10" class="edge">
<title>involvedIn&#45;&gt;Activity</title>
<path fill="none" stroke="black" stroke-width="0.3" d="M1289.05,-967.89C1289.05,-967.89 1289.05,-1178.07 1289.05,-1178.07"/>
<polygon fill="black" stroke="black" stroke-width="0.3" points="1288,-1178.07 1289.05,-1181.07 1290.1,-1178.07 1288,-1178.07"/>
</g>
<!-- participatesIn&#45;&gt;Activity -->
<g id="edge12" class="edge">
<title>participatesIn&#45;&gt;Activity</title>
<path fill="none" stroke="black" stroke-width="0.3" d="M1338.5,-1498.07C1338.5,-1498.07 1338.5,-1243.52 1338.5,-1243.52"/>
<polygon fill="black" stroke="black" stroke-width="0.3" points="1339.55,-1243.52 1338.5,-1240.52 1337.45,-1243.52 1339.55,-1243.52"/>
</g>
<!-- refersToConceptualObject&#45;&gt;ConceptualObject -->
<g id="edge14" class="edge">
<title>refersToConceptualObject&#45;&gt;ConceptualObject</title>
<path fill="none" stroke="black" stroke-width="0.3" d="M1573.51,-789C1480.46,-789 1370.7,-789 1370.7,-789 1370.7,-789 1370.7,-762.62 1370.7,-762.62"/>
<polygon fill="black" stroke="black" stroke-width="0.3" points="1371.75,-762.62 1370.7,-759.62 1369.65,-762.63 1371.75,-762.62"/>
</g>
<!-- refersToPhysicalObject&#45;&gt;ConceptualObject -->
<g id="edge16" class="edge">
<title>refersToPhysicalObject&#45;&gt;ConceptualObject</title>
<path fill="none" stroke="black" stroke-width="0.3" d="M1452.89,-1063C1402.8,-1063 1356.43,-1063 1356.43,-1063 1356.43,-1063 1356.43,-762.46 1356.43,-762.46"/>
<polygon fill="black" stroke="black" stroke-width="0.3" points="1357.48,-762.46 1356.43,-759.46 1355.38,-762.46 1357.48,-762.46"/>
</g>
<!-- relatedToPlace&#45;&gt;Place -->
<g id="edge18" class="edge">
<title>relatedToPlace&#45;&gt;Place</title>
<path fill="none" stroke="black" stroke-width="0.3" d="M2261.16,-1906.92C2261.16,-1906.92 2261.16,-1369.58 2261.16,-1369.58"/>
<polygon fill="black" stroke="black" stroke-width="0.3" points="2262.21,-1369.58 2261.16,-1366.58 2260.11,-1369.58 2262.21,-1369.58"/>
</g>
<!-- takesPlaceAt&#45;&gt;Place -->
<g id="edge20" class="edge">
<title>takesPlaceAt&#45;&gt;Place</title>
<path fill="none" stroke="black" stroke-width="0.3" d="M2194.08,-989C2227.61,-989 2256.32,-989 2256.32,-989 2256.32,-989 2256.32,-1322.01 2256.32,-1322.01"/>
<polygon fill="black" stroke="black" stroke-width="0.3" points="2255.27,-1322.01 2256.32,-1325.01 2257.37,-1322.01 2255.27,-1322.01"/>
</g>
<!-- analysedObject&#45;&gt;PhysicalObject -->
<g id="edge22" class="edge">
<title>analysedObject&#45;&gt;PhysicalObject</title>
<path fill="none" stroke="black" stroke-width="0.3" d="M981.41,-1459.86C981.41,-1405.47 981.41,-1127 981.41,-1127 981.41,-1127 912.31,-1127 912.31,-1127"/>
<polygon fill="black" stroke="black" stroke-width="0.3" points="912.31,-1125.95 909.31,-1127 912.31,-1128.05 912.31,-1125.95"/>
</g>
<!-- analysedPart&#45;&gt;Part -->
<g id="edge24" class="edge">
<title>analysedPart&#45;&gt;Part</title>
<path fill="none" stroke="black" stroke-width="0.3" d="M716.98,-1944.62C716.98,-1937.93 716.98,-1930 716.98,-1930 716.98,-1930 176.15,-1930 176.15,-1930"/>
<polygon fill="black" stroke="black" stroke-width="0.3" points="176.15,-1928.95 173.15,-1930 176.15,-1931.05 176.15,-1928.95"/>
</g>
<!-- analysedVehicle&#45;&gt;Vehicle -->
<g id="edge26" class="edge">
<title>analysedVehicle&#45;&gt;Vehicle</title>
<path fill="none" stroke="black" stroke-width="0.3" d="M600.52,-1481C477.86,-1481 99.55,-1481 99.55,-1481 99.55,-1481 99.55,-1425.74 99.55,-1425.74"/>
<polygon fill="black" stroke="black" stroke-width="0.3" points="100.6,-1425.74 99.55,-1422.74 98.5,-1425.74 100.6,-1425.74"/>
</g>
<!-- channel&#45;&gt;LoadSpectrumChannel -->
<g id="edge28" class="edge">
<title>channel&#45;&gt;LoadSpectrumChannel</title>
<path fill="none" stroke="black" stroke-width="0.3" d="M175.01,-75C175.01,-136.75 175.01,-496 175.01,-496 175.01,-496 613.05,-496 613.05,-496"/>
<polygon fill="black" stroke="black" stroke-width="0.3" points="613.05,-497.05 616.05,-496 613.05,-494.95 613.05,-497.05"/>
</g>
<!-- class&#45;&gt;LoadSpectrumClass -->
<g id="edge30" class="edge">
<title>class&#45;&gt;LoadSpectrumClass</title>
<path fill="none" stroke="black" stroke-width="0.3" d="M2119.61,-71.59C2119.61,-141.37 2119.61,-588 2119.61,-588 2119.61,-588 2187.18,-588 2187.18,-588"/>
<polygon fill="black" stroke="black" stroke-width="0.3" points="2187.18,-589.05 2190.18,-588 2187.18,-586.95 2187.18,-589.05"/>
</g>
<!-- result&#45;&gt;AnalysisResult -->
<g id="edge32" class="edge">
<title>result&#45;&gt;AnalysisResult</title>
<path fill="none" stroke="black" stroke-width="0.3" d="M979.44,-797.75C979.44,-745.13 979.44,-481 979.44,-481 979.44,-481 1069.27,-481 1069.27,-481"/>
<polygon fill="black" stroke="black" stroke-width="0.3" points="1069.27,-482.05 1072.27,-481 1069.27,-479.95 1069.27,-482.05"/>
</g>
<!-- hasValues&#45;&gt;LoadSpectrumValues -->
<g id="edge34" class="edge">
<title>hasValues&#45;&gt;LoadSpectrumValues</title>
<path fill="none" stroke="black" stroke-width="0.3" d="M1386.41,-31C1386.41,-31 904.27,-31 904.27,-31"/>
<polygon fill="black" stroke="black" stroke-width="0.3" points="904.27,-29.95 901.27,-31 904.26,-32.05 904.27,-29.95"/>
</g>
</g>
</svg>
