<?xml version="1.0" encoding="UTF-8" standalone="no"?>
<!DOCTYPE svg PUBLIC "-//W3C//DTD SVG 1.1//EN"
 "http://www.w3.org/Graphics/SVG/1.1/DTD/svg11.dtd">
<!-- Generated by graphviz version 9.0.0 (20230911.1827)
 -->
<!-- Title: supply&#45;chain_ontology Pages: 1 -->
<svg width="273pt" height="333pt"
 viewBox="0.00 0.00 273.49 332.88" xmlns="http://www.w3.org/2000/svg" xmlns:xlink="http://www.w3.org/1999/xlink">
<g id="graph0" class="graph" transform="scale(1 1) rotate(0) translate(4 328.88)">
<title>supply&#45;chain_ontology</title>
<polygon fill="white" stroke="none" points="-4,4 -4,-328.88 269.49,-328.88 269.49,4 -4,4"/>
<!-- supplier -->
<g id="node1" class="node">
<title>supplier</title>
<polygon fill="#bcee68" stroke="none" points="152.17,-241.98 107.67,-241.98 107.67,-223.48 152.17,-223.48 152.17,-241.98"/>
<text text-anchor="middle" x="129.92" y="-230.38" font-family="Helvetica,Arial,sans-serif" font-size="8.00">supplier</text>
</g>
<!-- BusinessPartner -->
<g id="node5" class="node">
<title>BusinessPartner</title>
<polygon fill="none" stroke="black" points="137.26,-288.38 137.26,-324.38 225.26,-324.38 225.26,-288.38 137.26,-288.38"/>
<text text-anchor="middle" x="181.26" y="-302.88" font-family="Helvetica,Arial,sans-serif" font-size="10.00">BusinessPartner</text>
</g>
<!-- supplier&#45;&gt;BusinessPartner -->
<g id="edge2" class="edge">
<title>supplier&#45;&gt;BusinessPartner</title>
<path fill="none" stroke="black" stroke-width="0.3" d="M144.72,-241.76C144.72,-241.76 144.72,-284.49 144.72,-284.49"/>
<polygon fill="black" stroke="black" stroke-width="0.3" points="143.67,-284.49 144.72,-287.49 145.77,-284.49 143.67,-284.49"/>
</g>
<!-- Site -->
<g id="node6" class="node">
<title>Site</title>
<polygon fill="none" stroke="black" points="67.86,-260.39 67.86,-296.39 121.86,-296.39 121.86,-260.39 67.86,-260.39"/>
<text text-anchor="middle" x="94.49" y="-274.89" font-family="Helvetica,Arial,sans-serif" font-size="10.00">Site</text>
</g>
<!-- supplier&#45;&gt;Site -->
<g id="edge4" class="edge">
<title>supplier&#45;&gt;Site</title>
<path fill="none" stroke="black" stroke-width="0.3" d="M114.77,-241.97C114.77,-241.97 114.77,-256.65 114.77,-256.65"/>
<polygon fill="black" stroke="black" stroke-width="0.3" points="113.72,-256.65 114.77,-259.65 115.82,-256.65 113.72,-256.65"/>
</g>
<!-- Address -->
<g id="node7" class="node">
<title>Address</title>
<polygon fill="none" stroke="black" points="211.49,-216.55 211.49,-252.55 265.49,-252.55 265.49,-216.55 211.49,-216.55"/>
<text text-anchor="middle" x="238.49" y="-231.05" font-family="Helvetica,Arial,sans-serif" font-size="10.00">Address</text>
</g>
<!-- supplier&#45;&gt;Address -->
<g id="edge6" class="edge">
<title>supplier&#45;&gt;Address</title>
<path fill="none" stroke="black" stroke-width="0.3" d="M152.15,-236C152.15,-236 207.83,-236 207.83,-236"/>
<polygon fill="black" stroke="black" stroke-width="0.3" points="207.83,-237.05 210.83,-236 207.83,-234.95 207.83,-237.05"/>
</g>
<!-- recipient -->
<g id="node2" class="node">
<title>recipient</title>
<polygon fill="#bcee68" stroke="none" points="207.19,-231.3 160.44,-231.3 160.44,-212.8 207.19,-212.8 207.19,-231.3"/>
<text text-anchor="middle" x="183.81" y="-219.7" font-family="Helvetica,Arial,sans-serif" font-size="8.00">recipient</text>
</g>
<!-- recipient&#45;&gt;BusinessPartner -->
<g id="edge8" class="edge">
<title>recipient&#45;&gt;BusinessPartner</title>
<path fill="none" stroke="black" stroke-width="0.3" d="M183.81,-231.08C183.81,-231.08 183.81,-284.51 183.81,-284.51"/>
<polygon fill="black" stroke="black" stroke-width="0.3" points="182.76,-284.51 183.81,-287.51 184.86,-284.51 182.76,-284.51"/>
</g>
<!-- recipient&#45;&gt;Site -->
<g id="edge10" class="edge">
<title>recipient&#45;&gt;Site</title>
<path fill="none" stroke="black" stroke-width="0.3" d="M160.69,-218C135.14,-218 97.54,-218 97.54,-218 97.54,-218 97.54,-256.49 97.54,-256.49"/>
<polygon fill="black" stroke="black" stroke-width="0.3" points="96.49,-256.49 97.54,-259.49 98.59,-256.49 96.49,-256.49"/>
</g>
<!-- recipient&#45;&gt;Address -->
<g id="edge12" class="edge">
<title>recipient&#45;&gt;Address</title>
<path fill="none" stroke="black" stroke-width="0.3" d="M207,-223C207,-223 207.77,-223 207.77,-223"/>
<polygon fill="black" stroke="black" stroke-width="0.3" points="207.77,-224.05 210.77,-223 207.77,-221.95 207.77,-224.05"/>
</g>
<!-- good -->
<g id="node3" class="node">
<title>good</title>
<polygon fill="#bcee68" stroke="none" points="135.83,-92.84 101.83,-92.84 101.83,-74.34 135.83,-74.34 135.83,-92.84"/>
<text text-anchor="middle" x="118.83" y="-81.24" font-family="Helvetica,Arial,sans-serif" font-size="8.00">good</text>
</g>
<!-- PhysicalObject -->
<g id="node8" class="node">
<title>PhysicalObject</title>
<polygon fill="none" stroke="black" points="123.82,-0.5 123.82,-36.5 205.82,-36.5 205.82,-0.5 123.82,-0.5"/>
<text text-anchor="middle" x="164.82" y="-15" font-family="Helvetica,Arial,sans-serif" font-size="10.00">PhysicalObject</text>
</g>
<!-- good&#45;&gt;PhysicalObject -->
<g id="edge14" class="edge">
<title>good&#45;&gt;PhysicalObject</title>
<path fill="none" stroke="black" stroke-width="0.3" d="M129.83,-74.54C129.83,-74.54 129.83,-40.29 129.83,-40.29"/>
<polygon fill="black" stroke="black" stroke-width="0.3" points="130.88,-40.29 129.83,-37.29 128.78,-40.29 130.88,-40.29"/>
</g>
<!-- ConceptualObject -->
<g id="node9" class="node">
<title>ConceptualObject</title>
<polygon fill="none" stroke="black" points="0,-32.12 0,-68.12 93.25,-68.12 93.25,-32.12 0,-32.12"/>
<text text-anchor="middle" x="46.62" y="-46.62" font-family="Helvetica,Arial,sans-serif" font-size="10.00">ConceptualObject</text>
</g>
<!-- good&#45;&gt;ConceptualObject -->
<g id="edge16" class="edge">
<title>good&#45;&gt;ConceptualObject</title>
<path fill="none" stroke="black" stroke-width="0.3" d="M101.93,-83C91.68,-83 80.56,-83 80.56,-83 80.56,-83 80.56,-71.93 80.56,-71.93"/>
<polygon fill="black" stroke="black" stroke-width="0.3" points="81.61,-71.93 80.56,-68.93 79.51,-71.93 81.61,-71.93"/>
</g>
<!-- SupplyChain -->
<g id="node4" class="node">
<title>SupplyChain</title>
<polygon fill="none" stroke="black" points="103.79,-141.54 103.79,-177.54 174.54,-177.54 174.54,-141.54 103.79,-141.54"/>
<text text-anchor="middle" x="139.16" y="-156.04" font-family="Helvetica,Arial,sans-serif" font-size="10.00">SupplyChain</text>
</g>
<!-- SupplyChain&#45;&gt;supplier -->
<g id="edge1" class="edge">
<title>SupplyChain&#45;&gt;supplier</title>
<path fill="none" stroke="black" stroke-width="0.3" d="M129.92,-178.01C129.92,-192.58 129.92,-212.27 129.92,-223.62"/>
</g>
<!-- SupplyChain&#45;&gt;supplier -->
<g id="edge3" class="edge">
<title>SupplyChain&#45;&gt;supplier</title>
<path fill="none" stroke="black" stroke-width="0.3" d="M141.05,-178.01C141.05,-192.58 141.05,-212.27 141.05,-223.62"/>
</g>
<!-- SupplyChain&#45;&gt;supplier -->
<g id="edge5" class="edge">
<title>SupplyChain&#45;&gt;supplier</title>
<path fill="none" stroke="black" stroke-width="0.3" d="M118.8,-178.01C118.8,-192.58 118.8,-212.27 118.8,-223.62"/>
</g>
<!-- SupplyChain&#45;&gt;recipient -->
<g id="edge7" class="edge">
<title>SupplyChain&#45;&gt;recipient</title>
<path fill="none" stroke="black" stroke-width="0.3" d="M163.96,-177.96C163.96,-189.48 163.96,-203.83 163.96,-212.96"/>
</g>
<!-- SupplyChain&#45;&gt;recipient -->
<g id="edge9" class="edge">
<title>SupplyChain&#45;&gt;recipient</title>
<path fill="none" stroke="black" stroke-width="0.3" d="M171.01,-177.96C171.01,-189.48 171.01,-203.83 171.01,-212.96"/>
</g>
<!-- SupplyChain&#45;&gt;recipient -->
<g id="edge11" class="edge">
<title>SupplyChain&#45;&gt;recipient</title>
<path fill="none" stroke="black" stroke-width="0.3" d="M167.49,-177.96C167.49,-189.48 167.49,-203.83 167.49,-212.96"/>
</g>
<!-- SupplyChain&#45;&gt;good -->
<g id="edge13" class="edge">
<title>SupplyChain&#45;&gt;good</title>
<path fill="none" stroke="black" stroke-width="0.3" d="M125.15,-141.16C125.15,-125.88 125.15,-104.78 125.15,-92.83"/>
</g>
<!-- SupplyChain&#45;&gt;good -->
<g id="edge15" class="edge">
<title>SupplyChain&#45;&gt;good</title>
<path fill="none" stroke="black" stroke-width="0.3" d="M114.47,-141.16C114.47,-125.88 114.47,-104.78 114.47,-92.83"/>
</g>
</g>
</svg>
