<?xml version="1.0" encoding="UTF-8" standalone="no"?>
<!DOCTYPE svg PUBLIC "-//W3C//DTD SVG 1.1//EN"
 "http://www.w3.org/Graphics/SVG/1.1/DTD/svg11.dtd">
<!-- Generated by graphviz version 9.0.0 (20230911.1827)
 -->
<!-- Title: supply&#45;chain_ontology Pages: 1 -->
<svg width="304pt" height="329pt"
 viewBox="0.00 0.00 303.50 329.06" xmlns="http://www.w3.org/2000/svg" xmlns:xlink="http://www.w3.org/1999/xlink">
<g id="graph0" class="graph" transform="scale(1 1) rotate(0) translate(4 325.06)">
<title>supply&#45;chain_ontology</title>
<polygon fill="white" stroke="none" points="-4,4 -4,-325.06 299.5,-325.06 299.5,4 -4,4"/>
<!-- ConceptualObject -->
<g id="node1" class="node">
<title>ConceptualObject</title>
<polygon fill="#ffb90f" stroke="black" points="0,-105.72 0,-145.72 100.75,-145.72 100.75,-105.72 0,-105.72"/>
<text text-anchor="start" x="8" y="-133.22" font-family="Helvetica,Arial,sans-serif" font-weight="bold" font-size="10.00">ConceptualObject</text>
<polyline fill="none" stroke="black" points="0,-125.72 100.75,-125.72"/>
<text text-anchor="start" x="18.12" y="-113.22" font-family="Helvetica,Arial,sans-serif" font-weight="bold" font-style="italic" font-size="10.00"> domain:core</text>
<text text-anchor="start" x="79.62" y="-113.22" font-family="Helvetica,Arial,sans-serif" font-size="10.00"> </text>
</g>
<!-- PhysicalObject -->
<g id="node2" class="node">
<title>PhysicalObject</title>
<polygon fill="#ffb90f" stroke="black" points="135.89,-0.5 135.89,-40.5 222.39,-40.5 222.39,-0.5 135.89,-0.5"/>
<text text-anchor="start" x="143.89" y="-28" font-family="Helvetica,Arial,sans-serif" font-weight="bold" font-size="10.00">PhysicalObject</text>
<polyline fill="none" stroke="black" points="135.89,-20.5 222.39,-20.5"/>
<text text-anchor="start" x="146.89" y="-8" font-family="Helvetica,Arial,sans-serif" font-weight="bold" font-style="italic" font-size="10.00"> domain:core</text>
<text text-anchor="start" x="208.39" y="-8" font-family="Helvetica,Arial,sans-serif" font-size="10.00"> </text>
</g>
<!-- BusinessPartner -->
<g id="node3" class="node">
<title>BusinessPartner</title>
<polygon fill="#ffb90f" stroke="black" points="194,-280.56 194,-320.56 295.5,-320.56 295.5,-280.56 194,-280.56"/>
<text text-anchor="start" x="206.5" y="-308.06" font-family="Helvetica,Arial,sans-serif" font-weight="bold" font-size="10.00">BusinessPartner</text>
<polyline fill="none" stroke="black" points="194,-300.56 295.5,-300.56"/>
<text text-anchor="start" x="202" y="-288.06" font-family="Helvetica,Arial,sans-serif" font-weight="bold" font-style="italic" font-size="10.00"> domain:common</text>
<text text-anchor="start" x="284.5" y="-288.06" font-family="Helvetica,Arial,sans-serif" font-size="10.00"> </text>
</g>
<!-- SupplyChain -->
<g id="node4" class="node">
<title>SupplyChain</title>
<polygon fill="#ffb90f" stroke="black" points="99.13,-170.13 99.13,-228.13 218.63,-228.13 218.63,-170.13 99.13,-170.13"/>
<text text-anchor="start" x="128.51" y="-215.63" font-family="Helvetica,Arial,sans-serif" font-weight="bold" font-size="10.00">SupplyChain</text>
<polyline fill="none" stroke="black" points="99.13,-208.13 218.63,-208.13"/>
<text text-anchor="start" x="107.13" y="-195.63" font-family="Helvetica,Arial,sans-serif" font-weight="bold" font-style="italic" font-size="10.00"> domain:supply&#45;chain</text>
<text text-anchor="start" x="207.63" y="-195.63" font-family="Helvetica,Arial,sans-serif" font-size="10.00"> </text>
<text text-anchor="start" x="107.13" y="-185.63" font-family="Helvetica,Arial,sans-serif" font-size="10.00">validityPeriodStart:date</text>
<text text-anchor="start" x="107.13" y="-175.63" font-family="Helvetica,Arial,sans-serif" font-size="10.00">validityPeriodEnd:date</text>
</g>
<!-- SupplyChain&#45;&gt;ConceptualObject -->
<g id="edge7" class="edge">
<title>SupplyChain&#45;&gt;ConceptualObject</title>
<path fill="none" stroke="black" stroke-width="0.3" stroke-dasharray="5,2" d="M118.32,-169.79C118.32,-150.19 118.32,-128 118.32,-128 118.32,-128 104.63,-128 104.63,-128"/>
<polygon fill="black" stroke="black" stroke-width="0.3" points="104.63,-126.95 101.63,-128 104.63,-129.05 104.63,-126.95"/>
</g>
<!-- supplier -->
<g id="node5" class="node">
<title>supplier</title>
<polygon fill="#bcee68" stroke="none" points="293.21,-182.36 248.71,-182.36 248.71,-163.86 293.21,-163.86 293.21,-182.36"/>
<text text-anchor="middle" x="270.96" y="-170.76" font-family="Helvetica,Arial,sans-serif" font-size="8.00">supplier</text>
</g>
<!-- SupplyChain&#45;&gt;supplier -->
<g id="edge1" class="edge">
<title>SupplyChain&#45;&gt;supplier</title>
<path fill="none" stroke="black" stroke-width="0.3" d="M218.86,-175C229.58,-175 240.11,-175 248.87,-175"/>
</g>
<!-- recipient -->
<g id="node6" class="node">
<title>recipient</title>
<polygon fill="#bcee68" stroke="none" points="109.54,-304.11 62.79,-304.11 62.79,-285.61 109.54,-285.61 109.54,-304.11"/>
<text text-anchor="middle" x="86.17" y="-292.51" font-family="Helvetica,Arial,sans-serif" font-size="8.00">recipient</text>
</g>
<!-- SupplyChain&#45;&gt;recipient -->
<g id="edge3" class="edge">
<title>SupplyChain&#45;&gt;recipient</title>
<path fill="none" stroke="black" stroke-width="0.3" d="M104.34,-228.37C104.34,-248.17 104.34,-273 104.34,-286"/>
</g>
<!-- good -->
<g id="node7" class="node">
<title>good</title>
<polygon fill="#bcee68" stroke="none" points="213.88,-111.63 179.88,-111.63 179.88,-93.13 213.88,-93.13 213.88,-111.63"/>
<text text-anchor="middle" x="196.88" y="-100.03" font-family="Helvetica,Arial,sans-serif" font-size="8.00">good</text>
</g>
<!-- SupplyChain&#45;&gt;good -->
<g id="edge5" class="edge">
<title>SupplyChain&#45;&gt;good</title>
<path fill="none" stroke="black" stroke-width="0.3" d="M196.88,-169.84C196.88,-149.82 196.88,-124.6 196.88,-111.39"/>
</g>
<!-- supplier&#45;&gt;BusinessPartner -->
<g id="edge2" class="edge">
<title>supplier&#45;&gt;BusinessPartner</title>
<path fill="none" stroke="black" stroke-width="0.3" d="M270.96,-182.28C270.96,-182.28 270.96,-276.99 270.96,-276.99"/>
<polygon fill="black" stroke="black" stroke-width="0.3" points="269.91,-276.99 270.96,-279.99 272.01,-276.99 269.91,-276.99"/>
</g>
<!-- recipient&#45;&gt;BusinessPartner -->
<g id="edge4" class="edge">
<title>recipient&#45;&gt;BusinessPartner</title>
<path fill="none" stroke="black" stroke-width="0.3" d="M109.23,-294C109.23,-294 190.36,-294 190.36,-294"/>
<polygon fill="black" stroke="black" stroke-width="0.3" points="190.36,-295.05 193.36,-294 190.36,-292.95 190.36,-295.05"/>
</g>
<!-- good&#45;&gt;PhysicalObject -->
<g id="edge6" class="edge">
<title>good&#45;&gt;PhysicalObject</title>
<path fill="none" stroke="black" stroke-width="0.3" d="M196.88,-93.31C196.88,-93.31 196.88,-44.3 196.88,-44.3"/>
<polygon fill="black" stroke="black" stroke-width="0.3" points="197.93,-44.3 196.88,-41.3 195.83,-44.3 197.93,-44.3"/>
</g>
</g>
</svg>
