<?xml version="1.0" encoding="UTF-8" standalone="no"?>
<!DOCTYPE svg PUBLIC "-//W3C//DTD SVG 1.1//EN"
 "http://www.w3.org/Graphics/SVG/1.1/DTD/svg11.dtd">
<!-- Generated by graphviz version 9.0.0 (20230911.1827)
 -->
<!-- Title: vehicle_ontology Pages: 1 -->
<svg width="299pt" height="257pt"
 viewBox="0.00 0.00 298.75 257.47" xmlns="http://www.w3.org/2000/svg" xmlns:xlink="http://www.w3.org/1999/xlink">
<g id="graph0" class="graph" transform="scale(1 1) rotate(0) translate(4 253.47)">
<title>vehicle_ontology</title>
<polygon fill="white" stroke="none" points="-4,4 -4,-253.47 294.75,-253.47 294.75,4 -4,4"/>
<!-- ConceptualObject -->
<g id="node1" class="node">
<title>ConceptualObject</title>
<polygon fill="#ffb90f" stroke="black" points="190,-152.5 190,-192.5 290.75,-192.5 290.75,-152.5 190,-152.5"/>
<text text-anchor="start" x="198" y="-180" font-family="Helvetica,Arial,sans-serif" font-weight="bold" font-size="10.00">ConceptualObject</text>
<polyline fill="none" stroke="black" points="190,-172.5 290.75,-172.5"/>
<text text-anchor="start" x="208.12" y="-160" font-family="Helvetica,Arial,sans-serif" font-weight="bold" font-style="italic" font-size="10.00"> domain:core</text>
<text text-anchor="start" x="269.62" y="-160" font-family="Helvetica,Arial,sans-serif" font-size="10.00"> </text>
</g>
<!-- PhysicalObject -->
<g id="node2" class="node">
<title>PhysicalObject</title>
<polygon fill="#ffb90f" stroke="black" points="0,-87.76 0,-127.76 86.5,-127.76 86.5,-87.76 0,-87.76"/>
<text text-anchor="start" x="8" y="-115.26" font-family="Helvetica,Arial,sans-serif" font-weight="bold" font-size="10.00">PhysicalObject</text>
<polyline fill="none" stroke="black" points="0,-107.76 86.5,-107.76"/>
<text text-anchor="start" x="11" y="-95.26" font-family="Helvetica,Arial,sans-serif" font-weight="bold" font-style="italic" font-size="10.00"> domain:core</text>
<text text-anchor="start" x="72.5" y="-95.26" font-family="Helvetica,Arial,sans-serif" font-size="10.00"> </text>
</g>
<!-- Part -->
<g id="node3" class="node">
<title>Part</title>
<polygon fill="#ffb90f" stroke="black" points="68.61,-145.18 68.61,-185.18 161.86,-185.18 161.86,-145.18 68.61,-145.18"/>
<text text-anchor="start" x="105.49" y="-172.68" font-family="Helvetica,Arial,sans-serif" font-weight="bold" font-size="10.00">Part</text>
<polyline fill="none" stroke="black" points="68.61,-165.18 161.86,-165.18"/>
<text text-anchor="start" x="76.61" y="-152.68" font-family="Helvetica,Arial,sans-serif" font-weight="bold" font-style="italic" font-size="10.00"> domain:vehicle</text>
<text text-anchor="start" x="150.86" y="-152.68" font-family="Helvetica,Arial,sans-serif" font-size="10.00"> </text>
</g>
<!-- Part&#45;&gt;PhysicalObject -->
<g id="edge5" class="edge">
<title>Part&#45;&gt;PhysicalObject</title>
<path fill="none" stroke="black" stroke-width="0.3" stroke-dasharray="5,2" d="M77.56,-144.77C77.56,-144.77 77.56,-131.55 77.56,-131.55"/>
<polygon fill="black" stroke="black" stroke-width="0.3" points="78.61,-131.55 77.56,-128.55 76.51,-131.55 78.61,-131.55"/>
</g>
<!-- hasSubpart -->
<g id="node6" class="node">
<title>hasSubpart</title>
<polygon fill="#bcee68" stroke="none" points="146.72,-249.47 88.72,-249.47 88.72,-230.97 146.72,-230.97 146.72,-249.47"/>
<text text-anchor="middle" x="117.72" y="-237.87" font-family="Helvetica,Arial,sans-serif" font-size="8.00">hasSubpart</text>
</g>
<!-- Part&#45;&gt;hasSubpart -->
<g id="edge3" class="edge">
<title>Part&#45;&gt;hasSubpart</title>
<path fill="none" stroke="black" stroke-width="0.3" d="M108.05,-185.29C108.05,-200.22 108.05,-219.88 108.05,-231.18"/>
</g>
<!-- Vehicle -->
<g id="node4" class="node">
<title>Vehicle</title>
<polygon fill="#ffb90f" stroke="black" points="32.95,-0.5 32.95,-68.5 192.95,-68.5 192.95,-0.5 32.95,-0.5"/>
<text text-anchor="start" x="94.95" y="-56" font-family="Helvetica,Arial,sans-serif" font-weight="bold" font-size="10.00">Vehicle</text>
<polyline fill="none" stroke="black" points="32.95,-48.5 192.95,-48.5"/>
<text text-anchor="start" x="40.95" y="-36" font-family="Helvetica,Arial,sans-serif" font-weight="bold" font-style="italic" font-size="10.00"> domain:vehicle</text>
<text text-anchor="start" x="115.2" y="-36" font-family="Helvetica,Arial,sans-serif" font-size="10.00"> </text>
<text text-anchor="start" x="40.95" y="-26" font-family="Helvetica,Arial,sans-serif" font-size="10.00">mileage:integer</text>
<text text-anchor="start" x="40.95" y="-16" font-family="Helvetica,Arial,sans-serif" font-size="10.00">operatingHours:integer</text>
<text text-anchor="start" x="40.95" y="-6" font-family="Helvetica,Arial,sans-serif" font-size="10.00">vehicleIdentificationNumber:string</text>
</g>
<!-- Vehicle&#45;&gt;PhysicalObject -->
<g id="edge6" class="edge">
<title>Vehicle&#45;&gt;PhysicalObject</title>
<path fill="none" stroke="black" stroke-width="0.3" stroke-dasharray="5,2" d="M59.72,-68.98C59.72,-68.98 59.72,-84.16 59.72,-84.16"/>
<polygon fill="black" stroke="black" stroke-width="0.3" points="58.67,-84.16 59.72,-87.16 60.77,-84.16 58.67,-84.16"/>
</g>
<!-- hasPart -->
<g id="node5" class="node">
<title>hasPart</title>
<polygon fill="#bcee68" stroke="none" points="190.42,-116.14 146.67,-116.14 146.67,-97.64 190.42,-97.64 190.42,-116.14"/>
<text text-anchor="middle" x="168.54" y="-104.54" font-family="Helvetica,Arial,sans-serif" font-size="8.00">hasPart</text>
</g>
<!-- Vehicle&#45;&gt;hasPart -->
<g id="edge1" class="edge">
<title>Vehicle&#45;&gt;hasPart</title>
<path fill="none" stroke="black" stroke-width="0.3" d="M168.54,-69C168.54,-79.63 168.54,-90.46 168.54,-97.8"/>
</g>
<!-- hasPart&#45;&gt;Part -->
<g id="edge2" class="edge">
<title>hasPart&#45;&gt;Part</title>
<path fill="none" stroke="black" stroke-width="0.3" d="M154.26,-116C154.26,-116 154.26,-141.34 154.26,-141.34"/>
<polygon fill="black" stroke="black" stroke-width="0.3" points="153.22,-141.34 154.26,-144.34 155.32,-141.34 153.22,-141.34"/>
</g>
<!-- hasSubpart&#45;&gt;Part -->
<g id="edge4" class="edge">
<title>hasSubpart&#45;&gt;Part</title>
<path fill="none" stroke="black" stroke-width="0.3" d="M127.38,-231.02C127.38,-231.02 127.38,-188.94 127.38,-188.94"/>
<polygon fill="black" stroke="black" stroke-width="0.3" points="128.43,-188.94 127.38,-185.94 126.33,-188.94 128.43,-188.94"/>
</g>
</g>
</svg>
